solid test
facet normal 9.679490915531043e-16 4.4408920985006074e-16 -1.0 
outer loop
vertex 4.829470157119431e-16 0.0 -1.6392474765307405 
vertex 0.34409548011779395 0.25000000000000017 -1.63924747653074 
vertex 0.34409548011779295 -0.24999999999999978 -1.6392474765307403 
endloop
endfacet
facet normal 5.220581765041692e-16 -1.6962698412563997e-16 -1.0 
outer loop
vertex 4.829470157119431e-16 0.0 -1.6392474765307405 
vertex 0.34409548011779295 -0.24999999999999978 -1.6392474765307403 
vertex -0.13143277802978284 -0.4045084971874729 -1.6392474765307405 
endloop
endfacet
facet normal 5.220581765041691e-16 -1.6962698412563984e-16 -1.0 
outer loop
vertex 4.829470157119431e-16 0.0 -1.6392474765307405 
vertex -0.13143277802978284 -0.4045084971874729 -1.6392474765307405 
vertex -0.42532540417601883 -2.0160335513020208e-16 -1.6392474765307408 
endloop
endfacet
facet normal 5.220581765041686e-16 7.185514355744876e-16 -1.0 
outer loop
vertex 4.829470157119431e-16 0.0 -1.6392474765307405 
vertex -0.42532540417601883 -2.0160335513020208e-16 -1.6392474765307408 
vertex -0.13143277802978284 0.4045084971874727 -1.6392474765307403 
endloop
endfacet
facet normal 7.214666558239671e-16 7.833431781013425e-16 -1.0 
outer loop
vertex 4.829470157119431e-16 0.0 -1.6392474765307405 
vertex -0.13143277802978284 0.4045084971874727 -1.6392474765307403 
vertex 0.34409548011779395 0.25000000000000017 -1.63924747653074 
endloop
endfacet
facet normal 0.7236067977499788 0.5257311121191335 -0.4472135954999584 
outer loop
vertex 0.4979796569765565 0.3618033988749897 -1.2588248700126792 
vertex 0.21266270208801058 0.6545084971874737 -1.3763819204711736 
vertex 0.4755282581475775 0.6545084971874735 -0.9510565162951543 
endloop
endfacet
facet normal 0.723606797749979 0.5257311121191333 -0.44721359549995826 
outer loop
vertex 0.4979796569765565 0.3618033988749897 -1.2588248700126792 
vertex 0.4755282581475775 0.6545084971874735 -0.9510565162951543 
vertex 0.7694208842938136 0.25000000000000033 -0.9510565162951541 
endloop
endfacet
facet normal 0.7236067977499788 0.5257311121191336 -0.447213595499958 
outer loop
vertex 0.4979796569765565 0.3618033988749897 -1.2588248700126792 
vertex 0.7694208842938136 0.25000000000000033 -0.9510565162951541 
vertex 0.6881909602355871 7.216449660063518e-16 -1.3763819204711734 
endloop
endfacet
facet normal 0.7236067977499787 0.5257311121191336 -0.4472135954999583 
outer loop
vertex 0.4979796569765565 0.3618033988749897 -1.2588248700126792 
vertex 0.6881909602355871 7.216449660063518e-16 -1.3763819204711734 
vertex 0.34409548011779395 0.25000000000000017 -1.63924747653074 
endloop
endfacet
facet normal 0.7236067977499788 0.5257311121191336 -0.44721359549995826 
outer loop
vertex 0.4979796569765565 0.3618033988749897 -1.2588248700126792 
vertex 0.34409548011779395 0.25000000000000017 -1.63924747653074 
vertex 0.21266270208801058 0.6545084971874737 -1.3763819204711736 
endloop
endfacet
facet normal -0.2763932022500208 0.8506508083520399 -0.44721359549995804 
outer loop
vertex -0.19021130325903052 0.5854101966249682 -1.258824870012679 
vertex -0.5567581822058032 0.4045084971874735 -1.3763819204711736 
vertex -0.4755282581475766 0.6545084971874736 -0.9510565162951535 
endloop
endfacet
facet normal -0.27639320225002156 0.8506508083520394 -0.4472135954999587 
outer loop
vertex -0.19021130325903052 0.5854101966249682 -1.258824870012679 
vertex -0.4755282581475766 0.6545084971874736 -0.9510565162951535 
vertex -4.996003610813204e-16 0.8090169943749472 -0.951056516295154 
endloop
endfacet
facet normal -0.27639320225002145 0.8506508083520393 -0.4472135954999586 
outer loop
vertex -0.19021130325903052 0.5854101966249682 -1.258824870012679 
vertex -4.996003610813204e-16 0.8090169943749472 -0.951056516295154 
vertex 0.21266270208801058 0.6545084971874737 -1.3763819204711736 
endloop
endfacet
facet normal -0.2763932022500217 0.850650808352039 -0.4472135954999595 
outer loop
vertex -0.19021130325903052 0.5854101966249682 -1.258824870012679 
vertex 0.21266270208801058 0.6545084971874737 -1.3763819204711736 
vertex -0.13143277802978284 0.4045084971874727 -1.6392474765307403 
endloop
endfacet
facet normal -0.27639320225002006 0.8506508083520394 -0.44721359549995954 
outer loop
vertex -0.19021130325903052 0.5854101966249682 -1.258824870012679 
vertex -0.13143277802978284 0.4045084971874727 -1.6392474765307403 
vertex -0.5567581822058032 0.4045084971874735 -1.3763819204711736 
endloop
endfacet
facet normal -0.8944271909999155 4.2347772755448287e-16 -0.4472135954999584 
outer loop
vertex -0.6155367074350504 -3.06774196936078e-16 -1.2588248700126794 
vertex -0.5567581822058034 -0.40450849718747406 -1.3763819204711736 
vertex -0.7694208842938134 -0.2500000000000001 -0.9510565162951541 
endloop
endfacet
facet normal -0.8944271909999154 -1.9860273225978193e-16 -0.4472135954999588 
outer loop
vertex -0.6155367074350504 -3.06774196936078e-16 -1.2588248700126794 
vertex -0.7694208842938134 -0.2500000000000001 -0.9510565162951541 
vertex -0.7694208842938135 0.2499999999999993 -0.9510565162951541 
endloop
endfacet
facet normal -0.8944271909999154 -8.066242429609195e-17 -0.4472135954999588 
outer loop
vertex -0.6155367074350504 -3.06774196936078e-16 -1.2588248700126794 
vertex -0.7694208842938135 0.2499999999999993 -0.9510565162951541 
vertex -0.5567581822058032 0.4045084971874735 -1.3763819204711736 
endloop
endfacet
facet normal -0.8944271909999151 -3.629809093324133e-16 -0.44721359549995954 
outer loop
vertex -0.6155367074350504 -3.06774196936078e-16 -1.2588248700126794 
vertex -0.5567581822058032 0.4045084971874735 -1.3763819204711736 
vertex -0.42532540417601883 -2.0160335513020208e-16 -1.6392474765307408 
endloop
endfacet
facet normal -0.8944271909999151 8.469554551089646e-16 -0.4472135954999596 
outer loop
vertex -0.6155367074350504 -3.06774196936078e-16 -1.2588248700126794 
vertex -0.42532540417601883 -2.0160335513020208e-16 -1.6392474765307408 
vertex -0.5567581822058034 -0.40450849718747406 -1.3763819204711736 
endloop
endfacet
facet normal -0.27639320225002195 -0.8506508083520394 -0.4472135954999582 
outer loop
vertex -0.1902113032590307 -0.5854101966249686 -1.258824870012679 
vertex 0.21266270208800953 -0.6545084971874744 -1.3763819204711731 
vertex -3.3306690738754696e-16 -0.8090169943749477 -0.9510565162951541 
endloop
endfacet
facet normal -0.2763932022500212 -0.8506508083520394 -0.44721359549995876 
outer loop
vertex -0.1902113032590307 -0.5854101966249686 -1.258824870012679 
vertex -3.3306690738754696e-16 -0.8090169943749477 -0.9510565162951541 
vertex -0.4755282581475765 -0.6545084971874742 -0.9510565162951538 
endloop
endfacet
facet normal -0.27639320225002045 -0.8506508083520399 -0.4472135954999582 
outer loop
vertex -0.1902113032590307 -0.5854101966249686 -1.258824870012679 
vertex -0.4755282581475765 -0.6545084971874742 -0.9510565162951538 
vertex -0.5567581822058034 -0.40450849718747406 -1.3763819204711736 
endloop
endfacet
facet normal -0.2763932022500197 -0.8506508083520394 -0.4472135954999599 
outer loop
vertex -0.1902113032590307 -0.5854101966249686 -1.258824870012679 
vertex -0.5567581822058034 -0.40450849718747406 -1.3763819204711736 
vertex -0.13143277802978284 -0.4045084971874729 -1.6392474765307405 
endloop
endfacet
facet normal -0.27639320225002223 -0.8506508083520384 -0.44721359549995987 
outer loop
vertex -0.1902113032590307 -0.5854101966249686 -1.258824870012679 
vertex -0.13143277802978284 -0.4045084971874729 -1.6392474765307405 
vertex 0.21266270208800953 -0.6545084971874744 -1.3763819204711731 
endloop
endfacet
facet normal 0.7236067977499784 -0.5257311121191338 -0.4472135954999587 
outer loop
vertex 0.49797965697655594 -0.3618033988749897 -1.2588248700126787 
vertex 0.7694208842938134 -0.2500000000000007 -0.9510565162951535 
vertex 0.47552825814757693 -0.6545084971874742 -0.9510565162951531 
endloop
endfacet
facet normal 0.7236067977499787 -0.5257311121191335 -0.4472135954999585 
outer loop
vertex 0.49797965697655594 -0.3618033988749897 -1.2588248700126787 
vertex 0.47552825814757693 -0.6545084971874742 -0.9510565162951531 
vertex 0.21266270208800953 -0.6545084971874744 -1.3763819204711731 
endloop
endfacet
facet normal 0.7236067977499787 -0.5257311121191334 -0.44721359549995876 
outer loop
vertex 0.49797965697655594 -0.3618033988749897 -1.2588248700126787 
vertex 0.21266270208800953 -0.6545084971874744 -1.3763819204711731 
vertex 0.34409548011779295 -0.24999999999999978 -1.6392474765307403 
endloop
endfacet
facet normal 0.7236067977499787 -0.5257311121191334 -0.4472135954999587 
outer loop
vertex 0.49797965697655594 -0.3618033988749897 -1.2588248700126787 
vertex 0.34409548011779295 -0.24999999999999978 -1.6392474765307403 
vertex 0.6881909602355871 7.216449660063518e-16 -1.3763819204711734 
endloop
endfacet
facet normal 0.7236067977499785 -0.5257311121191333 -0.44721359549995904 
outer loop
vertex 0.49797965697655594 -0.3618033988749897 -1.2588248700126787 
vertex 0.6881909602355871 7.216449660063518e-16 -1.3763819204711734 
vertex 0.7694208842938134 -0.2500000000000007 -0.9510565162951535 
endloop
endfacet
facet normal 0.27639320225002134 0.85065080835204 0.4472135954999577 
outer loop
vertex 0.19021130325903082 0.5854101966249683 -0.6432881625776283 
vertex -0.2126627020880097 0.6545084971874735 -0.5257311121191334 
vertex 0.1314327780297834 0.4045084971874736 -0.2628655560595667 
endloop
endfacet
facet normal 0.2763932022500206 0.8506508083520402 0.44721359549995776 
outer loop
vertex 0.19021130325903082 0.5854101966249683 -0.6432881625776283 
vertex 0.1314327780297834 0.4045084971874736 -0.2628655560595667 
vertex 0.5567581822058034 0.40450849718747367 -0.5257311121191334 
endloop
endfacet
facet normal 0.2763932022500208 0.8506508083520403 0.44721359549995726 
outer loop
vertex 0.19021130325903082 0.5854101966249683 -0.6432881625776283 
vertex 0.5567581822058034 0.40450849718747367 -0.5257311121191334 
vertex 0.4755282581475775 0.6545084971874735 -0.9510565162951543 
endloop
endfacet
facet normal 0.2763932022500208 0.8506508083520403 0.44721359549995726 
outer loop
vertex 0.19021130325903082 0.5854101966249683 -0.6432881625776283 
vertex 0.4755282581475775 0.6545084971874735 -0.9510565162951543 
vertex -4.996003610813204e-16 0.8090169943749472 -0.951056516295154 
endloop
endfacet
facet normal 0.27639320225002123 0.8506508083520403 0.44721359549995704 
outer loop
vertex 0.19021130325903082 0.5854101966249683 -0.6432881625776283 
vertex -4.996003610813204e-16 0.8090169943749472 -0.951056516295154 
vertex -0.2126627020880097 0.6545084971874735 -0.5257311121191334 
endloop
endfacet
facet normal -0.7236067977499788 0.525731112119134 0.4472135954999578 
outer loop
vertex -0.49797965697655594 0.3618033988749893 -0.6432881625776282 
vertex -0.6881909602355865 2.220446049250313e-16 -0.5257311121191334 
vertex -0.3440954801177933 0.24999999999999986 -0.2628655560595667 
endloop
endfacet
facet normal -0.7236067977499789 0.5257311121191338 0.44721359549995776 
outer loop
vertex -0.49797965697655594 0.3618033988749893 -0.6432881625776282 
vertex -0.3440954801177933 0.24999999999999986 -0.2628655560595667 
vertex -0.2126627020880097 0.6545084971874735 -0.5257311121191334 
endloop
endfacet
facet normal -0.7236067977499789 0.5257311121191337 0.447213595499958 
outer loop
vertex -0.49797965697655594 0.3618033988749893 -0.6432881625776282 
vertex -0.2126627020880097 0.6545084971874735 -0.5257311121191334 
vertex -0.4755282581475766 0.6545084971874736 -0.9510565162951535 
endloop
endfacet
facet normal -0.7236067977499795 0.5257311121191331 0.4472135954999576 
outer loop
vertex -0.49797965697655594 0.3618033988749893 -0.6432881625776282 
vertex -0.4755282581475766 0.6545084971874736 -0.9510565162951535 
vertex -0.7694208842938135 0.2499999999999993 -0.9510565162951541 
endloop
endfacet
facet normal -0.7236067977499794 0.5257311121191339 0.4472135954999571 
outer loop
vertex -0.49797965697655594 0.3618033988749893 -0.6432881625776282 
vertex -0.7694208842938135 0.2499999999999993 -0.9510565162951541 
vertex -0.6881909602355865 2.220446049250313e-16 -0.5257311121191334 
endloop
endfacet
facet normal -0.7236067977499795 -0.5257311121191333 0.4472135954999578 
outer loop
vertex -0.4979796569765559 -0.36180339887498963 -0.6432881625776282 
vertex -0.34409548011779323 -0.25000000000000017 -0.2628655560595667 
vertex -0.6881909602355865 2.220446049250313e-16 -0.5257311121191334 
endloop
endfacet
facet normal -0.7236067977499793 -0.5257311121191333 0.447213595499958 
outer loop
vertex -0.4979796569765559 -0.36180339887498963 -0.6432881625776282 
vertex -0.6881909602355865 2.220446049250313e-16 -0.5257311121191334 
vertex -0.7694208842938134 -0.2500000000000001 -0.9510565162951541 
endloop
endfacet
facet normal -0.7236067977499792 -0.5257311121191335 0.4472135954999578 
outer loop
vertex -0.4979796569765559 -0.36180339887498963 -0.6432881625776282 
vertex -0.7694208842938134 -0.2500000000000001 -0.9510565162951541 
vertex -0.4755282581475765 -0.6545084971874742 -0.9510565162951538 
endloop
endfacet
facet normal -0.7236067977499792 -0.5257311121191335 0.44721359549995776 
outer loop
vertex -0.4979796569765559 -0.36180339887498963 -0.6432881625776282 
vertex -0.4755282581475765 -0.6545084971874742 -0.9510565162951538 
vertex -0.21266270208800975 -0.654508497187474 -0.5257311121191334 
endloop
endfacet
facet normal -0.7236067977499793 -0.5257311121191336 0.4472135954999578 
outer loop
vertex -0.4979796569765559 -0.36180339887498963 -0.6432881625776282 
vertex -0.21266270208800975 -0.654508497187474 -0.5257311121191334 
vertex -0.34409548011779323 -0.25000000000000017 -0.2628655560595667 
endloop
endfacet
facet normal -3.915436323781263e-16 4.016824638186529e-16 1.0 
outer loop
vertex -2.2204460492503132e-17 0.0 -0.2628655560595666 
vertex 0.42532540417601966 -9.205742909635529e-17 -0.2628655560595664 
vertex 0.1314327780297834 0.4045084971874736 -0.2628655560595667 
endloop
endfacet
facet normal -9.970423965990032e-17 3.0685809698785106e-16 1.0 
outer loop
vertex -2.2204460492503132e-17 0.0 -0.2628655560595666 
vertex 0.1314327780297834 0.4045084971874736 -0.2628655560595667 
vertex -0.3440954801177933 0.24999999999999986 -0.2628655560595667 
endloop
endfacet
facet normal -3.226496971843678e-16 -3.582131227024197e-32 1.0 
outer loop
vertex -2.2204460492503132e-17 0.0 -0.2628655560595666 
vertex -0.3440954801177933 0.24999999999999986 -0.2628655560595667 
vertex -0.34409548011779323 -0.25000000000000017 -0.2628655560595667 
endloop
endfacet
facet normal -6.643412097325445e-16 4.702980202497589e-16 1.0 
outer loop
vertex -2.2204460492503132e-17 0.0 -0.2628655560595666 
vertex -0.34409548011779323 -0.25000000000000017 -0.2628655560595667 
vertex 0.13143277802978331 -0.4045084971874732 -0.2628655560595663 
endloop
endfacet
facet normal -3.915436323781262e-16 5.589353262168294e-16 1.0 
outer loop
vertex -2.2204460492503132e-17 0.0 -0.2628655560595666 
vertex 0.13143277802978331 -0.4045084971874732 -0.2628655560595663 
vertex 0.42532540417601966 -9.205742909635529e-17 -0.2628655560595664 
endloop
endfacet
facet normal 0.8944271909999161 1.2099363644413784e-16 0.44721359549995765 
outer loop
vertex 0.6155367074350508 -1.405360185280383e-16 -0.6432881625776282 
vertex 0.5567581822058035 -0.40450849718747384 -0.5257311121191334 
vertex 0.7694208842938134 -0.2500000000000007 -0.9510565162951535 
endloop
endfacet
facet normal 0.8944271909999161 9.930136612989028e-17 0.44721359549995765 
outer loop
vertex 0.6155367074350508 -1.405360185280383e-16 -0.6432881625776282 
vertex 0.7694208842938134 -0.2500000000000007 -0.9510565162951535 
vertex 0.7694208842938136 0.25000000000000033 -0.9510565162951541 
endloop
endfacet
facet normal 0.8944271909999162 1.613248485921835e-16 0.44721359549995765 
outer loop
vertex 0.6155367074350508 -1.405360185280383e-16 -0.6432881625776282 
vertex 0.7694208842938136 0.25000000000000033 -0.9510565162951541 
vertex 0.5567581822058034 0.40450849718747367 -0.5257311121191334 
endloop
endfacet
facet normal 0.8944271909999156 -1.9157325770321802e-16 0.4472135954999584 
outer loop
vertex 0.6155367074350508 -1.405360185280383e-16 -0.6432881625776282 
vertex 0.5567581822058034 0.40450849718747367 -0.5257311121191334 
vertex 0.42532540417601966 -9.205742909635529e-17 -0.2628655560595664 
endloop
endfacet
facet normal 0.8944271909999156 4.43643333628505e-16 0.4472135954999584 
outer loop
vertex 0.6155367074350508 -1.405360185280383e-16 -0.6432881625776282 
vertex 0.42532540417601966 -9.205742909635529e-17 -0.2628655560595664 
vertex 0.5567581822058035 -0.40450849718747384 -0.5257311121191334 
endloop
endfacet
facet normal 0.2763932022500204 -0.8506508083520398 0.4472135954999586 
outer loop
vertex 0.19021130325903074 -0.5854101966249685 -0.6432881625776281 
vertex 0.5567581822058035 -0.40450849718747384 -0.5257311121191334 
vertex 0.13143277802978331 -0.4045084971874732 -0.2628655560595663 
endloop
endfacet
facet normal 0.2763932022500218 -0.8506508083520393 0.44721359549995865 
outer loop
vertex 0.19021130325903074 -0.5854101966249685 -0.6432881625776281 
vertex 0.13143277802978331 -0.4045084971874732 -0.2628655560595663 
vertex -0.21266270208800975 -0.654508497187474 -0.5257311121191334 
endloop
endfacet
facet normal 0.2763932022500215 -0.8506508083520402 0.44721359549995715 
outer loop
vertex 0.19021130325903074 -0.5854101966249685 -0.6432881625776281 
vertex -0.21266270208800975 -0.654508497187474 -0.5257311121191334 
vertex -3.3306690738754696e-16 -0.8090169943749477 -0.9510565162951541 
endloop
endfacet
facet normal 0.2763932022500195 -0.8506508083520402 0.44721359549995837 
outer loop
vertex 0.19021130325903074 -0.5854101966249685 -0.6432881625776281 
vertex -3.3306690738754696e-16 -0.8090169943749477 -0.9510565162951541 
vertex 0.47552825814757693 -0.6545084971874742 -0.9510565162951531 
endloop
endfacet
facet normal 0.2763932022500202 -0.8506508083520397 0.44721359549995887 
outer loop
vertex 0.19021130325903074 -0.5854101966249685 -0.6432881625776281 
vertex 0.47552825814757693 -0.6545084971874742 -0.9510565162951531 
vertex 0.5567581822058035 -0.40450849718747384 -0.5257311121191334 
endloop
endfacet
facet normal 0.4911234731884228 -0.3568220897730899 0.7946544722917662 
outer loop
vertex 0.3711721214705355 -0.2696723314583157 -0.350487408079422 
vertex 0.13143277802978331 -0.4045084971874732 -0.2628655560595663 
vertex 0.5567581822058035 -0.40450849718747384 -0.5257311121191334 
endloop
endfacet
facet normal 0.4911234731884228 -0.35682208977308977 0.7946544722917662 
outer loop
vertex 0.3711721214705355 -0.2696723314583157 -0.350487408079422 
vertex 0.5567581822058035 -0.40450849718747384 -0.5257311121191334 
vertex 0.42532540417601966 -9.205742909635529e-17 -0.2628655560595664 
endloop
endfacet
facet normal 0.4911234731884227 -0.3568220897730898 0.7946544722917662 
outer loop
vertex 0.3711721214705355 -0.2696723314583157 -0.350487408079422 
vertex 0.42532540417601966 -9.205742909635529e-17 -0.2628655560595664 
vertex 0.13143277802978331 -0.4045084971874732 -0.2628655560595663 
endloop
endfacet
facet normal -0.18759247408508026 -0.5773502691896256 0.7946544722917661 
outer loop
vertex -0.1417751347253399 -0.4363389981249825 -0.3504874080794221 
vertex -0.34409548011779323 -0.25000000000000017 -0.2628655560595667 
vertex -0.21266270208800975 -0.654508497187474 -0.5257311121191334 
endloop
endfacet
facet normal -0.18759247408507948 -0.5773502691896257 0.7946544722917661 
outer loop
vertex -0.1417751347253399 -0.4363389981249825 -0.3504874080794221 
vertex -0.21266270208800975 -0.654508497187474 -0.5257311121191334 
vertex 0.13143277802978331 -0.4045084971874732 -0.2628655560595663 
endloop
endfacet
facet normal -0.18759247408507965 -0.5773502691896252 0.7946544722917666 
outer loop
vertex -0.1417751347253399 -0.4363389981249825 -0.3504874080794221 
vertex 0.13143277802978331 -0.4045084971874732 -0.2628655560595663 
vertex -0.34409548011779323 -0.25000000000000017 -0.2628655560595667 
endloop
endfacet
facet normal -0.6070619982066863 -1.4422220147876735e-16 0.7946544722917661 
outer loop
vertex -0.45879397349039097 -1.850371707708594e-17 -0.35048740807942225 
vertex -0.3440954801177933 0.24999999999999986 -0.2628655560595667 
vertex -0.6881909602355865 2.220446049250313e-16 -0.5257311121191334 
endloop
endfacet
facet normal -0.6070619982066862 0.0 0.7946544722917661 
outer loop
vertex -0.45879397349039097 -1.850371707708594e-17 -0.35048740807942225 
vertex -0.6881909602355865 2.220446049250313e-16 -0.5257311121191334 
vertex -0.34409548011779323 -0.25000000000000017 -0.2628655560595667 
endloop
endfacet
facet normal -0.6070619982066864 -6.739742077840187e-17 0.7946544722917661 
outer loop
vertex -0.45879397349039097 -1.850371707708594e-17 -0.35048740807942225 
vertex -0.34409548011779323 -0.25000000000000017 -0.2628655560595667 
vertex -0.3440954801177933 0.24999999999999986 -0.2628655560595667 
endloop
endfacet
facet normal -0.18759247408508015 0.5773502691896256 0.7946544722917662 
outer loop
vertex -0.14177513472533987 0.4363389981249823 -0.35048740807942225 
vertex 0.1314327780297834 0.4045084971874736 -0.2628655560595667 
vertex -0.2126627020880097 0.6545084971874735 -0.5257311121191334 
endloop
endfacet
facet normal -0.18759247408507979 0.5773502691896258 0.7946544722917662 
outer loop
vertex -0.14177513472533987 0.4363389981249823 -0.35048740807942225 
vertex -0.2126627020880097 0.6545084971874735 -0.5257311121191334 
vertex -0.3440954801177933 0.24999999999999986 -0.2628655560595667 
endloop
endfacet
facet normal -0.18759247408508 0.577350269189626 0.7946544722917659 
outer loop
vertex -0.14177513472533987 0.4363389981249823 -0.35048740807942225 
vertex -0.3440954801177933 0.24999999999999986 -0.2628655560595667 
vertex 0.1314327780297834 0.4045084971874736 -0.2628655560595667 
endloop
endfacet
facet normal 0.4911234731884228 0.35682208977308993 0.7946544722917662 
outer loop
vertex 0.3711721214705355 0.26967233145831576 -0.3504874080794222 
vertex 0.42532540417601966 -9.205742909635529e-17 -0.2628655560595664 
vertex 0.5567581822058034 0.40450849718747367 -0.5257311121191334 
endloop
endfacet
facet normal 0.4911234731884227 0.35682208977308993 0.7946544722917663 
outer loop
vertex 0.3711721214705355 0.26967233145831576 -0.3504874080794222 
vertex 0.5567581822058034 0.40450849718747367 -0.5257311121191334 
vertex 0.1314327780297834 0.4045084971874736 -0.2628655560595667 
endloop
endfacet
facet normal 0.4911234731884228 0.35682208977308993 0.7946544722917663 
outer loop
vertex 0.3711721214705355 0.26967233145831576 -0.3504874080794222 
vertex 0.1314327780297834 0.4045084971874736 -0.2628655560595667 
vertex 0.42532540417601966 -9.205742909635529e-17 -0.2628655560595664 
endloop
endfacet
facet normal 0.7946544722917661 -0.5773502691896255 0.18759247408508048 
outer loop
vertex 0.6005691082157313 -0.43633899812498295 -0.8092813815698133 
vertex 0.7694208842938134 -0.2500000000000007 -0.9510565162951535 
vertex 0.5567581822058035 -0.40450849718747384 -0.5257311121191334 
endloop
endfacet
facet normal 0.794654472291766 -0.5773502691896258 0.18759247408508045 
outer loop
vertex 0.6005691082157313 -0.43633899812498295 -0.8092813815698133 
vertex 0.5567581822058035 -0.40450849718747384 -0.5257311121191334 
vertex 0.47552825814757693 -0.6545084971874742 -0.9510565162951531 
endloop
endfacet
facet normal 0.7946544722917662 -0.5773502691896257 0.18759247408508023 
outer loop
vertex 0.6005691082157313 -0.43633899812498295 -0.8092813815698133 
vertex 0.47552825814757693 -0.6545084971874742 -0.9510565162951531 
vertex 0.7694208842938134 -0.2500000000000007 -0.9510565162951535 
endloop
endfacet
facet normal 0.3035309991033429 -0.9341723589627159 -0.18759247408507965 
outer loop
vertex 0.22939698674519537 -0.7060113295832987 -1.0928316510204936 
vertex 0.47552825814757693 -0.6545084971874742 -0.9510565162951531 
vertex -3.3306690738754696e-16 -0.8090169943749477 -0.9510565162951541 
endloop
endfacet
facet normal 0.3035309991033428 -0.9341723589627159 -0.18759247408507967 
outer loop
vertex 0.22939698674519537 -0.7060113295832987 -1.0928316510204936 
vertex -3.3306690738754696e-16 -0.8090169943749477 -0.9510565162951541 
vertex 0.21266270208800953 -0.6545084971874744 -1.3763819204711731 
endloop
endfacet
facet normal 0.30353099910334286 -0.9341723589627159 -0.18759247408507965 
outer loop
vertex 0.22939698674519537 -0.7060113295832987 -1.0928316510204936 
vertex 0.21266270208800953 -0.6545084971874744 -1.3763819204711731 
vertex 0.47552825814757693 -0.6545084971874742 -0.9510565162951531 
endloop
endfacet
facet normal -0.3035309991033431 -0.9341723589627158 0.18759247408508012 
outer loop
vertex -0.2293969867451955 -0.7060113295832986 -0.8092813815698138 
vertex -3.3306690738754696e-16 -0.8090169943749477 -0.9510565162951541 
vertex -0.21266270208800975 -0.654508497187474 -0.5257311121191334 
endloop
endfacet
facet normal -0.3035309991033429 -0.9341723589627158 0.18759247408508004 
outer loop
vertex -0.2293969867451955 -0.7060113295832986 -0.8092813815698138 
vertex -0.21266270208800975 -0.654508497187474 -0.5257311121191334 
vertex -0.4755282581475765 -0.6545084971874742 -0.9510565162951538 
endloop
endfacet
facet normal -0.303530999103343 -0.9341723589627158 0.18759247408508015 
outer loop
vertex -0.2293969867451955 -0.7060113295832986 -0.8092813815698138 
vertex -0.4755282581475765 -0.6545084971874742 -0.9510565162951538 
vertex -3.3306690738754696e-16 -0.8090169943749477 -0.9510565162951541 
endloop
endfacet
facet normal -0.7946544722917659 -0.577350269189626 -0.18759247408507979 
outer loop
vertex -0.6005691082157311 -0.4363389981249828 -1.0928316510204938 
vertex -0.4755282581475765 -0.6545084971874742 -0.9510565162951538 
vertex -0.7694208842938134 -0.2500000000000001 -0.9510565162951541 
endloop
endfacet
facet normal -0.7946544722917659 -0.5773502691896262 -0.18759247408507954 
outer loop
vertex -0.6005691082157311 -0.4363389981249828 -1.0928316510204938 
vertex -0.7694208842938134 -0.2500000000000001 -0.9510565162951541 
vertex -0.5567581822058034 -0.40450849718747406 -1.3763819204711736 
endloop
endfacet
facet normal -0.794654472291766 -0.5773502691896258 -0.18759247408507954 
outer loop
vertex -0.6005691082157311 -0.4363389981249828 -1.0928316510204938 
vertex -0.5567581822058034 -0.40450849718747406 -1.3763819204711736 
vertex -0.4755282581475765 -0.6545084971874742 -0.9510565162951538 
endloop
endfacet
facet normal -0.9822469463768461 2.6440736937773983e-16 0.18759247408508023 
outer loop
vertex -0.742344242941071 -1.942890293094024e-16 -0.8092813815698139 
vertex -0.7694208842938134 -0.2500000000000001 -0.9510565162951541 
vertex -0.6881909602355865 2.220446049250313e-16 -0.5257311121191334 
endloop
endfacet
facet normal -0.9822469463768461 -6.730369402342469e-16 0.1875924740850802 
outer loop
vertex -0.742344242941071 -1.942890293094024e-16 -0.8092813815698139 
vertex -0.6881909602355865 2.220446049250313e-16 -0.5257311121191334 
vertex -0.7694208842938135 0.2499999999999993 -0.9510565162951541 
endloop
endfacet
facet normal -0.9822469463768458 -2.181026351470654e-16 0.18759247408508103 
outer loop
vertex -0.742344242941071 -1.942890293094024e-16 -0.8092813815698139 
vertex -0.7694208842938135 0.2499999999999993 -0.9510565162951541 
vertex -0.7694208842938134 -0.2500000000000001 -0.9510565162951541 
endloop
endfacet
facet normal -0.7946544722917661 0.5773502691896258 -0.1875924740850799 
outer loop
vertex -0.6005691082157311 0.43633899812498217 -1.0928316510204938 
vertex -0.7694208842938135 0.2499999999999993 -0.9510565162951541 
vertex -0.4755282581475766 0.6545084971874736 -0.9510565162951535 
endloop
endfacet
facet normal -0.7946544722917661 0.5773502691896258 -0.18759247408508004 
outer loop
vertex -0.6005691082157311 0.43633899812498217 -1.0928316510204938 
vertex -0.4755282581475766 0.6545084971874736 -0.9510565162951535 
vertex -0.5567581822058032 0.4045084971874735 -1.3763819204711736 
endloop
endfacet
facet normal -0.7946544722917661 0.5773502691896258 -0.18759247408508006 
outer loop
vertex -0.6005691082157311 0.43633899812498217 -1.0928316510204938 
vertex -0.5567581822058032 0.4045084971874735 -1.3763819204711736 
vertex -0.7694208842938135 0.2499999999999993 -0.9510565162951541 
endloop
endfacet
facet normal -0.30353099910334275 0.9341723589627158 0.18759247408507992 
outer loop
vertex -0.22939698674519557 0.706011329583298 -0.8092813815698136 
vertex -0.4755282581475766 0.6545084971874736 -0.9510565162951535 
vertex -0.2126627020880097 0.6545084971874735 -0.5257311121191334 
endloop
endfacet
facet normal -0.3035309991033436 0.9341723589627156 0.18759247408507992 
outer loop
vertex -0.22939698674519557 0.706011329583298 -0.8092813815698136 
vertex -0.2126627020880097 0.6545084971874735 -0.5257311121191334 
vertex -4.996003610813204e-16 0.8090169943749472 -0.951056516295154 
endloop
endfacet
facet normal -0.30353099910334314 0.9341723589627157 0.1875924740850805 
outer loop
vertex -0.22939698674519557 0.706011329583298 -0.8092813815698136 
vertex -4.996003610813204e-16 0.8090169943749472 -0.951056516295154 
vertex -0.4755282581475766 0.6545084971874736 -0.9510565162951535 
endloop
endfacet
facet normal 0.30353099910334236 0.934172358962716 -0.1875924740850795 
outer loop
vertex 0.22939698674519585 0.7060113295832982 -1.0928316510204938 
vertex -4.996003610813204e-16 0.8090169943749472 -0.951056516295154 
vertex 0.4755282581475775 0.6545084971874735 -0.9510565162951543 
endloop
endfacet
facet normal 0.3035309991033422 0.9341723589627161 -0.18759247408507923 
outer loop
vertex 0.22939698674519585 0.7060113295832982 -1.0928316510204938 
vertex 0.4755282581475775 0.6545084971874735 -0.9510565162951543 
vertex 0.21266270208801058 0.6545084971874737 -1.3763819204711736 
endloop
endfacet
facet normal 0.3035309991033424 0.9341723589627159 -0.1875924740850792 
outer loop
vertex 0.22939698674519585 0.7060113295832982 -1.0928316510204938 
vertex 0.21266270208801058 0.6545084971874737 -1.3763819204711736 
vertex -4.996003610813204e-16 0.8090169943749472 -0.951056516295154 
endloop
endfacet
facet normal 0.794654472291766 0.5773502691896258 0.18759247408508048 
outer loop
vertex 0.6005691082157315 0.4363389981249825 -0.8092813815698139 
vertex 0.4755282581475775 0.6545084971874735 -0.9510565162951543 
vertex 0.5567581822058034 0.40450849718747367 -0.5257311121191334 
endloop
endfacet
facet normal 0.7946544722917661 0.5773502691896257 0.18759247408508048 
outer loop
vertex 0.6005691082157315 0.4363389981249825 -0.8092813815698139 
vertex 0.5567581822058034 0.40450849718747367 -0.5257311121191334 
vertex 0.7694208842938136 0.25000000000000033 -0.9510565162951541 
endloop
endfacet
facet normal 0.7946544722917661 0.5773502691896257 0.18759247408508042 
outer loop
vertex 0.6005691082157315 0.4363389981249825 -0.8092813815698139 
vertex 0.7694208842938136 0.25000000000000033 -0.9510565162951541 
vertex 0.4755282581475775 0.6545084971874735 -0.9510565162951543 
endloop
endfacet
facet normal 0.9822469463768461 -6.444747542697825e-16 -0.18759247408507967 
outer loop
vertex 0.7423442429410714 1.1102230246251565e-16 -1.0928316510204936 
vertex 0.7694208842938136 0.25000000000000033 -0.9510565162951541 
vertex 0.7694208842938134 -0.2500000000000007 -0.9510565162951535 
endloop
endfacet
facet normal 0.9822469463768461 -6.009258394948628e-16 -0.18759247408507954 
outer loop
vertex 0.7423442429410714 1.1102230246251565e-16 -1.0928316510204936 
vertex 0.7694208842938134 -0.2500000000000007 -0.9510565162951535 
vertex 0.6881909602355871 7.216449660063518e-16 -1.3763819204711734 
endloop
endfacet
facet normal 0.9822469463768461 -7.211110073938355e-16 -0.1875924740850796 
outer loop
vertex 0.7423442429410714 1.1102230246251565e-16 -1.0928316510204936 
vertex 0.6881909602355871 7.216449660063518e-16 -1.3763819204711734 
vertex 0.7694208842938136 0.25000000000000033 -0.9510565162951541 
endloop
endfacet
facet normal 0.18759247408507942 -0.5773502691896254 -0.7946544722917664 
outer loop
vertex 0.1417751347253399 -0.43633899812498234 -1.5516256245108846 
vertex 0.34409548011779295 -0.24999999999999978 -1.6392474765307403 
vertex 0.21266270208800953 -0.6545084971874744 -1.3763819204711731 
endloop
endfacet
facet normal 0.18759247408508017 -0.5773502691896252 -0.7946544722917667 
outer loop
vertex 0.1417751347253399 -0.43633899812498234 -1.5516256245108846 
vertex 0.21266270208800953 -0.6545084971874744 -1.3763819204711731 
vertex -0.13143277802978284 -0.4045084971874729 -1.6392474765307405 
endloop
endfacet
facet normal 0.18759247408507992 -0.5773502691896257 -0.7946544722917661 
outer loop
vertex 0.1417751347253399 -0.43633899812498234 -1.5516256245108846 
vertex -0.13143277802978284 -0.4045084971874729 -1.6392474765307405 
vertex 0.34409548011779295 -0.24999999999999978 -1.6392474765307403 
endloop
endfacet
facet normal -0.491123473188422 -0.3568220897730902 -0.7946544722917667 
outer loop
vertex -0.371172121470535 -0.26967233145831576 -1.551625624510885 
vertex -0.13143277802978284 -0.4045084971874729 -1.6392474765307405 
vertex -0.5567581822058034 -0.40450849718747406 -1.3763819204711736 
endloop
endfacet
facet normal -0.49112347318842237 -0.3568220897730897 -0.7946544722917667 
outer loop
vertex -0.371172121470535 -0.26967233145831576 -1.551625624510885 
vertex -0.5567581822058034 -0.40450849718747406 -1.3763819204711736 
vertex -0.42532540417601883 -2.0160335513020208e-16 -1.6392474765307408 
endloop
endfacet
facet normal -0.49112347318842164 -0.35682208977308966 -0.794654472291767 
outer loop
vertex -0.371172121470535 -0.26967233145831576 -1.551625624510885 
vertex -0.42532540417601883 -2.0160335513020208e-16 -1.6392474765307408 
vertex -0.13143277802978284 -0.4045084971874729 -1.6392474765307405 
endloop
endfacet
facet normal -0.4911234731884228 0.3568220897730897 -0.7946544722917663 
outer loop
vertex -0.37117212147053497 0.2696723314583153 -1.551625624510885 
vertex -0.42532540417601883 -2.0160335513020208e-16 -1.6392474765307408 
vertex -0.5567581822058032 0.4045084971874735 -1.3763819204711736 
endloop
endfacet
facet normal -0.491123473188422 0.356822089773091 -0.7946544722917664 
outer loop
vertex -0.37117212147053497 0.2696723314583153 -1.551625624510885 
vertex -0.5567581822058032 0.4045084971874735 -1.3763819204711736 
vertex -0.13143277802978284 0.4045084971874727 -1.6392474765307403 
endloop
endfacet
facet normal -0.49112347318842164 0.3568220897730898 -0.7946544722917671 
outer loop
vertex -0.37117212147053497 0.2696723314583153 -1.551625624510885 
vertex -0.13143277802978284 0.4045084971874727 -1.6392474765307403 
vertex -0.42532540417601883 -2.0160335513020208e-16 -1.6392474765307408 
endloop
endfacet
facet normal 0.18759247408507881 0.5773502691896253 -0.7946544722917668 
outer loop
vertex 0.14177513472534056 0.4363389981249823 -1.5516256245108846 
vertex -0.13143277802978284 0.4045084971874727 -1.6392474765307403 
vertex 0.21266270208801058 0.6545084971874737 -1.3763819204711736 
endloop
endfacet
facet normal 0.18759247408507865 0.5773502691896254 -0.7946544722917667 
outer loop
vertex 0.14177513472534056 0.4363389981249823 -1.5516256245108846 
vertex 0.21266270208801058 0.6545084971874737 -1.3763819204711736 
vertex 0.34409548011779395 0.25000000000000017 -1.63924747653074 
endloop
endfacet
facet normal 0.18759247408507873 0.5773502691896253 -0.7946544722917667 
outer loop
vertex 0.14177513472534056 0.4363389981249823 -1.5516256245108846 
vertex 0.34409548011779395 0.25000000000000017 -1.63924747653074 
vertex -0.13143277802978284 0.4045084971874727 -1.6392474765307403 
endloop
endfacet
facet normal 0.607061998206686 -7.691850745534253e-16 -0.7946544722917663 
outer loop
vertex 0.45879397349039136 3.7007434154171886e-16 -1.5516256245108846 
vertex 0.34409548011779395 0.25000000000000017 -1.63924747653074 
vertex 0.6881909602355871 7.216449660063518e-16 -1.3763819204711734 
endloop
endfacet
facet normal 0.607061998206686 -8.653332088726033e-16 -0.7946544722917663 
outer loop
vertex 0.45879397349039136 3.7007434154171886e-16 -1.5516256245108846 
vertex 0.6881909602355871 7.216449660063518e-16 -1.3763819204711734 
vertex 0.34409548011779295 -0.24999999999999978 -1.6392474765307403 
endloop
endfacet
facet normal 0.6070619982066859 -8.602560973073639e-16 -0.7946544722917664 
outer loop
vertex 0.45879397349039136 3.7007434154171886e-16 -1.5516256245108846 
vertex 0.34409548011779295 -0.24999999999999978 -1.6392474765307403 
vertex 0.34409548011779395 0.25000000000000017 -1.63924747653074 
endloop
endfacet
endsolid test
