solid unit-truncated-cube
facet normal 0.0 0.0 -1.0 
outer loop
vertex 0.7071067811865472 -1.4142135623730954 0.0 
vertex -0.707106781186548 -1.4142135623730951 0.0 
vertex -1.4142135623730951 -0.7071067811865476 0.0 
endloop
endfacet
facet normal 0.0 0.0 -1.0 
outer loop
vertex 0.7071067811865472 -1.4142135623730954 0.0 
vertex -1.4142135623730951 -0.7071067811865476 0.0 
vertex -1.4142135623730951 0.7071067811865478 0.0 
endloop
endfacet
facet normal 0.0 0.0 -1.0 
outer loop
vertex 0.7071067811865472 -1.4142135623730954 0.0 
vertex -1.4142135623730951 0.7071067811865478 0.0 
vertex -0.7071067811865476 1.4142135623730951 0.0 
endloop
endfacet
facet normal 0.0 0.0 -1.0 
outer loop
vertex 0.7071067811865472 -1.4142135623730954 0.0 
vertex -0.7071067811865476 1.4142135623730951 0.0 
vertex 0.7071067811865478 1.4142135623730951 0.0 
endloop
endfacet
facet normal 0.0 -0.0 -1.0 
outer loop
vertex 0.7071067811865472 -1.4142135623730954 0.0 
vertex 0.7071067811865478 1.4142135623730951 0.0 
vertex 1.4142135623730951 0.7071067811865477 0.0 
endloop
endfacet
facet normal 0.0 0.0 -1.0 
outer loop
vertex 0.7071067811865472 -1.4142135623730954 0.0 
vertex 1.4142135623730951 0.7071067811865477 0.0 
vertex 1.414213562373095 -0.7071067811865475 0.0 
endloop
endfacet
facet normal 6.280369834735096e-16 -3.9443045261050555e-31 1.0 
outer loop
vertex -1.4142135623730947 0.7071067811865479 3.0 
vertex -1.4142135623730956 -0.7071067811865475 3.0 
vertex -0.707106781186548 -1.414213562373095 2.9999999999999996 
endloop
endfacet
facet normal -3.286920438420882e-32 -2.0934566115783665e-16 1.0 
outer loop
vertex -1.4142135623730947 0.7071067811865479 3.0 
vertex -0.707106781186548 -1.414213562373095 2.9999999999999996 
vertex 0.7071067811865471 -1.4142135623730951 2.9999999999999996 
endloop
endfacet
facet normal 1.0467283057891831e-16 -1.0467283057891837e-16 1.0 
outer loop
vertex -1.4142135623730947 0.7071067811865479 3.0 
vertex 0.7071067811865471 -1.4142135623730951 2.9999999999999996 
vertex 1.4142135623730951 -0.7071067811865476 2.9999999999999996 
endloop
endfacet
facet normal 0.0 -3.1401849173675493e-16 1.0 
outer loop
vertex -1.4142135623730947 0.7071067811865479 3.0 
vertex 1.4142135623730951 -0.7071067811865476 2.9999999999999996 
vertex 1.4142135623730951 0.7071067811865478 3.0 
endloop
endfacet
facet normal 0.0 0.0 1.0 
outer loop
vertex -1.4142135623730947 0.7071067811865479 3.0 
vertex 1.4142135623730951 0.7071067811865478 3.0 
vertex 0.7071067811865479 1.4142135623730954 3.0 
endloop
endfacet
facet normal 0.0 0.0 1.0 
outer loop
vertex -1.4142135623730947 0.7071067811865479 3.0 
vertex 0.7071067811865479 1.4142135623730954 3.0 
vertex -0.7071067811865477 1.4142135623730951 3.0 
endloop
endfacet
facet normal -0.7071067811865477 -0.7071067811865474 -0.0 
outer loop
vertex -3.89680225305972e-16 -2.121320343559643 1.0000000000000004 
vertex -3.89680225305972e-16 -2.121320343559643 1.9999999999999996 
vertex -0.707106781186548 -1.414213562373095 2.9999999999999996 
endloop
endfacet
facet normal -0.7071067811865475 -0.7071067811865476 1.665334536937736e-16 
outer loop
vertex -3.89680225305972e-16 -2.121320343559643 1.0000000000000004 
vertex -0.707106781186548 -1.414213562373095 2.9999999999999996 
vertex -1.4142135623730956 -0.7071067811865475 3.0 
endloop
endfacet
facet normal -0.7071067811865478 -0.7071067811865475 -1.1102230246251565e-16 
outer loop
vertex -3.89680225305972e-16 -2.121320343559643 1.0000000000000004 
vertex -1.4142135623730956 -0.7071067811865475 3.0 
vertex -2.121320343559643 2.59786816870648e-16 1.9999999999999996 
endloop
endfacet
facet normal -0.7071067811865477 -0.7071067811865474 -0.0 
outer loop
vertex -3.89680225305972e-16 -2.121320343559643 1.0000000000000004 
vertex -2.121320343559643 2.59786816870648e-16 1.9999999999999996 
vertex -2.121320343559643 2.59786816870648e-16 1.0000000000000004 
endloop
endfacet
facet normal -0.7071067811865477 -0.7071067811865474 -1.4802973661668746e-16 
outer loop
vertex -3.89680225305972e-16 -2.121320343559643 1.0000000000000004 
vertex -2.121320343559643 2.59786816870648e-16 1.0000000000000004 
vertex -1.4142135623730951 -0.7071067811865476 0.0 
endloop
endfacet
facet normal -0.7071067811865478 -0.7071067811865474 1.1102230246251563e-16 
outer loop
vertex -3.89680225305972e-16 -2.121320343559643 1.0000000000000004 
vertex -1.4142135623730951 -0.7071067811865476 0.0 
vertex -0.707106781186548 -1.4142135623730951 0.0 
endloop
endfacet
facet normal -0.7071067811865474 0.7071067811865478 0.0 
outer loop
vertex -2.121320343559643 2.59786816870648e-16 1.0000000000000004 
vertex -2.121320343559643 2.59786816870648e-16 1.9999999999999996 
vertex -1.4142135623730947 0.7071067811865479 3.0 
endloop
endfacet
facet normal -0.7071067811865477 0.7071067811865475 2.220446049250315e-16 
outer loop
vertex -2.121320343559643 2.59786816870648e-16 1.0000000000000004 
vertex -1.4142135623730947 0.7071067811865479 3.0 
vertex -0.7071067811865477 1.4142135623730951 3.0 
endloop
endfacet
facet normal -0.7071067811865476 0.7071067811865477 0.0 
outer loop
vertex -2.121320343559643 2.59786816870648e-16 1.0000000000000004 
vertex -0.7071067811865477 1.4142135623730951 3.0 
vertex 1.29893408435324e-16 2.121320343559643 1.9999999999999996 
endloop
endfacet
facet normal -0.7071067811865474 0.7071067811865476 0.0 
outer loop
vertex -2.121320343559643 2.59786816870648e-16 1.0000000000000004 
vertex 1.29893408435324e-16 2.121320343559643 1.9999999999999996 
vertex 1.29893408435324e-16 2.121320343559643 1.0000000000000004 
endloop
endfacet
facet normal -0.7071067811865475 0.7071067811865476 -7.401486830834374e-17 
outer loop
vertex -2.121320343559643 2.59786816870648e-16 1.0000000000000004 
vertex 1.29893408435324e-16 2.121320343559643 1.0000000000000004 
vertex -0.7071067811865476 1.4142135623730951 0.0 
endloop
endfacet
facet normal -0.7071067811865474 0.7071067811865476 0.0 
outer loop
vertex -2.121320343559643 2.59786816870648e-16 1.0000000000000004 
vertex -0.7071067811865476 1.4142135623730951 0.0 
vertex -1.4142135623730951 0.7071067811865478 0.0 
endloop
endfacet
facet normal 0.7071067811865478 0.7071067811865475 -4.440892098500625e-16 
outer loop
vertex 1.29893408435324e-16 2.121320343559643 1.9999999999999996 
vertex 0.7071067811865479 1.4142135623730954 3.0 
vertex 1.4142135623730951 0.7071067811865478 3.0 
endloop
endfacet
facet normal 0.7071067811865476 0.7071067811865476 0.0 
outer loop
vertex 1.29893408435324e-16 2.121320343559643 1.9999999999999996 
vertex 1.4142135623730951 0.7071067811865478 3.0 
vertex 2.121320343559643 0.0 1.9999999999999996 
endloop
endfacet
facet normal 0.7071067811865476 0.7071067811865476 0.0 
outer loop
vertex 1.29893408435324e-16 2.121320343559643 1.9999999999999996 
vertex 2.121320343559643 0.0 1.9999999999999996 
vertex 2.121320343559643 0.0 1.0000000000000004 
endloop
endfacet
facet normal 0.7071067811865476 0.7071067811865476 0.0 
outer loop
vertex 1.29893408435324e-16 2.121320343559643 1.9999999999999996 
vertex 2.121320343559643 0.0 1.0000000000000004 
vertex 1.4142135623730951 0.7071067811865477 0.0 
endloop
endfacet
facet normal 0.7071067811865476 0.7071067811865475 0.0 
outer loop
vertex 1.29893408435324e-16 2.121320343559643 1.9999999999999996 
vertex 1.4142135623730951 0.7071067811865477 0.0 
vertex 0.7071067811865478 1.4142135623730951 0.0 
endloop
endfacet
facet normal 0.7071067811865476 0.7071067811865476 0.0 
outer loop
vertex 1.29893408435324e-16 2.121320343559643 1.9999999999999996 
vertex 0.7071067811865478 1.4142135623730951 0.0 
vertex 1.29893408435324e-16 2.121320343559643 1.0000000000000004 
endloop
endfacet
facet normal 0.7071067811865475 -0.7071067811865476 0.0 
outer loop
vertex 2.121320343559643 0.0 1.0000000000000004 
vertex 2.121320343559643 0.0 1.9999999999999996 
vertex 1.4142135623730951 -0.7071067811865476 2.9999999999999996 
endloop
endfacet
facet normal 0.7071067811865474 -0.7071067811865478 -1.1102230246251568e-16 
outer loop
vertex 2.121320343559643 0.0 1.0000000000000004 
vertex 1.4142135623730951 -0.7071067811865476 2.9999999999999996 
vertex 0.7071067811865471 -1.4142135623730951 2.9999999999999996 
endloop
endfacet
facet normal 0.7071067811865475 -0.7071067811865476 1.1102230246251565e-16 
outer loop
vertex 2.121320343559643 0.0 1.0000000000000004 
vertex 0.7071067811865471 -1.4142135623730951 2.9999999999999996 
vertex -3.89680225305972e-16 -2.121320343559643 1.9999999999999996 
endloop
endfacet
facet normal 0.7071067811865475 -0.7071067811865476 0.0 
outer loop
vertex 2.121320343559643 0.0 1.0000000000000004 
vertex -3.89680225305972e-16 -2.121320343559643 1.9999999999999996 
vertex -3.89680225305972e-16 -2.121320343559643 1.0000000000000004 
endloop
endfacet
facet normal 0.7071067811865475 -0.7071067811865477 0.0 
outer loop
vertex 2.121320343559643 0.0 1.0000000000000004 
vertex -3.89680225305972e-16 -2.121320343559643 1.0000000000000004 
vertex 0.7071067811865472 -1.4142135623730954 0.0 
endloop
endfacet
facet normal 0.7071067811865476 -0.7071067811865474 -4.440892098500622e-16 
outer loop
vertex 2.121320343559643 0.0 1.0000000000000004 
vertex 0.7071067811865472 -1.4142135623730954 0.0 
vertex 1.414213562373095 -0.7071067811865475 0.0 
endloop
endfacet
facet normal -1.2819751242557087e-16 -0.8164965809277261 -0.5773502691896256 
outer loop
vertex 0.7071067811865472 -1.4142135623730954 0.0 
vertex -3.89680225305972e-16 -2.121320343559643 1.0000000000000004 
vertex -0.707106781186548 -1.4142135623730951 0.0 
endloop
endfacet
facet normal -0.8164965809277261 0.0 -0.5773502691896257 
outer loop
vertex -1.4142135623730951 -0.7071067811865476 0.0 
vertex -2.121320343559643 2.59786816870648e-16 1.0000000000000004 
vertex -1.4142135623730951 0.7071067811865478 0.0 
endloop
endfacet
facet normal 0.0 0.8164965809277261 -0.5773502691896257 
outer loop
vertex 0.7071067811865478 1.4142135623730951 0.0 
vertex -0.7071067811865476 1.4142135623730951 0.0 
vertex 1.29893408435324e-16 2.121320343559643 1.0000000000000004 
endloop
endfacet
facet normal 0.8164965809277261 -1.2819751242557092e-16 -0.5773502691896257 
outer loop
vertex 2.121320343559643 0.0 1.0000000000000004 
vertex 1.414213562373095 -0.7071067811865475 0.0 
vertex 1.4142135623730951 0.7071067811865477 0.0 
endloop
endfacet
facet normal 0.816496580927726 -1.8129866073473576e-16 0.5773502691896258 
outer loop
vertex 1.4142135623730951 0.7071067811865478 3.0 
vertex 1.4142135623730951 -0.7071067811865476 2.9999999999999996 
vertex 2.121320343559643 0.0 1.9999999999999996 
endloop
endfacet
facet normal -1.281975124255709e-16 0.8164965809277261 0.5773502691896256 
outer loop
vertex -0.7071067811865477 1.4142135623730951 3.0 
vertex 0.7071067811865479 1.4142135623730954 3.0 
vertex 1.29893408435324e-16 2.121320343559643 1.9999999999999996 
endloop
endfacet
facet normal -0.8164965809277261 5.127900497022837e-16 0.5773502691896257 
outer loop
vertex -2.121320343559643 2.59786816870648e-16 1.9999999999999996 
vertex -1.4142135623730956 -0.7071067811865475 3.0 
vertex -1.4142135623730947 0.7071067811865479 3.0 
endloop
endfacet
facet normal -1.281975124255709e-16 -0.8164965809277259 0.577350269189626 
outer loop
vertex -0.707106781186548 -1.414213562373095 2.9999999999999996 
vertex -3.89680225305972e-16 -2.121320343559643 1.9999999999999996 
vertex 0.7071067811865471 -1.4142135623730951 2.9999999999999996 
endloop
endfacet
endsolid unit-truncated-cube
