solid test
facet normal 0.5773502691896257 0.5773502691896257 0.5773502691896257 
outer loop
vertex 2.618033988749895 2.618033988749895 2.618033988749895 
vertex 2.0 3.618033988749895 2.23606797749979 
vertex 1.618033988749895 3.0 3.23606797749979 
endloop
endfacet
facet normal 0.5773502691896257 0.5773502691896257 0.5773502691896257 
outer loop
vertex 2.618033988749895 2.618033988749895 2.618033988749895 
vertex 1.618033988749895 3.0 3.23606797749979 
vertex 2.23606797749979 2.0 3.618033988749895 
endloop
endfacet
facet normal 0.5773502691896257 0.5773502691896257 0.5773502691896257 
outer loop
vertex 2.618033988749895 2.618033988749895 2.618033988749895 
vertex 2.23606797749979 2.0 3.618033988749895 
vertex 3.23606797749979 1.618033988749895 3.0 
endloop
endfacet
facet normal 0.5773502691896257 0.5773502691896257 0.5773502691896257 
outer loop
vertex 2.618033988749895 2.618033988749895 2.618033988749895 
vertex 3.23606797749979 1.618033988749895 3.0 
vertex 3.618033988749895 2.23606797749979 2.0 
endloop
endfacet
facet normal 0.5773502691896257 0.5773502691896257 0.5773502691896257 
outer loop
vertex 2.618033988749895 2.618033988749895 2.618033988749895 
vertex 3.618033988749895 2.23606797749979 2.0 
vertex 3.0 3.23606797749979 1.618033988749895 
endloop
endfacet
facet normal 0.5773502691896257 0.5773502691896257 0.5773502691896257 
outer loop
vertex 2.618033988749895 2.618033988749895 2.618033988749895 
vertex 3.0 3.23606797749979 1.618033988749895 
vertex 2.0 3.618033988749895 2.23606797749979 
endloop
endfacet
facet normal 0.5257311121191337 0.0 0.8506508083520399 
outer loop
vertex 2.23606797749979 0.0 3.6180339887498945 
vertex 0.6180339887498948 0.6180339887498948 4.618033988749895 
vertex 0.6180339887498948 -0.6180339887498948 4.618033988749895 
endloop
endfacet
facet normal 0.5257311121191337 9.444121133484361e-17 0.8506508083520399 
outer loop
vertex 2.23606797749979 0.0 3.6180339887498945 
vertex 0.6180339887498948 -0.6180339887498948 4.618033988749895 
vertex 1.2360679774997896 -1.618033988749895 4.23606797749979 
endloop
endfacet
facet normal 0.5257311121191336 1.888824226696872e-16 0.85065080835204 
outer loop
vertex 2.23606797749979 0.0 3.6180339887498945 
vertex 1.2360679774997896 -1.618033988749895 4.23606797749979 
vertex 2.23606797749979 -2.0 3.618033988749895 
endloop
endfacet
facet normal 0.5257311121191336 1.8888242266968722e-16 0.8506508083520399 
outer loop
vertex 2.23606797749979 0.0 3.6180339887498945 
vertex 2.23606797749979 -2.0 3.618033988749895 
vertex 3.23606797749979 -1.618033988749895 3.0 
endloop
endfacet
facet normal 0.5257311121191336 7.083090850113272e-17 0.8506508083520401 
outer loop
vertex 2.23606797749979 0.0 3.6180339887498945 
vertex 3.23606797749979 -1.618033988749895 3.0 
vertex 3.8541019662496847 -0.6180339887498948 2.618033988749895 
endloop
endfacet
facet normal 0.5257311121191335 -0.0 0.85065080835204 
outer loop
vertex 2.23606797749979 0.0 3.6180339887498945 
vertex 3.8541019662496847 -0.6180339887498948 2.618033988749895 
vertex 3.8541019662496847 0.6180339887498948 2.618033988749895 
endloop
endfacet
facet normal 0.5257311121191335 -4.7220605667421817e-17 0.8506508083520401 
outer loop
vertex 2.23606797749979 0.0 3.6180339887498945 
vertex 3.8541019662496847 0.6180339887498948 2.618033988749895 
vertex 3.23606797749979 1.618033988749895 3.0 
endloop
endfacet
facet normal 0.5257311121191336 -1.8888242266968722e-16 0.8506508083520399 
outer loop
vertex 2.23606797749979 0.0 3.6180339887498945 
vertex 3.23606797749979 1.618033988749895 3.0 
vertex 2.23606797749979 2.0 3.618033988749895 
endloop
endfacet
facet normal 0.5257311121191336 -1.8888242266968724e-16 0.85065080835204 
outer loop
vertex 2.23606797749979 0.0 3.6180339887498945 
vertex 2.23606797749979 2.0 3.618033988749895 
vertex 1.2360679774997896 1.618033988749895 4.23606797749979 
endloop
endfacet
facet normal 0.5257311121191337 -9.44412113348436e-17 0.8506508083520398 
outer loop
vertex 2.23606797749979 0.0 3.6180339887498945 
vertex 1.2360679774997896 1.618033988749895 4.23606797749979 
vertex 0.6180339887498948 0.6180339887498948 4.618033988749895 
endloop
endfacet
facet normal 0.8090169943749476 0.30901699437494745 0.5 
outer loop
vertex 3.73606797749979 1.4270509831248424 2.3090169943749475 
vertex 3.8541019662496847 0.6180339887498948 2.618033988749895 
vertex 4.23606797749979 1.2360679774997896 1.618033988749895 
endloop
endfacet
facet normal 0.8090169943749475 0.3090169943749475 0.49999999999999994 
outer loop
vertex 3.73606797749979 1.4270509831248424 2.3090169943749475 
vertex 4.23606797749979 1.2360679774997896 1.618033988749895 
vertex 3.618033988749895 2.23606797749979 2.0 
endloop
endfacet
facet normal 0.8090169943749475 0.3090169943749475 0.5 
outer loop
vertex 3.73606797749979 1.4270509831248424 2.3090169943749475 
vertex 3.618033988749895 2.23606797749979 2.0 
vertex 3.23606797749979 1.618033988749895 3.0 
endloop
endfacet
facet normal 0.8090169943749475 0.3090169943749475 0.5 
outer loop
vertex 3.73606797749979 1.4270509831248424 2.3090169943749475 
vertex 3.23606797749979 1.618033988749895 3.0 
vertex 3.8541019662496847 0.6180339887498948 2.618033988749895 
endloop
endfacet
facet normal 0.8506508083520399 0.5257311121191337 0.0 
outer loop
vertex 3.6180339887498945 2.23606797749979 0.0 
vertex 4.618033988749895 0.6180339887498948 0.6180339887498948 
vertex 4.618033988749895 0.6180339887498948 -0.6180339887498948 
endloop
endfacet
facet normal 0.8506508083520399 0.5257311121191337 9.444121133484361e-17 
outer loop
vertex 3.6180339887498945 2.23606797749979 0.0 
vertex 4.618033988749895 0.6180339887498948 -0.6180339887498948 
vertex 4.23606797749979 1.2360679774997896 -1.618033988749895 
endloop
endfacet
facet normal 0.85065080835204 0.5257311121191336 1.888824226696872e-16 
outer loop
vertex 3.6180339887498945 2.23606797749979 0.0 
vertex 4.23606797749979 1.2360679774997896 -1.618033988749895 
vertex 3.618033988749895 2.23606797749979 -2.0 
endloop
endfacet
facet normal 0.8506508083520399 0.5257311121191336 1.8888242266968722e-16 
outer loop
vertex 3.6180339887498945 2.23606797749979 0.0 
vertex 3.618033988749895 2.23606797749979 -2.0 
vertex 3.0 3.23606797749979 -1.618033988749895 
endloop
endfacet
facet normal 0.8506508083520401 0.5257311121191336 7.083090850113272e-17 
outer loop
vertex 3.6180339887498945 2.23606797749979 0.0 
vertex 3.0 3.23606797749979 -1.618033988749895 
vertex 2.618033988749895 3.8541019662496847 -0.6180339887498948 
endloop
endfacet
facet normal 0.85065080835204 0.5257311121191335 -0.0 
outer loop
vertex 3.6180339887498945 2.23606797749979 0.0 
vertex 2.618033988749895 3.8541019662496847 -0.6180339887498948 
vertex 2.618033988749895 3.8541019662496847 0.6180339887498948 
endloop
endfacet
facet normal 0.8506508083520401 0.5257311121191335 -4.7220605667421817e-17 
outer loop
vertex 3.6180339887498945 2.23606797749979 0.0 
vertex 2.618033988749895 3.8541019662496847 0.6180339887498948 
vertex 3.0 3.23606797749979 1.618033988749895 
endloop
endfacet
facet normal 0.8506508083520399 0.5257311121191336 -1.8888242266968722e-16 
outer loop
vertex 3.6180339887498945 2.23606797749979 0.0 
vertex 3.0 3.23606797749979 1.618033988749895 
vertex 3.618033988749895 2.23606797749979 2.0 
endloop
endfacet
facet normal 0.85065080835204 0.5257311121191336 -1.8888242266968724e-16 
outer loop
vertex 3.6180339887498945 2.23606797749979 0.0 
vertex 3.618033988749895 2.23606797749979 2.0 
vertex 4.23606797749979 1.2360679774997896 1.618033988749895 
endloop
endfacet
facet normal 0.8506508083520398 0.5257311121191337 -9.44412113348436e-17 
outer loop
vertex 3.6180339887498945 2.23606797749979 0.0 
vertex 4.23606797749979 1.2360679774997896 1.618033988749895 
vertex 4.618033988749895 0.6180339887498948 0.6180339887498948 
endloop
endfacet
facet normal 0.5 0.8090169943749476 0.30901699437494745 
outer loop
vertex 2.3090169943749475 3.73606797749979 1.4270509831248424 
vertex 2.618033988749895 3.8541019662496847 0.6180339887498948 
vertex 1.618033988749895 4.23606797749979 1.2360679774997896 
endloop
endfacet
facet normal 0.49999999999999994 0.8090169943749475 0.3090169943749475 
outer loop
vertex 2.3090169943749475 3.73606797749979 1.4270509831248424 
vertex 1.618033988749895 4.23606797749979 1.2360679774997896 
vertex 2.0 3.618033988749895 2.23606797749979 
endloop
endfacet
facet normal 0.49999999999999994 0.8090169943749473 0.30901699437494745 
outer loop
vertex 2.3090169943749475 3.73606797749979 1.4270509831248424 
vertex 2.0 3.618033988749895 2.23606797749979 
vertex 3.0 3.23606797749979 1.618033988749895 
endloop
endfacet
facet normal 0.49999999999999994 0.8090169943749473 0.30901699437494745 
outer loop
vertex 2.3090169943749475 3.73606797749979 1.4270509831248424 
vertex 3.0 3.23606797749979 1.618033988749895 
vertex 2.618033988749895 3.8541019662496847 0.6180339887498948 
endloop
endfacet
facet normal 0.30901699437494745 0.5 0.8090169943749476 
outer loop
vertex 1.4270509831248424 2.3090169943749475 3.73606797749979 
vertex 0.6180339887498948 2.618033988749895 3.8541019662496847 
vertex 1.2360679774997896 1.618033988749895 4.23606797749979 
endloop
endfacet
facet normal 0.3090169943749475 0.49999999999999994 0.8090169943749475 
outer loop
vertex 1.4270509831248424 2.3090169943749475 3.73606797749979 
vertex 1.2360679774997896 1.618033988749895 4.23606797749979 
vertex 2.23606797749979 2.0 3.618033988749895 
endloop
endfacet
facet normal 0.30901699437494745 0.49999999999999994 0.8090169943749473 
outer loop
vertex 1.4270509831248424 2.3090169943749475 3.73606797749979 
vertex 2.23606797749979 2.0 3.618033988749895 
vertex 1.618033988749895 3.0 3.23606797749979 
endloop
endfacet
facet normal 0.30901699437494745 0.49999999999999994 0.8090169943749473 
outer loop
vertex 1.4270509831248424 2.3090169943749475 3.73606797749979 
vertex 1.618033988749895 3.0 3.23606797749979 
vertex 0.6180339887498948 2.618033988749895 3.8541019662496847 
endloop
endfacet
facet normal 0.0 0.8506508083520399 0.5257311121191337 
outer loop
vertex 0.0 3.6180339887498945 2.23606797749979 
vertex 0.6180339887498948 4.618033988749895 0.6180339887498948 
vertex -0.6180339887498948 4.618033988749895 0.6180339887498948 
endloop
endfacet
facet normal 9.444121133484361e-17 0.8506508083520399 0.5257311121191337 
outer loop
vertex 0.0 3.6180339887498945 2.23606797749979 
vertex -0.6180339887498948 4.618033988749895 0.6180339887498948 
vertex -1.618033988749895 4.23606797749979 1.2360679774997896 
endloop
endfacet
facet normal 1.888824226696872e-16 0.85065080835204 0.5257311121191336 
outer loop
vertex 0.0 3.6180339887498945 2.23606797749979 
vertex -1.618033988749895 4.23606797749979 1.2360679774997896 
vertex -2.0 3.618033988749895 2.23606797749979 
endloop
endfacet
facet normal 1.8888242266968722e-16 0.8506508083520399 0.5257311121191336 
outer loop
vertex 0.0 3.6180339887498945 2.23606797749979 
vertex -2.0 3.618033988749895 2.23606797749979 
vertex -1.618033988749895 3.0 3.23606797749979 
endloop
endfacet
facet normal 7.083090850113272e-17 0.8506508083520401 0.5257311121191336 
outer loop
vertex 0.0 3.6180339887498945 2.23606797749979 
vertex -1.618033988749895 3.0 3.23606797749979 
vertex -0.6180339887498948 2.618033988749895 3.8541019662496847 
endloop
endfacet
facet normal -0.0 0.85065080835204 0.5257311121191335 
outer loop
vertex 0.0 3.6180339887498945 2.23606797749979 
vertex -0.6180339887498948 2.618033988749895 3.8541019662496847 
vertex 0.6180339887498948 2.618033988749895 3.8541019662496847 
endloop
endfacet
facet normal -4.7220605667421817e-17 0.8506508083520401 0.5257311121191335 
outer loop
vertex 0.0 3.6180339887498945 2.23606797749979 
vertex 0.6180339887498948 2.618033988749895 3.8541019662496847 
vertex 1.618033988749895 3.0 3.23606797749979 
endloop
endfacet
facet normal -1.8888242266968722e-16 0.8506508083520399 0.5257311121191336 
outer loop
vertex 0.0 3.6180339887498945 2.23606797749979 
vertex 1.618033988749895 3.0 3.23606797749979 
vertex 2.0 3.618033988749895 2.23606797749979 
endloop
endfacet
facet normal -1.8888242266968724e-16 0.85065080835204 0.5257311121191336 
outer loop
vertex 0.0 3.6180339887498945 2.23606797749979 
vertex 2.0 3.618033988749895 2.23606797749979 
vertex 1.618033988749895 4.23606797749979 1.2360679774997896 
endloop
endfacet
facet normal -9.44412113348436e-17 0.8506508083520398 0.5257311121191337 
outer loop
vertex 0.0 3.6180339887498945 2.23606797749979 
vertex 1.618033988749895 4.23606797749979 1.2360679774997896 
vertex 0.6180339887498948 4.618033988749895 0.6180339887498948 
endloop
endfacet
facet normal -0.5257311121191336 4.722060566742181e-17 0.8506508083520398 
outer loop
vertex -2.23606797749979 0.0 3.6180339887498945 
vertex -0.6180339887498949 -0.6180339887498949 4.618033988749895 
vertex -0.6180339887498948 0.6180339887498948 4.618033988749895 
endloop
endfacet
facet normal -0.5257311121191337 -9.444121133484361e-17 0.8506508083520399 
outer loop
vertex -2.23606797749979 0.0 3.6180339887498945 
vertex -0.6180339887498948 0.6180339887498948 4.618033988749895 
vertex -1.2360679774997896 1.618033988749895 4.23606797749979 
endloop
endfacet
facet normal -0.5257311121191336 -1.888824226696872e-16 0.85065080835204 
outer loop
vertex -2.23606797749979 0.0 3.6180339887498945 
vertex -1.2360679774997896 1.618033988749895 4.23606797749979 
vertex -2.23606797749979 2.0 3.618033988749895 
endloop
endfacet
facet normal -0.5257311121191336 -1.8888242266968722e-16 0.8506508083520399 
outer loop
vertex -2.23606797749979 0.0 3.6180339887498945 
vertex -2.23606797749979 2.0 3.618033988749895 
vertex -3.23606797749979 1.618033988749895 3.0 
endloop
endfacet
facet normal -0.5257311121191336 -7.083090850113272e-17 0.8506508083520401 
outer loop
vertex -2.23606797749979 0.0 3.6180339887498945 
vertex -3.23606797749979 1.618033988749895 3.0 
vertex -3.8541019662496847 0.6180339887498948 2.618033988749895 
endloop
endfacet
facet normal -0.5257311121191335 0.0 0.85065080835204 
outer loop
vertex -2.23606797749979 0.0 3.6180339887498945 
vertex -3.8541019662496847 0.6180339887498948 2.618033988749895 
vertex -3.8541019662496847 -0.6180339887498948 2.618033988749895 
endloop
endfacet
facet normal -0.5257311121191335 4.7220605667421817e-17 0.8506508083520401 
outer loop
vertex -2.23606797749979 0.0 3.6180339887498945 
vertex -3.8541019662496847 -0.6180339887498948 2.618033988749895 
vertex -3.23606797749979 -1.618033988749895 3.0 
endloop
endfacet
facet normal -0.5257311121191336 1.8888242266968722e-16 0.8506508083520399 
outer loop
vertex -2.23606797749979 0.0 3.6180339887498945 
vertex -3.23606797749979 -1.618033988749895 3.0 
vertex -2.23606797749979 -2.0 3.618033988749895 
endloop
endfacet
facet normal -0.5257311121191336 1.8888242266968724e-16 0.85065080835204 
outer loop
vertex -2.23606797749979 0.0 3.6180339887498945 
vertex -2.23606797749979 -2.0 3.618033988749895 
vertex -1.2360679774997896 -1.618033988749895 4.23606797749979 
endloop
endfacet
facet normal -0.5257311121191337 7.08309085011327e-17 0.8506508083520398 
outer loop
vertex -2.23606797749979 0.0 3.6180339887498945 
vertex -1.2360679774997896 -1.618033988749895 4.23606797749979 
vertex -0.6180339887498949 -0.6180339887498949 4.618033988749895 
endloop
endfacet
facet normal -0.5773502691896257 0.5773502691896257 0.5773502691896257 
outer loop
vertex -2.618033988749895 2.618033988749895 2.618033988749895 
vertex -2.23606797749979 2.0 3.618033988749895 
vertex -1.618033988749895 3.0 3.23606797749979 
endloop
endfacet
facet normal -0.5773502691896257 0.5773502691896257 0.5773502691896257 
outer loop
vertex -2.618033988749895 2.618033988749895 2.618033988749895 
vertex -1.618033988749895 3.0 3.23606797749979 
vertex -2.0 3.618033988749895 2.23606797749979 
endloop
endfacet
facet normal -0.5773502691896257 0.5773502691896257 0.5773502691896257 
outer loop
vertex -2.618033988749895 2.618033988749895 2.618033988749895 
vertex -2.0 3.618033988749895 2.23606797749979 
vertex -3.0 3.23606797749979 1.618033988749895 
endloop
endfacet
facet normal -0.5773502691896257 0.5773502691896257 0.5773502691896257 
outer loop
vertex -2.618033988749895 2.618033988749895 2.618033988749895 
vertex -3.0 3.23606797749979 1.618033988749895 
vertex -3.618033988749895 2.23606797749979 2.0 
endloop
endfacet
facet normal -0.5773502691896257 0.5773502691896257 0.5773502691896257 
outer loop
vertex -2.618033988749895 2.618033988749895 2.618033988749895 
vertex -3.618033988749895 2.23606797749979 2.0 
vertex -3.23606797749979 1.618033988749895 3.0 
endloop
endfacet
facet normal -0.5773502691896257 0.5773502691896257 0.5773502691896257 
outer loop
vertex -2.618033988749895 2.618033988749895 2.618033988749895 
vertex -3.23606797749979 1.618033988749895 3.0 
vertex -2.23606797749979 2.0 3.618033988749895 
endloop
endfacet
facet normal -0.8090169943749476 0.30901699437494745 0.5 
outer loop
vertex -3.73606797749979 1.4270509831248424 2.3090169943749475 
vertex -4.23606797749979 1.2360679774997896 1.618033988749895 
vertex -3.8541019662496847 0.6180339887498948 2.618033988749895 
endloop
endfacet
facet normal -0.8090169943749473 0.30901699437494745 0.5 
outer loop
vertex -3.73606797749979 1.4270509831248424 2.3090169943749475 
vertex -3.8541019662496847 0.6180339887498948 2.618033988749895 
vertex -3.23606797749979 1.618033988749895 3.0 
endloop
endfacet
facet normal -0.8090169943749475 0.3090169943749475 0.5 
outer loop
vertex -3.73606797749979 1.4270509831248424 2.3090169943749475 
vertex -3.23606797749979 1.618033988749895 3.0 
vertex -3.618033988749895 2.23606797749979 2.0 
endloop
endfacet
facet normal -0.8090169943749473 0.30901699437494745 0.5 
outer loop
vertex -3.73606797749979 1.4270509831248424 2.3090169943749475 
vertex -3.618033988749895 2.23606797749979 2.0 
vertex -4.23606797749979 1.2360679774997896 1.618033988749895 
endloop
endfacet
facet normal 0.5773502691896257 -0.5773502691896257 0.5773502691896257 
outer loop
vertex 2.618033988749895 -2.618033988749895 2.618033988749895 
vertex 3.618033988749895 -2.23606797749979 2.0 
vertex 3.23606797749979 -1.618033988749895 3.0 
endloop
endfacet
facet normal 0.5773502691896257 -0.5773502691896257 0.5773502691896257 
outer loop
vertex 2.618033988749895 -2.618033988749895 2.618033988749895 
vertex 3.23606797749979 -1.618033988749895 3.0 
vertex 2.23606797749979 -2.0 3.618033988749895 
endloop
endfacet
facet normal 0.5773502691896257 -0.5773502691896257 0.5773502691896257 
outer loop
vertex 2.618033988749895 -2.618033988749895 2.618033988749895 
vertex 2.23606797749979 -2.0 3.618033988749895 
vertex 1.618033988749895 -3.0 3.23606797749979 
endloop
endfacet
facet normal 0.5773502691896257 -0.5773502691896257 0.5773502691896257 
outer loop
vertex 2.618033988749895 -2.618033988749895 2.618033988749895 
vertex 1.618033988749895 -3.0 3.23606797749979 
vertex 2.0 -3.618033988749895 2.23606797749979 
endloop
endfacet
facet normal 0.5773502691896257 -0.5773502691896257 0.5773502691896257 
outer loop
vertex 2.618033988749895 -2.618033988749895 2.618033988749895 
vertex 2.0 -3.618033988749895 2.23606797749979 
vertex 3.0 -3.23606797749979 1.618033988749895 
endloop
endfacet
facet normal 0.5773502691896257 -0.5773502691896257 0.5773502691896257 
outer loop
vertex 2.618033988749895 -2.618033988749895 2.618033988749895 
vertex 3.0 -3.23606797749979 1.618033988749895 
vertex 3.618033988749895 -2.23606797749979 2.0 
endloop
endfacet
facet normal 0.5 -0.8090169943749476 0.30901699437494745 
outer loop
vertex 2.3090169943749475 -3.73606797749979 1.4270509831248424 
vertex 1.618033988749895 -4.23606797749979 1.2360679774997896 
vertex 2.618033988749895 -3.8541019662496847 0.6180339887498948 
endloop
endfacet
facet normal 0.5 -0.8090169943749473 0.30901699437494745 
outer loop
vertex 2.3090169943749475 -3.73606797749979 1.4270509831248424 
vertex 2.618033988749895 -3.8541019662496847 0.6180339887498948 
vertex 3.0 -3.23606797749979 1.618033988749895 
endloop
endfacet
facet normal 0.49999999999999994 -0.8090169943749473 0.30901699437494745 
outer loop
vertex 2.3090169943749475 -3.73606797749979 1.4270509831248424 
vertex 3.0 -3.23606797749979 1.618033988749895 
vertex 2.0 -3.618033988749895 2.23606797749979 
endloop
endfacet
facet normal 0.5 -0.8090169943749473 0.30901699437494745 
outer loop
vertex 2.3090169943749475 -3.73606797749979 1.4270509831248424 
vertex 2.0 -3.618033988749895 2.23606797749979 
vertex 1.618033988749895 -4.23606797749979 1.2360679774997896 
endloop
endfacet
facet normal 0.8506508083520399 -0.5257311121191337 0.0 
outer loop
vertex 3.6180339887498945 -2.23606797749979 0.0 
vertex 4.618033988749895 -0.6180339887498948 -0.6180339887498948 
vertex 4.618033988749895 -0.6180339887498948 0.6180339887498948 
endloop
endfacet
facet normal 0.8506508083520399 -0.5257311121191337 -9.444121133484361e-17 
outer loop
vertex 3.6180339887498945 -2.23606797749979 0.0 
vertex 4.618033988749895 -0.6180339887498948 0.6180339887498948 
vertex 4.23606797749979 -1.2360679774997896 1.618033988749895 
endloop
endfacet
facet normal 0.85065080835204 -0.5257311121191336 -1.888824226696872e-16 
outer loop
vertex 3.6180339887498945 -2.23606797749979 0.0 
vertex 4.23606797749979 -1.2360679774997896 1.618033988749895 
vertex 3.618033988749895 -2.23606797749979 2.0 
endloop
endfacet
facet normal 0.8506508083520399 -0.5257311121191336 -1.8888242266968722e-16 
outer loop
vertex 3.6180339887498945 -2.23606797749979 0.0 
vertex 3.618033988749895 -2.23606797749979 2.0 
vertex 3.0 -3.23606797749979 1.618033988749895 
endloop
endfacet
facet normal 0.8506508083520401 -0.5257311121191336 -7.083090850113272e-17 
outer loop
vertex 3.6180339887498945 -2.23606797749979 0.0 
vertex 3.0 -3.23606797749979 1.618033988749895 
vertex 2.618033988749895 -3.8541019662496847 0.6180339887498948 
endloop
endfacet
facet normal 0.85065080835204 -0.5257311121191335 0.0 
outer loop
vertex 3.6180339887498945 -2.23606797749979 0.0 
vertex 2.618033988749895 -3.8541019662496847 0.6180339887498948 
vertex 2.618033988749895 -3.8541019662496847 -0.6180339887498948 
endloop
endfacet
facet normal 0.8506508083520401 -0.5257311121191335 4.7220605667421817e-17 
outer loop
vertex 3.6180339887498945 -2.23606797749979 0.0 
vertex 2.618033988749895 -3.8541019662496847 -0.6180339887498948 
vertex 3.0 -3.23606797749979 -1.618033988749895 
endloop
endfacet
facet normal 0.8506508083520399 -0.5257311121191336 1.8888242266968722e-16 
outer loop
vertex 3.6180339887498945 -2.23606797749979 0.0 
vertex 3.0 -3.23606797749979 -1.618033988749895 
vertex 3.618033988749895 -2.23606797749979 -2.0 
endloop
endfacet
facet normal 0.85065080835204 -0.5257311121191336 1.8888242266968724e-16 
outer loop
vertex 3.6180339887498945 -2.23606797749979 0.0 
vertex 3.618033988749895 -2.23606797749979 -2.0 
vertex 4.23606797749979 -1.2360679774997896 -1.618033988749895 
endloop
endfacet
facet normal 0.8506508083520398 -0.5257311121191337 9.44412113348436e-17 
outer loop
vertex 3.6180339887498945 -2.23606797749979 0.0 
vertex 4.23606797749979 -1.2360679774997896 -1.618033988749895 
vertex 4.618033988749895 -0.6180339887498948 -0.6180339887498948 
endloop
endfacet
facet normal 0.30901699437494745 0.5 -0.8090169943749476 
outer loop
vertex 1.4270509831248424 2.3090169943749475 -3.73606797749979 
vertex 1.2360679774997896 1.618033988749895 -4.23606797749979 
vertex 0.6180339887498948 2.618033988749895 -3.8541019662496847 
endloop
endfacet
facet normal 0.30901699437494745 0.5 -0.8090169943749473 
outer loop
vertex 1.4270509831248424 2.3090169943749475 -3.73606797749979 
vertex 0.6180339887498948 2.618033988749895 -3.8541019662496847 
vertex 1.618033988749895 3.0 -3.23606797749979 
endloop
endfacet
facet normal 0.30901699437494745 0.49999999999999994 -0.8090169943749473 
outer loop
vertex 1.4270509831248424 2.3090169943749475 -3.73606797749979 
vertex 1.618033988749895 3.0 -3.23606797749979 
vertex 2.23606797749979 2.0 -3.618033988749895 
endloop
endfacet
facet normal 0.30901699437494745 0.5 -0.8090169943749473 
outer loop
vertex 1.4270509831248424 2.3090169943749475 -3.73606797749979 
vertex 2.23606797749979 2.0 -3.618033988749895 
vertex 1.2360679774997896 1.618033988749895 -4.23606797749979 
endloop
endfacet
facet normal 0.0 0.8506508083520399 -0.5257311121191337 
outer loop
vertex 0.0 3.6180339887498945 -2.23606797749979 
vertex -0.6180339887498948 4.618033988749895 -0.6180339887498948 
vertex 0.6180339887498948 4.618033988749895 -0.6180339887498948 
endloop
endfacet
facet normal -9.444121133484361e-17 0.8506508083520399 -0.5257311121191337 
outer loop
vertex 0.0 3.6180339887498945 -2.23606797749979 
vertex 0.6180339887498948 4.618033988749895 -0.6180339887498948 
vertex 1.618033988749895 4.23606797749979 -1.2360679774997896 
endloop
endfacet
facet normal -1.888824226696872e-16 0.85065080835204 -0.5257311121191336 
outer loop
vertex 0.0 3.6180339887498945 -2.23606797749979 
vertex 1.618033988749895 4.23606797749979 -1.2360679774997896 
vertex 2.0 3.618033988749895 -2.23606797749979 
endloop
endfacet
facet normal -1.8888242266968722e-16 0.8506508083520399 -0.5257311121191336 
outer loop
vertex 0.0 3.6180339887498945 -2.23606797749979 
vertex 2.0 3.618033988749895 -2.23606797749979 
vertex 1.618033988749895 3.0 -3.23606797749979 
endloop
endfacet
facet normal -7.083090850113272e-17 0.8506508083520401 -0.5257311121191336 
outer loop
vertex 0.0 3.6180339887498945 -2.23606797749979 
vertex 1.618033988749895 3.0 -3.23606797749979 
vertex 0.6180339887498948 2.618033988749895 -3.8541019662496847 
endloop
endfacet
facet normal 0.0 0.85065080835204 -0.5257311121191335 
outer loop
vertex 0.0 3.6180339887498945 -2.23606797749979 
vertex 0.6180339887498948 2.618033988749895 -3.8541019662496847 
vertex -0.6180339887498948 2.618033988749895 -3.8541019662496847 
endloop
endfacet
facet normal 4.7220605667421817e-17 0.8506508083520401 -0.5257311121191335 
outer loop
vertex 0.0 3.6180339887498945 -2.23606797749979 
vertex -0.6180339887498948 2.618033988749895 -3.8541019662496847 
vertex -1.618033988749895 3.0 -3.23606797749979 
endloop
endfacet
facet normal 1.8888242266968722e-16 0.8506508083520399 -0.5257311121191336 
outer loop
vertex 0.0 3.6180339887498945 -2.23606797749979 
vertex -1.618033988749895 3.0 -3.23606797749979 
vertex -2.0 3.618033988749895 -2.23606797749979 
endloop
endfacet
facet normal 1.8888242266968724e-16 0.85065080835204 -0.5257311121191336 
outer loop
vertex 0.0 3.6180339887498945 -2.23606797749979 
vertex -2.0 3.618033988749895 -2.23606797749979 
vertex -1.618033988749895 4.23606797749979 -1.2360679774997896 
endloop
endfacet
facet normal 9.44412113348436e-17 0.8506508083520398 -0.5257311121191337 
outer loop
vertex 0.0 3.6180339887498945 -2.23606797749979 
vertex -1.618033988749895 4.23606797749979 -1.2360679774997896 
vertex -0.6180339887498948 4.618033988749895 -0.6180339887498948 
endloop
endfacet
facet normal 0.5773502691896257 0.5773502691896257 -0.5773502691896257 
outer loop
vertex 2.618033988749895 2.618033988749895 -2.618033988749895 
vertex 2.0 3.618033988749895 -2.23606797749979 
vertex 3.0 3.23606797749979 -1.618033988749895 
endloop
endfacet
facet normal 0.5773502691896257 0.5773502691896257 -0.5773502691896257 
outer loop
vertex 2.618033988749895 2.618033988749895 -2.618033988749895 
vertex 3.0 3.23606797749979 -1.618033988749895 
vertex 3.618033988749895 2.23606797749979 -2.0 
endloop
endfacet
facet normal 0.5773502691896257 0.5773502691896257 -0.5773502691896257 
outer loop
vertex 2.618033988749895 2.618033988749895 -2.618033988749895 
vertex 3.618033988749895 2.23606797749979 -2.0 
vertex 3.23606797749979 1.618033988749895 -3.0 
endloop
endfacet
facet normal 0.5773502691896257 0.5773502691896257 -0.5773502691896257 
outer loop
vertex 2.618033988749895 2.618033988749895 -2.618033988749895 
vertex 3.23606797749979 1.618033988749895 -3.0 
vertex 2.23606797749979 2.0 -3.618033988749895 
endloop
endfacet
facet normal 0.5773502691896257 0.5773502691896257 -0.5773502691896257 
outer loop
vertex 2.618033988749895 2.618033988749895 -2.618033988749895 
vertex 2.23606797749979 2.0 -3.618033988749895 
vertex 1.618033988749895 3.0 -3.23606797749979 
endloop
endfacet
facet normal 0.5773502691896257 0.5773502691896257 -0.5773502691896257 
outer loop
vertex 2.618033988749895 2.618033988749895 -2.618033988749895 
vertex 1.618033988749895 3.0 -3.23606797749979 
vertex 2.0 3.618033988749895 -2.23606797749979 
endloop
endfacet
facet normal 0.8090169943749476 0.30901699437494745 -0.5 
outer loop
vertex 3.73606797749979 1.4270509831248424 -2.3090169943749475 
vertex 4.23606797749979 1.2360679774997896 -1.618033988749895 
vertex 3.8541019662496847 0.6180339887498948 -2.618033988749895 
endloop
endfacet
facet normal 0.8090169943749473 0.30901699437494745 -0.5 
outer loop
vertex 3.73606797749979 1.4270509831248424 -2.3090169943749475 
vertex 3.8541019662496847 0.6180339887498948 -2.618033988749895 
vertex 3.23606797749979 1.618033988749895 -3.0 
endloop
endfacet
facet normal 0.8090169943749475 0.3090169943749475 -0.5 
outer loop
vertex 3.73606797749979 1.4270509831248424 -2.3090169943749475 
vertex 3.23606797749979 1.618033988749895 -3.0 
vertex 3.618033988749895 2.23606797749979 -2.0 
endloop
endfacet
facet normal 0.8090169943749473 0.30901699437494745 -0.5 
outer loop
vertex 3.73606797749979 1.4270509831248424 -2.3090169943749475 
vertex 3.618033988749895 2.23606797749979 -2.0 
vertex 4.23606797749979 1.2360679774997896 -1.618033988749895 
endloop
endfacet
facet normal 0.5257311121191337 0.0 -0.8506508083520399 
outer loop
vertex 2.23606797749979 0.0 -3.6180339887498945 
vertex 0.6180339887498948 -0.6180339887498948 -4.618033988749895 
vertex 0.6180339887498948 0.6180339887498948 -4.618033988749895 
endloop
endfacet
facet normal 0.5257311121191337 -9.444121133484361e-17 -0.8506508083520399 
outer loop
vertex 2.23606797749979 0.0 -3.6180339887498945 
vertex 0.6180339887498948 0.6180339887498948 -4.618033988749895 
vertex 1.2360679774997896 1.618033988749895 -4.23606797749979 
endloop
endfacet
facet normal 0.5257311121191336 -1.888824226696872e-16 -0.85065080835204 
outer loop
vertex 2.23606797749979 0.0 -3.6180339887498945 
vertex 1.2360679774997896 1.618033988749895 -4.23606797749979 
vertex 2.23606797749979 2.0 -3.618033988749895 
endloop
endfacet
facet normal 0.5257311121191336 -1.8888242266968722e-16 -0.8506508083520399 
outer loop
vertex 2.23606797749979 0.0 -3.6180339887498945 
vertex 2.23606797749979 2.0 -3.618033988749895 
vertex 3.23606797749979 1.618033988749895 -3.0 
endloop
endfacet
facet normal 0.5257311121191336 -7.083090850113272e-17 -0.8506508083520401 
outer loop
vertex 2.23606797749979 0.0 -3.6180339887498945 
vertex 3.23606797749979 1.618033988749895 -3.0 
vertex 3.8541019662496847 0.6180339887498948 -2.618033988749895 
endloop
endfacet
facet normal 0.5257311121191335 0.0 -0.85065080835204 
outer loop
vertex 2.23606797749979 0.0 -3.6180339887498945 
vertex 3.8541019662496847 0.6180339887498948 -2.618033988749895 
vertex 3.8541019662496847 -0.6180339887498948 -2.618033988749895 
endloop
endfacet
facet normal 0.5257311121191335 4.7220605667421817e-17 -0.8506508083520401 
outer loop
vertex 2.23606797749979 0.0 -3.6180339887498945 
vertex 3.8541019662496847 -0.6180339887498948 -2.618033988749895 
vertex 3.23606797749979 -1.618033988749895 -3.0 
endloop
endfacet
facet normal 0.5257311121191336 1.8888242266968722e-16 -0.8506508083520399 
outer loop
vertex 2.23606797749979 0.0 -3.6180339887498945 
vertex 3.23606797749979 -1.618033988749895 -3.0 
vertex 2.23606797749979 -2.0 -3.618033988749895 
endloop
endfacet
facet normal 0.5257311121191336 1.8888242266968724e-16 -0.85065080835204 
outer loop
vertex 2.23606797749979 0.0 -3.6180339887498945 
vertex 2.23606797749979 -2.0 -3.618033988749895 
vertex 1.2360679774997896 -1.618033988749895 -4.23606797749979 
endloop
endfacet
facet normal 0.5257311121191337 9.44412113348436e-17 -0.8506508083520398 
outer loop
vertex 2.23606797749979 0.0 -3.6180339887498945 
vertex 1.2360679774997896 -1.618033988749895 -4.23606797749979 
vertex 0.6180339887498948 -0.6180339887498948 -4.618033988749895 
endloop
endfacet
facet normal -0.8506508083520399 0.5257311121191337 0.0 
outer loop
vertex -3.6180339887498945 2.23606797749979 0.0 
vertex -4.618033988749895 0.6180339887498948 -0.6180339887498948 
vertex -4.618033988749895 0.6180339887498948 0.6180339887498948 
endloop
endfacet
facet normal -0.8506508083520399 0.5257311121191337 -9.444121133484361e-17 
outer loop
vertex -3.6180339887498945 2.23606797749979 0.0 
vertex -4.618033988749895 0.6180339887498948 0.6180339887498948 
vertex -4.23606797749979 1.2360679774997896 1.618033988749895 
endloop
endfacet
facet normal -0.85065080835204 0.5257311121191336 -1.888824226696872e-16 
outer loop
vertex -3.6180339887498945 2.23606797749979 0.0 
vertex -4.23606797749979 1.2360679774997896 1.618033988749895 
vertex -3.618033988749895 2.23606797749979 2.0 
endloop
endfacet
facet normal -0.8506508083520399 0.5257311121191336 -1.8888242266968722e-16 
outer loop
vertex -3.6180339887498945 2.23606797749979 0.0 
vertex -3.618033988749895 2.23606797749979 2.0 
vertex -3.0 3.23606797749979 1.618033988749895 
endloop
endfacet
facet normal -0.8506508083520401 0.5257311121191336 -7.083090850113272e-17 
outer loop
vertex -3.6180339887498945 2.23606797749979 0.0 
vertex -3.0 3.23606797749979 1.618033988749895 
vertex -2.618033988749895 3.8541019662496847 0.6180339887498948 
endloop
endfacet
facet normal -0.85065080835204 0.5257311121191335 0.0 
outer loop
vertex -3.6180339887498945 2.23606797749979 0.0 
vertex -2.618033988749895 3.8541019662496847 0.6180339887498948 
vertex -2.618033988749895 3.8541019662496847 -0.6180339887498948 
endloop
endfacet
facet normal -0.8506508083520401 0.5257311121191335 4.7220605667421817e-17 
outer loop
vertex -3.6180339887498945 2.23606797749979 0.0 
vertex -2.618033988749895 3.8541019662496847 -0.6180339887498948 
vertex -3.0 3.23606797749979 -1.618033988749895 
endloop
endfacet
facet normal -0.8506508083520399 0.5257311121191336 1.8888242266968722e-16 
outer loop
vertex -3.6180339887498945 2.23606797749979 0.0 
vertex -3.0 3.23606797749979 -1.618033988749895 
vertex -3.618033988749895 2.23606797749979 -2.0 
endloop
endfacet
facet normal -0.85065080835204 0.5257311121191336 1.8888242266968724e-16 
outer loop
vertex -3.6180339887498945 2.23606797749979 0.0 
vertex -3.618033988749895 2.23606797749979 -2.0 
vertex -4.23606797749979 1.2360679774997896 -1.618033988749895 
endloop
endfacet
facet normal -0.8506508083520398 0.5257311121191337 9.44412113348436e-17 
outer loop
vertex -3.6180339887498945 2.23606797749979 0.0 
vertex -4.23606797749979 1.2360679774997896 -1.618033988749895 
vertex -4.618033988749895 0.6180339887498948 -0.6180339887498948 
endloop
endfacet
facet normal -0.5 0.8090169943749476 0.30901699437494745 
outer loop
vertex -2.3090169943749475 3.73606797749979 1.4270509831248424 
vertex -1.618033988749895 4.23606797749979 1.2360679774997896 
vertex -2.618033988749895 3.8541019662496847 0.6180339887498948 
endloop
endfacet
facet normal -0.5 0.8090169943749473 0.30901699437494745 
outer loop
vertex -2.3090169943749475 3.73606797749979 1.4270509831248424 
vertex -2.618033988749895 3.8541019662496847 0.6180339887498948 
vertex -3.0 3.23606797749979 1.618033988749895 
endloop
endfacet
facet normal -0.49999999999999994 0.8090169943749473 0.30901699437494745 
outer loop
vertex -2.3090169943749475 3.73606797749979 1.4270509831248424 
vertex -3.0 3.23606797749979 1.618033988749895 
vertex -2.0 3.618033988749895 2.23606797749979 
endloop
endfacet
facet normal -0.5 0.8090169943749473 0.30901699437494745 
outer loop
vertex -2.3090169943749475 3.73606797749979 1.4270509831248424 
vertex -2.0 3.618033988749895 2.23606797749979 
vertex -1.618033988749895 4.23606797749979 1.2360679774997896 
endloop
endfacet
facet normal 0.0 -0.8506508083520399 0.5257311121191337 
outer loop
vertex 0.0 -3.6180339887498945 2.23606797749979 
vertex -0.6180339887498948 -4.618033988749895 0.6180339887498948 
vertex 0.6180339887498948 -4.618033988749895 0.6180339887498948 
endloop
endfacet
facet normal -9.444121133484361e-17 -0.8506508083520399 0.5257311121191337 
outer loop
vertex 0.0 -3.6180339887498945 2.23606797749979 
vertex 0.6180339887498948 -4.618033988749895 0.6180339887498948 
vertex 1.618033988749895 -4.23606797749979 1.2360679774997896 
endloop
endfacet
facet normal -1.888824226696872e-16 -0.85065080835204 0.5257311121191336 
outer loop
vertex 0.0 -3.6180339887498945 2.23606797749979 
vertex 1.618033988749895 -4.23606797749979 1.2360679774997896 
vertex 2.0 -3.618033988749895 2.23606797749979 
endloop
endfacet
facet normal -1.8888242266968722e-16 -0.8506508083520399 0.5257311121191336 
outer loop
vertex 0.0 -3.6180339887498945 2.23606797749979 
vertex 2.0 -3.618033988749895 2.23606797749979 
vertex 1.618033988749895 -3.0 3.23606797749979 
endloop
endfacet
facet normal -7.083090850113272e-17 -0.8506508083520401 0.5257311121191336 
outer loop
vertex 0.0 -3.6180339887498945 2.23606797749979 
vertex 1.618033988749895 -3.0 3.23606797749979 
vertex 0.6180339887498948 -2.618033988749895 3.8541019662496847 
endloop
endfacet
facet normal 0.0 -0.85065080835204 0.5257311121191335 
outer loop
vertex 0.0 -3.6180339887498945 2.23606797749979 
vertex 0.6180339887498948 -2.618033988749895 3.8541019662496847 
vertex -0.6180339887498948 -2.618033988749895 3.8541019662496847 
endloop
endfacet
facet normal 4.7220605667421817e-17 -0.8506508083520401 0.5257311121191335 
outer loop
vertex 0.0 -3.6180339887498945 2.23606797749979 
vertex -0.6180339887498948 -2.618033988749895 3.8541019662496847 
vertex -1.618033988749895 -3.0 3.23606797749979 
endloop
endfacet
facet normal 1.8888242266968722e-16 -0.8506508083520399 0.5257311121191336 
outer loop
vertex 0.0 -3.6180339887498945 2.23606797749979 
vertex -1.618033988749895 -3.0 3.23606797749979 
vertex -2.0 -3.618033988749895 2.23606797749979 
endloop
endfacet
facet normal 1.8888242266968724e-16 -0.85065080835204 0.5257311121191336 
outer loop
vertex 0.0 -3.6180339887498945 2.23606797749979 
vertex -2.0 -3.618033988749895 2.23606797749979 
vertex -1.618033988749895 -4.23606797749979 1.2360679774997896 
endloop
endfacet
facet normal 9.44412113348436e-17 -0.8506508083520398 0.5257311121191337 
outer loop
vertex 0.0 -3.6180339887498945 2.23606797749979 
vertex -1.618033988749895 -4.23606797749979 1.2360679774997896 
vertex -0.6180339887498948 -4.618033988749895 0.6180339887498948 
endloop
endfacet
facet normal 0.30901699437494745 -0.5 0.8090169943749476 
outer loop
vertex 1.4270509831248424 -2.3090169943749475 3.73606797749979 
vertex 1.2360679774997896 -1.618033988749895 4.23606797749979 
vertex 0.6180339887498948 -2.618033988749895 3.8541019662496847 
endloop
endfacet
facet normal 0.30901699437494745 -0.5 0.8090169943749473 
outer loop
vertex 1.4270509831248424 -2.3090169943749475 3.73606797749979 
vertex 0.6180339887498948 -2.618033988749895 3.8541019662496847 
vertex 1.618033988749895 -3.0 3.23606797749979 
endloop
endfacet
facet normal 0.30901699437494745 -0.49999999999999994 0.8090169943749473 
outer loop
vertex 1.4270509831248424 -2.3090169943749475 3.73606797749979 
vertex 1.618033988749895 -3.0 3.23606797749979 
vertex 2.23606797749979 -2.0 3.618033988749895 
endloop
endfacet
facet normal 0.30901699437494745 -0.5 0.8090169943749473 
outer loop
vertex 1.4270509831248424 -2.3090169943749475 3.73606797749979 
vertex 2.23606797749979 -2.0 3.618033988749895 
vertex 1.2360679774997896 -1.618033988749895 4.23606797749979 
endloop
endfacet
facet normal -0.8090169943749476 0.30901699437494745 -0.5 
outer loop
vertex -3.73606797749979 1.4270509831248424 -2.3090169943749475 
vertex -3.8541019662496847 0.6180339887498948 -2.618033988749895 
vertex -4.23606797749979 1.2360679774997896 -1.618033988749895 
endloop
endfacet
facet normal -0.8090169943749475 0.3090169943749475 -0.49999999999999994 
outer loop
vertex -3.73606797749979 1.4270509831248424 -2.3090169943749475 
vertex -4.23606797749979 1.2360679774997896 -1.618033988749895 
vertex -3.618033988749895 2.23606797749979 -2.0 
endloop
endfacet
facet normal -0.8090169943749475 0.3090169943749475 -0.5 
outer loop
vertex -3.73606797749979 1.4270509831248424 -2.3090169943749475 
vertex -3.618033988749895 2.23606797749979 -2.0 
vertex -3.23606797749979 1.618033988749895 -3.0 
endloop
endfacet
facet normal -0.8090169943749475 0.3090169943749475 -0.5 
outer loop
vertex -3.73606797749979 1.4270509831248424 -2.3090169943749475 
vertex -3.23606797749979 1.618033988749895 -3.0 
vertex -3.8541019662496847 0.6180339887498948 -2.618033988749895 
endloop
endfacet
facet normal -0.5773502691896257 0.5773502691896257 -0.5773502691896257 
outer loop
vertex -2.618033988749895 2.618033988749895 -2.618033988749895 
vertex -2.0 3.618033988749895 -2.23606797749979 
vertex -1.618033988749895 3.0 -3.23606797749979 
endloop
endfacet
facet normal -0.5773502691896257 0.5773502691896257 -0.5773502691896257 
outer loop
vertex -2.618033988749895 2.618033988749895 -2.618033988749895 
vertex -1.618033988749895 3.0 -3.23606797749979 
vertex -2.23606797749979 2.0 -3.618033988749895 
endloop
endfacet
facet normal -0.5773502691896257 0.5773502691896257 -0.5773502691896257 
outer loop
vertex -2.618033988749895 2.618033988749895 -2.618033988749895 
vertex -2.23606797749979 2.0 -3.618033988749895 
vertex -3.23606797749979 1.618033988749895 -3.0 
endloop
endfacet
facet normal -0.5773502691896257 0.5773502691896257 -0.5773502691896257 
outer loop
vertex -2.618033988749895 2.618033988749895 -2.618033988749895 
vertex -3.23606797749979 1.618033988749895 -3.0 
vertex -3.618033988749895 2.23606797749979 -2.0 
endloop
endfacet
facet normal -0.5773502691896257 0.5773502691896257 -0.5773502691896257 
outer loop
vertex -2.618033988749895 2.618033988749895 -2.618033988749895 
vertex -3.618033988749895 2.23606797749979 -2.0 
vertex -3.0 3.23606797749979 -1.618033988749895 
endloop
endfacet
facet normal -0.5773502691896257 0.5773502691896257 -0.5773502691896257 
outer loop
vertex -2.618033988749895 2.618033988749895 -2.618033988749895 
vertex -3.0 3.23606797749979 -1.618033988749895 
vertex -2.0 3.618033988749895 -2.23606797749979 
endloop
endfacet
facet normal -0.5257311121191336 4.722060566742181e-17 -0.8506508083520398 
outer loop
vertex -2.23606797749979 0.0 -3.6180339887498945 
vertex -0.6180339887498948 0.6180339887498948 -4.618033988749895 
vertex -0.6180339887498949 -0.6180339887498949 -4.618033988749895 
endloop
endfacet
facet normal -0.5257311121191337 4.72206056674218e-17 -0.8506508083520398 
outer loop
vertex -2.23606797749979 0.0 -3.6180339887498945 
vertex -0.6180339887498949 -0.6180339887498949 -4.618033988749895 
vertex -1.2360679774997896 -1.618033988749895 -4.23606797749979 
endloop
endfacet
facet normal -0.5257311121191336 1.888824226696872e-16 -0.85065080835204 
outer loop
vertex -2.23606797749979 0.0 -3.6180339887498945 
vertex -1.2360679774997896 -1.618033988749895 -4.23606797749979 
vertex -2.23606797749979 -2.0 -3.618033988749895 
endloop
endfacet
facet normal -0.5257311121191336 1.8888242266968722e-16 -0.8506508083520399 
outer loop
vertex -2.23606797749979 0.0 -3.6180339887498945 
vertex -2.23606797749979 -2.0 -3.618033988749895 
vertex -3.23606797749979 -1.618033988749895 -3.0 
endloop
endfacet
facet normal -0.5257311121191336 7.083090850113272e-17 -0.8506508083520401 
outer loop
vertex -2.23606797749979 0.0 -3.6180339887498945 
vertex -3.23606797749979 -1.618033988749895 -3.0 
vertex -3.8541019662496847 -0.6180339887498948 -2.618033988749895 
endloop
endfacet
facet normal -0.5257311121191335 0.0 -0.85065080835204 
outer loop
vertex -2.23606797749979 0.0 -3.6180339887498945 
vertex -3.8541019662496847 -0.6180339887498948 -2.618033988749895 
vertex -3.8541019662496847 0.6180339887498948 -2.618033988749895 
endloop
endfacet
facet normal -0.5257311121191335 -4.7220605667421817e-17 -0.8506508083520401 
outer loop
vertex -2.23606797749979 0.0 -3.6180339887498945 
vertex -3.8541019662496847 0.6180339887498948 -2.618033988749895 
vertex -3.23606797749979 1.618033988749895 -3.0 
endloop
endfacet
facet normal -0.5257311121191336 -1.8888242266968722e-16 -0.8506508083520399 
outer loop
vertex -2.23606797749979 0.0 -3.6180339887498945 
vertex -3.23606797749979 1.618033988749895 -3.0 
vertex -2.23606797749979 2.0 -3.618033988749895 
endloop
endfacet
facet normal -0.5257311121191336 -1.8888242266968724e-16 -0.85065080835204 
outer loop
vertex -2.23606797749979 0.0 -3.6180339887498945 
vertex -2.23606797749979 2.0 -3.618033988749895 
vertex -1.2360679774997896 1.618033988749895 -4.23606797749979 
endloop
endfacet
facet normal -0.5257311121191337 -9.44412113348436e-17 -0.8506508083520398 
outer loop
vertex -2.23606797749979 0.0 -3.6180339887498945 
vertex -1.2360679774997896 1.618033988749895 -4.23606797749979 
vertex -0.6180339887498948 0.6180339887498948 -4.618033988749895 
endloop
endfacet
facet normal -0.5773502691896257 -0.5773502691896257 0.5773502691896257 
outer loop
vertex -2.618033988749895 -2.618033988749895 2.618033988749895 
vertex -2.23606797749979 -2.0 3.618033988749895 
vertex -3.23606797749979 -1.618033988749895 3.0 
endloop
endfacet
facet normal -0.5773502691896257 -0.5773502691896257 0.5773502691896257 
outer loop
vertex -2.618033988749895 -2.618033988749895 2.618033988749895 
vertex -3.23606797749979 -1.618033988749895 3.0 
vertex -3.618033988749895 -2.23606797749979 2.0 
endloop
endfacet
facet normal -0.5773502691896257 -0.5773502691896257 0.5773502691896257 
outer loop
vertex -2.618033988749895 -2.618033988749895 2.618033988749895 
vertex -3.618033988749895 -2.23606797749979 2.0 
vertex -3.0 -3.23606797749979 1.618033988749895 
endloop
endfacet
facet normal -0.5773502691896257 -0.5773502691896257 0.5773502691896257 
outer loop
vertex -2.618033988749895 -2.618033988749895 2.618033988749895 
vertex -3.0 -3.23606797749979 1.618033988749895 
vertex -2.0 -3.618033988749895 2.23606797749979 
endloop
endfacet
facet normal -0.5773502691896257 -0.5773502691896257 0.5773502691896257 
outer loop
vertex -2.618033988749895 -2.618033988749895 2.618033988749895 
vertex -2.0 -3.618033988749895 2.23606797749979 
vertex -1.618033988749895 -3.0 3.23606797749979 
endloop
endfacet
facet normal -0.5773502691896257 -0.5773502691896257 0.5773502691896257 
outer loop
vertex -2.618033988749895 -2.618033988749895 2.618033988749895 
vertex -1.618033988749895 -3.0 3.23606797749979 
vertex -2.23606797749979 -2.0 3.618033988749895 
endloop
endfacet
facet normal -0.8506508083520399 -0.5257311121191337 4.722060566742183e-17 
outer loop
vertex -3.6180339887498945 -2.23606797749979 0.0 
vertex -4.618033988749895 -0.6180339887498948 0.6180339887498948 
vertex -4.618033988749895 -0.6180339887498949 -0.6180339887498948 
endloop
endfacet
facet normal -0.8506508083520399 -0.5257311121191337 4.7220605667421804e-17 
outer loop
vertex -3.6180339887498945 -2.23606797749979 0.0 
vertex -4.618033988749895 -0.6180339887498949 -0.6180339887498948 
vertex -4.23606797749979 -1.2360679774997896 -1.618033988749895 
endloop
endfacet
facet normal -0.85065080835204 -0.5257311121191336 1.888824226696872e-16 
outer loop
vertex -3.6180339887498945 -2.23606797749979 0.0 
vertex -4.23606797749979 -1.2360679774997896 -1.618033988749895 
vertex -3.618033988749895 -2.23606797749979 -2.0 
endloop
endfacet
facet normal -0.8506508083520399 -0.5257311121191336 1.8888242266968722e-16 
outer loop
vertex -3.6180339887498945 -2.23606797749979 0.0 
vertex -3.618033988749895 -2.23606797749979 -2.0 
vertex -3.0 -3.23606797749979 -1.618033988749895 
endloop
endfacet
facet normal -0.8506508083520401 -0.5257311121191336 7.083090850113272e-17 
outer loop
vertex -3.6180339887498945 -2.23606797749979 0.0 
vertex -3.0 -3.23606797749979 -1.618033988749895 
vertex -2.618033988749895 -3.8541019662496847 -0.6180339887498948 
endloop
endfacet
facet normal -0.85065080835204 -0.5257311121191335 0.0 
outer loop
vertex -3.6180339887498945 -2.23606797749979 0.0 
vertex -2.618033988749895 -3.8541019662496847 -0.6180339887498948 
vertex -2.618033988749895 -3.8541019662496847 0.6180339887498948 
endloop
endfacet
facet normal -0.8506508083520401 -0.5257311121191335 -4.7220605667421817e-17 
outer loop
vertex -3.6180339887498945 -2.23606797749979 0.0 
vertex -2.618033988749895 -3.8541019662496847 0.6180339887498948 
vertex -3.0 -3.23606797749979 1.618033988749895 
endloop
endfacet
facet normal -0.8506508083520399 -0.5257311121191336 -1.8888242266968722e-16 
outer loop
vertex -3.6180339887498945 -2.23606797749979 0.0 
vertex -3.0 -3.23606797749979 1.618033988749895 
vertex -3.618033988749895 -2.23606797749979 2.0 
endloop
endfacet
facet normal -0.85065080835204 -0.5257311121191336 -1.8888242266968724e-16 
outer loop
vertex -3.6180339887498945 -2.23606797749979 0.0 
vertex -3.618033988749895 -2.23606797749979 2.0 
vertex -4.23606797749979 -1.2360679774997896 1.618033988749895 
endloop
endfacet
facet normal -0.8506508083520398 -0.5257311121191337 -9.44412113348436e-17 
outer loop
vertex -3.6180339887498945 -2.23606797749979 0.0 
vertex -4.23606797749979 -1.2360679774997896 1.618033988749895 
vertex -4.618033988749895 -0.6180339887498948 0.6180339887498948 
endloop
endfacet
facet normal -0.5 -0.8090169943749476 0.30901699437494745 
outer loop
vertex -2.3090169943749475 -3.73606797749979 1.4270509831248424 
vertex -2.618033988749895 -3.8541019662496847 0.6180339887498948 
vertex -1.618033988749895 -4.23606797749979 1.2360679774997896 
endloop
endfacet
facet normal -0.49999999999999994 -0.8090169943749475 0.3090169943749475 
outer loop
vertex -2.3090169943749475 -3.73606797749979 1.4270509831248424 
vertex -1.618033988749895 -4.23606797749979 1.2360679774997896 
vertex -2.0 -3.618033988749895 2.23606797749979 
endloop
endfacet
facet normal -0.49999999999999994 -0.8090169943749473 0.30901699437494745 
outer loop
vertex -2.3090169943749475 -3.73606797749979 1.4270509831248424 
vertex -2.0 -3.618033988749895 2.23606797749979 
vertex -3.0 -3.23606797749979 1.618033988749895 
endloop
endfacet
facet normal -0.49999999999999994 -0.8090169943749473 0.30901699437494745 
outer loop
vertex -2.3090169943749475 -3.73606797749979 1.4270509831248424 
vertex -3.0 -3.23606797749979 1.618033988749895 
vertex -2.618033988749895 -3.8541019662496847 0.6180339887498948 
endloop
endfacet
facet normal 0.30901699437494745 -0.5 -0.8090169943749476 
outer loop
vertex 1.4270509831248424 -2.3090169943749475 -3.73606797749979 
vertex 0.6180339887498948 -2.618033988749895 -3.8541019662496847 
vertex 1.2360679774997896 -1.618033988749895 -4.23606797749979 
endloop
endfacet
facet normal 0.3090169943749475 -0.49999999999999994 -0.8090169943749475 
outer loop
vertex 1.4270509831248424 -2.3090169943749475 -3.73606797749979 
vertex 1.2360679774997896 -1.618033988749895 -4.23606797749979 
vertex 2.23606797749979 -2.0 -3.618033988749895 
endloop
endfacet
facet normal 0.30901699437494745 -0.49999999999999994 -0.8090169943749473 
outer loop
vertex 1.4270509831248424 -2.3090169943749475 -3.73606797749979 
vertex 2.23606797749979 -2.0 -3.618033988749895 
vertex 1.618033988749895 -3.0 -3.23606797749979 
endloop
endfacet
facet normal 0.30901699437494745 -0.49999999999999994 -0.8090169943749473 
outer loop
vertex 1.4270509831248424 -2.3090169943749475 -3.73606797749979 
vertex 1.618033988749895 -3.0 -3.23606797749979 
vertex 0.6180339887498948 -2.618033988749895 -3.8541019662496847 
endloop
endfacet
facet normal 0.5773502691896257 -0.5773502691896257 -0.5773502691896257 
outer loop
vertex 2.618033988749895 -2.618033988749895 -2.618033988749895 
vertex 3.618033988749895 -2.23606797749979 -2.0 
vertex 3.0 -3.23606797749979 -1.618033988749895 
endloop
endfacet
facet normal 0.5773502691896257 -0.5773502691896257 -0.5773502691896257 
outer loop
vertex 2.618033988749895 -2.618033988749895 -2.618033988749895 
vertex 3.0 -3.23606797749979 -1.618033988749895 
vertex 2.0 -3.618033988749895 -2.23606797749979 
endloop
endfacet
facet normal 0.5773502691896257 -0.5773502691896257 -0.5773502691896257 
outer loop
vertex 2.618033988749895 -2.618033988749895 -2.618033988749895 
vertex 2.0 -3.618033988749895 -2.23606797749979 
vertex 1.618033988749895 -3.0 -3.23606797749979 
endloop
endfacet
facet normal 0.5773502691896257 -0.5773502691896257 -0.5773502691896257 
outer loop
vertex 2.618033988749895 -2.618033988749895 -2.618033988749895 
vertex 1.618033988749895 -3.0 -3.23606797749979 
vertex 2.23606797749979 -2.0 -3.618033988749895 
endloop
endfacet
facet normal 0.5773502691896257 -0.5773502691896257 -0.5773502691896257 
outer loop
vertex 2.618033988749895 -2.618033988749895 -2.618033988749895 
vertex 2.23606797749979 -2.0 -3.618033988749895 
vertex 3.23606797749979 -1.618033988749895 -3.0 
endloop
endfacet
facet normal 0.5773502691896257 -0.5773502691896257 -0.5773502691896257 
outer loop
vertex 2.618033988749895 -2.618033988749895 -2.618033988749895 
vertex 3.23606797749979 -1.618033988749895 -3.0 
vertex 3.618033988749895 -2.23606797749979 -2.0 
endloop
endfacet
facet normal -0.0 -0.8506508083520398 -0.5257311121191336 
outer loop
vertex 0.0 -3.6180339887498945 -2.23606797749979 
vertex 0.6180339887498948 -4.618033988749895 -0.6180339887498948 
vertex -0.6180339887498949 -4.618033988749895 -0.6180339887498948 
endloop
endfacet
facet normal 9.44412113348436e-17 -0.8506508083520398 -0.5257311121191337 
outer loop
vertex 0.0 -3.6180339887498945 -2.23606797749979 
vertex -0.6180339887498949 -4.618033988749895 -0.6180339887498948 
vertex -1.618033988749895 -4.23606797749979 -1.2360679774997896 
endloop
endfacet
facet normal 1.888824226696872e-16 -0.85065080835204 -0.5257311121191336 
outer loop
vertex 0.0 -3.6180339887498945 -2.23606797749979 
vertex -1.618033988749895 -4.23606797749979 -1.2360679774997896 
vertex -2.0 -3.618033988749895 -2.23606797749979 
endloop
endfacet
facet normal 1.8888242266968722e-16 -0.8506508083520399 -0.5257311121191336 
outer loop
vertex 0.0 -3.6180339887498945 -2.23606797749979 
vertex -2.0 -3.618033988749895 -2.23606797749979 
vertex -1.618033988749895 -3.0 -3.23606797749979 
endloop
endfacet
facet normal 7.083090850113272e-17 -0.8506508083520401 -0.5257311121191336 
outer loop
vertex 0.0 -3.6180339887498945 -2.23606797749979 
vertex -1.618033988749895 -3.0 -3.23606797749979 
vertex -0.6180339887498948 -2.618033988749895 -3.8541019662496847 
endloop
endfacet
facet normal 0.0 -0.85065080835204 -0.5257311121191335 
outer loop
vertex 0.0 -3.6180339887498945 -2.23606797749979 
vertex -0.6180339887498948 -2.618033988749895 -3.8541019662496847 
vertex 0.6180339887498948 -2.618033988749895 -3.8541019662496847 
endloop
endfacet
facet normal -4.7220605667421817e-17 -0.8506508083520401 -0.5257311121191335 
outer loop
vertex 0.0 -3.6180339887498945 -2.23606797749979 
vertex 0.6180339887498948 -2.618033988749895 -3.8541019662496847 
vertex 1.618033988749895 -3.0 -3.23606797749979 
endloop
endfacet
facet normal -1.8888242266968722e-16 -0.8506508083520399 -0.5257311121191336 
outer loop
vertex 0.0 -3.6180339887498945 -2.23606797749979 
vertex 1.618033988749895 -3.0 -3.23606797749979 
vertex 2.0 -3.618033988749895 -2.23606797749979 
endloop
endfacet
facet normal -1.8888242266968724e-16 -0.85065080835204 -0.5257311121191336 
outer loop
vertex 0.0 -3.6180339887498945 -2.23606797749979 
vertex 2.0 -3.618033988749895 -2.23606797749979 
vertex 1.618033988749895 -4.23606797749979 -1.2360679774997896 
endloop
endfacet
facet normal -9.44412113348436e-17 -0.8506508083520398 -0.5257311121191337 
outer loop
vertex 0.0 -3.6180339887498945 -2.23606797749979 
vertex 1.618033988749895 -4.23606797749979 -1.2360679774997896 
vertex 0.6180339887498948 -4.618033988749895 -0.6180339887498948 
endloop
endfacet
facet normal 0.8090169943749476 -0.30901699437494745 0.5 
outer loop
vertex 3.73606797749979 -1.4270509831248424 2.3090169943749475 
vertex 4.23606797749979 -1.2360679774997896 1.618033988749895 
vertex 3.8541019662496847 -0.6180339887498948 2.618033988749895 
endloop
endfacet
facet normal 0.8090169943749473 -0.30901699437494745 0.5 
outer loop
vertex 3.73606797749979 -1.4270509831248424 2.3090169943749475 
vertex 3.8541019662496847 -0.6180339887498948 2.618033988749895 
vertex 3.23606797749979 -1.618033988749895 3.0 
endloop
endfacet
facet normal 0.8090169943749475 -0.3090169943749475 0.5 
outer loop
vertex 3.73606797749979 -1.4270509831248424 2.3090169943749475 
vertex 3.23606797749979 -1.618033988749895 3.0 
vertex 3.618033988749895 -2.23606797749979 2.0 
endloop
endfacet
facet normal 0.8090169943749473 -0.30901699437494745 0.5 
outer loop
vertex 3.73606797749979 -1.4270509831248424 2.3090169943749475 
vertex 3.618033988749895 -2.23606797749979 2.0 
vertex 4.23606797749979 -1.2360679774997896 1.618033988749895 
endloop
endfacet
facet normal 0.5 0.8090169943749476 -0.30901699437494745 
outer loop
vertex 2.3090169943749475 3.73606797749979 -1.4270509831248424 
vertex 1.618033988749895 4.23606797749979 -1.2360679774997896 
vertex 2.618033988749895 3.8541019662496847 -0.6180339887498948 
endloop
endfacet
facet normal 0.5 0.8090169943749473 -0.30901699437494745 
outer loop
vertex 2.3090169943749475 3.73606797749979 -1.4270509831248424 
vertex 2.618033988749895 3.8541019662496847 -0.6180339887498948 
vertex 3.0 3.23606797749979 -1.618033988749895 
endloop
endfacet
facet normal 0.49999999999999994 0.8090169943749473 -0.30901699437494745 
outer loop
vertex 2.3090169943749475 3.73606797749979 -1.4270509831248424 
vertex 3.0 3.23606797749979 -1.618033988749895 
vertex 2.0 3.618033988749895 -2.23606797749979 
endloop
endfacet
facet normal 0.5 0.8090169943749473 -0.30901699437494745 
outer loop
vertex 2.3090169943749475 3.73606797749979 -1.4270509831248424 
vertex 2.0 3.618033988749895 -2.23606797749979 
vertex 1.618033988749895 4.23606797749979 -1.2360679774997896 
endloop
endfacet
facet normal -0.30901699437494745 0.5 0.8090169943749476 
outer loop
vertex -1.4270509831248424 2.3090169943749475 3.73606797749979 
vertex -1.2360679774997896 1.618033988749895 4.23606797749979 
vertex -0.6180339887498948 2.618033988749895 3.8541019662496847 
endloop
endfacet
facet normal -0.30901699437494745 0.5 0.8090169943749473 
outer loop
vertex -1.4270509831248424 2.3090169943749475 3.73606797749979 
vertex -0.6180339887498948 2.618033988749895 3.8541019662496847 
vertex -1.618033988749895 3.0 3.23606797749979 
endloop
endfacet
facet normal -0.30901699437494745 0.49999999999999994 0.8090169943749473 
outer loop
vertex -1.4270509831248424 2.3090169943749475 3.73606797749979 
vertex -1.618033988749895 3.0 3.23606797749979 
vertex -2.23606797749979 2.0 3.618033988749895 
endloop
endfacet
facet normal -0.30901699437494745 0.5 0.8090169943749473 
outer loop
vertex -1.4270509831248424 2.3090169943749475 3.73606797749979 
vertex -2.23606797749979 2.0 3.618033988749895 
vertex -1.2360679774997896 1.618033988749895 4.23606797749979 
endloop
endfacet
facet normal -0.8090169943749476 -0.30901699437494745 0.5 
outer loop
vertex -3.73606797749979 -1.4270509831248424 2.3090169943749475 
vertex -3.8541019662496847 -0.6180339887498948 2.618033988749895 
vertex -4.23606797749979 -1.2360679774997896 1.618033988749895 
endloop
endfacet
facet normal -0.8090169943749475 -0.3090169943749475 0.49999999999999994 
outer loop
vertex -3.73606797749979 -1.4270509831248424 2.3090169943749475 
vertex -4.23606797749979 -1.2360679774997896 1.618033988749895 
vertex -3.618033988749895 -2.23606797749979 2.0 
endloop
endfacet
facet normal -0.8090169943749475 -0.3090169943749475 0.5 
outer loop
vertex -3.73606797749979 -1.4270509831248424 2.3090169943749475 
vertex -3.618033988749895 -2.23606797749979 2.0 
vertex -3.23606797749979 -1.618033988749895 3.0 
endloop
endfacet
facet normal -0.8090169943749475 -0.3090169943749475 0.5 
outer loop
vertex -3.73606797749979 -1.4270509831248424 2.3090169943749475 
vertex -3.23606797749979 -1.618033988749895 3.0 
vertex -3.8541019662496847 -0.6180339887498948 2.618033988749895 
endloop
endfacet
facet normal 0.5 -0.8090169943749476 -0.30901699437494745 
outer loop
vertex 2.3090169943749475 -3.73606797749979 -1.4270509831248424 
vertex 2.618033988749895 -3.8541019662496847 -0.6180339887498948 
vertex 1.618033988749895 -4.23606797749979 -1.2360679774997896 
endloop
endfacet
facet normal 0.49999999999999994 -0.8090169943749475 -0.3090169943749475 
outer loop
vertex 2.3090169943749475 -3.73606797749979 -1.4270509831248424 
vertex 1.618033988749895 -4.23606797749979 -1.2360679774997896 
vertex 2.0 -3.618033988749895 -2.23606797749979 
endloop
endfacet
facet normal 0.49999999999999994 -0.8090169943749473 -0.30901699437494745 
outer loop
vertex 2.3090169943749475 -3.73606797749979 -1.4270509831248424 
vertex 2.0 -3.618033988749895 -2.23606797749979 
vertex 3.0 -3.23606797749979 -1.618033988749895 
endloop
endfacet
facet normal 0.49999999999999994 -0.8090169943749473 -0.30901699437494745 
outer loop
vertex 2.3090169943749475 -3.73606797749979 -1.4270509831248424 
vertex 3.0 -3.23606797749979 -1.618033988749895 
vertex 2.618033988749895 -3.8541019662496847 -0.6180339887498948 
endloop
endfacet
facet normal -0.30901699437494745 0.5 -0.8090169943749476 
outer loop
vertex -1.4270509831248424 2.3090169943749475 -3.73606797749979 
vertex -0.6180339887498948 2.618033988749895 -3.8541019662496847 
vertex -1.2360679774997896 1.618033988749895 -4.23606797749979 
endloop
endfacet
facet normal -0.3090169943749475 0.49999999999999994 -0.8090169943749475 
outer loop
vertex -1.4270509831248424 2.3090169943749475 -3.73606797749979 
vertex -1.2360679774997896 1.618033988749895 -4.23606797749979 
vertex -2.23606797749979 2.0 -3.618033988749895 
endloop
endfacet
facet normal -0.30901699437494745 0.49999999999999994 -0.8090169943749473 
outer loop
vertex -1.4270509831248424 2.3090169943749475 -3.73606797749979 
vertex -2.23606797749979 2.0 -3.618033988749895 
vertex -1.618033988749895 3.0 -3.23606797749979 
endloop
endfacet
facet normal -0.30901699437494745 0.49999999999999994 -0.8090169943749473 
outer loop
vertex -1.4270509831248424 2.3090169943749475 -3.73606797749979 
vertex -1.618033988749895 3.0 -3.23606797749979 
vertex -0.6180339887498948 2.618033988749895 -3.8541019662496847 
endloop
endfacet
facet normal 0.8090169943749476 -0.30901699437494745 -0.5 
outer loop
vertex 3.73606797749979 -1.4270509831248424 -2.3090169943749475 
vertex 3.8541019662496847 -0.6180339887498948 -2.618033988749895 
vertex 4.23606797749979 -1.2360679774997896 -1.618033988749895 
endloop
endfacet
facet normal 0.8090169943749475 -0.3090169943749475 -0.49999999999999994 
outer loop
vertex 3.73606797749979 -1.4270509831248424 -2.3090169943749475 
vertex 4.23606797749979 -1.2360679774997896 -1.618033988749895 
vertex 3.618033988749895 -2.23606797749979 -2.0 
endloop
endfacet
facet normal 0.8090169943749475 -0.3090169943749475 -0.5 
outer loop
vertex 3.73606797749979 -1.4270509831248424 -2.3090169943749475 
vertex 3.618033988749895 -2.23606797749979 -2.0 
vertex 3.23606797749979 -1.618033988749895 -3.0 
endloop
endfacet
facet normal 0.8090169943749475 -0.3090169943749475 -0.5 
outer loop
vertex 3.73606797749979 -1.4270509831248424 -2.3090169943749475 
vertex 3.23606797749979 -1.618033988749895 -3.0 
vertex 3.8541019662496847 -0.6180339887498948 -2.618033988749895 
endloop
endfacet
facet normal -0.5 0.8090169943749476 -0.30901699437494745 
outer loop
vertex -2.3090169943749475 3.73606797749979 -1.4270509831248424 
vertex -2.618033988749895 3.8541019662496847 -0.6180339887498948 
vertex -1.618033988749895 4.23606797749979 -1.2360679774997896 
endloop
endfacet
facet normal -0.49999999999999994 0.8090169943749475 -0.3090169943749475 
outer loop
vertex -2.3090169943749475 3.73606797749979 -1.4270509831248424 
vertex -1.618033988749895 4.23606797749979 -1.2360679774997896 
vertex -2.0 3.618033988749895 -2.23606797749979 
endloop
endfacet
facet normal -0.49999999999999994 0.8090169943749473 -0.30901699437494745 
outer loop
vertex -2.3090169943749475 3.73606797749979 -1.4270509831248424 
vertex -2.0 3.618033988749895 -2.23606797749979 
vertex -3.0 3.23606797749979 -1.618033988749895 
endloop
endfacet
facet normal -0.49999999999999994 0.8090169943749473 -0.30901699437494745 
outer loop
vertex -2.3090169943749475 3.73606797749979 -1.4270509831248424 
vertex -3.0 3.23606797749979 -1.618033988749895 
vertex -2.618033988749895 3.8541019662496847 -0.6180339887498948 
endloop
endfacet
facet normal -0.30901699437494745 -0.5 0.8090169943749476 
outer loop
vertex -1.4270509831248424 -2.3090169943749475 3.73606797749979 
vertex -0.6180339887498948 -2.618033988749895 3.8541019662496847 
vertex -1.2360679774997896 -1.618033988749895 4.23606797749979 
endloop
endfacet
facet normal -0.3090169943749475 -0.49999999999999994 0.8090169943749475 
outer loop
vertex -1.4270509831248424 -2.3090169943749475 3.73606797749979 
vertex -1.2360679774997896 -1.618033988749895 4.23606797749979 
vertex -2.23606797749979 -2.0 3.618033988749895 
endloop
endfacet
facet normal -0.30901699437494745 -0.49999999999999994 0.8090169943749473 
outer loop
vertex -1.4270509831248424 -2.3090169943749475 3.73606797749979 
vertex -2.23606797749979 -2.0 3.618033988749895 
vertex -1.618033988749895 -3.0 3.23606797749979 
endloop
endfacet
facet normal -0.30901699437494745 -0.49999999999999994 0.8090169943749473 
outer loop
vertex -1.4270509831248424 -2.3090169943749475 3.73606797749979 
vertex -1.618033988749895 -3.0 3.23606797749979 
vertex -0.6180339887498948 -2.618033988749895 3.8541019662496847 
endloop
endfacet
facet normal -0.5773502691896257 -0.5773502691896257 -0.5773502691896257 
outer loop
vertex -2.618033988749895 -2.618033988749895 -2.618033988749895 
vertex -2.23606797749979 -2.0 -3.618033988749895 
vertex -1.618033988749895 -3.0 -3.23606797749979 
endloop
endfacet
facet normal -0.5773502691896257 -0.5773502691896257 -0.5773502691896257 
outer loop
vertex -2.618033988749895 -2.618033988749895 -2.618033988749895 
vertex -1.618033988749895 -3.0 -3.23606797749979 
vertex -2.0 -3.618033988749895 -2.23606797749979 
endloop
endfacet
facet normal -0.5773502691896257 -0.5773502691896257 -0.5773502691896257 
outer loop
vertex -2.618033988749895 -2.618033988749895 -2.618033988749895 
vertex -2.0 -3.618033988749895 -2.23606797749979 
vertex -3.0 -3.23606797749979 -1.618033988749895 
endloop
endfacet
facet normal -0.5773502691896257 -0.5773502691896257 -0.5773502691896257 
outer loop
vertex -2.618033988749895 -2.618033988749895 -2.618033988749895 
vertex -3.0 -3.23606797749979 -1.618033988749895 
vertex -3.618033988749895 -2.23606797749979 -2.0 
endloop
endfacet
facet normal -0.5773502691896257 -0.5773502691896257 -0.5773502691896257 
outer loop
vertex -2.618033988749895 -2.618033988749895 -2.618033988749895 
vertex -3.618033988749895 -2.23606797749979 -2.0 
vertex -3.23606797749979 -1.618033988749895 -3.0 
endloop
endfacet
facet normal -0.5773502691896257 -0.5773502691896257 -0.5773502691896257 
outer loop
vertex -2.618033988749895 -2.618033988749895 -2.618033988749895 
vertex -3.23606797749979 -1.618033988749895 -3.0 
vertex -2.23606797749979 -2.0 -3.618033988749895 
endloop
endfacet
facet normal -0.8090169943749476 -0.30901699437494745 -0.5 
outer loop
vertex -3.73606797749979 -1.4270509831248424 -2.3090169943749475 
vertex -4.23606797749979 -1.2360679774997896 -1.618033988749895 
vertex -3.8541019662496847 -0.6180339887498948 -2.618033988749895 
endloop
endfacet
facet normal -0.8090169943749473 -0.30901699437494745 -0.5 
outer loop
vertex -3.73606797749979 -1.4270509831248424 -2.3090169943749475 
vertex -3.8541019662496847 -0.6180339887498948 -2.618033988749895 
vertex -3.23606797749979 -1.618033988749895 -3.0 
endloop
endfacet
facet normal -0.8090169943749475 -0.3090169943749475 -0.5 
outer loop
vertex -3.73606797749979 -1.4270509831248424 -2.3090169943749475 
vertex -3.23606797749979 -1.618033988749895 -3.0 
vertex -3.618033988749895 -2.23606797749979 -2.0 
endloop
endfacet
facet normal -0.8090169943749473 -0.30901699437494745 -0.5 
outer loop
vertex -3.73606797749979 -1.4270509831248424 -2.3090169943749475 
vertex -3.618033988749895 -2.23606797749979 -2.0 
vertex -4.23606797749979 -1.2360679774997896 -1.618033988749895 
endloop
endfacet
facet normal -0.5 -0.8090169943749476 -0.30901699437494745 
outer loop
vertex -2.3090169943749475 -3.73606797749979 -1.4270509831248424 
vertex -1.618033988749895 -4.23606797749979 -1.2360679774997896 
vertex -2.618033988749895 -3.8541019662496847 -0.6180339887498948 
endloop
endfacet
facet normal -0.5 -0.8090169943749473 -0.30901699437494745 
outer loop
vertex -2.3090169943749475 -3.73606797749979 -1.4270509831248424 
vertex -2.618033988749895 -3.8541019662496847 -0.6180339887498948 
vertex -3.0 -3.23606797749979 -1.618033988749895 
endloop
endfacet
facet normal -0.49999999999999994 -0.8090169943749473 -0.30901699437494745 
outer loop
vertex -2.3090169943749475 -3.73606797749979 -1.4270509831248424 
vertex -3.0 -3.23606797749979 -1.618033988749895 
vertex -2.0 -3.618033988749895 -2.23606797749979 
endloop
endfacet
facet normal -0.5 -0.8090169943749473 -0.30901699437494745 
outer loop
vertex -2.3090169943749475 -3.73606797749979 -1.4270509831248424 
vertex -2.0 -3.618033988749895 -2.23606797749979 
vertex -1.618033988749895 -4.23606797749979 -1.2360679774997896 
endloop
endfacet
facet normal -0.30901699437494745 -0.5 -0.8090169943749476 
outer loop
vertex -1.4270509831248424 -2.3090169943749475 -3.73606797749979 
vertex -1.2360679774997896 -1.618033988749895 -4.23606797749979 
vertex -0.6180339887498948 -2.618033988749895 -3.8541019662496847 
endloop
endfacet
facet normal -0.30901699437494745 -0.5 -0.8090169943749473 
outer loop
vertex -1.4270509831248424 -2.3090169943749475 -3.73606797749979 
vertex -0.6180339887498948 -2.618033988749895 -3.8541019662496847 
vertex -1.618033988749895 -3.0 -3.23606797749979 
endloop
endfacet
facet normal -0.30901699437494745 -0.49999999999999994 -0.8090169943749473 
outer loop
vertex -1.4270509831248424 -2.3090169943749475 -3.73606797749979 
vertex -1.618033988749895 -3.0 -3.23606797749979 
vertex -2.23606797749979 -2.0 -3.618033988749895 
endloop
endfacet
facet normal -0.30901699437494745 -0.5 -0.8090169943749473 
outer loop
vertex -1.4270509831248424 -2.3090169943749475 -3.73606797749979 
vertex -2.23606797749979 -2.0 -3.618033988749895 
vertex -1.2360679774997896 -1.618033988749895 -4.23606797749979 
endloop
endfacet
facet normal 0.9341723589627159 -0.0 0.3568220897730891 
outer loop
vertex 4.236067977499791 -3.700743415417188e-17 1.618033988749895 
vertex 4.618033988749895 -0.6180339887498948 0.6180339887498948 
vertex 4.618033988749895 0.6180339887498948 0.6180339887498948 
endloop
endfacet
facet normal 0.9341723589627158 6.7125088960666345e-16 0.3568220897730895 
outer loop
vertex 4.236067977499791 -3.700743415417188e-17 1.618033988749895 
vertex 4.618033988749895 0.6180339887498948 0.6180339887498948 
vertex 4.23606797749979 1.2360679774997896 1.618033988749895 
endloop
endfacet
facet normal 0.9341723589627156 6.712508896066634e-16 0.35682208977309027 
outer loop
vertex 4.236067977499791 -3.700743415417188e-17 1.618033988749895 
vertex 4.23606797749979 1.2360679774997896 1.618033988749895 
vertex 3.8541019662496847 0.6180339887498948 2.618033988749895 
endloop
endfacet
facet normal 0.9341723589627154 0.0 0.3568220897730906 
outer loop
vertex 4.236067977499791 -3.700743415417188e-17 1.618033988749895 
vertex 3.8541019662496847 0.6180339887498948 2.618033988749895 
vertex 3.8541019662496847 -0.6180339887498948 2.618033988749895 
endloop
endfacet
facet normal 0.9341723589627156 -6.712508896066634e-16 0.35682208977309027 
outer loop
vertex 4.236067977499791 -3.700743415417188e-17 1.618033988749895 
vertex 3.8541019662496847 -0.6180339887498948 2.618033988749895 
vertex 4.23606797749979 -1.2360679774997896 1.618033988749895 
endloop
endfacet
facet normal 0.9341723589627158 -6.7125088960666345e-16 0.3568220897730895 
outer loop
vertex 4.236067977499791 -3.700743415417188e-17 1.618033988749895 
vertex 4.23606797749979 -1.2360679774997896 1.618033988749895 
vertex 4.618033988749895 -0.6180339887498948 0.6180339887498948 
endloop
endfacet
facet normal 0.35682208977308916 0.9341723589627161 -0.0 
outer loop
vertex 1.618033988749895 4.236067977499791 -3.700743415417188e-17 
vertex 0.6180339887498948 4.618033988749895 -0.6180339887498948 
vertex 0.6180339887498948 4.618033988749895 0.6180339887498948 
endloop
endfacet
facet normal 0.3568220897730895 0.9341723589627158 6.7125088960666345e-16 
outer loop
vertex 1.618033988749895 4.236067977499791 -3.700743415417188e-17 
vertex 0.6180339887498948 4.618033988749895 0.6180339887498948 
vertex 1.618033988749895 4.23606797749979 1.2360679774997896 
endloop
endfacet
facet normal 0.35682208977309027 0.9341723589627156 6.712508896066634e-16 
outer loop
vertex 1.618033988749895 4.236067977499791 -3.700743415417188e-17 
vertex 1.618033988749895 4.23606797749979 1.2360679774997896 
vertex 2.618033988749895 3.8541019662496847 0.6180339887498948 
endloop
endfacet
facet normal 0.3568220897730906 0.9341723589627154 0.0 
outer loop
vertex 1.618033988749895 4.236067977499791 -3.700743415417188e-17 
vertex 2.618033988749895 3.8541019662496847 0.6180339887498948 
vertex 2.618033988749895 3.8541019662496847 -0.6180339887498948 
endloop
endfacet
facet normal 0.35682208977309027 0.9341723589627156 -6.712508896066634e-16 
outer loop
vertex 1.618033988749895 4.236067977499791 -3.700743415417188e-17 
vertex 2.618033988749895 3.8541019662496847 -0.6180339887498948 
vertex 1.618033988749895 4.23606797749979 -1.2360679774997896 
endloop
endfacet
facet normal 0.3568220897730895 0.9341723589627158 -6.7125088960666345e-16 
outer loop
vertex 1.618033988749895 4.236067977499791 -3.700743415417188e-17 
vertex 1.618033988749895 4.23606797749979 -1.2360679774997896 
vertex 0.6180339887498948 4.618033988749895 -0.6180339887498948 
endloop
endfacet
facet normal -0.0 0.35682208977308916 0.9341723589627161 
outer loop
vertex -3.700743415417188e-17 1.618033988749895 4.236067977499791 
vertex -0.6180339887498948 0.6180339887498948 4.618033988749895 
vertex 0.6180339887498948 0.6180339887498948 4.618033988749895 
endloop
endfacet
facet normal 6.7125088960666345e-16 0.3568220897730895 0.9341723589627158 
outer loop
vertex -3.700743415417188e-17 1.618033988749895 4.236067977499791 
vertex 0.6180339887498948 0.6180339887498948 4.618033988749895 
vertex 1.2360679774997896 1.618033988749895 4.23606797749979 
endloop
endfacet
facet normal 6.712508896066634e-16 0.35682208977309027 0.9341723589627156 
outer loop
vertex -3.700743415417188e-17 1.618033988749895 4.236067977499791 
vertex 1.2360679774997896 1.618033988749895 4.23606797749979 
vertex 0.6180339887498948 2.618033988749895 3.8541019662496847 
endloop
endfacet
facet normal 0.0 0.3568220897730906 0.9341723589627154 
outer loop
vertex -3.700743415417188e-17 1.618033988749895 4.236067977499791 
vertex 0.6180339887498948 2.618033988749895 3.8541019662496847 
vertex -0.6180339887498948 2.618033988749895 3.8541019662496847 
endloop
endfacet
facet normal -6.712508896066634e-16 0.35682208977309027 0.9341723589627156 
outer loop
vertex -3.700743415417188e-17 1.618033988749895 4.236067977499791 
vertex -0.6180339887498948 2.618033988749895 3.8541019662496847 
vertex -1.2360679774997896 1.618033988749895 4.23606797749979 
endloop
endfacet
facet normal -6.7125088960666345e-16 0.3568220897730895 0.9341723589627158 
outer loop
vertex -3.700743415417188e-17 1.618033988749895 4.236067977499791 
vertex -1.2360679774997896 1.618033988749895 4.23606797749979 
vertex -0.6180339887498948 0.6180339887498948 4.618033988749895 
endloop
endfacet
facet normal -0.9341723589627159 0.0 0.3568220897730891 
outer loop
vertex -4.236067977499791 3.700743415417188e-17 1.618033988749895 
vertex -4.618033988749895 0.6180339887498948 0.6180339887498948 
vertex -4.618033988749895 -0.6180339887498948 0.6180339887498948 
endloop
endfacet
facet normal -0.9341723589627158 -6.7125088960666345e-16 0.3568220897730895 
outer loop
vertex -4.236067977499791 3.700743415417188e-17 1.618033988749895 
vertex -4.618033988749895 -0.6180339887498948 0.6180339887498948 
vertex -4.23606797749979 -1.2360679774997896 1.618033988749895 
endloop
endfacet
facet normal -0.9341723589627156 -6.712508896066634e-16 0.35682208977309027 
outer loop
vertex -4.236067977499791 3.700743415417188e-17 1.618033988749895 
vertex -4.23606797749979 -1.2360679774997896 1.618033988749895 
vertex -3.8541019662496847 -0.6180339887498948 2.618033988749895 
endloop
endfacet
facet normal -0.9341723589627154 0.0 0.3568220897730906 
outer loop
vertex -4.236067977499791 3.700743415417188e-17 1.618033988749895 
vertex -3.8541019662496847 -0.6180339887498948 2.618033988749895 
vertex -3.8541019662496847 0.6180339887498948 2.618033988749895 
endloop
endfacet
facet normal -0.9341723589627156 6.712508896066634e-16 0.35682208977309027 
outer loop
vertex -4.236067977499791 3.700743415417188e-17 1.618033988749895 
vertex -3.8541019662496847 0.6180339887498948 2.618033988749895 
vertex -4.23606797749979 1.2360679774997896 1.618033988749895 
endloop
endfacet
facet normal -0.9341723589627158 6.7125088960666345e-16 0.3568220897730895 
outer loop
vertex -4.236067977499791 3.700743415417188e-17 1.618033988749895 
vertex -4.23606797749979 1.2360679774997896 1.618033988749895 
vertex -4.618033988749895 0.6180339887498948 0.6180339887498948 
endloop
endfacet
facet normal 0.35682208977308916 -0.9341723589627161 0.0 
outer loop
vertex 1.618033988749895 -4.236067977499791 3.700743415417188e-17 
vertex 0.6180339887498948 -4.618033988749895 0.6180339887498948 
vertex 0.6180339887498948 -4.618033988749895 -0.6180339887498948 
endloop
endfacet
facet normal 0.3568220897730895 -0.9341723589627158 -6.7125088960666345e-16 
outer loop
vertex 1.618033988749895 -4.236067977499791 3.700743415417188e-17 
vertex 0.6180339887498948 -4.618033988749895 -0.6180339887498948 
vertex 1.618033988749895 -4.23606797749979 -1.2360679774997896 
endloop
endfacet
facet normal 0.35682208977309027 -0.9341723589627156 -6.712508896066634e-16 
outer loop
vertex 1.618033988749895 -4.236067977499791 3.700743415417188e-17 
vertex 1.618033988749895 -4.23606797749979 -1.2360679774997896 
vertex 2.618033988749895 -3.8541019662496847 -0.6180339887498948 
endloop
endfacet
facet normal 0.3568220897730906 -0.9341723589627154 0.0 
outer loop
vertex 1.618033988749895 -4.236067977499791 3.700743415417188e-17 
vertex 2.618033988749895 -3.8541019662496847 -0.6180339887498948 
vertex 2.618033988749895 -3.8541019662496847 0.6180339887498948 
endloop
endfacet
facet normal 0.35682208977309027 -0.9341723589627156 6.712508896066634e-16 
outer loop
vertex 1.618033988749895 -4.236067977499791 3.700743415417188e-17 
vertex 2.618033988749895 -3.8541019662496847 0.6180339887498948 
vertex 1.618033988749895 -4.23606797749979 1.2360679774997896 
endloop
endfacet
facet normal 0.3568220897730895 -0.9341723589627158 6.7125088960666345e-16 
outer loop
vertex 1.618033988749895 -4.236067977499791 3.700743415417188e-17 
vertex 1.618033988749895 -4.23606797749979 1.2360679774997896 
vertex 0.6180339887498948 -4.618033988749895 0.6180339887498948 
endloop
endfacet
facet normal 0.0 0.35682208977308916 -0.9341723589627161 
outer loop
vertex 3.700743415417188e-17 1.618033988749895 -4.236067977499791 
vertex 0.6180339887498948 0.6180339887498948 -4.618033988749895 
vertex -0.6180339887498948 0.6180339887498948 -4.618033988749895 
endloop
endfacet
facet normal -6.7125088960666345e-16 0.3568220897730895 -0.9341723589627158 
outer loop
vertex 3.700743415417188e-17 1.618033988749895 -4.236067977499791 
vertex -0.6180339887498948 0.6180339887498948 -4.618033988749895 
vertex -1.2360679774997896 1.618033988749895 -4.23606797749979 
endloop
endfacet
facet normal -6.712508896066634e-16 0.35682208977309027 -0.9341723589627156 
outer loop
vertex 3.700743415417188e-17 1.618033988749895 -4.236067977499791 
vertex -1.2360679774997896 1.618033988749895 -4.23606797749979 
vertex -0.6180339887498948 2.618033988749895 -3.8541019662496847 
endloop
endfacet
facet normal 0.0 0.3568220897730906 -0.9341723589627154 
outer loop
vertex 3.700743415417188e-17 1.618033988749895 -4.236067977499791 
vertex -0.6180339887498948 2.618033988749895 -3.8541019662496847 
vertex 0.6180339887498948 2.618033988749895 -3.8541019662496847 
endloop
endfacet
facet normal 6.712508896066634e-16 0.35682208977309027 -0.9341723589627156 
outer loop
vertex 3.700743415417188e-17 1.618033988749895 -4.236067977499791 
vertex 0.6180339887498948 2.618033988749895 -3.8541019662496847 
vertex 1.2360679774997896 1.618033988749895 -4.23606797749979 
endloop
endfacet
facet normal 6.7125088960666345e-16 0.3568220897730895 -0.9341723589627158 
outer loop
vertex 3.700743415417188e-17 1.618033988749895 -4.236067977499791 
vertex 1.2360679774997896 1.618033988749895 -4.23606797749979 
vertex 0.6180339887498948 0.6180339887498948 -4.618033988749895 
endloop
endfacet
facet normal 0.9341723589627159 0.0 -0.3568220897730891 
outer loop
vertex 4.236067977499791 3.700743415417188e-17 -1.618033988749895 
vertex 4.618033988749895 0.6180339887498948 -0.6180339887498948 
vertex 4.618033988749895 -0.6180339887498948 -0.6180339887498948 
endloop
endfacet
facet normal 0.9341723589627158 -6.7125088960666345e-16 -0.3568220897730895 
outer loop
vertex 4.236067977499791 3.700743415417188e-17 -1.618033988749895 
vertex 4.618033988749895 -0.6180339887498948 -0.6180339887498948 
vertex 4.23606797749979 -1.2360679774997896 -1.618033988749895 
endloop
endfacet
facet normal 0.9341723589627156 -6.712508896066634e-16 -0.35682208977309027 
outer loop
vertex 4.236067977499791 3.700743415417188e-17 -1.618033988749895 
vertex 4.23606797749979 -1.2360679774997896 -1.618033988749895 
vertex 3.8541019662496847 -0.6180339887498948 -2.618033988749895 
endloop
endfacet
facet normal 0.9341723589627154 0.0 -0.3568220897730906 
outer loop
vertex 4.236067977499791 3.700743415417188e-17 -1.618033988749895 
vertex 3.8541019662496847 -0.6180339887498948 -2.618033988749895 
vertex 3.8541019662496847 0.6180339887498948 -2.618033988749895 
endloop
endfacet
facet normal 0.9341723589627156 6.712508896066634e-16 -0.35682208977309027 
outer loop
vertex 4.236067977499791 3.700743415417188e-17 -1.618033988749895 
vertex 3.8541019662496847 0.6180339887498948 -2.618033988749895 
vertex 4.23606797749979 1.2360679774997896 -1.618033988749895 
endloop
endfacet
facet normal 0.9341723589627158 6.7125088960666345e-16 -0.3568220897730895 
outer loop
vertex 4.236067977499791 3.700743415417188e-17 -1.618033988749895 
vertex 4.23606797749979 1.2360679774997896 -1.618033988749895 
vertex 4.618033988749895 0.6180339887498948 -0.6180339887498948 
endloop
endfacet
facet normal -0.35682208977308916 0.9341723589627161 0.0 
outer loop
vertex -1.618033988749895 4.236067977499791 3.700743415417188e-17 
vertex -0.6180339887498948 4.618033988749895 0.6180339887498948 
vertex -0.6180339887498948 4.618033988749895 -0.6180339887498948 
endloop
endfacet
facet normal -0.3568220897730895 0.9341723589627158 -6.7125088960666345e-16 
outer loop
vertex -1.618033988749895 4.236067977499791 3.700743415417188e-17 
vertex -0.6180339887498948 4.618033988749895 -0.6180339887498948 
vertex -1.618033988749895 4.23606797749979 -1.2360679774997896 
endloop
endfacet
facet normal -0.35682208977309027 0.9341723589627156 -6.712508896066634e-16 
outer loop
vertex -1.618033988749895 4.236067977499791 3.700743415417188e-17 
vertex -1.618033988749895 4.23606797749979 -1.2360679774997896 
vertex -2.618033988749895 3.8541019662496847 -0.6180339887498948 
endloop
endfacet
facet normal -0.3568220897730906 0.9341723589627154 0.0 
outer loop
vertex -1.618033988749895 4.236067977499791 3.700743415417188e-17 
vertex -2.618033988749895 3.8541019662496847 -0.6180339887498948 
vertex -2.618033988749895 3.8541019662496847 0.6180339887498948 
endloop
endfacet
facet normal -0.35682208977309027 0.9341723589627156 6.712508896066634e-16 
outer loop
vertex -1.618033988749895 4.236067977499791 3.700743415417188e-17 
vertex -2.618033988749895 3.8541019662496847 0.6180339887498948 
vertex -1.618033988749895 4.23606797749979 1.2360679774997896 
endloop
endfacet
facet normal -0.3568220897730895 0.9341723589627158 6.7125088960666345e-16 
outer loop
vertex -1.618033988749895 4.236067977499791 3.700743415417188e-17 
vertex -1.618033988749895 4.23606797749979 1.2360679774997896 
vertex -0.6180339887498948 4.618033988749895 0.6180339887498948 
endloop
endfacet
facet normal 3.2049378106392656e-17 -0.35682208977308916 0.9341723589627159 
outer loop
vertex -3.700743415417188e-17 -1.618033988749895 4.236067977499791 
vertex 0.6180339887498948 -0.6180339887498948 4.618033988749895 
vertex -0.6180339887498949 -0.6180339887498949 4.618033988749895 
endloop
endfacet
facet normal -6.7125088960666345e-16 -0.3568220897730895 0.9341723589627158 
outer loop
vertex -3.700743415417188e-17 -1.618033988749895 4.236067977499791 
vertex -0.6180339887498949 -0.6180339887498949 4.618033988749895 
vertex -1.2360679774997896 -1.618033988749895 4.23606797749979 
endloop
endfacet
facet normal -6.712508896066634e-16 -0.35682208977309027 0.9341723589627156 
outer loop
vertex -3.700743415417188e-17 -1.618033988749895 4.236067977499791 
vertex -1.2360679774997896 -1.618033988749895 4.23606797749979 
vertex -0.6180339887498948 -2.618033988749895 3.8541019662496847 
endloop
endfacet
facet normal 0.0 -0.3568220897730906 0.9341723589627154 
outer loop
vertex -3.700743415417188e-17 -1.618033988749895 4.236067977499791 
vertex -0.6180339887498948 -2.618033988749895 3.8541019662496847 
vertex 0.6180339887498948 -2.618033988749895 3.8541019662496847 
endloop
endfacet
facet normal 6.712508896066634e-16 -0.35682208977309027 0.9341723589627156 
outer loop
vertex -3.700743415417188e-17 -1.618033988749895 4.236067977499791 
vertex 0.6180339887498948 -2.618033988749895 3.8541019662496847 
vertex 1.2360679774997896 -1.618033988749895 4.23606797749979 
endloop
endfacet
facet normal 6.7125088960666345e-16 -0.3568220897730895 0.9341723589627158 
outer loop
vertex -3.700743415417188e-17 -1.618033988749895 4.236067977499791 
vertex 1.2360679774997896 -1.618033988749895 4.23606797749979 
vertex 0.6180339887498948 -0.6180339887498948 4.618033988749895 
endloop
endfacet
facet normal -0.9341723589627159 0.0 -0.35682208977308916 
outer loop
vertex -4.236067977499791 -3.700743415417188e-17 -1.618033988749895 
vertex -4.618033988749895 -0.6180339887498949 -0.6180339887498948 
vertex -4.618033988749895 0.6180339887498948 -0.6180339887498948 
endloop
endfacet
facet normal -0.9341723589627158 6.7125088960666345e-16 -0.3568220897730895 
outer loop
vertex -4.236067977499791 -3.700743415417188e-17 -1.618033988749895 
vertex -4.618033988749895 0.6180339887498948 -0.6180339887498948 
vertex -4.23606797749979 1.2360679774997896 -1.618033988749895 
endloop
endfacet
facet normal -0.9341723589627156 6.712508896066634e-16 -0.35682208977309027 
outer loop
vertex -4.236067977499791 -3.700743415417188e-17 -1.618033988749895 
vertex -4.23606797749979 1.2360679774997896 -1.618033988749895 
vertex -3.8541019662496847 0.6180339887498948 -2.618033988749895 
endloop
endfacet
facet normal -0.9341723589627154 -0.0 -0.3568220897730906 
outer loop
vertex -4.236067977499791 -3.700743415417188e-17 -1.618033988749895 
vertex -3.8541019662496847 0.6180339887498948 -2.618033988749895 
vertex -3.8541019662496847 -0.6180339887498948 -2.618033988749895 
endloop
endfacet
facet normal -0.9341723589627156 -6.712508896066634e-16 -0.35682208977309027 
outer loop
vertex -4.236067977499791 -3.700743415417188e-17 -1.618033988749895 
vertex -3.8541019662496847 -0.6180339887498948 -2.618033988749895 
vertex -4.23606797749979 -1.2360679774997896 -1.618033988749895 
endloop
endfacet
facet normal -0.9341723589627158 -6.7125088960666345e-16 -0.3568220897730895 
outer loop
vertex -4.236067977499791 -3.700743415417188e-17 -1.618033988749895 
vertex -4.23606797749979 -1.2360679774997896 -1.618033988749895 
vertex -4.618033988749895 -0.6180339887498949 -0.6180339887498948 
endloop
endfacet
facet normal -0.35682208977308916 -0.9341723589627161 3.204937810639267e-17 
outer loop
vertex -1.618033988749895 -4.236067977499791 -3.700743415417188e-17 
vertex -0.6180339887498949 -4.618033988749895 -0.6180339887498948 
vertex -0.6180339887498948 -4.618033988749895 0.6180339887498948 
endloop
endfacet
facet normal -0.3568220897730895 -0.9341723589627158 6.7125088960666345e-16 
outer loop
vertex -1.618033988749895 -4.236067977499791 -3.700743415417188e-17 
vertex -0.6180339887498948 -4.618033988749895 0.6180339887498948 
vertex -1.618033988749895 -4.23606797749979 1.2360679774997896 
endloop
endfacet
facet normal -0.35682208977309027 -0.9341723589627156 6.712508896066634e-16 
outer loop
vertex -1.618033988749895 -4.236067977499791 -3.700743415417188e-17 
vertex -1.618033988749895 -4.23606797749979 1.2360679774997896 
vertex -2.618033988749895 -3.8541019662496847 0.6180339887498948 
endloop
endfacet
facet normal -0.3568220897730906 -0.9341723589627154 -0.0 
outer loop
vertex -1.618033988749895 -4.236067977499791 -3.700743415417188e-17 
vertex -2.618033988749895 -3.8541019662496847 0.6180339887498948 
vertex -2.618033988749895 -3.8541019662496847 -0.6180339887498948 
endloop
endfacet
facet normal -0.35682208977309027 -0.9341723589627156 -6.712508896066634e-16 
outer loop
vertex -1.618033988749895 -4.236067977499791 -3.700743415417188e-17 
vertex -2.618033988749895 -3.8541019662496847 -0.6180339887498948 
vertex -1.618033988749895 -4.23606797749979 -1.2360679774997896 
endloop
endfacet
facet normal -0.3568220897730895 -0.9341723589627158 -6.7125088960666345e-16 
outer loop
vertex -1.618033988749895 -4.236067977499791 -3.700743415417188e-17 
vertex -1.618033988749895 -4.23606797749979 -1.2360679774997896 
vertex -0.6180339887498949 -4.618033988749895 -0.6180339887498948 
endloop
endfacet
facet normal 3.2049378106392656e-17 -0.35682208977308916 -0.9341723589627159 
outer loop
vertex -3.700743415417188e-17 -1.618033988749895 -4.236067977499791 
vertex -0.6180339887498949 -0.6180339887498949 -4.618033988749895 
vertex 0.6180339887498948 -0.6180339887498948 -4.618033988749895 
endloop
endfacet
facet normal 6.7125088960666345e-16 -0.3568220897730895 -0.9341723589627158 
outer loop
vertex -3.700743415417188e-17 -1.618033988749895 -4.236067977499791 
vertex 0.6180339887498948 -0.6180339887498948 -4.618033988749895 
vertex 1.2360679774997896 -1.618033988749895 -4.23606797749979 
endloop
endfacet
facet normal 6.712508896066634e-16 -0.35682208977309027 -0.9341723589627156 
outer loop
vertex -3.700743415417188e-17 -1.618033988749895 -4.236067977499791 
vertex 1.2360679774997896 -1.618033988749895 -4.23606797749979 
vertex 0.6180339887498948 -2.618033988749895 -3.8541019662496847 
endloop
endfacet
facet normal -0.0 -0.3568220897730906 -0.9341723589627154 
outer loop
vertex -3.700743415417188e-17 -1.618033988749895 -4.236067977499791 
vertex 0.6180339887498948 -2.618033988749895 -3.8541019662496847 
vertex -0.6180339887498948 -2.618033988749895 -3.8541019662496847 
endloop
endfacet
facet normal -6.712508896066634e-16 -0.35682208977309027 -0.9341723589627156 
outer loop
vertex -3.700743415417188e-17 -1.618033988749895 -4.236067977499791 
vertex -0.6180339887498948 -2.618033988749895 -3.8541019662496847 
vertex -1.2360679774997896 -1.618033988749895 -4.23606797749979 
endloop
endfacet
facet normal -6.7125088960666345e-16 -0.3568220897730895 -0.9341723589627158 
outer loop
vertex -3.700743415417188e-17 -1.618033988749895 -4.236067977499791 
vertex -1.2360679774997896 -1.618033988749895 -4.23606797749979 
vertex -0.6180339887498949 -0.6180339887498949 -4.618033988749895 
endloop
endfacet
facet normal 1.0 0.0 0.0 
outer loop
vertex 4.618033988749895 0.0 0.0 
vertex 4.618033988749895 -0.6180339887498948 0.6180339887498948 
vertex 4.618033988749895 -0.6180339887498948 -0.6180339887498948 
endloop
endfacet
facet normal 1.0 0.0 0.0 
outer loop
vertex 4.618033988749895 0.0 0.0 
vertex 4.618033988749895 -0.6180339887498948 -0.6180339887498948 
vertex 4.618033988749895 0.6180339887498948 -0.6180339887498948 
endloop
endfacet
facet normal 1.0 0.0 -0.0 
outer loop
vertex 4.618033988749895 0.0 0.0 
vertex 4.618033988749895 0.6180339887498948 -0.6180339887498948 
vertex 4.618033988749895 0.6180339887498948 0.6180339887498948 
endloop
endfacet
facet normal 1.0 0.0 0.0 
outer loop
vertex 4.618033988749895 0.0 0.0 
vertex 4.618033988749895 0.6180339887498948 0.6180339887498948 
vertex 4.618033988749895 -0.6180339887498948 0.6180339887498948 
endloop
endfacet
facet normal 0.0 1.0 0.0 
outer loop
vertex 0.0 4.618033988749895 0.0 
vertex 0.6180339887498948 4.618033988749895 -0.6180339887498948 
vertex -0.6180339887498948 4.618033988749895 -0.6180339887498948 
endloop
endfacet
facet normal 0.0 1.0 0.0 
outer loop
vertex 0.0 4.618033988749895 0.0 
vertex -0.6180339887498948 4.618033988749895 -0.6180339887498948 
vertex -0.6180339887498948 4.618033988749895 0.6180339887498948 
endloop
endfacet
facet normal -0.0 1.0 0.0 
outer loop
vertex 0.0 4.618033988749895 0.0 
vertex -0.6180339887498948 4.618033988749895 0.6180339887498948 
vertex 0.6180339887498948 4.618033988749895 0.6180339887498948 
endloop
endfacet
facet normal 0.0 1.0 0.0 
outer loop
vertex 0.0 4.618033988749895 0.0 
vertex 0.6180339887498948 4.618033988749895 0.6180339887498948 
vertex 0.6180339887498948 4.618033988749895 -0.6180339887498948 
endloop
endfacet
facet normal 0.0 0.0 1.0 
outer loop
vertex -5.551115123125783e-17 -2.7755575615628914e-17 4.618033988749895 
vertex -0.6180339887498948 0.6180339887498948 4.618033988749895 
vertex -0.6180339887498949 -0.6180339887498949 4.618033988749895 
endloop
endfacet
facet normal 0.0 0.0 1.0 
outer loop
vertex -5.551115123125783e-17 -2.7755575615628914e-17 4.618033988749895 
vertex -0.6180339887498949 -0.6180339887498949 4.618033988749895 
vertex 0.6180339887498948 -0.6180339887498948 4.618033988749895 
endloop
endfacet
facet normal 0.0 -0.0 1.0 
outer loop
vertex -5.551115123125783e-17 -2.7755575615628914e-17 4.618033988749895 
vertex 0.6180339887498948 -0.6180339887498948 4.618033988749895 
vertex 0.6180339887498948 0.6180339887498948 4.618033988749895 
endloop
endfacet
facet normal 0.0 0.0 1.0 
outer loop
vertex -5.551115123125783e-17 -2.7755575615628914e-17 4.618033988749895 
vertex 0.6180339887498948 0.6180339887498948 4.618033988749895 
vertex -0.6180339887498948 0.6180339887498948 4.618033988749895 
endloop
endfacet
facet normal -1.0 0.0 0.0 
outer loop
vertex -4.618033988749895 -5.551115123125783e-17 0.0 
vertex -4.618033988749895 -0.6180339887498949 -0.6180339887498948 
vertex -4.618033988749895 -0.6180339887498948 0.6180339887498948 
endloop
endfacet
facet normal -1.0 0.0 0.0 
outer loop
vertex -4.618033988749895 -5.551115123125783e-17 0.0 
vertex -4.618033988749895 -0.6180339887498948 0.6180339887498948 
vertex -4.618033988749895 0.6180339887498948 0.6180339887498948 
endloop
endfacet
facet normal -1.0 0.0 -0.0 
outer loop
vertex -4.618033988749895 -5.551115123125783e-17 0.0 
vertex -4.618033988749895 0.6180339887498948 0.6180339887498948 
vertex -4.618033988749895 0.6180339887498948 -0.6180339887498948 
endloop
endfacet
facet normal -1.0 0.0 0.0 
outer loop
vertex -4.618033988749895 -5.551115123125783e-17 0.0 
vertex -4.618033988749895 0.6180339887498948 -0.6180339887498948 
vertex -4.618033988749895 -0.6180339887498949 -0.6180339887498948 
endloop
endfacet
facet normal 0.0 -1.0 0.0 
outer loop
vertex -2.7755575615628914e-17 -4.618033988749895 0.0 
vertex -0.6180339887498949 -4.618033988749895 -0.6180339887498948 
vertex 0.6180339887498948 -4.618033988749895 -0.6180339887498948 
endloop
endfacet
facet normal 0.0 -1.0 0.0 
outer loop
vertex -2.7755575615628914e-17 -4.618033988749895 0.0 
vertex 0.6180339887498948 -4.618033988749895 -0.6180339887498948 
vertex 0.6180339887498948 -4.618033988749895 0.6180339887498948 
endloop
endfacet
facet normal -0.0 -1.0 0.0 
outer loop
vertex -2.7755575615628914e-17 -4.618033988749895 0.0 
vertex 0.6180339887498948 -4.618033988749895 0.6180339887498948 
vertex -0.6180339887498948 -4.618033988749895 0.6180339887498948 
endloop
endfacet
facet normal 0.0 -1.0 -0.0 
outer loop
vertex -2.7755575615628914e-17 -4.618033988749895 0.0 
vertex -0.6180339887498948 -4.618033988749895 0.6180339887498948 
vertex -0.6180339887498949 -4.618033988749895 -0.6180339887498948 
endloop
endfacet
facet normal 0.0 0.0 -1.0 
outer loop
vertex -5.551115123125783e-17 -2.7755575615628914e-17 -4.618033988749895 
vertex -0.6180339887498949 -0.6180339887498949 -4.618033988749895 
vertex -0.6180339887498948 0.6180339887498948 -4.618033988749895 
endloop
endfacet
facet normal 0.0 0.0 -1.0 
outer loop
vertex -5.551115123125783e-17 -2.7755575615628914e-17 -4.618033988749895 
vertex -0.6180339887498948 0.6180339887498948 -4.618033988749895 
vertex 0.6180339887498948 0.6180339887498948 -4.618033988749895 
endloop
endfacet
facet normal 0.0 -0.0 -1.0 
outer loop
vertex -5.551115123125783e-17 -2.7755575615628914e-17 -4.618033988749895 
vertex 0.6180339887498948 0.6180339887498948 -4.618033988749895 
vertex 0.6180339887498948 -0.6180339887498948 -4.618033988749895 
endloop
endfacet
facet normal -0.0 0.0 -1.0 
outer loop
vertex -5.551115123125783e-17 -2.7755575615628914e-17 -4.618033988749895 
vertex 0.6180339887498948 -0.6180339887498948 -4.618033988749895 
vertex -0.6180339887498949 -0.6180339887498949 -4.618033988749895 
endloop
endfacet
endsolid test
