solid unit-truncated-tetrahedron
facet normal 0.0 -0.0 -1.0 
outer loop
vertex -0.8660254037844392 0.4999999999999996 0.0 
vertex -8.838309710818365e-16 1.0 0.0 
vertex 0.8660254037844389 0.4999999999999996 0.0 
endloop
endfacet
facet normal -0.0 -0.0 -1.0 
outer loop
vertex -0.8660254037844392 0.4999999999999996 0.0 
vertex 0.8660254037844389 0.4999999999999996 0.0 
vertex 0.866025403784439 -0.5 0.0 
endloop
endfacet
facet normal -0.0 0.0 -1.0 
outer loop
vertex -0.8660254037844392 0.4999999999999996 0.0 
vertex 0.866025403784439 -0.5 0.0 
vertex -1.3597399555105182e-16 -1.0000000000000004 0.0 
endloop
endfacet
facet normal 0.0 0.0 -1.0 
outer loop
vertex -0.8660254037844392 0.4999999999999996 0.0 
vertex -1.3597399555105182e-16 -1.0000000000000004 0.0 
vertex -0.8660254037844388 -0.5000000000000007 0.0 
endloop
endfacet
facet normal 0.47140452079103196 -0.8164965809277258 0.33333333333333337 
outer loop
vertex -0.28867513459481275 -0.5000000000000004 1.6329931618554516 
vertex -0.5773502691896256 -1.0000000000000007 0.8164965809277256 
vertex -1.3597399555105182e-16 -1.0000000000000004 0.0 
endloop
endfacet
facet normal 0.4714045207910318 -0.8164965809277259 0.33333333333333337 
outer loop
vertex -0.28867513459481275 -0.5000000000000004 1.6329931618554516 
vertex -1.3597399555105182e-16 -1.0000000000000004 0.0 
vertex 0.866025403784439 -0.5 0.0 
endloop
endfacet
facet normal 0.4714045207910319 -0.8164965809277259 0.3333333333333335 
outer loop
vertex -0.28867513459481275 -0.5000000000000004 1.6329931618554516 
vertex 0.866025403784439 -0.5 0.0 
vertex 1.1547005383792515 -1.1696176720330866e-16 0.8164965809277257 
endloop
endfacet
facet normal 0.4714045207910319 -0.8164965809277258 0.33333333333333337 
outer loop
vertex -0.28867513459481275 -0.5000000000000004 1.6329931618554516 
vertex 1.1547005383792515 -1.1696176720330866e-16 0.8164965809277257 
vertex 0.5773502691896257 -2.339235344066173e-16 1.6329931618554516 
endloop
endfacet
facet normal -0.9428090415820632 -4.166419153831056e-16 0.3333333333333335 
outer loop
vertex -0.28867513459481314 0.4999999999999996 1.6329931618554516 
vertex -0.5773502691896264 0.9999999999999997 0.8164965809277257 
vertex -0.8660254037844392 0.4999999999999996 0.0 
endloop
endfacet
facet normal -0.9428090415820635 -3.1401849173675493e-16 0.33333333333333354 
outer loop
vertex -0.28867513459481314 0.4999999999999996 1.6329931618554516 
vertex -0.8660254037844392 0.4999999999999996 0.0 
vertex -0.8660254037844388 -0.5000000000000007 0.0 
endloop
endfacet
facet normal -0.9428090415820632 -3.8459253727671286e-16 0.33333333333333365 
outer loop
vertex -0.28867513459481314 0.4999999999999996 1.6329931618554516 
vertex -0.8660254037844388 -0.5000000000000007 0.0 
vertex -0.5773502691896256 -1.0000000000000007 0.8164965809277256 
endloop
endfacet
facet normal -0.9428090415820634 -3.8459253727671276e-16 0.33333333333333354 
outer loop
vertex -0.28867513459481314 0.4999999999999996 1.6329931618554516 
vertex -0.5773502691896256 -1.0000000000000007 0.8164965809277256 
vertex -0.28867513459481275 -0.5000000000000004 1.6329931618554516 
endloop
endfacet
facet normal 0.4714045207910315 0.8164965809277261 0.3333333333333333 
outer loop
vertex -0.28867513459481314 0.4999999999999996 1.6329931618554516 
vertex 0.5773502691896257 -2.339235344066173e-16 1.6329931618554516 
vertex 1.1547005383792515 -1.1696176720330866e-16 0.8164965809277257 
endloop
endfacet
facet normal 0.47140452079103157 0.816496580927726 0.3333333333333334 
outer loop
vertex -0.28867513459481314 0.4999999999999996 1.6329931618554516 
vertex 1.1547005383792515 -1.1696176720330866e-16 0.8164965809277257 
vertex 0.8660254037844389 0.4999999999999996 0.0 
endloop
endfacet
facet normal 0.47140452079103157 0.816496580927726 0.3333333333333335 
outer loop
vertex -0.28867513459481314 0.4999999999999996 1.6329931618554516 
vertex 0.8660254037844389 0.4999999999999996 0.0 
vertex -8.838309710818365e-16 1.0 0.0 
endloop
endfacet
facet normal 0.4714045207910314 0.8164965809277261 0.3333333333333334 
outer loop
vertex -0.28867513459481314 0.4999999999999996 1.6329931618554516 
vertex -8.838309710818365e-16 1.0 0.0 
vertex -0.5773502691896264 0.9999999999999997 0.8164965809277257 
endloop
endfacet
facet normal 0.9428090415820634 1.0467283057891839e-16 -0.33333333333333304 
outer loop
vertex 0.866025403784439 -0.5 0.0 
vertex 0.8660254037844389 0.4999999999999996 0.0 
vertex 1.1547005383792515 -1.1696176720330866e-16 0.8164965809277257 
endloop
endfacet
facet normal -0.4714045207910315 -0.8164965809277261 -0.3333333333333334 
outer loop
vertex -0.8660254037844388 -0.5000000000000007 0.0 
vertex -1.3597399555105182e-16 -1.0000000000000004 0.0 
vertex -0.5773502691896256 -1.0000000000000007 0.8164965809277256 
endloop
endfacet
facet normal -0.47140452079103223 0.8164965809277258 -0.33333333333333337 
outer loop
vertex -0.5773502691896264 0.9999999999999997 0.8164965809277257 
vertex -8.838309710818365e-16 1.0 0.0 
vertex -0.8660254037844392 0.4999999999999996 0.0 
endloop
endfacet
facet normal 0.0 0.0 1.0 
outer loop
vertex 0.5773502691896257 -2.339235344066173e-16 1.6329931618554516 
vertex -0.28867513459481314 0.4999999999999996 1.6329931618554516 
vertex -0.28867513459481275 -0.5000000000000004 1.6329931618554516 
endloop
endfacet
endsolid unit-truncated-tetrahedron
