solid test
facet normal 0.5 0.8090169943749475 -0.30901699437494745 
outer loop
vertex 2.118033988749895 3.4270509831248424 -1.3090169943749475 
vertex 1.618033988749895 3.23606797749979 -2.618033988749895 
vertex 1.0 4.23606797749979 -1.0 
endloop
endfacet
facet normal 0.5 0.8090169943749475 -0.3090169943749474 
outer loop
vertex 2.118033988749895 3.4270509831248424 -1.3090169943749475 
vertex 1.0 4.23606797749979 -1.0 
vertex 2.618033988749895 3.618033988749895 -0.0 
endloop
endfacet
facet normal 0.5 0.8090169943749475 -0.30901699437494745 
outer loop
vertex 2.118033988749895 3.4270509831248424 -1.3090169943749475 
vertex 2.618033988749895 3.618033988749895 -0.0 
vertex 3.23606797749979 2.618033988749895 -1.618033988749895 
endloop
endfacet
facet normal 0.5 0.8090169943749475 -0.3090169943749474 
outer loop
vertex 2.118033988749895 3.4270509831248424 -1.3090169943749475 
vertex 3.23606797749979 2.618033988749895 -1.618033988749895 
vertex 1.618033988749895 3.23606797749979 -2.618033988749895 
endloop
endfacet
facet normal 0.35682208977309043 0.9341723589627156 -0.0 
outer loop
vertex 1.5393446629166316 4.030056647916491 0.0 
vertex 1.0 4.23606797749979 -1.0 
vertex 1.0 4.23606797749979 1.0 
endloop
endfacet
facet normal 0.3568220897730897 0.9341723589627158 -4.326666044363019e-16 
outer loop
vertex 1.5393446629166316 4.030056647916491 0.0 
vertex 1.0 4.23606797749979 1.0 
vertex 2.618033988749895 3.618033988749895 -0.0 
endloop
endfacet
facet normal 0.3568220897730897 0.9341723589627158 3.845925372767128e-16 
outer loop
vertex 1.5393446629166316 4.030056647916491 0.0 
vertex 2.618033988749895 3.618033988749895 -0.0 
vertex 1.0 4.23606797749979 -1.0 
endloop
endfacet
facet normal 0.5 0.8090169943749476 0.3090169943749474 
outer loop
vertex 2.118033988749895 3.4270509831248424 1.3090169943749475 
vertex 1.0 4.23606797749979 1.0 
vertex 1.618033988749895 3.23606797749979 2.618033988749895 
endloop
endfacet
facet normal 0.5 0.8090169943749475 0.30901699437494745 
outer loop
vertex 2.118033988749895 3.4270509831248424 1.3090169943749475 
vertex 1.618033988749895 3.23606797749979 2.618033988749895 
vertex 3.23606797749979 2.618033988749895 1.618033988749895 
endloop
endfacet
facet normal 0.5 0.8090169943749476 0.3090169943749474 
outer loop
vertex 2.118033988749895 3.4270509831248424 1.3090169943749475 
vertex 3.23606797749979 2.618033988749895 1.618033988749895 
vertex 2.618033988749895 3.618033988749895 -0.0 
endloop
endfacet
facet normal 0.5 0.8090169943749475 0.30901699437494745 
outer loop
vertex 2.118033988749895 3.4270509831248424 1.3090169943749475 
vertex 2.618033988749895 3.618033988749895 -0.0 
vertex 1.0 4.23606797749979 1.0 
endloop
endfacet
facet normal 0.8506508083520399 0.5257311121191336 0.0 
outer loop
vertex 3.5124611797498106 2.170820393249937 0.0 
vertex 4.23606797749979 1.0 1.0 
vertex 4.23606797749979 1.0 -1.0 
endloop
endfacet
facet normal 0.85065080835204 0.5257311121191336 8.066242429609193e-17 
outer loop
vertex 3.5124611797498106 2.170820393249937 0.0 
vertex 4.23606797749979 1.0 -1.0 
vertex 3.23606797749979 2.618033988749895 -1.618033988749895 
endloop
endfacet
facet normal 0.85065080835204 0.5257311121191336 6.049681822206894e-17 
outer loop
vertex 3.5124611797498106 2.170820393249937 0.0 
vertex 3.23606797749979 2.618033988749895 -1.618033988749895 
vertex 2.618033988749895 3.618033988749895 -0.0 
endloop
endfacet
facet normal 0.8506508083520399 0.5257311121191336 -8.066242429609193e-17 
outer loop
vertex 3.5124611797498106 2.170820393249937 0.0 
vertex 2.618033988749895 3.618033988749895 -0.0 
vertex 3.23606797749979 2.618033988749895 1.618033988749895 
endloop
endfacet
facet normal 0.85065080835204 0.5257311121191336 -8.066242429609193e-17 
outer loop
vertex 3.5124611797498106 2.170820393249937 0.0 
vertex 3.23606797749979 2.618033988749895 1.618033988749895 
vertex 4.23606797749979 1.0 1.0 
endloop
endfacet
facet normal 0.0 0.8506508083520399 0.5257311121191336 
outer loop
vertex 0.0 3.5124611797498106 2.170820393249937 
vertex 1.0 4.23606797749979 1.0 
vertex -1.0 4.23606797749979 1.0 
endloop
endfacet
facet normal 8.066242429609193e-17 0.85065080835204 0.5257311121191336 
outer loop
vertex 0.0 3.5124611797498106 2.170820393249937 
vertex -1.0 4.23606797749979 1.0 
vertex -1.618033988749895 3.23606797749979 2.618033988749895 
endloop
endfacet
facet normal 6.049681822206894e-17 0.85065080835204 0.5257311121191336 
outer loop
vertex 0.0 3.5124611797498106 2.170820393249937 
vertex -1.618033988749895 3.23606797749979 2.618033988749895 
vertex -0.0 2.618033988749895 3.618033988749895 
endloop
endfacet
facet normal -8.066242429609193e-17 0.8506508083520399 0.5257311121191336 
outer loop
vertex 0.0 3.5124611797498106 2.170820393249937 
vertex -0.0 2.618033988749895 3.618033988749895 
vertex 1.618033988749895 3.23606797749979 2.618033988749895 
endloop
endfacet
facet normal -8.066242429609193e-17 0.85065080835204 0.5257311121191336 
outer loop
vertex 0.0 3.5124611797498106 2.170820393249937 
vertex 1.618033988749895 3.23606797749979 2.618033988749895 
vertex 1.0 4.23606797749979 1.0 
endloop
endfacet
facet normal -0.30901699437494745 0.5 0.8090169943749475 
outer loop
vertex -1.3090169943749475 2.118033988749895 3.4270509831248424 
vertex -2.618033988749895 1.618033988749895 3.23606797749979 
vertex -1.0 1.0 4.23606797749979 
endloop
endfacet
facet normal -0.3090169943749474 0.5 0.8090169943749475 
outer loop
vertex -1.3090169943749475 2.118033988749895 3.4270509831248424 
vertex -1.0 1.0 4.23606797749979 
vertex -0.0 2.618033988749895 3.618033988749895 
endloop
endfacet
facet normal -0.30901699437494745 0.5 0.8090169943749475 
outer loop
vertex -1.3090169943749475 2.118033988749895 3.4270509831248424 
vertex -0.0 2.618033988749895 3.618033988749895 
vertex -1.618033988749895 3.23606797749979 2.618033988749895 
endloop
endfacet
facet normal -0.3090169943749474 0.5 0.8090169943749475 
outer loop
vertex -1.3090169943749475 2.118033988749895 3.4270509831248424 
vertex -1.618033988749895 3.23606797749979 2.618033988749895 
vertex -2.618033988749895 1.618033988749895 3.23606797749979 
endloop
endfacet
facet normal -0.0 0.35682208977309043 0.9341723589627156 
outer loop
vertex 0.0 1.5393446629166316 4.030056647916491 
vertex -1.0 1.0 4.23606797749979 
vertex 1.0 1.0 4.23606797749979 
endloop
endfacet
facet normal -4.326666044363019e-16 0.3568220897730897 0.9341723589627158 
outer loop
vertex 0.0 1.5393446629166316 4.030056647916491 
vertex 1.0 1.0 4.23606797749979 
vertex -0.0 2.618033988749895 3.618033988749895 
endloop
endfacet
facet normal 3.845925372767128e-16 0.3568220897730897 0.9341723589627158 
outer loop
vertex 0.0 1.5393446629166316 4.030056647916491 
vertex -0.0 2.618033988749895 3.618033988749895 
vertex -1.0 1.0 4.23606797749979 
endloop
endfacet
facet normal 0.3090169943749474 0.5 0.8090169943749476 
outer loop
vertex 1.3090169943749475 2.118033988749895 3.4270509831248424 
vertex 1.0 1.0 4.23606797749979 
vertex 2.618033988749895 1.618033988749895 3.23606797749979 
endloop
endfacet
facet normal 0.30901699437494745 0.5 0.8090169943749475 
outer loop
vertex 1.3090169943749475 2.118033988749895 3.4270509831248424 
vertex 2.618033988749895 1.618033988749895 3.23606797749979 
vertex 1.618033988749895 3.23606797749979 2.618033988749895 
endloop
endfacet
facet normal 0.3090169943749474 0.5 0.8090169943749476 
outer loop
vertex 1.3090169943749475 2.118033988749895 3.4270509831248424 
vertex 1.618033988749895 3.23606797749979 2.618033988749895 
vertex -0.0 2.618033988749895 3.618033988749895 
endloop
endfacet
facet normal 0.30901699437494745 0.5 0.8090169943749475 
outer loop
vertex 1.3090169943749475 2.118033988749895 3.4270509831248424 
vertex -0.0 2.618033988749895 3.618033988749895 
vertex 1.0 1.0 4.23606797749979 
endloop
endfacet
facet normal 0.8090169943749476 0.3090169943749474 0.5 
outer loop
vertex 3.4270509831248424 1.3090169943749475 2.118033988749895 
vertex 2.618033988749895 1.618033988749895 3.23606797749979 
vertex 3.618033988749895 -0.0 2.618033988749895 
endloop
endfacet
facet normal 0.8090169943749475 0.30901699437494745 0.5 
outer loop
vertex 3.4270509831248424 1.3090169943749475 2.118033988749895 
vertex 3.618033988749895 -0.0 2.618033988749895 
vertex 4.23606797749979 1.0 1.0 
endloop
endfacet
facet normal 0.8090169943749476 0.3090169943749474 0.5 
outer loop
vertex 3.4270509831248424 1.3090169943749475 2.118033988749895 
vertex 4.23606797749979 1.0 1.0 
vertex 3.23606797749979 2.618033988749895 1.618033988749895 
endloop
endfacet
facet normal 0.8090169943749475 0.30901699437494745 0.5 
outer loop
vertex 3.4270509831248424 1.3090169943749475 2.118033988749895 
vertex 3.23606797749979 2.618033988749895 1.618033988749895 
vertex 2.618033988749895 1.618033988749895 3.23606797749979 
endloop
endfacet
facet normal 0.5257311121191336 0.0 0.8506508083520399 
outer loop
vertex 2.170820393249937 0.0 3.5124611797498106 
vertex 1.0 1.0 4.23606797749979 
vertex 1.0 -1.0 4.23606797749979 
endloop
endfacet
facet normal 0.5257311121191336 8.066242429609193e-17 0.85065080835204 
outer loop
vertex 2.170820393249937 0.0 3.5124611797498106 
vertex 1.0 -1.0 4.23606797749979 
vertex 2.618033988749895 -1.618033988749895 3.23606797749979 
endloop
endfacet
facet normal 0.5257311121191336 6.049681822206894e-17 0.85065080835204 
outer loop
vertex 2.170820393249937 0.0 3.5124611797498106 
vertex 2.618033988749895 -1.618033988749895 3.23606797749979 
vertex 3.618033988749895 -0.0 2.618033988749895 
endloop
endfacet
facet normal 0.5257311121191337 -8.066242429609194e-17 0.85065080835204 
outer loop
vertex 2.170820393249937 0.0 3.5124611797498106 
vertex 3.618033988749895 -0.0 2.618033988749895 
vertex 2.618033988749895 1.618033988749895 3.23606797749979 
endloop
endfacet
facet normal 0.5257311121191336 -8.066242429609193e-17 0.85065080835204 
outer loop
vertex 2.170820393249937 0.0 3.5124611797498106 
vertex 2.618033988749895 1.618033988749895 3.23606797749979 
vertex 1.0 1.0 4.23606797749979 
endloop
endfacet
facet normal 0.8090169943749475 -0.30901699437494745 0.5 
outer loop
vertex 3.4270509831248424 -1.3090169943749475 2.118033988749895 
vertex 3.23606797749979 -2.618033988749895 1.618033988749895 
vertex 4.23606797749979 -1.0 1.0 
endloop
endfacet
facet normal 0.8090169943749475 -0.3090169943749474 0.5 
outer loop
vertex 3.4270509831248424 -1.3090169943749475 2.118033988749895 
vertex 4.23606797749979 -1.0 1.0 
vertex 3.618033988749895 -0.0 2.618033988749895 
endloop
endfacet
facet normal 0.8090169943749475 -0.30901699437494745 0.5 
outer loop
vertex 3.4270509831248424 -1.3090169943749475 2.118033988749895 
vertex 3.618033988749895 -0.0 2.618033988749895 
vertex 2.618033988749895 -1.618033988749895 3.23606797749979 
endloop
endfacet
facet normal 0.8090169943749475 -0.3090169943749474 0.5 
outer loop
vertex 3.4270509831248424 -1.3090169943749475 2.118033988749895 
vertex 2.618033988749895 -1.618033988749895 3.23606797749979 
vertex 3.23606797749979 -2.618033988749895 1.618033988749895 
endloop
endfacet
facet normal 0.9341723589627156 -0.0 0.35682208977309043 
outer loop
vertex 4.030056647916491 0.0 1.5393446629166316 
vertex 4.23606797749979 -1.0 1.0 
vertex 4.23606797749979 1.0 1.0 
endloop
endfacet
facet normal 0.9341723589627158 -4.326666044363019e-16 0.3568220897730897 
outer loop
vertex 4.030056647916491 0.0 1.5393446629166316 
vertex 4.23606797749979 1.0 1.0 
vertex 3.618033988749895 -0.0 2.618033988749895 
endloop
endfacet
facet normal 0.9341723589627158 3.845925372767128e-16 0.3568220897730897 
outer loop
vertex 4.030056647916491 0.0 1.5393446629166316 
vertex 3.618033988749895 -0.0 2.618033988749895 
vertex 4.23606797749979 -1.0 1.0 
endloop
endfacet
facet normal -0.5 0.8090169943749475 0.30901699437494745 
outer loop
vertex -2.118033988749895 3.4270509831248424 1.3090169943749475 
vertex -1.618033988749895 3.23606797749979 2.618033988749895 
vertex -1.0 4.23606797749979 1.0 
endloop
endfacet
facet normal -0.5 0.8090169943749475 0.3090169943749474 
outer loop
vertex -2.118033988749895 3.4270509831248424 1.3090169943749475 
vertex -1.0 4.23606797749979 1.0 
vertex -2.618033988749895 3.618033988749895 -0.0 
endloop
endfacet
facet normal -0.5 0.8090169943749475 0.30901699437494745 
outer loop
vertex -2.118033988749895 3.4270509831248424 1.3090169943749475 
vertex -2.618033988749895 3.618033988749895 -0.0 
vertex -3.23606797749979 2.618033988749895 1.618033988749895 
endloop
endfacet
facet normal -0.5 0.8090169943749475 0.3090169943749474 
outer loop
vertex -2.118033988749895 3.4270509831248424 1.3090169943749475 
vertex -3.23606797749979 2.618033988749895 1.618033988749895 
vertex -1.618033988749895 3.23606797749979 2.618033988749895 
endloop
endfacet
facet normal -0.35682208977309043 0.9341723589627156 0.0 
outer loop
vertex -1.5393446629166316 4.030056647916491 0.0 
vertex -1.0 4.23606797749979 1.0 
vertex -1.0 4.23606797749979 -1.0 
endloop
endfacet
facet normal -0.3568220897730897 0.9341723589627158 4.326666044363019e-16 
outer loop
vertex -1.5393446629166316 4.030056647916491 0.0 
vertex -1.0 4.23606797749979 -1.0 
vertex -2.618033988749895 3.618033988749895 -0.0 
endloop
endfacet
facet normal -0.3568220897730897 0.9341723589627158 -3.845925372767128e-16 
outer loop
vertex -1.5393446629166316 4.030056647916491 0.0 
vertex -2.618033988749895 3.618033988749895 -0.0 
vertex -1.0 4.23606797749979 1.0 
endloop
endfacet
facet normal -0.5 0.8090169943749476 -0.3090169943749474 
outer loop
vertex -2.118033988749895 3.4270509831248424 -1.3090169943749475 
vertex -1.0 4.23606797749979 -1.0 
vertex -1.618033988749895 3.23606797749979 -2.618033988749895 
endloop
endfacet
facet normal -0.5 0.8090169943749475 -0.30901699437494745 
outer loop
vertex -2.118033988749895 3.4270509831248424 -1.3090169943749475 
vertex -1.618033988749895 3.23606797749979 -2.618033988749895 
vertex -3.23606797749979 2.618033988749895 -1.618033988749895 
endloop
endfacet
facet normal -0.5 0.8090169943749476 -0.3090169943749474 
outer loop
vertex -2.118033988749895 3.4270509831248424 -1.3090169943749475 
vertex -3.23606797749979 2.618033988749895 -1.618033988749895 
vertex -2.618033988749895 3.618033988749895 -0.0 
endloop
endfacet
facet normal -0.5 0.8090169943749475 -0.30901699437494745 
outer loop
vertex -2.118033988749895 3.4270509831248424 -1.3090169943749475 
vertex -2.618033988749895 3.618033988749895 -0.0 
vertex -1.0 4.23606797749979 -1.0 
endloop
endfacet
facet normal -0.8506508083520399 0.5257311121191336 0.0 
outer loop
vertex -3.5124611797498106 2.170820393249937 0.0 
vertex -4.23606797749979 1.0 -1.0 
vertex -4.23606797749979 1.0 1.0 
endloop
endfacet
facet normal -0.85065080835204 0.5257311121191336 -8.066242429609193e-17 
outer loop
vertex -3.5124611797498106 2.170820393249937 0.0 
vertex -4.23606797749979 1.0 1.0 
vertex -3.23606797749979 2.618033988749895 1.618033988749895 
endloop
endfacet
facet normal -0.85065080835204 0.5257311121191336 -6.049681822206894e-17 
outer loop
vertex -3.5124611797498106 2.170820393249937 0.0 
vertex -3.23606797749979 2.618033988749895 1.618033988749895 
vertex -2.618033988749895 3.618033988749895 -0.0 
endloop
endfacet
facet normal -0.8506508083520399 0.5257311121191336 8.066242429609193e-17 
outer loop
vertex -3.5124611797498106 2.170820393249937 0.0 
vertex -2.618033988749895 3.618033988749895 -0.0 
vertex -3.23606797749979 2.618033988749895 -1.618033988749895 
endloop
endfacet
facet normal -0.85065080835204 0.5257311121191336 8.066242429609193e-17 
outer loop
vertex -3.5124611797498106 2.170820393249937 0.0 
vertex -3.23606797749979 2.618033988749895 -1.618033988749895 
vertex -4.23606797749979 1.0 -1.0 
endloop
endfacet
facet normal -0.3090169943749474 -0.5 0.8090169943749476 
outer loop
vertex -1.3090169943749475 -2.118033988749895 3.4270509831248424 
vertex -1.0 -1.0 4.23606797749979 
vertex -2.618033988749895 -1.618033988749895 3.23606797749979 
endloop
endfacet
facet normal -0.30901699437494745 -0.5 0.8090169943749475 
outer loop
vertex -1.3090169943749475 -2.118033988749895 3.4270509831248424 
vertex -2.618033988749895 -1.618033988749895 3.23606797749979 
vertex -1.618033988749895 -3.23606797749979 2.618033988749895 
endloop
endfacet
facet normal -0.3090169943749474 -0.5 0.8090169943749476 
outer loop
vertex -1.3090169943749475 -2.118033988749895 3.4270509831248424 
vertex -1.618033988749895 -3.23606797749979 2.618033988749895 
vertex -0.0 -2.618033988749895 3.618033988749895 
endloop
endfacet
facet normal -0.30901699437494745 -0.5 0.8090169943749475 
outer loop
vertex -1.3090169943749475 -2.118033988749895 3.4270509831248424 
vertex -0.0 -2.618033988749895 3.618033988749895 
vertex -1.0 -1.0 4.23606797749979 
endloop
endfacet
facet normal 0.0 -0.8506508083520399 0.5257311121191336 
outer loop
vertex 0.0 -3.5124611797498106 2.170820393249937 
vertex -1.0 -4.23606797749979 1.0 
vertex 1.0 -4.23606797749979 1.0 
endloop
endfacet
facet normal -8.066242429609193e-17 -0.85065080835204 0.5257311121191336 
outer loop
vertex 0.0 -3.5124611797498106 2.170820393249937 
vertex 1.0 -4.23606797749979 1.0 
vertex 1.618033988749895 -3.23606797749979 2.618033988749895 
endloop
endfacet
facet normal -6.049681822206894e-17 -0.85065080835204 0.5257311121191336 
outer loop
vertex 0.0 -3.5124611797498106 2.170820393249937 
vertex 1.618033988749895 -3.23606797749979 2.618033988749895 
vertex -0.0 -2.618033988749895 3.618033988749895 
endloop
endfacet
facet normal 8.066242429609193e-17 -0.8506508083520399 0.5257311121191336 
outer loop
vertex 0.0 -3.5124611797498106 2.170820393249937 
vertex -0.0 -2.618033988749895 3.618033988749895 
vertex -1.618033988749895 -3.23606797749979 2.618033988749895 
endloop
endfacet
facet normal 8.066242429609193e-17 -0.85065080835204 0.5257311121191336 
outer loop
vertex 0.0 -3.5124611797498106 2.170820393249937 
vertex -1.618033988749895 -3.23606797749979 2.618033988749895 
vertex -1.0 -4.23606797749979 1.0 
endloop
endfacet
facet normal 0.30901699437494745 -0.5 0.8090169943749475 
outer loop
vertex 1.3090169943749475 -2.118033988749895 3.4270509831248424 
vertex 2.618033988749895 -1.618033988749895 3.23606797749979 
vertex 1.0 -1.0 4.23606797749979 
endloop
endfacet
facet normal 0.3090169943749474 -0.5 0.8090169943749475 
outer loop
vertex 1.3090169943749475 -2.118033988749895 3.4270509831248424 
vertex 1.0 -1.0 4.23606797749979 
vertex -0.0 -2.618033988749895 3.618033988749895 
endloop
endfacet
facet normal 0.30901699437494745 -0.5 0.8090169943749475 
outer loop
vertex 1.3090169943749475 -2.118033988749895 3.4270509831248424 
vertex -0.0 -2.618033988749895 3.618033988749895 
vertex 1.618033988749895 -3.23606797749979 2.618033988749895 
endloop
endfacet
facet normal 0.3090169943749474 -0.5 0.8090169943749475 
outer loop
vertex 1.3090169943749475 -2.118033988749895 3.4270509831248424 
vertex 1.618033988749895 -3.23606797749979 2.618033988749895 
vertex 2.618033988749895 -1.618033988749895 3.23606797749979 
endloop
endfacet
facet normal 0.0 -0.35682208977309043 0.9341723589627156 
outer loop
vertex 0.0 -1.5393446629166316 4.030056647916491 
vertex 1.0 -1.0 4.23606797749979 
vertex -1.0 -1.0 4.23606797749979 
endloop
endfacet
facet normal 4.326666044363019e-16 -0.3568220897730897 0.9341723589627158 
outer loop
vertex 0.0 -1.5393446629166316 4.030056647916491 
vertex -1.0 -1.0 4.23606797749979 
vertex -0.0 -2.618033988749895 3.618033988749895 
endloop
endfacet
facet normal -3.845925372767128e-16 -0.3568220897730897 0.9341723589627158 
outer loop
vertex 0.0 -1.5393446629166316 4.030056647916491 
vertex -0.0 -2.618033988749895 3.618033988749895 
vertex 1.0 -1.0 4.23606797749979 
endloop
endfacet
facet normal 0.8090169943749476 -0.3090169943749474 -0.5 
outer loop
vertex 3.4270509831248424 -1.3090169943749475 -2.118033988749895 
vertex 4.23606797749979 -1.0 -1.0 
vertex 3.23606797749979 -2.618033988749895 -1.618033988749895 
endloop
endfacet
facet normal 0.8090169943749475 -0.30901699437494745 -0.5 
outer loop
vertex 3.4270509831248424 -1.3090169943749475 -2.118033988749895 
vertex 3.23606797749979 -2.618033988749895 -1.618033988749895 
vertex 2.618033988749895 -1.618033988749895 -3.23606797749979 
endloop
endfacet
facet normal 0.8090169943749476 -0.3090169943749474 -0.5 
outer loop
vertex 3.4270509831248424 -1.3090169943749475 -2.118033988749895 
vertex 2.618033988749895 -1.618033988749895 -3.23606797749979 
vertex 3.618033988749895 -0.0 -2.618033988749895 
endloop
endfacet
facet normal 0.8090169943749475 -0.30901699437494745 -0.5 
outer loop
vertex 3.4270509831248424 -1.3090169943749475 -2.118033988749895 
vertex 3.618033988749895 -0.0 -2.618033988749895 
vertex 4.23606797749979 -1.0 -1.0 
endloop
endfacet
facet normal 0.5257311121191336 0.0 -0.8506508083520399 
outer loop
vertex 2.170820393249937 0.0 -3.5124611797498106 
vertex 1.0 -1.0 -4.23606797749979 
vertex 1.0 1.0 -4.23606797749979 
endloop
endfacet
facet normal 0.5257311121191336 -8.066242429609193e-17 -0.85065080835204 
outer loop
vertex 2.170820393249937 0.0 -3.5124611797498106 
vertex 1.0 1.0 -4.23606797749979 
vertex 2.618033988749895 1.618033988749895 -3.23606797749979 
endloop
endfacet
facet normal 0.5257311121191336 -6.049681822206894e-17 -0.85065080835204 
outer loop
vertex 2.170820393249937 0.0 -3.5124611797498106 
vertex 2.618033988749895 1.618033988749895 -3.23606797749979 
vertex 3.618033988749895 -0.0 -2.618033988749895 
endloop
endfacet
facet normal 0.5257311121191337 8.066242429609194e-17 -0.85065080835204 
outer loop
vertex 2.170820393249937 0.0 -3.5124611797498106 
vertex 3.618033988749895 -0.0 -2.618033988749895 
vertex 2.618033988749895 -1.618033988749895 -3.23606797749979 
endloop
endfacet
facet normal 0.5257311121191336 8.066242429609193e-17 -0.85065080835204 
outer loop
vertex 2.170820393249937 0.0 -3.5124611797498106 
vertex 2.618033988749895 -1.618033988749895 -3.23606797749979 
vertex 1.0 -1.0 -4.23606797749979 
endloop
endfacet
facet normal 0.8090169943749475 0.30901699437494745 -0.5 
outer loop
vertex 3.4270509831248424 1.3090169943749475 -2.118033988749895 
vertex 3.23606797749979 2.618033988749895 -1.618033988749895 
vertex 4.23606797749979 1.0 -1.0 
endloop
endfacet
facet normal 0.8090169943749475 0.3090169943749474 -0.5 
outer loop
vertex 3.4270509831248424 1.3090169943749475 -2.118033988749895 
vertex 4.23606797749979 1.0 -1.0 
vertex 3.618033988749895 -0.0 -2.618033988749895 
endloop
endfacet
facet normal 0.8090169943749475 0.30901699437494745 -0.5 
outer loop
vertex 3.4270509831248424 1.3090169943749475 -2.118033988749895 
vertex 3.618033988749895 -0.0 -2.618033988749895 
vertex 2.618033988749895 1.618033988749895 -3.23606797749979 
endloop
endfacet
facet normal 0.8090169943749475 0.3090169943749474 -0.5 
outer loop
vertex 3.4270509831248424 1.3090169943749475 -2.118033988749895 
vertex 2.618033988749895 1.618033988749895 -3.23606797749979 
vertex 3.23606797749979 2.618033988749895 -1.618033988749895 
endloop
endfacet
facet normal 0.9341723589627156 0.0 -0.35682208977309043 
outer loop
vertex 4.030056647916491 0.0 -1.5393446629166316 
vertex 4.23606797749979 1.0 -1.0 
vertex 4.23606797749979 -1.0 -1.0 
endloop
endfacet
facet normal 0.9341723589627158 4.326666044363019e-16 -0.3568220897730897 
outer loop
vertex 4.030056647916491 0.0 -1.5393446629166316 
vertex 4.23606797749979 -1.0 -1.0 
vertex 3.618033988749895 -0.0 -2.618033988749895 
endloop
endfacet
facet normal 0.9341723589627158 -3.845925372767128e-16 -0.3568220897730897 
outer loop
vertex 4.030056647916491 0.0 -1.5393446629166316 
vertex 3.618033988749895 -0.0 -2.618033988749895 
vertex 4.23606797749979 1.0 -1.0 
endloop
endfacet
facet normal 0.5 -0.8090169943749476 -0.3090169943749474 
outer loop
vertex 2.118033988749895 -3.4270509831248424 -1.3090169943749475 
vertex 3.23606797749979 -2.618033988749895 -1.618033988749895 
vertex 2.618033988749895 -3.618033988749895 -0.0 
endloop
endfacet
facet normal 0.5 -0.8090169943749475 -0.30901699437494745 
outer loop
vertex 2.118033988749895 -3.4270509831248424 -1.3090169943749475 
vertex 2.618033988749895 -3.618033988749895 -0.0 
vertex 1.0 -4.23606797749979 -1.0 
endloop
endfacet
facet normal 0.5 -0.8090169943749476 -0.3090169943749474 
outer loop
vertex 2.118033988749895 -3.4270509831248424 -1.3090169943749475 
vertex 1.0 -4.23606797749979 -1.0 
vertex 1.618033988749895 -3.23606797749979 -2.618033988749895 
endloop
endfacet
facet normal 0.5 -0.8090169943749475 -0.30901699437494745 
outer loop
vertex 2.118033988749895 -3.4270509831248424 -1.3090169943749475 
vertex 1.618033988749895 -3.23606797749979 -2.618033988749895 
vertex 3.23606797749979 -2.618033988749895 -1.618033988749895 
endloop
endfacet
facet normal 0.8506508083520399 -0.5257311121191336 0.0 
outer loop
vertex 3.5124611797498106 -2.170820393249937 0.0 
vertex 4.23606797749979 -1.0 -1.0 
vertex 4.23606797749979 -1.0 1.0 
endloop
endfacet
facet normal 0.85065080835204 -0.5257311121191336 -8.066242429609193e-17 
outer loop
vertex 3.5124611797498106 -2.170820393249937 0.0 
vertex 4.23606797749979 -1.0 1.0 
vertex 3.23606797749979 -2.618033988749895 1.618033988749895 
endloop
endfacet
facet normal 0.85065080835204 -0.5257311121191336 -6.049681822206894e-17 
outer loop
vertex 3.5124611797498106 -2.170820393249937 0.0 
vertex 3.23606797749979 -2.618033988749895 1.618033988749895 
vertex 2.618033988749895 -3.618033988749895 -0.0 
endloop
endfacet
facet normal 0.8506508083520399 -0.5257311121191336 8.066242429609193e-17 
outer loop
vertex 3.5124611797498106 -2.170820393249937 0.0 
vertex 2.618033988749895 -3.618033988749895 -0.0 
vertex 3.23606797749979 -2.618033988749895 -1.618033988749895 
endloop
endfacet
facet normal 0.85065080835204 -0.5257311121191336 8.066242429609193e-17 
outer loop
vertex 3.5124611797498106 -2.170820393249937 0.0 
vertex 3.23606797749979 -2.618033988749895 -1.618033988749895 
vertex 4.23606797749979 -1.0 -1.0 
endloop
endfacet
facet normal 0.5 -0.8090169943749475 0.3090169943749474 
outer loop
vertex 2.118033988749895 -3.4270509831248424 1.3090169943749475 
vertex 1.0 -4.23606797749979 1.0 
vertex 2.618033988749895 -3.618033988749895 -0.0 
endloop
endfacet
facet normal 0.5 -0.8090169943749475 0.30901699437494745 
outer loop
vertex 2.118033988749895 -3.4270509831248424 1.3090169943749475 
vertex 2.618033988749895 -3.618033988749895 -0.0 
vertex 3.23606797749979 -2.618033988749895 1.618033988749895 
endloop
endfacet
facet normal 0.5 -0.8090169943749475 0.3090169943749474 
outer loop
vertex 2.118033988749895 -3.4270509831248424 1.3090169943749475 
vertex 3.23606797749979 -2.618033988749895 1.618033988749895 
vertex 1.618033988749895 -3.23606797749979 2.618033988749895 
endloop
endfacet
facet normal 0.5 -0.8090169943749475 0.30901699437494745 
outer loop
vertex 2.118033988749895 -3.4270509831248424 1.3090169943749475 
vertex 1.618033988749895 -3.23606797749979 2.618033988749895 
vertex 1.0 -4.23606797749979 1.0 
endloop
endfacet
facet normal 0.35682208977309043 -0.9341723589627156 0.0 
outer loop
vertex 1.5393446629166316 -4.030056647916491 0.0 
vertex 1.0 -4.23606797749979 1.0 
vertex 1.0 -4.23606797749979 -1.0 
endloop
endfacet
facet normal 0.3568220897730897 -0.9341723589627158 4.326666044363019e-16 
outer loop
vertex 1.5393446629166316 -4.030056647916491 0.0 
vertex 1.0 -4.23606797749979 -1.0 
vertex 2.618033988749895 -3.618033988749895 -0.0 
endloop
endfacet
facet normal 0.3568220897730897 -0.9341723589627158 -3.845925372767128e-16 
outer loop
vertex 1.5393446629166316 -4.030056647916491 0.0 
vertex 2.618033988749895 -3.618033988749895 -0.0 
vertex 1.0 -4.23606797749979 1.0 
endloop
endfacet
facet normal 0.0 0.8506508083520399 -0.5257311121191336 
outer loop
vertex 0.0 3.5124611797498106 -2.170820393249937 
vertex -1.0 4.23606797749979 -1.0 
vertex 1.0 4.23606797749979 -1.0 
endloop
endfacet
facet normal -8.066242429609193e-17 0.85065080835204 -0.5257311121191336 
outer loop
vertex 0.0 3.5124611797498106 -2.170820393249937 
vertex 1.0 4.23606797749979 -1.0 
vertex 1.618033988749895 3.23606797749979 -2.618033988749895 
endloop
endfacet
facet normal -6.049681822206894e-17 0.85065080835204 -0.5257311121191336 
outer loop
vertex 0.0 3.5124611797498106 -2.170820393249937 
vertex 1.618033988749895 3.23606797749979 -2.618033988749895 
vertex -0.0 2.618033988749895 -3.618033988749895 
endloop
endfacet
facet normal 8.066242429609193e-17 0.8506508083520399 -0.5257311121191336 
outer loop
vertex 0.0 3.5124611797498106 -2.170820393249937 
vertex -0.0 2.618033988749895 -3.618033988749895 
vertex -1.618033988749895 3.23606797749979 -2.618033988749895 
endloop
endfacet
facet normal 8.066242429609193e-17 0.85065080835204 -0.5257311121191336 
outer loop
vertex 0.0 3.5124611797498106 -2.170820393249937 
vertex -1.618033988749895 3.23606797749979 -2.618033988749895 
vertex -1.0 4.23606797749979 -1.0 
endloop
endfacet
facet normal 0.3090169943749474 0.5 -0.8090169943749475 
outer loop
vertex 1.3090169943749475 2.118033988749895 -3.4270509831248424 
vertex 1.0 1.0 -4.23606797749979 
vertex -0.0 2.618033988749895 -3.618033988749895 
endloop
endfacet
facet normal 0.30901699437494745 0.5 -0.8090169943749475 
outer loop
vertex 1.3090169943749475 2.118033988749895 -3.4270509831248424 
vertex -0.0 2.618033988749895 -3.618033988749895 
vertex 1.618033988749895 3.23606797749979 -2.618033988749895 
endloop
endfacet
facet normal 0.3090169943749474 0.5 -0.8090169943749475 
outer loop
vertex 1.3090169943749475 2.118033988749895 -3.4270509831248424 
vertex 1.618033988749895 3.23606797749979 -2.618033988749895 
vertex 2.618033988749895 1.618033988749895 -3.23606797749979 
endloop
endfacet
facet normal 0.30901699437494745 0.5 -0.8090169943749475 
outer loop
vertex 1.3090169943749475 2.118033988749895 -3.4270509831248424 
vertex 2.618033988749895 1.618033988749895 -3.23606797749979 
vertex 1.0 1.0 -4.23606797749979 
endloop
endfacet
facet normal 0.0 0.35682208977309043 -0.9341723589627156 
outer loop
vertex 0.0 1.5393446629166316 -4.030056647916491 
vertex 1.0 1.0 -4.23606797749979 
vertex -1.0 1.0 -4.23606797749979 
endloop
endfacet
facet normal 4.326666044363019e-16 0.3568220897730897 -0.9341723589627158 
outer loop
vertex 0.0 1.5393446629166316 -4.030056647916491 
vertex -1.0 1.0 -4.23606797749979 
vertex -0.0 2.618033988749895 -3.618033988749895 
endloop
endfacet
facet normal -3.845925372767128e-16 0.3568220897730897 -0.9341723589627158 
outer loop
vertex 0.0 1.5393446629166316 -4.030056647916491 
vertex -0.0 2.618033988749895 -3.618033988749895 
vertex 1.0 1.0 -4.23606797749979 
endloop
endfacet
facet normal -0.3090169943749474 0.5 -0.8090169943749476 
outer loop
vertex -1.3090169943749475 2.118033988749895 -3.4270509831248424 
vertex -1.618033988749895 3.23606797749979 -2.618033988749895 
vertex -0.0 2.618033988749895 -3.618033988749895 
endloop
endfacet
facet normal -0.30901699437494745 0.5 -0.8090169943749475 
outer loop
vertex -1.3090169943749475 2.118033988749895 -3.4270509831248424 
vertex -0.0 2.618033988749895 -3.618033988749895 
vertex -1.0 1.0 -4.23606797749979 
endloop
endfacet
facet normal -0.3090169943749474 0.5 -0.8090169943749476 
outer loop
vertex -1.3090169943749475 2.118033988749895 -3.4270509831248424 
vertex -1.0 1.0 -4.23606797749979 
vertex -2.618033988749895 1.618033988749895 -3.23606797749979 
endloop
endfacet
facet normal -0.30901699437494745 0.5 -0.8090169943749475 
outer loop
vertex -1.3090169943749475 2.118033988749895 -3.4270509831248424 
vertex -2.618033988749895 1.618033988749895 -3.23606797749979 
vertex -1.618033988749895 3.23606797749979 -2.618033988749895 
endloop
endfacet
facet normal -0.8090169943749475 0.3090169943749474 0.5 
outer loop
vertex -3.4270509831248424 1.3090169943749475 2.118033988749895 
vertex -4.23606797749979 1.0 1.0 
vertex -3.618033988749895 -0.0 2.618033988749895 
endloop
endfacet
facet normal -0.8090169943749475 0.30901699437494745 0.5 
outer loop
vertex -3.4270509831248424 1.3090169943749475 2.118033988749895 
vertex -3.618033988749895 -0.0 2.618033988749895 
vertex -2.618033988749895 1.618033988749895 3.23606797749979 
endloop
endfacet
facet normal -0.8090169943749475 0.3090169943749474 0.5 
outer loop
vertex -3.4270509831248424 1.3090169943749475 2.118033988749895 
vertex -2.618033988749895 1.618033988749895 3.23606797749979 
vertex -3.23606797749979 2.618033988749895 1.618033988749895 
endloop
endfacet
facet normal -0.8090169943749475 0.30901699437494745 0.5 
outer loop
vertex -3.4270509831248424 1.3090169943749475 2.118033988749895 
vertex -3.23606797749979 2.618033988749895 1.618033988749895 
vertex -4.23606797749979 1.0 1.0 
endloop
endfacet
facet normal -0.9341723589627156 0.0 0.35682208977309043 
outer loop
vertex -4.030056647916491 0.0 1.5393446629166316 
vertex -4.23606797749979 1.0 1.0 
vertex -4.23606797749979 -1.0 1.0 
endloop
endfacet
facet normal -0.9341723589627158 4.326666044363019e-16 0.3568220897730897 
outer loop
vertex -4.030056647916491 0.0 1.5393446629166316 
vertex -4.23606797749979 -1.0 1.0 
vertex -3.618033988749895 -0.0 2.618033988749895 
endloop
endfacet
facet normal -0.9341723589627158 -3.845925372767128e-16 0.3568220897730897 
outer loop
vertex -4.030056647916491 0.0 1.5393446629166316 
vertex -3.618033988749895 -0.0 2.618033988749895 
vertex -4.23606797749979 1.0 1.0 
endloop
endfacet
facet normal -0.8090169943749476 -0.3090169943749474 0.5 
outer loop
vertex -3.4270509831248424 -1.3090169943749475 2.118033988749895 
vertex -2.618033988749895 -1.618033988749895 3.23606797749979 
vertex -3.618033988749895 -0.0 2.618033988749895 
endloop
endfacet
facet normal -0.8090169943749475 -0.30901699437494745 0.5 
outer loop
vertex -3.4270509831248424 -1.3090169943749475 2.118033988749895 
vertex -3.618033988749895 -0.0 2.618033988749895 
vertex -4.23606797749979 -1.0 1.0 
endloop
endfacet
facet normal -0.8090169943749476 -0.3090169943749474 0.5 
outer loop
vertex -3.4270509831248424 -1.3090169943749475 2.118033988749895 
vertex -4.23606797749979 -1.0 1.0 
vertex -3.23606797749979 -2.618033988749895 1.618033988749895 
endloop
endfacet
facet normal -0.8090169943749475 -0.30901699437494745 0.5 
outer loop
vertex -3.4270509831248424 -1.3090169943749475 2.118033988749895 
vertex -3.23606797749979 -2.618033988749895 1.618033988749895 
vertex -2.618033988749895 -1.618033988749895 3.23606797749979 
endloop
endfacet
facet normal -0.5257311121191336 0.0 0.8506508083520399 
outer loop
vertex -2.170820393249937 0.0 3.5124611797498106 
vertex -1.0 -1.0 4.23606797749979 
vertex -1.0 1.0 4.23606797749979 
endloop
endfacet
facet normal -0.5257311121191336 -8.066242429609193e-17 0.85065080835204 
outer loop
vertex -2.170820393249937 0.0 3.5124611797498106 
vertex -1.0 1.0 4.23606797749979 
vertex -2.618033988749895 1.618033988749895 3.23606797749979 
endloop
endfacet
facet normal -0.5257311121191336 -6.049681822206894e-17 0.85065080835204 
outer loop
vertex -2.170820393249937 0.0 3.5124611797498106 
vertex -2.618033988749895 1.618033988749895 3.23606797749979 
vertex -3.618033988749895 -0.0 2.618033988749895 
endloop
endfacet
facet normal -0.5257311121191337 8.066242429609194e-17 0.85065080835204 
outer loop
vertex -2.170820393249937 0.0 3.5124611797498106 
vertex -3.618033988749895 -0.0 2.618033988749895 
vertex -2.618033988749895 -1.618033988749895 3.23606797749979 
endloop
endfacet
facet normal -0.5257311121191336 8.066242429609193e-17 0.85065080835204 
outer loop
vertex -2.170820393249937 0.0 3.5124611797498106 
vertex -2.618033988749895 -1.618033988749895 3.23606797749979 
vertex -1.0 -1.0 4.23606797749979 
endloop
endfacet
facet normal -0.35682208977309043 -0.9341723589627156 0.0 
outer loop
vertex -1.5393446629166316 -4.030056647916491 0.0 
vertex -1.0 -4.23606797749979 -1.0 
vertex -1.0 -4.23606797749979 1.0 
endloop
endfacet
facet normal -0.3568220897730897 -0.9341723589627158 -4.326666044363019e-16 
outer loop
vertex -1.5393446629166316 -4.030056647916491 0.0 
vertex -1.0 -4.23606797749979 1.0 
vertex -2.618033988749895 -3.618033988749895 -0.0 
endloop
endfacet
facet normal -0.3568220897730897 -0.9341723589627158 3.845925372767128e-16 
outer loop
vertex -1.5393446629166316 -4.030056647916491 0.0 
vertex -2.618033988749895 -3.618033988749895 -0.0 
vertex -1.0 -4.23606797749979 -1.0 
endloop
endfacet
facet normal -0.5 -0.8090169943749476 0.3090169943749474 
outer loop
vertex -2.118033988749895 -3.4270509831248424 1.3090169943749475 
vertex -3.23606797749979 -2.618033988749895 1.618033988749895 
vertex -2.618033988749895 -3.618033988749895 -0.0 
endloop
endfacet
facet normal -0.5 -0.8090169943749475 0.30901699437494745 
outer loop
vertex -2.118033988749895 -3.4270509831248424 1.3090169943749475 
vertex -2.618033988749895 -3.618033988749895 -0.0 
vertex -1.0 -4.23606797749979 1.0 
endloop
endfacet
facet normal -0.5 -0.8090169943749476 0.3090169943749474 
outer loop
vertex -2.118033988749895 -3.4270509831248424 1.3090169943749475 
vertex -1.0 -4.23606797749979 1.0 
vertex -1.618033988749895 -3.23606797749979 2.618033988749895 
endloop
endfacet
facet normal -0.5 -0.8090169943749475 0.30901699437494745 
outer loop
vertex -2.118033988749895 -3.4270509831248424 1.3090169943749475 
vertex -1.618033988749895 -3.23606797749979 2.618033988749895 
vertex -3.23606797749979 -2.618033988749895 1.618033988749895 
endloop
endfacet
facet normal -0.8506508083520399 -0.5257311121191336 -0.0 
outer loop
vertex -3.5124611797498106 -2.170820393249937 0.0 
vertex -4.23606797749979 -1.0 1.0 
vertex -4.23606797749979 -1.0 -1.0 
endloop
endfacet
facet normal -0.85065080835204 -0.5257311121191336 8.066242429609193e-17 
outer loop
vertex -3.5124611797498106 -2.170820393249937 0.0 
vertex -4.23606797749979 -1.0 -1.0 
vertex -3.23606797749979 -2.618033988749895 -1.618033988749895 
endloop
endfacet
facet normal -0.85065080835204 -0.5257311121191336 6.049681822206894e-17 
outer loop
vertex -3.5124611797498106 -2.170820393249937 0.0 
vertex -3.23606797749979 -2.618033988749895 -1.618033988749895 
vertex -2.618033988749895 -3.618033988749895 -0.0 
endloop
endfacet
facet normal -0.8506508083520399 -0.5257311121191336 -8.066242429609193e-17 
outer loop
vertex -3.5124611797498106 -2.170820393249937 0.0 
vertex -2.618033988749895 -3.618033988749895 -0.0 
vertex -3.23606797749979 -2.618033988749895 1.618033988749895 
endloop
endfacet
facet normal -0.85065080835204 -0.5257311121191336 -8.066242429609193e-17 
outer loop
vertex -3.5124611797498106 -2.170820393249937 0.0 
vertex -3.23606797749979 -2.618033988749895 1.618033988749895 
vertex -4.23606797749979 -1.0 1.0 
endloop
endfacet
facet normal -0.5 -0.8090169943749475 -0.30901699437494745 
outer loop
vertex -2.118033988749895 -3.4270509831248424 -1.3090169943749475 
vertex -1.618033988749895 -3.23606797749979 -2.618033988749895 
vertex -1.0 -4.23606797749979 -1.0 
endloop
endfacet
facet normal -0.5 -0.8090169943749475 -0.3090169943749474 
outer loop
vertex -2.118033988749895 -3.4270509831248424 -1.3090169943749475 
vertex -1.0 -4.23606797749979 -1.0 
vertex -2.618033988749895 -3.618033988749895 -0.0 
endloop
endfacet
facet normal -0.5 -0.8090169943749475 -0.30901699437494745 
outer loop
vertex -2.118033988749895 -3.4270509831248424 -1.3090169943749475 
vertex -2.618033988749895 -3.618033988749895 -0.0 
vertex -3.23606797749979 -2.618033988749895 -1.618033988749895 
endloop
endfacet
facet normal -0.5 -0.8090169943749475 -0.3090169943749474 
outer loop
vertex -2.118033988749895 -3.4270509831248424 -1.3090169943749475 
vertex -3.23606797749979 -2.618033988749895 -1.618033988749895 
vertex -1.618033988749895 -3.23606797749979 -2.618033988749895 
endloop
endfacet
facet normal -0.30901699437494745 -0.5 -0.8090169943749475 
outer loop
vertex -1.3090169943749475 -2.118033988749895 -3.4270509831248424 
vertex -2.618033988749895 -1.618033988749895 -3.23606797749979 
vertex -1.0 -1.0 -4.23606797749979 
endloop
endfacet
facet normal -0.3090169943749474 -0.5 -0.8090169943749475 
outer loop
vertex -1.3090169943749475 -2.118033988749895 -3.4270509831248424 
vertex -1.0 -1.0 -4.23606797749979 
vertex -0.0 -2.618033988749895 -3.618033988749895 
endloop
endfacet
facet normal -0.30901699437494745 -0.5 -0.8090169943749475 
outer loop
vertex -1.3090169943749475 -2.118033988749895 -3.4270509831248424 
vertex -0.0 -2.618033988749895 -3.618033988749895 
vertex -1.618033988749895 -3.23606797749979 -2.618033988749895 
endloop
endfacet
facet normal -0.3090169943749474 -0.5 -0.8090169943749475 
outer loop
vertex -1.3090169943749475 -2.118033988749895 -3.4270509831248424 
vertex -1.618033988749895 -3.23606797749979 -2.618033988749895 
vertex -2.618033988749895 -1.618033988749895 -3.23606797749979 
endloop
endfacet
facet normal 0.0 -0.35682208977309043 -0.9341723589627156 
outer loop
vertex 0.0 -1.5393446629166316 -4.030056647916491 
vertex -1.0 -1.0 -4.23606797749979 
vertex 1.0 -1.0 -4.23606797749979 
endloop
endfacet
facet normal -4.326666044363019e-16 -0.3568220897730897 -0.9341723589627158 
outer loop
vertex 0.0 -1.5393446629166316 -4.030056647916491 
vertex 1.0 -1.0 -4.23606797749979 
vertex -0.0 -2.618033988749895 -3.618033988749895 
endloop
endfacet
facet normal 3.845925372767128e-16 -0.3568220897730897 -0.9341723589627158 
outer loop
vertex 0.0 -1.5393446629166316 -4.030056647916491 
vertex -0.0 -2.618033988749895 -3.618033988749895 
vertex -1.0 -1.0 -4.23606797749979 
endloop
endfacet
facet normal 0.3090169943749474 -0.5 -0.8090169943749476 
outer loop
vertex 1.3090169943749475 -2.118033988749895 -3.4270509831248424 
vertex 1.618033988749895 -3.23606797749979 -2.618033988749895 
vertex -0.0 -2.618033988749895 -3.618033988749895 
endloop
endfacet
facet normal 0.30901699437494745 -0.5 -0.8090169943749475 
outer loop
vertex 1.3090169943749475 -2.118033988749895 -3.4270509831248424 
vertex -0.0 -2.618033988749895 -3.618033988749895 
vertex 1.0 -1.0 -4.23606797749979 
endloop
endfacet
facet normal 0.3090169943749474 -0.5 -0.8090169943749476 
outer loop
vertex 1.3090169943749475 -2.118033988749895 -3.4270509831248424 
vertex 1.0 -1.0 -4.23606797749979 
vertex 2.618033988749895 -1.618033988749895 -3.23606797749979 
endloop
endfacet
facet normal 0.30901699437494745 -0.5 -0.8090169943749475 
outer loop
vertex 1.3090169943749475 -2.118033988749895 -3.4270509831248424 
vertex 2.618033988749895 -1.618033988749895 -3.23606797749979 
vertex 1.618033988749895 -3.23606797749979 -2.618033988749895 
endloop
endfacet
facet normal -0.0 -0.8506508083520399 -0.5257311121191336 
outer loop
vertex 0.0 -3.5124611797498106 -2.170820393249937 
vertex 1.0 -4.23606797749979 -1.0 
vertex -1.0 -4.23606797749979 -1.0 
endloop
endfacet
facet normal 8.066242429609193e-17 -0.85065080835204 -0.5257311121191336 
outer loop
vertex 0.0 -3.5124611797498106 -2.170820393249937 
vertex -1.0 -4.23606797749979 -1.0 
vertex -1.618033988749895 -3.23606797749979 -2.618033988749895 
endloop
endfacet
facet normal 6.049681822206894e-17 -0.85065080835204 -0.5257311121191336 
outer loop
vertex 0.0 -3.5124611797498106 -2.170820393249937 
vertex -1.618033988749895 -3.23606797749979 -2.618033988749895 
vertex -0.0 -2.618033988749895 -3.618033988749895 
endloop
endfacet
facet normal -8.066242429609193e-17 -0.8506508083520399 -0.5257311121191336 
outer loop
vertex 0.0 -3.5124611797498106 -2.170820393249937 
vertex -0.0 -2.618033988749895 -3.618033988749895 
vertex 1.618033988749895 -3.23606797749979 -2.618033988749895 
endloop
endfacet
facet normal -8.066242429609193e-17 -0.85065080835204 -0.5257311121191336 
outer loop
vertex 0.0 -3.5124611797498106 -2.170820393249937 
vertex 1.618033988749895 -3.23606797749979 -2.618033988749895 
vertex 1.0 -4.23606797749979 -1.0 
endloop
endfacet
facet normal -0.8090169943749476 0.3090169943749474 -0.5 
outer loop
vertex -3.4270509831248424 1.3090169943749475 -2.118033988749895 
vertex -2.618033988749895 1.618033988749895 -3.23606797749979 
vertex -3.618033988749895 -0.0 -2.618033988749895 
endloop
endfacet
facet normal -0.8090169943749475 0.30901699437494745 -0.5 
outer loop
vertex -3.4270509831248424 1.3090169943749475 -2.118033988749895 
vertex -3.618033988749895 -0.0 -2.618033988749895 
vertex -4.23606797749979 1.0 -1.0 
endloop
endfacet
facet normal -0.8090169943749476 0.3090169943749474 -0.5 
outer loop
vertex -3.4270509831248424 1.3090169943749475 -2.118033988749895 
vertex -4.23606797749979 1.0 -1.0 
vertex -3.23606797749979 2.618033988749895 -1.618033988749895 
endloop
endfacet
facet normal -0.8090169943749475 0.30901699437494745 -0.5 
outer loop
vertex -3.4270509831248424 1.3090169943749475 -2.118033988749895 
vertex -3.23606797749979 2.618033988749895 -1.618033988749895 
vertex -2.618033988749895 1.618033988749895 -3.23606797749979 
endloop
endfacet
facet normal -0.5257311121191336 -0.0 -0.8506508083520399 
outer loop
vertex -2.170820393249937 0.0 -3.5124611797498106 
vertex -1.0 1.0 -4.23606797749979 
vertex -1.0 -1.0 -4.23606797749979 
endloop
endfacet
facet normal -0.5257311121191336 8.066242429609193e-17 -0.85065080835204 
outer loop
vertex -2.170820393249937 0.0 -3.5124611797498106 
vertex -1.0 -1.0 -4.23606797749979 
vertex -2.618033988749895 -1.618033988749895 -3.23606797749979 
endloop
endfacet
facet normal -0.5257311121191336 6.049681822206894e-17 -0.85065080835204 
outer loop
vertex -2.170820393249937 0.0 -3.5124611797498106 
vertex -2.618033988749895 -1.618033988749895 -3.23606797749979 
vertex -3.618033988749895 -0.0 -2.618033988749895 
endloop
endfacet
facet normal -0.5257311121191337 -8.066242429609194e-17 -0.85065080835204 
outer loop
vertex -2.170820393249937 0.0 -3.5124611797498106 
vertex -3.618033988749895 -0.0 -2.618033988749895 
vertex -2.618033988749895 1.618033988749895 -3.23606797749979 
endloop
endfacet
facet normal -0.5257311121191336 -8.066242429609193e-17 -0.85065080835204 
outer loop
vertex -2.170820393249937 0.0 -3.5124611797498106 
vertex -2.618033988749895 1.618033988749895 -3.23606797749979 
vertex -1.0 1.0 -4.23606797749979 
endloop
endfacet
facet normal -0.8090169943749475 -0.3090169943749474 -0.5 
outer loop
vertex -3.4270509831248424 -1.3090169943749475 -2.118033988749895 
vertex -4.23606797749979 -1.0 -1.0 
vertex -3.618033988749895 -0.0 -2.618033988749895 
endloop
endfacet
facet normal -0.8090169943749475 -0.30901699437494745 -0.5 
outer loop
vertex -3.4270509831248424 -1.3090169943749475 -2.118033988749895 
vertex -3.618033988749895 -0.0 -2.618033988749895 
vertex -2.618033988749895 -1.618033988749895 -3.23606797749979 
endloop
endfacet
facet normal -0.8090169943749475 -0.3090169943749474 -0.5 
outer loop
vertex -3.4270509831248424 -1.3090169943749475 -2.118033988749895 
vertex -2.618033988749895 -1.618033988749895 -3.23606797749979 
vertex -3.23606797749979 -2.618033988749895 -1.618033988749895 
endloop
endfacet
facet normal -0.8090169943749475 -0.30901699437494745 -0.5 
outer loop
vertex -3.4270509831248424 -1.3090169943749475 -2.118033988749895 
vertex -3.23606797749979 -2.618033988749895 -1.618033988749895 
vertex -4.23606797749979 -1.0 -1.0 
endloop
endfacet
facet normal -0.9341723589627156 0.0 -0.35682208977309043 
outer loop
vertex -4.030056647916491 0.0 -1.5393446629166316 
vertex -4.23606797749979 -1.0 -1.0 
vertex -4.23606797749979 1.0 -1.0 
endloop
endfacet
facet normal -0.9341723589627158 -4.326666044363019e-16 -0.3568220897730897 
outer loop
vertex -4.030056647916491 0.0 -1.5393446629166316 
vertex -4.23606797749979 1.0 -1.0 
vertex -3.618033988749895 -0.0 -2.618033988749895 
endloop
endfacet
facet normal -0.9341723589627158 3.845925372767128e-16 -0.3568220897730897 
outer loop
vertex -4.030056647916491 0.0 -1.5393446629166316 
vertex -3.618033988749895 -0.0 -2.618033988749895 
vertex -4.23606797749979 -1.0 -1.0 
endloop
endfacet
facet normal 0.5773502691896255 0.5773502691896256 0.5773502691896262 
outer loop
vertex 2.49071198499986 2.49071198499986 2.49071198499986 
vertex 1.618033988749895 3.23606797749979 2.618033988749895 
vertex 2.618033988749895 1.618033988749895 3.23606797749979 
endloop
endfacet
facet normal 0.5773502691896262 0.5773502691896255 0.5773502691896256 
outer loop
vertex 2.49071198499986 2.49071198499986 2.49071198499986 
vertex 2.618033988749895 1.618033988749895 3.23606797749979 
vertex 3.23606797749979 2.618033988749895 1.618033988749895 
endloop
endfacet
facet normal 0.5773502691896256 0.5773502691896262 0.5773502691896255 
outer loop
vertex 2.49071198499986 2.49071198499986 2.49071198499986 
vertex 3.23606797749979 2.618033988749895 1.618033988749895 
vertex 1.618033988749895 3.23606797749979 2.618033988749895 
endloop
endfacet
facet normal -0.5773502691896255 0.5773502691896256 0.5773502691896261 
outer loop
vertex -2.49071198499986 2.49071198499986 2.49071198499986 
vertex -2.618033988749895 1.618033988749895 3.23606797749979 
vertex -1.618033988749895 3.23606797749979 2.618033988749895 
endloop
endfacet
facet normal -0.5773502691896256 0.5773502691896261 0.5773502691896255 
outer loop
vertex -2.49071198499986 2.49071198499986 2.49071198499986 
vertex -1.618033988749895 3.23606797749979 2.618033988749895 
vertex -3.23606797749979 2.618033988749895 1.618033988749895 
endloop
endfacet
facet normal -0.5773502691896261 0.5773502691896255 0.5773502691896256 
outer loop
vertex -2.49071198499986 2.49071198499986 2.49071198499986 
vertex -3.23606797749979 2.618033988749895 1.618033988749895 
vertex -2.618033988749895 1.618033988749895 3.23606797749979 
endloop
endfacet
facet normal 0.5773502691896261 -0.5773502691896255 0.5773502691896256 
outer loop
vertex 2.49071198499986 -2.49071198499986 2.49071198499986 
vertex 3.23606797749979 -2.618033988749895 1.618033988749895 
vertex 2.618033988749895 -1.618033988749895 3.23606797749979 
endloop
endfacet
facet normal 0.5773502691896255 -0.5773502691896256 0.5773502691896261 
outer loop
vertex 2.49071198499986 -2.49071198499986 2.49071198499986 
vertex 2.618033988749895 -1.618033988749895 3.23606797749979 
vertex 1.618033988749895 -3.23606797749979 2.618033988749895 
endloop
endfacet
facet normal 0.5773502691896256 -0.5773502691896261 0.5773502691896255 
outer loop
vertex 2.49071198499986 -2.49071198499986 2.49071198499986 
vertex 1.618033988749895 -3.23606797749979 2.618033988749895 
vertex 3.23606797749979 -2.618033988749895 1.618033988749895 
endloop
endfacet
facet normal 0.5773502691896256 0.5773502691896261 -0.5773502691896255 
outer loop
vertex 2.49071198499986 2.49071198499986 -2.49071198499986 
vertex 1.618033988749895 3.23606797749979 -2.618033988749895 
vertex 3.23606797749979 2.618033988749895 -1.618033988749895 
endloop
endfacet
facet normal 0.5773502691896261 0.5773502691896255 -0.5773502691896256 
outer loop
vertex 2.49071198499986 2.49071198499986 -2.49071198499986 
vertex 3.23606797749979 2.618033988749895 -1.618033988749895 
vertex 2.618033988749895 1.618033988749895 -3.23606797749979 
endloop
endfacet
facet normal 0.5773502691896255 0.5773502691896256 -0.5773502691896261 
outer loop
vertex 2.49071198499986 2.49071198499986 -2.49071198499986 
vertex 2.618033988749895 1.618033988749895 -3.23606797749979 
vertex 1.618033988749895 3.23606797749979 -2.618033988749895 
endloop
endfacet
facet normal -0.5773502691896255 0.5773502691896256 -0.5773502691896262 
outer loop
vertex -2.49071198499986 2.49071198499986 -2.49071198499986 
vertex -1.618033988749895 3.23606797749979 -2.618033988749895 
vertex -2.618033988749895 1.618033988749895 -3.23606797749979 
endloop
endfacet
facet normal -0.5773502691896262 0.5773502691896255 -0.5773502691896256 
outer loop
vertex -2.49071198499986 2.49071198499986 -2.49071198499986 
vertex -2.618033988749895 1.618033988749895 -3.23606797749979 
vertex -3.23606797749979 2.618033988749895 -1.618033988749895 
endloop
endfacet
facet normal -0.5773502691896256 0.5773502691896262 -0.5773502691896255 
outer loop
vertex -2.49071198499986 2.49071198499986 -2.49071198499986 
vertex -3.23606797749979 2.618033988749895 -1.618033988749895 
vertex -1.618033988749895 3.23606797749979 -2.618033988749895 
endloop
endfacet
facet normal -0.5773502691896262 -0.5773502691896255 0.5773502691896256 
outer loop
vertex -2.49071198499986 -2.49071198499986 2.49071198499986 
vertex -2.618033988749895 -1.618033988749895 3.23606797749979 
vertex -3.23606797749979 -2.618033988749895 1.618033988749895 
endloop
endfacet
facet normal -0.5773502691896256 -0.5773502691896262 0.5773502691896255 
outer loop
vertex -2.49071198499986 -2.49071198499986 2.49071198499986 
vertex -3.23606797749979 -2.618033988749895 1.618033988749895 
vertex -1.618033988749895 -3.23606797749979 2.618033988749895 
endloop
endfacet
facet normal -0.5773502691896255 -0.5773502691896256 0.5773502691896262 
outer loop
vertex -2.49071198499986 -2.49071198499986 2.49071198499986 
vertex -1.618033988749895 -3.23606797749979 2.618033988749895 
vertex -2.618033988749895 -1.618033988749895 3.23606797749979 
endloop
endfacet
facet normal 0.5773502691896256 -0.5773502691896262 -0.5773502691896255 
outer loop
vertex 2.49071198499986 -2.49071198499986 -2.49071198499986 
vertex 3.23606797749979 -2.618033988749895 -1.618033988749895 
vertex 1.618033988749895 -3.23606797749979 -2.618033988749895 
endloop
endfacet
facet normal 0.5773502691896255 -0.5773502691896256 -0.5773502691896262 
outer loop
vertex 2.49071198499986 -2.49071198499986 -2.49071198499986 
vertex 1.618033988749895 -3.23606797749979 -2.618033988749895 
vertex 2.618033988749895 -1.618033988749895 -3.23606797749979 
endloop
endfacet
facet normal 0.5773502691896262 -0.5773502691896255 -0.5773502691896256 
outer loop
vertex 2.49071198499986 -2.49071198499986 -2.49071198499986 
vertex 2.618033988749895 -1.618033988749895 -3.23606797749979 
vertex 3.23606797749979 -2.618033988749895 -1.618033988749895 
endloop
endfacet
facet normal -0.5773502691896255 -0.5773502691896256 -0.5773502691896261 
outer loop
vertex -2.49071198499986 -2.49071198499986 -2.49071198499986 
vertex -2.618033988749895 -1.618033988749895 -3.23606797749979 
vertex -1.618033988749895 -3.23606797749979 -2.618033988749895 
endloop
endfacet
facet normal -0.5773502691896256 -0.5773502691896261 -0.5773502691896255 
outer loop
vertex -2.49071198499986 -2.49071198499986 -2.49071198499986 
vertex -1.618033988749895 -3.23606797749979 -2.618033988749895 
vertex -3.23606797749979 -2.618033988749895 -1.618033988749895 
endloop
endfacet
facet normal -0.5773502691896261 -0.5773502691896255 -0.5773502691896256 
outer loop
vertex -2.49071198499986 -2.49071198499986 -2.49071198499986 
vertex -3.23606797749979 -2.618033988749895 -1.618033988749895 
vertex -2.618033988749895 -1.618033988749895 -3.23606797749979 
endloop
endfacet
facet normal 1.0 0.0 0.0 
outer loop
vertex 4.23606797749979 0.0 0.0 
vertex 4.23606797749979 -1.0 1.0 
vertex 4.23606797749979 -1.0 -1.0 
endloop
endfacet
facet normal 1.0 0.0 0.0 
outer loop
vertex 4.23606797749979 0.0 0.0 
vertex 4.23606797749979 -1.0 -1.0 
vertex 4.23606797749979 1.0 -1.0 
endloop
endfacet
facet normal 1.0 0.0 -0.0 
outer loop
vertex 4.23606797749979 0.0 0.0 
vertex 4.23606797749979 1.0 -1.0 
vertex 4.23606797749979 1.0 1.0 
endloop
endfacet
facet normal 1.0 0.0 0.0 
outer loop
vertex 4.23606797749979 0.0 0.0 
vertex 4.23606797749979 1.0 1.0 
vertex 4.23606797749979 -1.0 1.0 
endloop
endfacet
facet normal 0.0 1.0 0.0 
outer loop
vertex 0.0 4.23606797749979 0.0 
vertex 1.0 4.23606797749979 -1.0 
vertex -1.0 4.23606797749979 -1.0 
endloop
endfacet
facet normal 0.0 1.0 0.0 
outer loop
vertex 0.0 4.23606797749979 0.0 
vertex -1.0 4.23606797749979 -1.0 
vertex -1.0 4.23606797749979 1.0 
endloop
endfacet
facet normal -0.0 1.0 0.0 
outer loop
vertex 0.0 4.23606797749979 0.0 
vertex -1.0 4.23606797749979 1.0 
vertex 1.0 4.23606797749979 1.0 
endloop
endfacet
facet normal 0.0 1.0 0.0 
outer loop
vertex 0.0 4.23606797749979 0.0 
vertex 1.0 4.23606797749979 1.0 
vertex 1.0 4.23606797749979 -1.0 
endloop
endfacet
facet normal 0.0 0.0 1.0 
outer loop
vertex 0.0 0.0 4.23606797749979 
vertex -1.0 1.0 4.23606797749979 
vertex -1.0 -1.0 4.23606797749979 
endloop
endfacet
facet normal 0.0 0.0 1.0 
outer loop
vertex 0.0 0.0 4.23606797749979 
vertex -1.0 -1.0 4.23606797749979 
vertex 1.0 -1.0 4.23606797749979 
endloop
endfacet
facet normal 0.0 -0.0 1.0 
outer loop
vertex 0.0 0.0 4.23606797749979 
vertex 1.0 -1.0 4.23606797749979 
vertex 1.0 1.0 4.23606797749979 
endloop
endfacet
facet normal 0.0 0.0 1.0 
outer loop
vertex 0.0 0.0 4.23606797749979 
vertex 1.0 1.0 4.23606797749979 
vertex -1.0 1.0 4.23606797749979 
endloop
endfacet
facet normal -1.0 0.0 0.0 
outer loop
vertex -4.23606797749979 0.0 0.0 
vertex -4.23606797749979 -1.0 -1.0 
vertex -4.23606797749979 -1.0 1.0 
endloop
endfacet
facet normal -1.0 0.0 0.0 
outer loop
vertex -4.23606797749979 0.0 0.0 
vertex -4.23606797749979 -1.0 1.0 
vertex -4.23606797749979 1.0 1.0 
endloop
endfacet
facet normal -1.0 0.0 -0.0 
outer loop
vertex -4.23606797749979 0.0 0.0 
vertex -4.23606797749979 1.0 1.0 
vertex -4.23606797749979 1.0 -1.0 
endloop
endfacet
facet normal -1.0 0.0 0.0 
outer loop
vertex -4.23606797749979 0.0 0.0 
vertex -4.23606797749979 1.0 -1.0 
vertex -4.23606797749979 -1.0 -1.0 
endloop
endfacet
facet normal 0.0 -1.0 0.0 
outer loop
vertex 0.0 -4.23606797749979 0.0 
vertex -1.0 -4.23606797749979 -1.0 
vertex 1.0 -4.23606797749979 -1.0 
endloop
endfacet
facet normal 0.0 -1.0 0.0 
outer loop
vertex 0.0 -4.23606797749979 0.0 
vertex 1.0 -4.23606797749979 -1.0 
vertex 1.0 -4.23606797749979 1.0 
endloop
endfacet
facet normal -0.0 -1.0 0.0 
outer loop
vertex 0.0 -4.23606797749979 0.0 
vertex 1.0 -4.23606797749979 1.0 
vertex -1.0 -4.23606797749979 1.0 
endloop
endfacet
facet normal 0.0 -1.0 0.0 
outer loop
vertex 0.0 -4.23606797749979 0.0 
vertex -1.0 -4.23606797749979 1.0 
vertex -1.0 -4.23606797749979 -1.0 
endloop
endfacet
facet normal 0.0 0.0 -1.0 
outer loop
vertex 0.0 0.0 -4.23606797749979 
vertex -1.0 -1.0 -4.23606797749979 
vertex -1.0 1.0 -4.23606797749979 
endloop
endfacet
facet normal 0.0 0.0 -1.0 
outer loop
vertex 0.0 0.0 -4.23606797749979 
vertex -1.0 1.0 -4.23606797749979 
vertex 1.0 1.0 -4.23606797749979 
endloop
endfacet
facet normal 0.0 -0.0 -1.0 
outer loop
vertex 0.0 0.0 -4.23606797749979 
vertex 1.0 1.0 -4.23606797749979 
vertex 1.0 -1.0 -4.23606797749979 
endloop
endfacet
facet normal 0.0 0.0 -1.0 
outer loop
vertex 0.0 0.0 -4.23606797749979 
vertex 1.0 -1.0 -4.23606797749979 
vertex -1.0 -1.0 -4.23606797749979 
endloop
endfacet
endsolid test
