solid test
facet normal 0.0 0.0 -1.0 
outer loop
vertex 8.326672684688674e-17 -9.25185853854297e-18 -1.2071067811865475 
vertex -4.6626681588437265e-17 -0.7071067811865476 -1.2071067811865475 
vertex -0.7071067811865475 4.958817146937746e-17 -1.2071067811865475 
endloop
endfacet
facet normal 0.0 0.0 -1.0 
outer loop
vertex 8.326672684688674e-17 -9.25185853854297e-18 -1.2071067811865475 
vertex -0.7071067811865475 4.958817146937746e-17 -1.2071067811865475 
vertex 1.2656452965866142e-16 0.7071067811865476 -1.2071067811865475 
endloop
endfacet
facet normal 0.0 -0.0 -1.0 
outer loop
vertex 8.326672684688674e-17 -9.25185853854297e-18 -1.2071067811865475 
vertex 1.2656452965866142e-16 0.7071067811865476 -1.2071067811865475 
vertex 0.7071067811865477 -3.700743415417188e-17 -1.2071067811865475 
endloop
endfacet
facet normal -0.0 0.0 -1.0 
outer loop
vertex 8.326672684688674e-17 -9.25185853854297e-18 -1.2071067811865475 
vertex 0.7071067811865477 -3.700743415417188e-17 -1.2071067811865475 
vertex -4.6626681588437265e-17 -0.7071067811865476 -1.2071067811865475 
endloop
endfacet
facet normal 0.0 0.0 1.0 
outer loop
vertex 7.161005644977743e-17 0.0 1.2071067811865475 
vertex 0.7071067811865477 -3.700743415417188e-17 1.2071067811865475 
vertex 1.2656452965866142e-16 0.7071067811865476 1.2071067811865475 
endloop
endfacet
facet normal 0.0 0.0 1.0 
outer loop
vertex 7.161005644977743e-17 0.0 1.2071067811865475 
vertex 1.2656452965866142e-16 0.7071067811865476 1.2071067811865475 
vertex -0.7071067811865475 4.958817146937746e-17 1.2071067811865475 
endloop
endfacet
facet normal 0.0 0.0 1.0 
outer loop
vertex 7.161005644977743e-17 0.0 1.2071067811865475 
vertex -0.7071067811865475 4.958817146937746e-17 1.2071067811865475 
vertex -4.6626681588437265e-17 -0.7071067811865476 1.2071067811865475 
endloop
endfacet
facet normal 0.0 0.0 1.0 
outer loop
vertex 7.161005644977743e-17 0.0 1.2071067811865475 
vertex -4.6626681588437265e-17 -0.7071067811865476 1.2071067811865475 
vertex 0.7071067811865477 -3.700743415417188e-17 1.2071067811865475 
endloop
endfacet
facet normal -0.7071067811865477 -0.7071067811865476 -1.1102230246251565e-16 
outer loop
vertex -0.853553390593274 -0.8535533905932737 0.0 
vertex -1.2071067811865477 -0.49999999999999983 -0.5 
vertex -0.5000000000000001 -1.2071067811865475 -0.5 
endloop
endfacet
facet normal -0.7071067811865475 -0.7071067811865477 0.0 
outer loop
vertex -0.853553390593274 -0.8535533905932737 0.0 
vertex -0.5000000000000001 -1.2071067811865475 -0.5 
vertex -0.5000000000000001 -1.2071067811865475 0.5 
endloop
endfacet
facet normal -0.7071067811865477 -0.7071067811865476 2.220446049250313e-16 
outer loop
vertex -0.853553390593274 -0.8535533905932737 0.0 
vertex -0.5000000000000001 -1.2071067811865475 0.5 
vertex -1.2071067811865477 -0.49999999999999983 0.5 
endloop
endfacet
facet normal -0.7071067811865478 -0.7071067811865475 -0.0 
outer loop
vertex -0.853553390593274 -0.8535533905932737 0.0 
vertex -1.2071067811865477 -0.49999999999999983 0.5 
vertex -1.2071067811865477 -0.49999999999999983 -0.5 
endloop
endfacet
facet normal -0.7071067811865474 0.7071067811865477 0.0 
outer loop
vertex -0.8535533905932737 0.8535533905932737 0.0 
vertex -0.4999999999999998 1.2071067811865475 -0.5 
vertex -1.2071067811865475 0.5000000000000001 -0.5 
endloop
endfacet
facet normal -0.7071067811865474 0.7071067811865476 0.0 
outer loop
vertex -0.8535533905932737 0.8535533905932737 0.0 
vertex -1.2071067811865475 0.5000000000000001 -0.5 
vertex -1.2071067811865475 0.5000000000000001 0.5 
endloop
endfacet
facet normal -0.7071067811865474 0.7071067811865477 5.551115123125783e-17 
outer loop
vertex -0.8535533905932737 0.8535533905932737 0.0 
vertex -1.2071067811865475 0.5000000000000001 0.5 
vertex -0.4999999999999998 1.2071067811865475 0.5 
endloop
endfacet
facet normal -0.7071067811865474 0.7071067811865478 0.0 
outer loop
vertex -0.8535533905932737 0.8535533905932737 0.0 
vertex -0.4999999999999998 1.2071067811865475 0.5 
vertex -0.4999999999999998 1.2071067811865475 -0.5 
endloop
endfacet
facet normal 0.7071067811865476 0.7071067811865475 0.0 
outer loop
vertex 0.8535533905932737 0.8535533905932737 0.0 
vertex 1.2071067811865475 0.49999999999999994 -0.5 
vertex 0.5000000000000001 1.2071067811865475 -0.5 
endloop
endfacet
facet normal 0.7071067811865477 0.7071067811865475 -0.0 
outer loop
vertex 0.8535533905932737 0.8535533905932737 0.0 
vertex 0.5000000000000001 1.2071067811865475 -0.5 
vertex 0.5000000000000001 1.2071067811865475 0.5 
endloop
endfacet
facet normal 0.7071067811865476 0.7071067811865475 -5.551115123125784e-17 
outer loop
vertex 0.8535533905932737 0.8535533905932737 0.0 
vertex 0.5000000000000001 1.2071067811865475 0.5 
vertex 1.2071067811865475 0.49999999999999994 0.5 
endloop
endfacet
facet normal 0.7071067811865476 0.7071067811865475 0.0 
outer loop
vertex 0.8535533905932737 0.8535533905932737 0.0 
vertex 1.2071067811865475 0.49999999999999994 0.5 
vertex 1.2071067811865475 0.49999999999999994 -0.5 
endloop
endfacet
facet normal 0.7071067811865475 -0.7071067811865476 -1.1102230246251565e-16 
outer loop
vertex 0.8535533905932737 -0.8535533905932737 0.0 
vertex 0.4999999999999999 -1.2071067811865475 -0.5 
vertex 1.2071067811865475 -0.5 -0.5 
endloop
endfacet
facet normal 0.7071067811865476 -0.7071067811865476 0.0 
outer loop
vertex 0.8535533905932737 -0.8535533905932737 0.0 
vertex 1.2071067811865475 -0.5 -0.5 
vertex 1.2071067811865475 -0.5 0.5 
endloop
endfacet
facet normal 0.7071067811865475 -0.7071067811865476 1.1102230246251565e-16 
outer loop
vertex 0.8535533905932737 -0.8535533905932737 0.0 
vertex 1.2071067811865475 -0.5 0.5 
vertex 0.4999999999999999 -1.2071067811865475 0.5 
endloop
endfacet
facet normal 0.7071067811865475 -0.7071067811865477 0.0 
outer loop
vertex 0.8535533905932737 -0.8535533905932737 0.0 
vertex 0.4999999999999999 -1.2071067811865475 0.5 
vertex 0.4999999999999999 -1.2071067811865475 -0.5 
endloop
endfacet
facet normal -2.8844440295753465e-16 -0.8164965809277263 -0.5773502691896256 
outer loop
vertex -9.251858538542972e-17 -1.0404401145198807 -0.7357022603955158 
vertex -4.6626681588437265e-17 -0.7071067811865476 -1.2071067811865475 
vertex 0.4999999999999999 -1.2071067811865475 -0.5 
endloop
endfacet
facet normal -0.0 -0.8164965809277259 -0.5773502691896261 
outer loop
vertex -9.251858538542972e-17 -1.0404401145198807 -0.7357022603955158 
vertex 0.4999999999999999 -1.2071067811865475 -0.5 
vertex -0.5000000000000001 -1.2071067811865475 -0.5 
endloop
endfacet
facet normal 3.365184701171238e-16 -0.8164965809277261 -0.5773502691896256 
outer loop
vertex -9.251858538542972e-17 -1.0404401145198807 -0.7357022603955158 
vertex -0.5000000000000001 -1.2071067811865475 -0.5 
vertex -4.6626681588437265e-17 -0.7071067811865476 -1.2071067811865475 
endloop
endfacet
facet normal -0.8164965809277259 9.614813431917818e-17 -0.577350269189626 
outer loop
vertex -1.040440114519881 1.1102230246251565e-16 -0.7357022603955158 
vertex -0.7071067811865475 4.958817146937746e-17 -1.2071067811865475 
vertex -1.2071067811865477 -0.49999999999999983 -0.5 
endloop
endfacet
facet normal -0.816496580927726 1.8129866073473578e-16 -0.5773502691896257 
outer loop
vertex -1.040440114519881 1.1102230246251565e-16 -0.7357022603955158 
vertex -1.2071067811865477 -0.49999999999999983 -0.5 
vertex -1.2071067811865475 0.5000000000000001 -0.5 
endloop
endfacet
facet normal -0.8164965809277258 2.8844440295753455e-16 -0.577350269189626 
outer loop
vertex -1.040440114519881 1.1102230246251565e-16 -0.7357022603955158 
vertex -1.2071067811865475 0.5000000000000001 -0.5 
vertex -0.7071067811865475 4.958817146937746e-17 -1.2071067811865475 
endloop
endfacet
facet normal 2.884444029575347e-16 0.8164965809277263 -0.5773502691896256 
outer loop
vertex 1.4802973661668753e-16 1.0404401145198807 -0.7357022603955158 
vertex 1.2656452965866142e-16 0.7071067811865476 -1.2071067811865475 
vertex -0.4999999999999998 1.2071067811865475 -0.5 
endloop
endfacet
facet normal 0.0 0.8164965809277258 -0.577350269189626 
outer loop
vertex 1.4802973661668753e-16 1.0404401145198807 -0.7357022603955158 
vertex -0.4999999999999998 1.2071067811865475 -0.5 
vertex 0.5000000000000001 1.2071067811865475 -0.5 
endloop
endfacet
facet normal -3.3651847011712383e-16 0.8164965809277261 -0.5773502691896256 
outer loop
vertex 1.4802973661668753e-16 1.0404401145198807 -0.7357022603955158 
vertex 0.5000000000000001 1.2071067811865475 -0.5 
vertex 1.2656452965866142e-16 0.7071067811865476 -1.2071067811865475 
endloop
endfacet
facet normal 0.816496580927726 9.61481343191782e-17 -0.5773502691896256 
outer loop
vertex 1.040440114519881 -3.700743415417188e-17 -0.7357022603955158 
vertex 0.7071067811865477 -3.700743415417188e-17 -1.2071067811865475 
vertex 1.2071067811865475 0.49999999999999994 -0.5 
endloop
endfacet
facet normal 0.8164965809277261 0.0 -0.5773502691896255 
outer loop
vertex 1.040440114519881 -3.700743415417188e-17 -0.7357022603955158 
vertex 1.2071067811865475 0.49999999999999994 -0.5 
vertex 1.2071067811865475 -0.5 -0.5 
endloop
endfacet
facet normal 0.816496580927726 -9.614813431917822e-17 -0.5773502691896257 
outer loop
vertex 1.040440114519881 -3.700743415417188e-17 -0.7357022603955158 
vertex 1.2071067811865475 -0.5 -0.5 
vertex 0.7071067811865477 -3.700743415417188e-17 -1.2071067811865475 
endloop
endfacet
facet normal 0.8164965809277261 -9.614813431917822e-17 0.5773502691896257 
outer loop
vertex 1.040440114519881 -1.850371707708594e-17 0.7357022603955158 
vertex 0.7071067811865477 -3.700743415417188e-17 1.2071067811865475 
vertex 1.2071067811865475 -0.5 0.5 
endloop
endfacet
facet normal 0.8164965809277261 -0.0 0.5773502691896255 
outer loop
vertex 1.040440114519881 -1.850371707708594e-17 0.7357022603955158 
vertex 1.2071067811865475 -0.5 0.5 
vertex 1.2071067811865475 0.49999999999999994 0.5 
endloop
endfacet
facet normal 0.816496580927726 9.614813431917822e-17 0.5773502691896257 
outer loop
vertex 1.040440114519881 -1.850371707708594e-17 0.7357022603955158 
vertex 1.2071067811865475 0.49999999999999994 0.5 
vertex 0.7071067811865477 -3.700743415417188e-17 1.2071067811865475 
endloop
endfacet
facet normal -2.8844440295753465e-16 0.8164965809277261 0.5773502691896256 
outer loop
vertex 1.4802973661668753e-16 1.0404401145198807 0.7357022603955158 
vertex 1.2656452965866142e-16 0.7071067811865476 1.2071067811865475 
vertex 0.5000000000000001 1.2071067811865475 0.5 
endloop
endfacet
facet normal 0.0 0.8164965809277258 0.577350269189626 
outer loop
vertex 1.4802973661668753e-16 1.0404401145198807 0.7357022603955158 
vertex 0.5000000000000001 1.2071067811865475 0.5 
vertex -0.4999999999999998 1.2071067811865475 0.5 
endloop
endfacet
facet normal 3.365184701171238e-16 0.8164965809277261 0.5773502691896256 
outer loop
vertex 1.4802973661668753e-16 1.0404401145198807 0.7357022603955158 
vertex -0.4999999999999998 1.2071067811865475 0.5 
vertex 1.2656452965866142e-16 0.7071067811865476 1.2071067811865475 
endloop
endfacet
facet normal -0.816496580927726 2.8844440295753455e-16 0.577350269189626 
outer loop
vertex -1.040440114519881 9.251858538542972e-17 0.7357022603955158 
vertex -0.7071067811865475 4.958817146937746e-17 1.2071067811865475 
vertex -1.2071067811865475 0.5000000000000001 0.5 
endloop
endfacet
facet normal -0.816496580927726 1.8129866073473578e-16 0.5773502691896257 
outer loop
vertex -1.040440114519881 9.251858538542972e-17 0.7357022603955158 
vertex -1.2071067811865475 0.5000000000000001 0.5 
vertex -1.2071067811865477 -0.49999999999999983 0.5 
endloop
endfacet
facet normal -0.8164965809277259 4.80740671595891e-17 0.5773502691896258 
outer loop
vertex -1.040440114519881 9.251858538542972e-17 0.7357022603955158 
vertex -1.2071067811865477 -0.49999999999999983 0.5 
vertex -0.7071067811865475 4.958817146937746e-17 1.2071067811865475 
endloop
endfacet
facet normal 2.884444029575346e-16 -0.8164965809277261 0.5773502691896256 
outer loop
vertex -7.401486830834377e-17 -1.0404401145198807 0.7357022603955158 
vertex -4.6626681588437265e-17 -0.7071067811865476 1.2071067811865475 
vertex -0.5000000000000001 -1.2071067811865475 0.5 
endloop
endfacet
facet normal 0.0 -0.8164965809277259 0.5773502691896261 
outer loop
vertex -7.401486830834377e-17 -1.0404401145198807 0.7357022603955158 
vertex -0.5000000000000001 -1.2071067811865475 0.5 
vertex 0.4999999999999999 -1.2071067811865475 0.5 
endloop
endfacet
facet normal -3.3651847011712383e-16 -0.8164965809277261 0.5773502691896257 
outer loop
vertex -7.401486830834377e-17 -1.0404401145198807 0.7357022603955158 
vertex 0.4999999999999999 -1.2071067811865475 0.5 
vertex -4.6626681588437265e-17 -0.7071067811865476 1.2071067811865475 
endloop
endfacet
facet normal -0.5 -0.5 -0.7071067811865476 
outer loop
vertex -0.6035533905932738 -0.6035533905932737 -0.8535533905932737 
vertex -4.6626681588437265e-17 -0.7071067811865476 -1.2071067811865475 
vertex -0.5000000000000001 -1.2071067811865475 -0.5 
endloop
endfacet
facet normal -0.5000000000000001 -0.5 -0.7071067811865475 
outer loop
vertex -0.6035533905932738 -0.6035533905932737 -0.8535533905932737 
vertex -0.5000000000000001 -1.2071067811865475 -0.5 
vertex -1.2071067811865477 -0.49999999999999983 -0.5 
endloop
endfacet
facet normal -0.5 -0.49999999999999983 -0.7071067811865476 
outer loop
vertex -0.6035533905932738 -0.6035533905932737 -0.8535533905932737 
vertex -1.2071067811865477 -0.49999999999999983 -0.5 
vertex -0.7071067811865475 4.958817146937746e-17 -1.2071067811865475 
endloop
endfacet
facet normal -0.5 -0.4999999999999999 -0.7071067811865476 
outer loop
vertex -0.6035533905932738 -0.6035533905932737 -0.8535533905932737 
vertex -0.7071067811865475 4.958817146937746e-17 -1.2071067811865475 
vertex -4.6626681588437265e-17 -0.7071067811865476 -1.2071067811865475 
endloop
endfacet
facet normal 0.5 -0.5000000000000001 -0.7071067811865476 
outer loop
vertex 0.6035533905932737 -0.6035533905932737 -0.8535533905932737 
vertex 0.4999999999999999 -1.2071067811865475 -0.5 
vertex -4.6626681588437265e-17 -0.7071067811865476 -1.2071067811865475 
endloop
endfacet
facet normal 0.5000000000000001 -0.5000000000000002 -0.7071067811865475 
outer loop
vertex 0.6035533905932737 -0.6035533905932737 -0.8535533905932737 
vertex -4.6626681588437265e-17 -0.7071067811865476 -1.2071067811865475 
vertex 0.7071067811865477 -3.700743415417188e-17 -1.2071067811865475 
endloop
endfacet
facet normal 0.5 -0.5000000000000001 -0.7071067811865476 
outer loop
vertex 0.6035533905932737 -0.6035533905932737 -0.8535533905932737 
vertex 0.7071067811865477 -3.700743415417188e-17 -1.2071067811865475 
vertex 1.2071067811865475 -0.5 -0.5 
endloop
endfacet
facet normal 0.49999999999999994 -0.5000000000000001 -0.7071067811865476 
outer loop
vertex 0.6035533905932737 -0.6035533905932737 -0.8535533905932737 
vertex 1.2071067811865475 -0.5 -0.5 
vertex 0.4999999999999999 -1.2071067811865475 -0.5 
endloop
endfacet
facet normal 0.0 -1.0 0.0 
outer loop
vertex -1.1102230246251565e-16 -1.2071067811865475 0.0 
vertex -0.5000000000000001 -1.2071067811865475 -0.5 
vertex 0.4999999999999999 -1.2071067811865475 -0.5 
endloop
endfacet
facet normal 0.0 -1.0 0.0 
outer loop
vertex -1.1102230246251565e-16 -1.2071067811865475 0.0 
vertex 0.4999999999999999 -1.2071067811865475 -0.5 
vertex 0.4999999999999999 -1.2071067811865475 0.5 
endloop
endfacet
facet normal -0.0 -1.0 0.0 
outer loop
vertex -1.1102230246251565e-16 -1.2071067811865475 0.0 
vertex 0.4999999999999999 -1.2071067811865475 0.5 
vertex -0.5000000000000001 -1.2071067811865475 0.5 
endloop
endfacet
facet normal 0.0 -1.0 0.0 
outer loop
vertex -1.1102230246251565e-16 -1.2071067811865475 0.0 
vertex -0.5000000000000001 -1.2071067811865475 0.5 
vertex -0.5000000000000001 -1.2071067811865475 -0.5 
endloop
endfacet
facet normal -0.49999999999999994 0.5 -0.7071067811865476 
outer loop
vertex -0.6035533905932737 0.6035533905932737 -0.8535533905932737 
vertex -0.7071067811865475 4.958817146937746e-17 -1.2071067811865475 
vertex -1.2071067811865475 0.5000000000000001 -0.5 
endloop
endfacet
facet normal -0.4999999999999999 0.5000000000000002 -0.7071067811865476 
outer loop
vertex -0.6035533905932737 0.6035533905932737 -0.8535533905932737 
vertex -1.2071067811865475 0.5000000000000001 -0.5 
vertex -0.4999999999999998 1.2071067811865475 -0.5 
endloop
endfacet
facet normal -0.49999999999999994 0.5000000000000002 -0.7071067811865476 
outer loop
vertex -0.6035533905932737 0.6035533905932737 -0.8535533905932737 
vertex -0.4999999999999998 1.2071067811865475 -0.5 
vertex 1.2656452965866142e-16 0.7071067811865476 -1.2071067811865475 
endloop
endfacet
facet normal -0.5 0.5 -0.7071067811865476 
outer loop
vertex -0.6035533905932737 0.6035533905932737 -0.8535533905932737 
vertex 1.2656452965866142e-16 0.7071067811865476 -1.2071067811865475 
vertex -0.7071067811865475 4.958817146937746e-17 -1.2071067811865475 
endloop
endfacet
facet normal -1.0 2.220446049250313e-16 2.220446049250313e-16 
outer loop
vertex -1.2071067811865475 1.3877787807814457e-16 0.0 
vertex -1.2071067811865475 0.5000000000000001 -0.5 
vertex -1.2071067811865477 -0.49999999999999983 -0.5 
endloop
endfacet
facet normal -1.0 4.440892098500626e-16 0.0 
outer loop
vertex -1.2071067811865475 1.3877787807814457e-16 0.0 
vertex -1.2071067811865477 -0.49999999999999983 -0.5 
vertex -1.2071067811865477 -0.49999999999999983 0.5 
endloop
endfacet
facet normal -1.0 2.220446049250313e-16 -2.220446049250313e-16 
outer loop
vertex -1.2071067811865475 1.3877787807814457e-16 0.0 
vertex -1.2071067811865477 -0.49999999999999983 0.5 
vertex -1.2071067811865475 0.5000000000000001 0.5 
endloop
endfacet
facet normal -1.0 0.0 -0.0 
outer loop
vertex -1.2071067811865475 1.3877787807814457e-16 0.0 
vertex -1.2071067811865475 0.5000000000000001 0.5 
vertex -1.2071067811865475 0.5000000000000001 -0.5 
endloop
endfacet
facet normal 0.5000000000000001 0.49999999999999994 -0.7071067811865476 
outer loop
vertex 0.6035533905932738 0.6035533905932737 -0.8535533905932737 
vertex 1.2656452965866142e-16 0.7071067811865476 -1.2071067811865475 
vertex 0.5000000000000001 1.2071067811865475 -0.5 
endloop
endfacet
facet normal 0.5000000000000001 0.5 -0.7071067811865476 
outer loop
vertex 0.6035533905932738 0.6035533905932737 -0.8535533905932737 
vertex 0.5000000000000001 1.2071067811865475 -0.5 
vertex 1.2071067811865475 0.49999999999999994 -0.5 
endloop
endfacet
facet normal 0.5000000000000001 0.5000000000000001 -0.7071067811865475 
outer loop
vertex 0.6035533905932738 0.6035533905932737 -0.8535533905932737 
vertex 1.2071067811865475 0.49999999999999994 -0.5 
vertex 0.7071067811865477 -3.700743415417188e-17 -1.2071067811865475 
endloop
endfacet
facet normal 0.5000000000000001 0.5000000000000001 -0.7071067811865475 
outer loop
vertex 0.6035533905932738 0.6035533905932737 -0.8535533905932737 
vertex 0.7071067811865477 -3.700743415417188e-17 -1.2071067811865475 
vertex 1.2656452965866142e-16 0.7071067811865476 -1.2071067811865475 
endloop
endfacet
facet normal 0.0 1.0 0.0 
outer loop
vertex 1.6653345369377348e-16 1.2071067811865475 0.0 
vertex 0.5000000000000001 1.2071067811865475 -0.5 
vertex -0.4999999999999998 1.2071067811865475 -0.5 
endloop
endfacet
facet normal 0.0 1.0 0.0 
outer loop
vertex 1.6653345369377348e-16 1.2071067811865475 0.0 
vertex -0.4999999999999998 1.2071067811865475 -0.5 
vertex -0.4999999999999998 1.2071067811865475 0.5 
endloop
endfacet
facet normal -0.0 1.0 0.0 
outer loop
vertex 1.6653345369377348e-16 1.2071067811865475 0.0 
vertex -0.4999999999999998 1.2071067811865475 0.5 
vertex 0.5000000000000001 1.2071067811865475 0.5 
endloop
endfacet
facet normal 0.0 1.0 0.0 
outer loop
vertex 1.6653345369377348e-16 1.2071067811865475 0.0 
vertex 0.5000000000000001 1.2071067811865475 0.5 
vertex 0.5000000000000001 1.2071067811865475 -0.5 
endloop
endfacet
facet normal 1.0 0.0 0.0 
outer loop
vertex 1.2071067811865475 -2.7755575615628914e-17 0.0 
vertex 1.2071067811865475 -0.5 -0.5 
vertex 1.2071067811865475 0.49999999999999994 -0.5 
endloop
endfacet
facet normal 1.0 0.0 -0.0 
outer loop
vertex 1.2071067811865475 -2.7755575615628914e-17 0.0 
vertex 1.2071067811865475 0.49999999999999994 -0.5 
vertex 1.2071067811865475 0.49999999999999994 0.5 
endloop
endfacet
facet normal 1.0 0.0 0.0 
outer loop
vertex 1.2071067811865475 -2.7755575615628914e-17 0.0 
vertex 1.2071067811865475 0.49999999999999994 0.5 
vertex 1.2071067811865475 -0.5 0.5 
endloop
endfacet
facet normal 1.0 0.0 0.0 
outer loop
vertex 1.2071067811865475 -2.7755575615628914e-17 0.0 
vertex 1.2071067811865475 -0.5 0.5 
vertex 1.2071067811865475 -0.5 -0.5 
endloop
endfacet
facet normal 0.5 0.5 0.7071067811865475 
outer loop
vertex 0.6035533905932738 0.6035533905932737 0.8535533905932737 
vertex 0.7071067811865477 -3.700743415417188e-17 1.2071067811865475 
vertex 1.2071067811865475 0.49999999999999994 0.5 
endloop
endfacet
facet normal 0.5000000000000001 0.5 0.7071067811865475 
outer loop
vertex 0.6035533905932738 0.6035533905932737 0.8535533905932737 
vertex 1.2071067811865475 0.49999999999999994 0.5 
vertex 0.5000000000000001 1.2071067811865475 0.5 
endloop
endfacet
facet normal 0.5 0.49999999999999994 0.7071067811865476 
outer loop
vertex 0.6035533905932738 0.6035533905932737 0.8535533905932737 
vertex 0.5000000000000001 1.2071067811865475 0.5 
vertex 1.2656452965866142e-16 0.7071067811865476 1.2071067811865475 
endloop
endfacet
facet normal 0.5000000000000001 0.5000000000000001 0.7071067811865475 
outer loop
vertex 0.6035533905932738 0.6035533905932737 0.8535533905932737 
vertex 1.2656452965866142e-16 0.7071067811865476 1.2071067811865475 
vertex 0.7071067811865477 -3.700743415417188e-17 1.2071067811865475 
endloop
endfacet
facet normal 0.5 -0.5000000000000001 0.7071067811865475 
outer loop
vertex 0.6035533905932737 -0.6035533905932737 0.8535533905932737 
vertex 1.2071067811865475 -0.5 0.5 
vertex 0.7071067811865477 -3.700743415417188e-17 1.2071067811865475 
endloop
endfacet
facet normal 0.5 -0.5000000000000001 0.7071067811865475 
outer loop
vertex 0.6035533905932737 -0.6035533905932737 0.8535533905932737 
vertex 0.7071067811865477 -3.700743415417188e-17 1.2071067811865475 
vertex -4.6626681588437265e-17 -0.7071067811865476 1.2071067811865475 
endloop
endfacet
facet normal 0.5000000000000001 -0.5 0.7071067811865476 
outer loop
vertex 0.6035533905932737 -0.6035533905932737 0.8535533905932737 
vertex -4.6626681588437265e-17 -0.7071067811865476 1.2071067811865475 
vertex 0.4999999999999999 -1.2071067811865475 0.5 
endloop
endfacet
facet normal 0.49999999999999994 -0.5000000000000001 0.7071067811865476 
outer loop
vertex 0.6035533905932737 -0.6035533905932737 0.8535533905932737 
vertex 0.4999999999999999 -1.2071067811865475 0.5 
vertex 1.2071067811865475 -0.5 0.5 
endloop
endfacet
facet normal -0.5000000000000001 0.5 0.7071067811865476 
outer loop
vertex -0.6035533905932736 0.6035533905932737 0.8535533905932737 
vertex 1.2656452965866142e-16 0.7071067811865476 1.2071067811865475 
vertex -0.4999999999999998 1.2071067811865475 0.5 
endloop
endfacet
facet normal -0.49999999999999983 0.5000000000000001 0.7071067811865477 
outer loop
vertex -0.6035533905932736 0.6035533905932737 0.8535533905932737 
vertex -0.4999999999999998 1.2071067811865475 0.5 
vertex -1.2071067811865475 0.5000000000000001 0.5 
endloop
endfacet
facet normal -0.4999999999999998 0.5000000000000001 0.7071067811865476 
outer loop
vertex -0.6035533905932736 0.6035533905932737 0.8535533905932737 
vertex -1.2071067811865475 0.5000000000000001 0.5 
vertex -0.7071067811865475 4.958817146937746e-17 1.2071067811865475 
endloop
endfacet
facet normal -0.5000000000000001 0.5000000000000001 0.7071067811865475 
outer loop
vertex -0.6035533905932736 0.6035533905932737 0.8535533905932737 
vertex -0.7071067811865475 4.958817146937746e-17 1.2071067811865475 
vertex 1.2656452965866142e-16 0.7071067811865476 1.2071067811865475 
endloop
endfacet
facet normal -0.5 -0.49999999999999994 0.7071067811865477 
outer loop
vertex -0.6035533905932738 -0.6035533905932737 0.8535533905932737 
vertex -0.7071067811865475 4.958817146937746e-17 1.2071067811865475 
vertex -1.2071067811865477 -0.49999999999999983 0.5 
endloop
endfacet
facet normal -0.5 -0.4999999999999999 0.7071067811865476 
outer loop
vertex -0.6035533905932738 -0.6035533905932737 0.8535533905932737 
vertex -1.2071067811865477 -0.49999999999999983 0.5 
vertex -0.5000000000000001 -1.2071067811865475 0.5 
endloop
endfacet
facet normal -0.49999999999999994 -0.5 0.7071067811865476 
outer loop
vertex -0.6035533905932738 -0.6035533905932737 0.8535533905932737 
vertex -0.5000000000000001 -1.2071067811865475 0.5 
vertex -4.6626681588437265e-17 -0.7071067811865476 1.2071067811865475 
endloop
endfacet
facet normal -0.5 -0.4999999999999999 0.7071067811865477 
outer loop
vertex -0.6035533905932738 -0.6035533905932737 0.8535533905932737 
vertex -4.6626681588437265e-17 -0.7071067811865476 1.2071067811865475 
vertex -0.7071067811865475 4.958817146937746e-17 1.2071067811865475 
endloop
endfacet
endsolid test
