solid unit-cuboctahedron
facet normal 0.5773502691896258 -0.5773502691896257 0.5773502691896258 
outer loop
vertex 0.5000000000000001 -5.3578297462696726e-17 0.5 
vertex 3.061616997868384e-17 -0.5000000000000002 0.5 
vertex 0.5000000000000001 -0.5000000000000001 0.0 
endloop
endfacet
facet normal -0.5773502691896257 -0.5773502691896257 0.577350269189626 
outer loop
vertex 3.061616997868384e-17 -0.5000000000000002 0.5 
vertex -0.5000000000000002 -9.184850993605151e-17 0.4999999999999999 
vertex -0.5000000000000001 -0.5000000000000003 0.0 
endloop
endfacet
facet normal -0.5773502691896258 0.5773502691896256 0.5773502691896258 
outer loop
vertex -0.5000000000000002 -9.184850993605151e-17 0.4999999999999999 
vertex -9.184850993605151e-17 0.5000000000000001 0.5 
vertex -0.5000000000000002 0.5 0.0 
endloop
endfacet
facet normal 0.5773502691896257 0.5773502691896258 0.5773502691896258 
outer loop
vertex -9.184850993605151e-17 0.5000000000000001 0.5 
vertex 0.5000000000000001 -5.3578297462696726e-17 0.5 
vertex 0.4999999999999999 0.5000000000000002 0.0 
endloop
endfacet
facet normal -0.577350269189626 0.5773502691896256 -0.5773502691896258 
outer loop
vertex -2.306263880141961e-16 0.5000000000000001 -0.5 
vertex -0.5000000000000001 -3.061616997868383e-17 -0.5 
vertex -0.5000000000000002 0.5 0.0 
endloop
endfacet
facet normal -0.5773502691896256 -0.5773502691896257 -0.5773502691896261 
outer loop
vertex -0.5000000000000001 -3.061616997868383e-17 -0.5 
vertex 3.061616997868383e-17 -0.5 -0.5 
vertex -0.5000000000000001 -0.5000000000000003 0.0 
endloop
endfacet
facet normal 0.5773502691896256 -0.5773502691896257 -0.577350269189626 
outer loop
vertex 3.061616997868383e-17 -0.5 -0.5 
vertex 0.5000000000000001 7.654042494670947e-18 -0.5 
vertex 0.5000000000000001 -0.5000000000000001 0.0 
endloop
endfacet
facet normal 0.5773502691896256 0.5773502691896258 -0.5773502691896258 
outer loop
vertex 0.5000000000000001 7.654042494670947e-18 -0.5 
vertex -2.306263880141961e-16 0.5000000000000001 -0.5 
vertex 0.4999999999999999 0.5000000000000002 0.0 
endloop
endfacet
facet normal 2.2204460492503126e-16 -1.0 0.0 
outer loop
vertex 0.5000000000000001 -0.5000000000000001 0.0 
vertex 3.061616997868384e-17 -0.5000000000000002 0.5 
vertex -0.5000000000000001 -0.5000000000000003 0.0 
endloop
endfacet
facet normal 2.2204460492503126e-16 -1.0 -4.440892098500627e-16 
outer loop
vertex 0.5000000000000001 -0.5000000000000001 0.0 
vertex -0.5000000000000001 -0.5000000000000003 0.0 
vertex 3.061616997868383e-17 -0.5 -0.5 
endloop
endfacet
facet normal 1.0 2.220446049250312e-16 2.2204460492503126e-16 
outer loop
vertex 0.5000000000000001 -0.5000000000000001 0.0 
vertex 0.5000000000000001 7.654042494670947e-18 -0.5 
vertex 0.4999999999999999 0.5000000000000002 0.0 
endloop
endfacet
facet normal 1.0 2.220446049250312e-16 -2.220446049250313e-16 
outer loop
vertex 0.5000000000000001 -0.5000000000000001 0.0 
vertex 0.4999999999999999 0.5000000000000002 0.0 
vertex 0.5000000000000001 -5.3578297462696726e-17 0.5 
endloop
endfacet
facet normal -1.1102230246251563e-16 1.110223024625156e-16 1.0 
outer loop
vertex -0.5000000000000002 -9.184850993605151e-17 0.4999999999999999 
vertex 3.061616997868384e-17 -0.5000000000000002 0.5 
vertex 0.5000000000000001 -5.3578297462696726e-17 0.5 
endloop
endfacet
facet normal -1.110223024625156e-16 -1.1102230246251563e-16 1.0 
outer loop
vertex -0.5000000000000002 -9.184850993605151e-17 0.4999999999999999 
vertex 0.5000000000000001 -5.3578297462696726e-17 0.5 
vertex -9.184850993605151e-17 0.5000000000000001 0.5 
endloop
endfacet
facet normal -1.0 -1.110223024625156e-16 -1.1102230246251568e-16 
outer loop
vertex -0.5000000000000001 -3.061616997868383e-17 -0.5 
vertex -0.5000000000000001 -0.5000000000000003 0.0 
vertex -0.5000000000000002 -9.184850993605151e-17 0.4999999999999999 
endloop
endfacet
facet normal -1.0 -1.1102230246251564e-16 -1.110223024625157e-16 
outer loop
vertex -0.5000000000000001 -3.061616997868383e-17 -0.5 
vertex -0.5000000000000002 -9.184850993605151e-17 0.4999999999999999 
vertex -0.5000000000000002 0.5 0.0 
endloop
endfacet
facet normal -2.220446049250313e-16 1.0 2.465190328815662e-32 
outer loop
vertex 0.4999999999999999 0.5000000000000002 0.0 
vertex -2.306263880141961e-16 0.5000000000000001 -0.5 
vertex -0.5000000000000002 0.5 0.0 
endloop
endfacet
facet normal -2.220446049250313e-16 1.0 4.930380657631324e-32 
outer loop
vertex 0.4999999999999999 0.5000000000000002 0.0 
vertex -0.5000000000000002 0.5 0.0 
vertex -9.184850993605151e-17 0.5000000000000001 0.5 
endloop
endfacet
facet normal 0.0 0.0 -1.0 
outer loop
vertex 0.5000000000000001 7.654042494670947e-18 -0.5 
vertex 3.061616997868383e-17 -0.5 -0.5 
vertex -0.5000000000000001 -3.061616997868383e-17 -0.5 
endloop
endfacet
facet normal 0.0 0.0 -1.0 
outer loop
vertex 0.5000000000000001 7.654042494670947e-18 -0.5 
vertex -0.5000000000000001 -3.061616997868383e-17 -0.5 
vertex -2.306263880141961e-16 0.5000000000000001 -0.5 
endloop
endfacet
endsolid unit-cuboctahedron
