solid unit-truncated-icosahedron
facet normal 0.49112347318842303 -0.35682208977308993 0.794654472291766 
outer loop
vertex 0.5257311121191337 -1.6180339887498945 -1.0514622242382676 
vertex 1.3763819204711736 -1.6180339887498945 -1.5771933363574013 
vertex 1.9641671727636467 -0.809016994374947 -1.5771933363574013 
endloop
endfacet
facet normal 0.49112347318842314 -0.3568220897730901 0.7946544722917661 
outer loop
vertex 0.5257311121191337 -1.6180339887498945 -1.0514622242382676 
vertex 1.9641671727636467 -0.809016994374947 -1.5771933363574013 
vertex 1.7013016167040798 2.5861949902515196e-16 -1.0514622242382674 
endloop
endfacet
facet normal 0.49112347318842314 -0.35682208977309016 0.794654472291766 
outer loop
vertex 0.5257311121191337 -1.6180339887498945 -1.0514622242382676 
vertex 1.7013016167040798 2.5861949902515196e-16 -1.0514622242382674 
vertex 0.8506508083520395 1.2930974951257593e-16 -0.5257311121191335 
endloop
endfacet
facet normal 0.4911234731884232 -0.3568220897730901 0.794654472291766 
outer loop
vertex 0.5257311121191337 -1.6180339887498945 -1.0514622242382676 
vertex 0.8506508083520395 1.2930974951257593e-16 -0.5257311121191335 
vertex 0.2628655560595668 -0.8090169943749471 -0.5257311121191337 
endloop
endfacet
facet normal -0.18759247408507995 -0.5773502691896258 0.794654472291766 
outer loop
vertex -1.113516364411607 -1.8090169943749468 -1.5771933363574013 
vertex -0.1624598481164521 -2.1180339887498945 -1.577193336357401 
vertex 0.5257311121191337 -1.6180339887498945 -1.0514622242382676 
endloop
endfacet
facet normal -0.18759247408507987 -0.5773502691896261 0.7946544722917659 
outer loop
vertex -1.113516364411607 -1.8090169943749468 -1.5771933363574013 
vertex 0.5257311121191337 -1.6180339887498945 -1.0514622242382676 
vertex 0.2628655560595668 -0.8090169943749471 -0.5257311121191337 
endloop
endfacet
facet normal -0.18759247408507992 -0.577350269189626 0.7946544722917659 
outer loop
vertex -1.113516364411607 -1.8090169943749468 -1.5771933363574013 
vertex 0.2628655560595668 -0.8090169943749471 -0.5257311121191337 
vertex -0.6881909602355866 -0.49999999999999983 -0.5257311121191337 
endloop
endfacet
facet normal -0.1875924740850797 -0.5773502691896261 0.7946544722917661 
outer loop
vertex -1.113516364411607 -1.8090169943749468 -1.5771933363574013 
vertex -0.6881909602355866 -0.49999999999999983 -0.5257311121191337 
vertex -1.3763819204711738 -1.0000000000000002 -1.0514622242382679 
endloop
endfacet
facet normal -0.6070619982066864 -1.2819751242557095e-16 0.7946544722917661 
outer loop
vertex -2.06457288070676 -0.5000000000000008 -1.577193336357401 
vertex -1.3763819204711738 -1.0000000000000002 -1.0514622242382679 
vertex -0.6881909602355866 -0.49999999999999983 -0.5257311121191337 
endloop
endfacet
facet normal -0.6070619982066864 -6.248084519269607e-17 0.794654472291766 
outer loop
vertex -2.06457288070676 -0.5000000000000008 -1.577193336357401 
vertex -0.6881909602355866 -0.49999999999999983 -0.5257311121191337 
vertex -0.6881909602355862 0.49999999999999967 -0.5257311121191334 
endloop
endfacet
facet normal -0.6070619982066864 6.409875621278532e-17 0.794654472291766 
outer loop
vertex -2.06457288070676 -0.5000000000000008 -1.577193336357401 
vertex -0.6881909602355862 0.49999999999999967 -0.5257311121191334 
vertex -1.376381920471174 1.0000000000000007 -1.051462224238268 
endloop
endfacet
facet normal -0.6070619982066864 1.9229626863835623e-16 0.794654472291766 
outer loop
vertex -2.06457288070676 -0.5000000000000008 -1.577193336357401 
vertex -1.376381920471174 1.0000000000000007 -1.051462224238268 
vertex -2.06457288070676 0.500000000000001 -1.5771933363574013 
endloop
endfacet
facet normal -0.18759247408508004 0.5773502691896256 0.794654472291766 
outer loop
vertex -1.376381920471174 1.0000000000000007 -1.051462224238268 
vertex -0.6881909602355862 0.49999999999999967 -0.5257311121191334 
vertex 0.2628655560595664 0.8090169943749469 -0.5257311121191333 
endloop
endfacet
facet normal -0.1875924740850801 0.5773502691896257 0.7946544722917662 
outer loop
vertex -1.376381920471174 1.0000000000000007 -1.051462224238268 
vertex 0.2628655560595664 0.8090169943749469 -0.5257311121191333 
vertex 0.5257311121191337 1.6180339887498967 -1.0514622242382683 
endloop
endfacet
facet normal -0.18759247408508004 0.5773502691896255 0.7946544722917663 
outer loop
vertex -1.376381920471174 1.0000000000000007 -1.051462224238268 
vertex 0.5257311121191337 1.6180339887498967 -1.0514622242382683 
vertex -0.16245984811645298 2.118033988749896 -1.577193336357401 
endloop
endfacet
facet normal -0.18759247408508012 0.5773502691896255 0.7946544722917662 
outer loop
vertex -1.376381920471174 1.0000000000000007 -1.051462224238268 
vertex -0.16245984811645298 2.118033988749896 -1.577193336357401 
vertex -1.1135163644116073 1.8090169943749477 -1.577193336357401 
endloop
endfacet
facet normal 0.491123473188423 0.35682208977309005 0.7946544722917661 
outer loop
vertex 1.376381920471172 1.618033988749897 -1.5771933363574009 
vertex 0.5257311121191337 1.6180339887498967 -1.0514622242382683 
vertex 0.2628655560595664 0.8090169943749469 -0.5257311121191333 
endloop
endfacet
facet normal 0.49112347318842303 0.35682208977309005 0.7946544722917662 
outer loop
vertex 1.376381920471172 1.618033988749897 -1.5771933363574009 
vertex 0.2628655560595664 0.8090169943749469 -0.5257311121191333 
vertex 0.8506508083520395 1.2930974951257593e-16 -0.5257311121191335 
endloop
endfacet
facet normal 0.4911234731884231 0.3568220897730899 0.7946544722917661 
outer loop
vertex 1.376381920471172 1.618033988749897 -1.5771933363574009 
vertex 0.8506508083520395 1.2930974951257593e-16 -0.5257311121191335 
vertex 1.7013016167040798 2.5861949902515196e-16 -1.0514622242382674 
endloop
endfacet
facet normal 0.4911234731884233 0.3568220897730899 0.794654472291766 
outer loop
vertex 1.376381920471172 1.618033988749897 -1.5771933363574009 
vertex 1.7013016167040798 2.5861949902515196e-16 -1.0514622242382674 
vertex 1.9641671727636467 0.8090169943749473 -1.577193336357401 
endloop
endfacet
facet normal 0.794654472291766 -0.5773502691896261 0.1875924740850793 
outer loop
vertex 1.3763819204711736 -1.6180339887498945 -1.5771933363574013 
vertex 1.2139220723547197 -2.118033988749894 -2.4278441447094403 
vertex 1.6392474765307392 -1.8090169943749466 -3.27849495306148 
endloop
endfacet
facet normal 0.7946544722917664 -0.5773502691896256 0.1875924740850793 
outer loop
vertex 1.3763819204711736 -1.6180339887498945 -1.5771933363574013 
vertex 1.6392474765307392 -1.8090169943749466 -3.27849495306148 
vertex 2.2270327288232115 -1.0000000000000002 -3.278494953061481 
endloop
endfacet
facet normal 0.7946544722917662 -0.5773502691896258 0.18759247408507917 
outer loop
vertex 1.3763819204711736 -1.6180339887498945 -1.5771933363574013 
vertex 2.2270327288232115 -1.0000000000000002 -3.278494953061481 
vertex 2.389492576939666 -0.49999999999999917 -2.42784414470944 
endloop
endfacet
facet normal 0.7946544722917662 -0.5773502691896258 0.1875924740850793 
outer loop
vertex 1.3763819204711736 -1.6180339887498945 -1.5771933363574013 
vertex 2.389492576939666 -0.49999999999999917 -2.42784414470944 
vertex 1.9641671727636467 -0.809016994374947 -1.5771933363574013 
endloop
endfacet
facet normal 0.30353099910334314 -0.9341723589627157 -0.18759247408507998 
outer loop
vertex 0.16245984811645262 -2.118033988749894 -4.129145761413519 
vertex 1.1135163644116055 -1.8090169943749466 -4.12914576141352 
vertex 1.6392474765307392 -1.8090169943749466 -3.27849495306148 
endloop
endfacet
facet normal 0.30353099910334314 -0.9341723589627157 -0.18759247408508004 
outer loop
vertex 0.16245984811645262 -2.118033988749894 -4.129145761413519 
vertex 1.6392474765307392 -1.8090169943749466 -3.27849495306148 
vertex 1.2139220723547197 -2.118033988749894 -2.4278441447094403 
endloop
endfacet
facet normal 0.3035309991033434 -0.9341723589627156 -0.18759247408508017 
outer loop
vertex 0.16245984811645262 -2.118033988749894 -4.129145761413519 
vertex 1.2139220723547197 -2.118033988749894 -2.4278441447094403 
vertex 0.26286555605956724 -2.4270509831248415 -2.4278441447094403 
endloop
endfacet
facet normal 0.30353099910334347 -0.9341723589627154 -0.18759247408508017 
outer loop
vertex 0.16245984811645262 -2.118033988749894 -4.129145761413519 
vertex 0.26286555605956724 -2.4270509831248415 -2.4278441447094403 
vertex -0.2628655560595662 -2.4270509831248415 -3.2784949530614798 
endloop
endfacet
facet normal -0.30353099910334297 -0.9341723589627159 0.18759247408507973 
outer loop
vertex -1.113516364411607 -1.8090169943749468 -1.5771933363574013 
vertex -1.6392474765307399 -1.8090169943749468 -2.4278441447094403 
vertex -1.2139220723547197 -2.118033988749894 -3.27849495306148 
endloop
endfacet
facet normal -0.30353099910334325 -0.9341723589627158 0.18759247408507973 
outer loop
vertex -1.113516364411607 -1.8090169943749468 -1.5771933363574013 
vertex -1.2139220723547197 -2.118033988749894 -3.27849495306148 
vertex -0.2628655560595662 -2.4270509831248415 -3.2784949530614798 
endloop
endfacet
facet normal -0.303530999103343 -0.9341723589627159 0.18759247408507992 
outer loop
vertex -1.113516364411607 -1.8090169943749468 -1.5771933363574013 
vertex -0.2628655560595662 -2.4270509831248415 -3.2784949530614798 
vertex 0.26286555605956724 -2.4270509831248415 -2.4278441447094403 
endloop
endfacet
facet normal -0.30353099910334297 -0.9341723589627157 0.18759247408507984 
outer loop
vertex -1.113516364411607 -1.8090169943749468 -1.5771933363574013 
vertex 0.26286555605956724 -2.4270509831248415 -2.4278441447094403 
vertex -0.1624598481164521 -2.1180339887498945 -1.577193336357401 
endloop
endfacet
facet normal -0.7946544722917658 -0.5773502691896263 -0.18759247408507995 
outer loop
vertex -1.2139220723547197 -2.118033988749894 -3.27849495306148 
vertex -1.6392474765307399 -1.8090169943749468 -2.4278441447094403 
vertex -2.2270327288232132 -0.9999999999999999 -2.4278441447094408 
endloop
endfacet
facet normal -0.7946544722917659 -0.5773502691896261 -0.18759247408508029 
outer loop
vertex -1.2139220723547197 -2.118033988749894 -3.27849495306148 
vertex -2.2270327288232132 -0.9999999999999999 -2.4278441447094408 
vertex -2.3894925769396664 -0.4999999999999994 -3.278494953061481 
endloop
endfacet
facet normal -0.7946544722917659 -0.577350269189626 -0.18759247408507998 
outer loop
vertex -1.2139220723547197 -2.118033988749894 -3.27849495306148 
vertex -2.3894925769396664 -0.4999999999999994 -3.278494953061481 
vertex -1.9641671727636467 -0.8090169943749461 -4.129145761413521 
endloop
endfacet
facet normal -0.794654472291766 -0.5773502691896261 -0.18759247408507992 
outer loop
vertex -1.2139220723547197 -2.118033988749894 -3.27849495306148 
vertex -1.9641671727636467 -0.8090169943749461 -4.129145761413521 
vertex -1.3763819204711722 -1.6180339887498951 -4.12914576141352 
endloop
endfacet
facet normal -0.982246946376846 -2.6958968311360783e-16 0.1875924740850797 
outer loop
vertex -2.389492576939667 0.4999999999999998 -3.278494953061482 
vertex -2.3894925769396664 -0.4999999999999994 -3.278494953061481 
vertex -2.2270327288232132 -0.9999999999999999 -2.4278441447094408 
endloop
endfacet
facet normal -0.982246946376846 -6.40987562127855e-17 0.18759247408508004 
outer loop
vertex -2.389492576939667 0.4999999999999998 -3.278494953061482 
vertex -2.2270327288232132 -0.9999999999999999 -2.4278441447094408 
vertex -2.06457288070676 -0.5000000000000008 -1.577193336357401 
endloop
endfacet
facet normal -0.9822469463768461 4.1653896795130715e-17 0.1875924740850801 
outer loop
vertex -2.389492576939667 0.4999999999999998 -3.278494953061482 
vertex -2.06457288070676 -0.5000000000000008 -1.577193336357401 
vertex -2.06457288070676 0.500000000000001 -1.5771933363574013 
endloop
endfacet
facet normal -0.9822469463768461 -6.409875621278546e-17 0.18759247408508012 
outer loop
vertex -2.389492576939667 0.4999999999999998 -3.278494953061482 
vertex -2.06457288070676 0.500000000000001 -1.5771933363574013 
vertex -2.2270327288232132 1.0000000000000002 -2.4278441447094403 
endloop
endfacet
facet normal -0.7946544722917652 0.577350269189627 -0.18759247408508029 
outer loop
vertex -1.6392474765307403 1.809016994374947 -2.4278441447094394 
vertex -1.2139220723547177 2.1180339887498953 -3.278494953061482 
vertex -1.3763819204711696 1.6180339887498985 -4.12914576141352 
endloop
endfacet
facet normal -0.7946544722917657 0.5773502691896261 -0.18759247408508029 
outer loop
vertex -1.6392474765307403 1.809016994374947 -2.4278441447094394 
vertex -1.3763819204711696 1.6180339887498985 -4.12914576141352 
vertex -1.964167172763647 0.8090169943749461 -4.12914576141352 
endloop
endfacet
facet normal -0.7946544722917654 0.5773502691896264 -0.18759247408508045 
outer loop
vertex -1.6392474765307403 1.809016994374947 -2.4278441447094394 
vertex -1.964167172763647 0.8090169943749461 -4.12914576141352 
vertex -2.389492576939667 0.4999999999999998 -3.278494953061482 
endloop
endfacet
facet normal -0.7946544722917659 0.5773502691896262 -0.1875924740850796 
outer loop
vertex -1.6392474765307403 1.809016994374947 -2.4278441447094394 
vertex -2.389492576939667 0.4999999999999998 -3.278494953061482 
vertex -2.2270327288232132 1.0000000000000002 -2.4278441447094403 
endloop
endfacet
facet normal -0.3035309991033436 0.9341723589627157 0.1875924740850796 
outer loop
vertex -1.6392474765307403 1.809016994374947 -2.4278441447094394 
vertex -1.1135163644116073 1.8090169943749477 -1.577193336357401 
vertex -0.16245984811645298 2.118033988749896 -1.577193336357401 
endloop
endfacet
facet normal -0.30353099910334325 0.9341723589627158 0.18759247408507904 
outer loop
vertex -1.6392474765307403 1.809016994374947 -2.4278441447094394 
vertex -0.16245984811645298 2.118033988749896 -1.577193336357401 
vertex 0.2628655560595673 2.4270509831248424 -2.42784414470944 
endloop
endfacet
facet normal -0.30353099910334325 0.9341723589627158 0.18759247408507915 
outer loop
vertex -1.6392474765307403 1.809016994374947 -2.4278441447094394 
vertex 0.2628655560595673 2.4270509831248424 -2.42784414470944 
vertex -0.2628655560595661 2.427050983124842 -3.278494953061481 
endloop
endfacet
facet normal -0.30353099910334314 0.9341723589627159 0.1875924740850795 
outer loop
vertex -1.6392474765307403 1.809016994374947 -2.4278441447094394 
vertex -0.2628655560595661 2.427050983124842 -3.278494953061481 
vertex -1.2139220723547177 2.1180339887498953 -3.278494953061482 
endloop
endfacet
facet normal 0.30353099910334286 0.9341723589627157 -0.18759247408508023 
outer loop
vertex 1.213922072354719 2.1180339887498962 -2.4278441447094403 
vertex 1.6392474765307405 1.8090169943749475 -3.2784949530614838 
vertex 1.1135163644116066 1.8090169943749477 -4.129145761413521 
endloop
endfacet
facet normal 0.303530999103343 0.9341723589627157 -0.18759247408508023 
outer loop
vertex 1.213922072354719 2.1180339887498962 -2.4278441447094403 
vertex 1.1135163644116066 1.8090169943749477 -4.129145761413521 
vertex 0.1624598481164538 2.118033988749895 -4.12914576141352 
endloop
endfacet
facet normal 0.30353099910334264 0.9341723589627159 -0.18759247408507998 
outer loop
vertex 1.213922072354719 2.1180339887498962 -2.4278441447094403 
vertex 0.1624598481164538 2.118033988749895 -4.12914576141352 
vertex -0.2628655560595661 2.427050983124842 -3.278494953061481 
endloop
endfacet
facet normal 0.30353099910334236 0.934172358962716 -0.1875924740850796 
outer loop
vertex 1.213922072354719 2.1180339887498962 -2.4278441447094403 
vertex -0.2628655560595661 2.427050983124842 -3.278494953061481 
vertex 0.2628655560595673 2.4270509831248424 -2.42784414470944 
endloop
endfacet
facet normal 0.7946544722917661 0.5773502691896258 0.18759247408507956 
outer loop
vertex 2.2270327288232123 1.0000000000000027 -3.2784949530614855 
vertex 1.6392474765307405 1.8090169943749475 -3.2784949530614838 
vertex 1.213922072354719 2.1180339887498962 -2.4278441447094403 
endloop
endfacet
facet normal 0.7946544722917661 0.5773502691896258 0.18759247408507976 
outer loop
vertex 2.2270327288232123 1.0000000000000027 -3.2784949530614855 
vertex 1.213922072354719 2.1180339887498962 -2.4278441447094403 
vertex 1.376381920471172 1.618033988749897 -1.5771933363574009 
endloop
endfacet
facet normal 0.7946544722917661 0.5773502691896257 0.18759247408507979 
outer loop
vertex 2.2270327288232123 1.0000000000000027 -3.2784949530614855 
vertex 1.376381920471172 1.618033988749897 -1.5771933363574009 
vertex 1.9641671727636467 0.8090169943749473 -1.577193336357401 
endloop
endfacet
facet normal 0.7946544722917661 0.5773502691896258 0.18759247408507979 
outer loop
vertex 2.2270327288232123 1.0000000000000027 -3.2784949530614855 
vertex 1.9641671727636467 0.8090169943749473 -1.577193336357401 
vertex 2.3894925769396664 0.5000000000000001 -2.4278441447094408 
endloop
endfacet
facet normal 0.982246946376846 -6.02820857474654e-16 -0.18759247408508023 
outer loop
vertex 2.2270327288232123 1.0000000000000027 -3.2784949530614855 
vertex 2.3894925769396664 0.5000000000000001 -2.4278441447094408 
vertex 2.389492576939666 -0.49999999999999917 -2.42784414470944 
endloop
endfacet
facet normal 0.9822469463768458 -8.493085198194037e-16 -0.18759247408508065 
outer loop
vertex 2.2270327288232123 1.0000000000000027 -3.2784949530614855 
vertex 2.389492576939666 -0.49999999999999917 -2.42784414470944 
vertex 2.2270327288232115 -1.0000000000000002 -3.278494953061481 
endloop
endfacet
facet normal 0.9822469463768458 -8.527442382454382e-16 -0.18759247408508065 
outer loop
vertex 2.2270327288232123 1.0000000000000027 -3.2784949530614855 
vertex 2.2270327288232115 -1.0000000000000002 -3.278494953061481 
vertex 2.0645728807067583 -0.5000000000000018 -4.12914576141352 
endloop
endfacet
facet normal 0.9822469463768458 -6.028208574746502e-16 -0.18759247408508106 
outer loop
vertex 2.2270327288232123 1.0000000000000027 -3.2784949530614855 
vertex 2.0645728807067583 -0.5000000000000018 -4.12914576141352 
vertex 2.0645728807067587 0.5000000000000048 -4.129145761413521 
endloop
endfacet
facet normal 0.18759247408507954 -0.5773502691896264 -0.7946544722917656 
outer loop
vertex 1.1135163644116055 -1.8090169943749466 -4.12914576141352 
vertex 0.16245984811645262 -2.118033988749894 -4.129145761413519 
vertex -0.5257311121191338 -1.6180339887498953 -4.654876873532652 
endloop
endfacet
facet normal 0.1875924740850795 -0.5773502691896266 -0.7946544722917656 
outer loop
vertex 1.1135163644116055 -1.8090169943749466 -4.12914576141352 
vertex -0.5257311121191338 -1.6180339887498953 -4.654876873532652 
vertex -0.2628655560595661 -0.8090169943749442 -5.18060798565179 
endloop
endfacet
facet normal 0.18759247408507967 -0.5773502691896265 -0.7946544722917656 
outer loop
vertex 1.1135163644116055 -1.8090169943749466 -4.12914576141352 
vertex -0.2628655560595661 -0.8090169943749442 -5.18060798565179 
vertex 0.6881909602355849 -0.4999999999999984 -5.18060798565179 
endloop
endfacet
facet normal 0.18759247408507979 -0.5773502691896265 -0.7946544722917657 
outer loop
vertex 1.1135163644116055 -1.8090169943749466 -4.12914576141352 
vertex 0.6881909602355849 -0.4999999999999984 -5.18060798565179 
vertex 1.376381920471173 -0.9999999999999999 -4.654876873532654 
endloop
endfacet
facet normal -0.4911234731884229 -0.3568220897730902 -0.794654472291766 
outer loop
vertex -1.7013016167040798 4.883173466933405e-16 -4.654876873532655 
vertex -0.8506508083520394 6.997277473114687e-16 -5.180607985651789 
vertex -0.2628655560595661 -0.8090169943749442 -5.18060798565179 
endloop
endfacet
facet normal -0.4911234731884232 -0.35682208977309104 -0.7946544722917654 
outer loop
vertex -1.7013016167040798 4.883173466933405e-16 -4.654876873532655 
vertex -0.2628655560595661 -0.8090169943749442 -5.18060798565179 
vertex -0.5257311121191338 -1.6180339887498953 -4.654876873532652 
endloop
endfacet
facet normal -0.49112347318842253 -0.35682208977309054 -0.7946544722917661 
outer loop
vertex -1.7013016167040798 4.883173466933405e-16 -4.654876873532655 
vertex -0.5257311121191338 -1.6180339887498953 -4.654876873532652 
vertex -1.3763819204711722 -1.6180339887498951 -4.12914576141352 
endloop
endfacet
facet normal -0.4911234731884226 -0.3568220897730906 -0.794654472291766 
outer loop
vertex -1.7013016167040798 4.883173466933405e-16 -4.654876873532655 
vertex -1.3763819204711722 -1.6180339887498951 -4.12914576141352 
vertex -1.9641671727636467 -0.8090169943749461 -4.129145761413521 
endloop
endfacet
facet normal -0.49112347318842187 0.35682208977309127 -0.7946544722917663 
outer loop
vertex -0.5257311121191331 1.6180339887498971 -4.654876873532651 
vertex -0.26286555605956574 0.8090169943749459 -5.180607985651788 
vertex -0.8506508083520394 6.997277473114687e-16 -5.180607985651789 
endloop
endfacet
facet normal -0.4911234731884228 0.35682208977309127 -0.7946544722917657 
outer loop
vertex -0.5257311121191331 1.6180339887498971 -4.654876873532651 
vertex -0.8506508083520394 6.997277473114687e-16 -5.180607985651789 
vertex -1.7013016167040798 4.883173466933405e-16 -4.654876873532655 
endloop
endfacet
facet normal -0.49112347318842287 0.35682208977309127 -0.7946544722917656 
outer loop
vertex -0.5257311121191331 1.6180339887498971 -4.654876873532651 
vertex -1.7013016167040798 4.883173466933405e-16 -4.654876873532655 
vertex -1.964167172763647 0.8090169943749461 -4.12914576141352 
endloop
endfacet
facet normal -0.4911234731884226 0.35682208977309005 -0.7946544722917663 
outer loop
vertex -0.5257311121191331 1.6180339887498971 -4.654876873532651 
vertex -1.964167172763647 0.8090169943749461 -4.12914576141352 
vertex -1.3763819204711696 1.6180339887498985 -4.12914576141352 
endloop
endfacet
facet normal 0.18759247408507906 0.5773502691896256 -0.7946544722917664 
outer loop
vertex 1.3763819204711731 1.0000000000000009 -4.654876873532655 
vertex 0.6881909602355858 0.5000000000000004 -5.180607985651788 
vertex -0.26286555605956574 0.8090169943749459 -5.180607985651788 
endloop
endfacet
facet normal 0.18759247408507893 0.577350269189626 -0.7946544722917661 
outer loop
vertex 1.3763819204711731 1.0000000000000009 -4.654876873532655 
vertex -0.26286555605956574 0.8090169943749459 -5.180607985651788 
vertex -0.5257311121191331 1.6180339887498971 -4.654876873532651 
endloop
endfacet
facet normal 0.18759247408507895 0.5773502691896258 -0.7946544722917662 
outer loop
vertex 1.3763819204711731 1.0000000000000009 -4.654876873532655 
vertex -0.5257311121191331 1.6180339887498971 -4.654876873532651 
vertex 0.1624598481164538 2.118033988749895 -4.12914576141352 
endloop
endfacet
facet normal 0.1875924740850793 0.5773502691896262 -0.7946544722917659 
outer loop
vertex 1.3763819204711731 1.0000000000000009 -4.654876873532655 
vertex 0.1624598481164538 2.118033988749895 -4.12914576141352 
vertex 1.1135163644116066 1.8090169943749477 -4.129145761413521 
endloop
endfacet
facet normal 0.607061998206687 1.922962686383563e-16 -0.7946544722917654 
outer loop
vertex 2.0645728807067583 -0.5000000000000018 -4.12914576141352 
vertex 1.376381920471173 -0.9999999999999999 -4.654876873532654 
vertex 0.6881909602355849 -0.4999999999999984 -5.18060798565179 
endloop
endfacet
facet normal 0.6070619982066872 8.724105405882596e-16 -0.7946544722917653 
outer loop
vertex 2.0645728807067583 -0.5000000000000018 -4.12914576141352 
vertex 0.6881909602355849 -0.4999999999999984 -5.18060798565179 
vertex 0.6881909602355858 0.5000000000000004 -5.180607985651788 
endloop
endfacet
facet normal 0.6070619982066862 -1.4101726366812779e-15 -0.7946544722917661 
outer loop
vertex 2.0645728807067583 -0.5000000000000018 -4.12914576141352 
vertex 0.6881909602355858 0.5000000000000004 -5.180607985651788 
vertex 1.3763819204711731 1.0000000000000009 -4.654876873532655 
endloop
endfacet
facet normal 0.6070619982066868 -9.614813431917765e-16 -0.7946544722917658 
outer loop
vertex 2.0645728807067583 -0.5000000000000018 -4.12914576141352 
vertex 1.3763819204711731 1.0000000000000009 -4.654876873532655 
vertex 2.0645728807067587 0.5000000000000048 -4.129145761413521 
endloop
endfacet
facet normal 0.2763932022500215 -0.8506508083520398 0.44721359549995787 
outer loop
vertex 0.5257311121191337 -1.6180339887498945 -1.0514622242382676 
vertex -0.1624598481164521 -2.1180339887498945 -1.577193336357401 
vertex 0.26286555605956724 -2.4270509831248415 -2.4278441447094403 
endloop
endfacet
facet normal 0.2763932022500213 -0.8506508083520398 0.44721359549995787 
outer loop
vertex 0.5257311121191337 -1.6180339887498945 -1.0514622242382676 
vertex 0.26286555605956724 -2.4270509831248415 -2.4278441447094403 
vertex 1.2139220723547197 -2.118033988749894 -2.4278441447094403 
endloop
endfacet
facet normal 0.27639320225002095 -0.85065080835204 0.44721359549995776 
outer loop
vertex 0.5257311121191337 -1.6180339887498945 -1.0514622242382676 
vertex 1.2139220723547197 -2.118033988749894 -2.4278441447094403 
vertex 1.3763819204711736 -1.6180339887498945 -1.5771933363574013 
endloop
endfacet
facet normal 0.894427190999916 0.0 0.447213595499958 
outer loop
vertex 1.9641671727636467 -0.809016994374947 -1.5771933363574013 
vertex 2.389492576939666 -0.49999999999999917 -2.42784414470944 
vertex 2.3894925769396664 0.5000000000000001 -2.4278441447094408 
endloop
endfacet
facet normal 0.894427190999916 -3.6073332791198467e-17 0.44721359549995787 
outer loop
vertex 1.9641671727636467 -0.809016994374947 -1.5771933363574013 
vertex 2.3894925769396664 0.5000000000000001 -2.4278441447094408 
vertex 1.9641671727636467 0.8090169943749473 -1.577193336357401 
endloop
endfacet
facet normal 0.8944271909999157 -6.137161939757021e-17 0.4472135954999579 
outer loop
vertex 1.9641671727636467 -0.809016994374947 -1.5771933363574013 
vertex 1.9641671727636467 0.8090169943749473 -1.577193336357401 
vertex 1.7013016167040798 2.5861949902515196e-16 -1.0514622242382674 
endloop
endfacet
facet normal 1.0368218025228733e-31 -2.744622257244234e-16 1.0 
outer loop
vertex 0.2628655560595668 -0.8090169943749471 -0.5257311121191337 
vertex 0.8506508083520395 1.2930974951257593e-16 -0.5257311121191335 
vertex 0.2628655560595664 0.8090169943749469 -0.5257311121191333 
endloop
endfacet
facet normal -2.755757407750341e-17 -2.744622257244234e-16 1.0 
outer loop
vertex 0.2628655560595668 -0.8090169943749471 -0.5257311121191337 
vertex 0.2628655560595664 0.8090169943749469 -0.5257311121191333 
vertex -0.6881909602355862 0.49999999999999967 -0.5257311121191334 
endloop
endfacet
facet normal -1.0821999837359533e-16 -3.330669073875471e-16 1.0 
outer loop
vertex 0.2628655560595668 -0.8090169943749471 -0.5257311121191337 
vertex -0.6881909602355862 0.49999999999999967 -0.5257311121191334 
vertex -0.6881909602355866 -0.49999999999999983 -0.5257311121191337 
endloop
endfacet
facet normal -0.7236067977499789 -0.5257311121191339 0.44721359549995776 
outer loop
vertex -1.6392474765307399 -1.8090169943749468 -2.4278441447094403 
vertex -1.113516364411607 -1.8090169943749468 -1.5771933363574013 
vertex -1.3763819204711738 -1.0000000000000002 -1.0514622242382679 
endloop
endfacet
facet normal -0.7236067977499789 -0.5257311121191338 0.44721359549995776 
outer loop
vertex -1.6392474765307399 -1.8090169943749468 -2.4278441447094403 
vertex -1.3763819204711738 -1.0000000000000002 -1.0514622242382679 
vertex -2.06457288070676 -0.5000000000000008 -1.577193336357401 
endloop
endfacet
facet normal -0.723606797749979 -0.5257311121191338 0.44721359549995765 
outer loop
vertex -1.6392474765307399 -1.8090169943749468 -2.4278441447094403 
vertex -2.06457288070676 -0.5000000000000008 -1.577193336357401 
vertex -2.2270327288232132 -0.9999999999999999 -2.4278441447094408 
endloop
endfacet
facet normal -0.723606797749979 0.5257311121191336 0.4472135954999579 
outer loop
vertex -1.376381920471174 1.0000000000000007 -1.051462224238268 
vertex -1.1135163644116073 1.8090169943749477 -1.577193336357401 
vertex -1.6392474765307403 1.809016994374947 -2.4278441447094394 
endloop
endfacet
facet normal -0.723606797749979 0.5257311121191335 0.4472135954999578 
outer loop
vertex -1.376381920471174 1.0000000000000007 -1.051462224238268 
vertex -1.6392474765307403 1.809016994374947 -2.4278441447094394 
vertex -2.2270327288232132 1.0000000000000002 -2.4278441447094403 
endloop
endfacet
facet normal -0.723606797749979 0.5257311121191335 0.44721359549995787 
outer loop
vertex -1.376381920471174 1.0000000000000007 -1.051462224238268 
vertex -2.2270327288232132 1.0000000000000002 -2.4278441447094403 
vertex -2.06457288070676 0.500000000000001 -1.5771933363574013 
endloop
endfacet
facet normal 0.27639320225002073 0.8506508083520401 0.44721359549995776 
outer loop
vertex 0.5257311121191337 1.6180339887498967 -1.0514622242382683 
vertex 1.376381920471172 1.618033988749897 -1.5771933363574009 
vertex 1.213922072354719 2.1180339887498962 -2.4278441447094403 
endloop
endfacet
facet normal 0.2763932022500207 0.8506508083520402 0.44721359549995776 
outer loop
vertex 0.5257311121191337 1.6180339887498967 -1.0514622242382683 
vertex 1.213922072354719 2.1180339887498962 -2.4278441447094403 
vertex 0.2628655560595673 2.4270509831248424 -2.42784414470944 
endloop
endfacet
facet normal 0.2763932022500208 0.85065080835204 0.44721359549995776 
outer loop
vertex 0.5257311121191337 1.6180339887498967 -1.0514622242382683 
vertex 0.2628655560595673 2.4270509831248424 -2.42784414470944 
vertex -0.16245984811645298 2.118033988749896 -1.577193336357401 
endloop
endfacet
facet normal 0.7236067977499785 -0.5257311121191345 -0.44721359549995776 
outer loop
vertex 1.6392474765307392 -1.8090169943749466 -3.27849495306148 
vertex 1.1135163644116055 -1.8090169943749466 -4.12914576141352 
vertex 1.376381920471173 -0.9999999999999999 -4.654876873532654 
endloop
endfacet
facet normal 0.723606797749979 -0.5257311121191339 -0.44721359549995754 
outer loop
vertex 1.6392474765307392 -1.8090169943749466 -3.27849495306148 
vertex 1.376381920471173 -0.9999999999999999 -4.654876873532654 
vertex 2.0645728807067583 -0.5000000000000018 -4.12914576141352 
endloop
endfacet
facet normal 0.7236067977499789 -0.5257311121191339 -0.4472135954999577 
outer loop
vertex 1.6392474765307392 -1.8090169943749466 -3.27849495306148 
vertex 2.0645728807067583 -0.5000000000000018 -4.12914576141352 
vertex 2.2270327288232115 -1.0000000000000002 -3.278494953061481 
endloop
endfacet
facet normal -0.2763932022500204 -0.8506508083520403 -0.44721359549995765 
outer loop
vertex -0.5257311121191338 -1.6180339887498953 -4.654876873532652 
vertex 0.16245984811645262 -2.118033988749894 -4.129145761413519 
vertex -0.2628655560595662 -2.4270509831248415 -3.2784949530614798 
endloop
endfacet
facet normal -0.27639320225002095 -0.8506508083520401 -0.4472135954999575 
outer loop
vertex -0.5257311121191338 -1.6180339887498953 -4.654876873532652 
vertex -0.2628655560595662 -2.4270509831248415 -3.2784949530614798 
vertex -1.2139220723547197 -2.118033988749894 -3.27849495306148 
endloop
endfacet
facet normal -0.2763932022500206 -0.8506508083520404 -0.44721359549995743 
outer loop
vertex -0.5257311121191338 -1.6180339887498953 -4.654876873532652 
vertex -1.2139220723547197 -2.118033988749894 -3.27849495306148 
vertex -1.3763819204711722 -1.6180339887498951 -4.12914576141352 
endloop
endfacet
facet normal -0.894427190999916 1.4591969635911314e-16 -0.4472135954999578 
outer loop
vertex -1.7013016167040798 4.883173466933405e-16 -4.654876873532655 
vertex -1.9641671727636467 -0.8090169943749461 -4.129145761413521 
vertex -2.3894925769396664 -0.4999999999999994 -3.278494953061481 
endloop
endfacet
facet normal -0.8944271909999157 -7.944109290391281e-16 -0.44721359549995804 
outer loop
vertex -1.7013016167040798 4.883173466933405e-16 -4.654876873532655 
vertex -2.3894925769396664 -0.4999999999999994 -3.278494953061481 
vertex -2.389492576939667 0.4999999999999998 -3.278494953061482 
endloop
endfacet
facet normal -0.8944271909999156 7.004145425237446e-16 -0.4472135954999585 
outer loop
vertex -1.7013016167040798 4.883173466933405e-16 -4.654876873532655 
vertex -2.389492576939667 0.4999999999999998 -3.278494953061482 
vertex -1.964167172763647 0.8090169943749461 -4.12914576141352 
endloop
endfacet
facet normal -0.27639320225002023 0.8506508083520403 -0.4472135954999577 
outer loop
vertex -0.2628655560595661 2.427050983124842 -3.278494953061481 
vertex 0.1624598481164538 2.118033988749895 -4.12914576141352 
vertex -0.5257311121191331 1.6180339887498971 -4.654876873532651 
endloop
endfacet
facet normal -0.2763932022500196 0.8506508083520404 -0.4472135954999579 
outer loop
vertex -0.2628655560595661 2.427050983124842 -3.278494953061481 
vertex -0.5257311121191331 1.6180339887498971 -4.654876873532651 
vertex -1.3763819204711696 1.6180339887498985 -4.12914576141352 
endloop
endfacet
facet normal -0.2763932022500207 0.8506508083520408 -0.44721359549995676 
outer loop
vertex -0.2628655560595661 2.427050983124842 -3.278494953061481 
vertex -1.3763819204711696 1.6180339887498985 -4.12914576141352 
vertex -1.2139220723547177 2.1180339887498953 -3.278494953061482 
endloop
endfacet
facet normal 0.7236067977499783 0.5257311121191335 -0.4472135954999592 
outer loop
vertex 2.2270327288232123 1.0000000000000027 -3.2784949530614855 
vertex 2.0645728807067587 0.5000000000000048 -4.129145761413521 
vertex 1.3763819204711731 1.0000000000000009 -4.654876873532655 
endloop
endfacet
facet normal 0.7236067977499778 0.5257311121191341 -0.4472135954999589 
outer loop
vertex 2.2270327288232123 1.0000000000000027 -3.2784949530614855 
vertex 1.3763819204711731 1.0000000000000009 -4.654876873532655 
vertex 1.1135163644116066 1.8090169943749477 -4.129145761413521 
endloop
endfacet
facet normal 0.7236067977499778 0.5257311121191344 -0.44721359549995887 
outer loop
vertex 2.2270327288232123 1.0000000000000027 -3.2784949530614855 
vertex 1.1135163644116066 1.8090169943749477 -4.129145761413521 
vertex 1.6392474765307405 1.8090169943749475 -3.2784949530614838 
endloop
endfacet
facet normal -2.8858666232958764e-16 8.881784197001278e-16 -1.0 
outer loop
vertex 0.6881909602355849 -0.4999999999999984 -5.18060798565179 
vertex -0.2628655560595661 -0.8090169943749442 -5.18060798565179 
vertex -0.8506508083520394 6.997277473114687e-16 -5.180607985651789 
endloop
endfacet
facet normal -1.7835636601957384e-16 1.2274323879514072e-15 -1.0 
outer loop
vertex 0.6881909602355849 -0.4999999999999984 -5.18060798565179 
vertex -0.8506508083520394 6.997277473114687e-16 -5.180607985651789 
vertex -0.26286555605956574 0.8090169943749459 -5.180607985651788 
endloop
endfacet
facet normal 5.77173324659173e-16 1.776356839400252e-15 -1.0 
outer loop
vertex 0.6881909602355849 -0.4999999999999984 -5.18060798565179 
vertex -0.26286555605956574 0.8090169943749459 -5.180607985651788 
vertex 0.6881909602355858 0.5000000000000004 -5.180607985651788 
endloop
endfacet
endsolid unit-truncated-icosahedron
