solid unit-truncated-octahedron
facet normal 0.5773502691896257 -0.5773502691896257 0.5773502691896256 
outer loop
vertex 1.4507648922520367e-16 -1.4142135623730956 0.7071067811865474 
vertex 0.7071067811865476 -1.4142135623730954 0.0 
vertex 1.4142135623730954 -0.7071067811865476 0.0 
endloop
endfacet
facet normal 0.5773502691896257 -0.5773502691896255 0.577350269189626 
outer loop
vertex 1.4507648922520367e-16 -1.4142135623730956 0.7071067811865474 
vertex 1.4142135623730954 -0.7071067811865476 0.0 
vertex 1.4142135623730951 9.626597129344978e-17 0.7071067811865474 
endloop
endfacet
facet normal 0.5773502691896258 -0.5773502691896255 0.577350269189626 
outer loop
vertex 1.4507648922520367e-16 -1.4142135623730956 0.7071067811865474 
vertex 1.4142135623730951 9.626597129344978e-17 0.7071067811865474 
vertex 0.7071067811865475 1.9253194258689963e-16 1.4142135623730951 
endloop
endfacet
facet normal 0.5773502691896258 -0.5773502691896256 0.5773502691896258 
outer loop
vertex 1.4507648922520367e-16 -1.4142135623730956 0.7071067811865474 
vertex 0.7071067811865475 1.9253194258689963e-16 1.4142135623730951 
vertex 1.6025957001508336e-16 -0.7071067811865472 1.4142135623730954 
endloop
endfacet
facet normal -0.5773502691896257 -0.5773502691896262 0.5773502691896255 
outer loop
vertex -1.4142135623730954 -0.7071067811865476 0.0 
vertex -0.7071067811865474 -1.4142135623730951 0.0 
vertex 1.4507648922520367e-16 -1.4142135623730956 0.7071067811865474 
endloop
endfacet
facet normal -0.5773502691896257 -0.5773502691896257 0.577350269189626 
outer loop
vertex -1.4142135623730954 -0.7071067811865476 0.0 
vertex 1.4507648922520367e-16 -1.4142135623730956 0.7071067811865474 
vertex 1.6025957001508336e-16 -0.7071067811865472 1.4142135623730954 
endloop
endfacet
facet normal -0.5773502691896258 -0.5773502691896255 0.5773502691896261 
outer loop
vertex -1.4142135623730954 -0.7071067811865476 0.0 
vertex 1.6025957001508336e-16 -0.7071067811865472 1.4142135623730954 
vertex -0.7071067811865471 1.0593633696335033e-16 1.4142135623730951 
endloop
endfacet
facet normal -0.577350269189626 -0.5773502691896254 0.5773502691896261 
outer loop
vertex -1.4142135623730954 -0.7071067811865476 0.0 
vertex -0.7071067811865471 1.0593633696335033e-16 1.4142135623730951 
vertex -1.4142135623730951 -7.692523995364894e-17 0.7071067811865471 
endloop
endfacet
facet normal -0.5773502691896261 0.5773502691896254 0.577350269189626 
outer loop
vertex -1.4142135623730956 0.7071067811865472 0.0 
vertex -1.4142135623730951 -7.692523995364894e-17 0.7071067811865471 
vertex -0.7071067811865471 1.0593633696335033e-16 1.4142135623730951 
endloop
endfacet
facet normal -0.577350269189626 0.5773502691896255 0.5773502691896258 
outer loop
vertex -1.4142135623730956 0.7071067811865472 0.0 
vertex -0.7071067811865471 1.0593633696335033e-16 1.4142135623730951 
vertex -1.2931641232015324e-17 0.7071067811865477 1.4142135623730951 
endloop
endfacet
facet normal -0.5773502691896257 0.5773502691896257 0.5773502691896258 
outer loop
vertex -1.4142135623730956 0.7071067811865472 0.0 
vertex -1.2931641232015324e-17 0.7071067811865477 1.4142135623730951 
vertex -2.013059332689937e-16 1.4142135623730954 0.7071067811865475 
endloop
endfacet
facet normal -0.5773502691896257 0.5773502691896257 0.5773502691896257 
outer loop
vertex -1.4142135623730956 0.7071067811865472 0.0 
vertex -2.013059332689937e-16 1.4142135623730954 0.7071067811865475 
vertex -0.7071067811865477 1.4142135623730954 0.0 
endloop
endfacet
facet normal 0.5773502691896258 0.5773502691896258 0.5773502691896257 
outer loop
vertex 0.707106781186547 1.4142135623730956 0.0 
vertex -2.013059332689937e-16 1.4142135623730954 0.7071067811865475 
vertex -1.2931641232015324e-17 0.7071067811865477 1.4142135623730951 
endloop
endfacet
facet normal 0.5773502691896258 0.5773502691896258 0.5773502691896256 
outer loop
vertex 0.707106781186547 1.4142135623730956 0.0 
vertex -1.2931641232015324e-17 0.7071067811865477 1.4142135623730951 
vertex 0.7071067811865475 1.9253194258689963e-16 1.4142135623730951 
endloop
endfacet
facet normal 0.577350269189626 0.5773502691896257 0.5773502691896257 
outer loop
vertex 0.707106781186547 1.4142135623730956 0.0 
vertex 0.7071067811865475 1.9253194258689963e-16 1.4142135623730951 
vertex 1.4142135623730951 9.626597129344978e-17 0.7071067811865474 
endloop
endfacet
facet normal 0.5773502691896262 0.5773502691896257 0.5773502691896255 
outer loop
vertex 0.707106781186547 1.4142135623730956 0.0 
vertex 1.4142135623730951 9.626597129344978e-17 0.7071067811865474 
vertex 1.4142135623730951 0.7071067811865472 0.0 
endloop
endfacet
facet normal -0.5773502691896258 0.5773502691896256 -0.577350269189626 
outer loop
vertex -3.182677004723024e-16 1.4142135623730956 -0.7071067811865474 
vertex -2.4685517563863266e-16 0.7071067811865472 -1.4142135623730951 
vertex -0.7071067811865475 -2.79127548210449e-16 -1.4142135623730951 
endloop
endfacet
facet normal -0.577350269189626 0.5773502691896255 -0.5773502691896258 
outer loop
vertex -3.182677004723024e-16 1.4142135623730956 -0.7071067811865474 
vertex -0.7071067811865475 -2.79127548210449e-16 -1.4142135623730951 
vertex -1.4142135623730951 -2.694571825405485e-16 -0.7071067811865474 
endloop
endfacet
facet normal -0.5773502691896257 0.5773502691896255 -0.577350269189626 
outer loop
vertex -3.182677004723024e-16 1.4142135623730956 -0.7071067811865474 
vertex -1.4142135623730951 -2.694571825405485e-16 -0.7071067811865474 
vertex -1.4142135623730956 0.7071067811865472 0.0 
endloop
endfacet
facet normal -0.5773502691896258 0.5773502691896256 -0.5773502691896257 
outer loop
vertex -3.182677004723024e-16 1.4142135623730956 -0.7071067811865474 
vertex -1.4142135623730956 0.7071067811865472 0.0 
vertex -0.7071067811865477 1.4142135623730954 0.0 
endloop
endfacet
facet normal -0.577350269189626 -0.5773502691896256 -0.5773502691896258 
outer loop
vertex -1.4142135623730954 -0.7071067811865476 0.0 
vertex -1.4142135623730951 -2.694571825405485e-16 -0.7071067811865474 
vertex -0.7071067811865475 -2.79127548210449e-16 -1.4142135623730951 
endloop
endfacet
facet normal -0.5773502691896256 -0.5773502691896258 -0.5773502691896257 
outer loop
vertex -1.4142135623730954 -0.7071067811865476 0.0 
vertex -0.7071067811865475 -2.79127548210449e-16 -1.4142135623730951 
vertex -7.3663964391534e-17 -0.7071067811865475 -1.414213562373095 
endloop
endfacet
facet normal -0.5773502691896257 -0.5773502691896258 -0.5773502691896258 
outer loop
vertex -1.4142135623730954 -0.7071067811865476 0.0 
vertex -7.3663964391534e-17 -0.7071067811865475 -1.414213562373095 
vertex 2.811472202189502e-17 -1.4142135623730951 -0.7071067811865474 
endloop
endfacet
facet normal -0.5773502691896256 -0.5773502691896261 -0.5773502691896256 
outer loop
vertex -1.4142135623730954 -0.7071067811865476 0.0 
vertex 2.811472202189502e-17 -1.4142135623730951 -0.7071067811865474 
vertex -0.7071067811865474 -1.4142135623730951 0.0 
endloop
endfacet
facet normal 0.5773502691896256 -0.5773502691896258 -0.577350269189626 
outer loop
vertex 0.7071067811865476 -1.4142135623730954 0.0 
vertex 2.811472202189502e-17 -1.4142135623730951 -0.7071067811865474 
vertex -7.3663964391534e-17 -0.7071067811865475 -1.414213562373095 
endloop
endfacet
facet normal 0.5773502691896255 -0.577350269189626 -0.577350269189626 
outer loop
vertex 0.7071067811865476 -1.4142135623730954 0.0 
vertex -7.3663964391534e-17 -0.7071067811865475 -1.414213562373095 
vertex 0.7071067811865475 -1.9253194258689963e-16 -1.4142135623730951 
endloop
endfacet
facet normal 0.5773502691896256 -0.5773502691896258 -0.5773502691896258 
outer loop
vertex 0.7071067811865476 -1.4142135623730954 0.0 
vertex 0.7071067811865475 -1.9253194258689963e-16 -1.4142135623730951 
vertex 1.4142135623730956 -9.626597129344978e-17 -0.7071067811865474 
endloop
endfacet
facet normal 0.577350269189626 -0.5773502691896257 -0.5773502691896256 
outer loop
vertex 0.7071067811865476 -1.4142135623730954 0.0 
vertex 1.4142135623730956 -9.626597129344978e-17 -0.7071067811865474 
vertex 1.4142135623730954 -0.7071067811865476 0.0 
endloop
endfacet
facet normal 0.5773502691896254 0.5773502691896262 -0.5773502691896257 
outer loop
vertex 1.4142135623730951 0.7071067811865472 0.0 
vertex 1.4142135623730956 -9.626597129344978e-17 -0.7071067811865474 
vertex 0.7071067811865475 -1.9253194258689963e-16 -1.4142135623730951 
endloop
endfacet
facet normal 0.5773502691896256 0.5773502691896257 -0.5773502691896257 
outer loop
vertex 1.4142135623730951 0.7071067811865472 0.0 
vertex 0.7071067811865475 -1.9253194258689963e-16 -1.4142135623730951 
vertex -2.4685517563863266e-16 0.7071067811865472 -1.4142135623730951 
endloop
endfacet
facet normal 0.577350269189626 0.5773502691896255 -0.577350269189626 
outer loop
vertex 1.4142135623730951 0.7071067811865472 0.0 
vertex -2.4685517563863266e-16 0.7071067811865472 -1.4142135623730951 
vertex -3.182677004723024e-16 1.4142135623730956 -0.7071067811865474 
endloop
endfacet
facet normal 0.5773502691896258 0.5773502691896256 -0.5773502691896258 
outer loop
vertex 1.4142135623730951 0.7071067811865472 0.0 
vertex -3.182677004723024e-16 1.4142135623730956 -0.7071067811865474 
vertex 0.707106781186547 1.4142135623730956 0.0 
endloop
endfacet
facet normal -3.140184917367551e-16 -1.0 -3.140184917367551e-16 
outer loop
vertex 1.4507648922520367e-16 -1.4142135623730956 0.7071067811865474 
vertex -0.7071067811865474 -1.4142135623730951 0.0 
vertex 2.811472202189502e-17 -1.4142135623730951 -0.7071067811865474 
endloop
endfacet
facet normal 0.0 -1.0 -3.140184917367551e-16 
outer loop
vertex 1.4507648922520367e-16 -1.4142135623730956 0.7071067811865474 
vertex 2.811472202189502e-17 -1.4142135623730951 -0.7071067811865474 
vertex 0.7071067811865476 -1.4142135623730954 0.0 
endloop
endfacet
facet normal 1.0 1.5700924586837754e-16 4.710277376051327e-16 
outer loop
vertex 1.4142135623730954 -0.7071067811865476 0.0 
vertex 1.4142135623730956 -9.626597129344978e-17 -0.7071067811865474 
vertex 1.4142135623730951 0.7071067811865472 0.0 
endloop
endfacet
facet normal 1.0 1.5700924586837752e-16 1.5700924586837747e-16 
outer loop
vertex 1.4142135623730954 -0.7071067811865476 0.0 
vertex 1.4142135623730951 0.7071067811865472 0.0 
vertex 1.4142135623730951 9.626597129344978e-17 0.7071067811865474 
endloop
endfacet
facet normal 1.5700924586837752e-16 1.5700924586837752e-16 1.0 
outer loop
vertex 1.6025957001508336e-16 -0.7071067811865472 1.4142135623730954 
vertex 0.7071067811865475 1.9253194258689963e-16 1.4142135623730951 
vertex -1.2931641232015324e-17 0.7071067811865477 1.4142135623730951 
endloop
endfacet
facet normal -1.5700924586837762e-16 1.5700924586837752e-16 1.0 
outer loop
vertex 1.6025957001508336e-16 -0.7071067811865472 1.4142135623730954 
vertex -1.2931641232015324e-17 0.7071067811865477 1.4142135623730951 
vertex -0.7071067811865471 1.0593633696335033e-16 1.4142135623730951 
endloop
endfacet
facet normal -1.0 3.140184917367551e-16 -2.4651903288156635e-32 
outer loop
vertex -1.4142135623730951 -2.694571825405485e-16 -0.7071067811865474 
vertex -1.4142135623730954 -0.7071067811865476 0.0 
vertex -1.4142135623730951 -7.692523995364894e-17 0.7071067811865471 
endloop
endfacet
facet normal -1.0 -6.280369834735102e-16 8.550135825431389e-32 
outer loop
vertex -1.4142135623730951 -2.694571825405485e-16 -0.7071067811865474 
vertex -1.4142135623730951 -7.692523995364894e-17 0.7071067811865471 
vertex -1.4142135623730956 0.7071067811865472 0.0 
endloop
endfacet
facet normal -1.5700924586837754e-16 1.0 1.5700924586837754e-16 
outer loop
vertex -2.013059332689937e-16 1.4142135623730954 0.7071067811865475 
vertex 0.707106781186547 1.4142135623730956 0.0 
vertex -3.182677004723024e-16 1.4142135623730956 -0.7071067811865474 
endloop
endfacet
facet normal -1.5700924586837754e-16 1.0 1.5700924586837752e-16 
outer loop
vertex -2.013059332689937e-16 1.4142135623730954 0.7071067811865475 
vertex -3.182677004723024e-16 1.4142135623730956 -0.7071067811865474 
vertex -0.7071067811865477 1.4142135623730954 0.0 
endloop
endfacet
facet normal -1.5700924586837752e-16 -1.5700924586837757e-16 -1.0 
outer loop
vertex -2.4685517563863266e-16 0.7071067811865472 -1.4142135623730951 
vertex 0.7071067811865475 -1.9253194258689963e-16 -1.4142135623730951 
vertex -7.3663964391534e-17 -0.7071067811865475 -1.414213562373095 
endloop
endfacet
facet normal 1.5700924586837762e-16 -1.5700924586837752e-16 -1.0 
outer loop
vertex -2.4685517563863266e-16 0.7071067811865472 -1.4142135623730951 
vertex -7.3663964391534e-17 -0.7071067811865475 -1.414213562373095 
vertex -0.7071067811865475 -2.79127548210449e-16 -1.4142135623730951 
endloop
endfacet
endsolid unit-truncated-octahedron
