solid unit-truncated-dodecahedron
facet normal -0.0 0.0 -1.0 
outer loop
vertex 0.6549183193386463 0.2694026591268574 0.0 
vertex 0.6549183193386465 -0.2694026591268573 0.0 
vertex 0.4585980450729603 -0.53961433524809 0.0 
endloop
endfacet
facet normal -0.0 0.0 -1.0 
outer loop
vertex 0.6549183193386463 0.2694026591268574 0.0 
vertex 0.4585980450729603 -0.53961433524809 0.0 
vertex -0.0538362638667193 -0.7061143352480901 0.0 
endloop
endfacet
facet normal 0.0 0.0 -1.0 
outer loop
vertex 0.6549183193386463 0.2694026591268574 0.0 
vertex -0.0538362638667193 -0.7061143352480901 0.0 
vertex -0.37148914030930047 -0.6029026591268577 0.0 
endloop
endfacet
facet normal 0.0 0.0 -1.0 
outer loop
vertex 0.6549183193386463 0.2694026591268574 0.0 
vertex -0.37148914030930047 -0.6029026591268577 0.0 
vertex -0.6881909602355867 -0.1670000000000003 0.0 
endloop
endfacet
facet normal 0.0 0.0 -1.0 
outer loop
vertex 0.6549183193386463 0.2694026591268574 0.0 
vertex -0.6881909602355867 -0.1670000000000003 0.0 
vertex -0.6881909602355868 0.16700000000000007 0.0 
endloop
endfacet
facet normal 0.0 0.0 -1.0 
outer loop
vertex 0.6549183193386463 0.2694026591268574 0.0 
vertex -0.6881909602355868 0.16700000000000007 0.0 
vertex -0.37148914030930064 0.6029026591268574 0.0 
endloop
endfacet
facet normal 0.0 0.0 -1.0 
outer loop
vertex 0.6549183193386463 0.2694026591268574 0.0 
vertex -0.37148914030930064 0.6029026591268574 0.0 
vertex -0.05383626386671941 0.7061143352480899 0.0 
endloop
endfacet
facet normal 0.0 0.0 -1.0 
outer loop
vertex 0.6549183193386463 0.2694026591268574 0.0 
vertex -0.05383626386671941 0.7061143352480899 0.0 
vertex 0.45859804507296015 0.5396143352480901 0.0 
endloop
endfacet
facet normal 0.7236067977499789 -0.5257311121191336 -0.4472135954999581 
outer loop
vertex 0.4585980450729603 -0.53961433524809 0.0 
vertex 0.6549183193386465 -0.2694026591268573 0.0 
vertex 1.0257192686877115 -8.536534358581457e-17 0.28326671918122936 
endloop
endfacet
facet normal 0.7236067977499789 -0.5257311121191334 -0.4472135954999584 
outer loop
vertex 0.4585980450729603 -0.53961433524809 0.0 
vertex 1.0257192686877115 -8.536534358581457e-17 0.28326671918122936 
vertex 1.201313460135502 -1.709870395547696e-16 0.5673840891708103 
endloop
endfacet
facet normal 0.7236067977499788 -0.5257311121191339 -0.4472135954999578 
outer loop
vertex 0.4585980450729603 -0.53961433524809 0.0 
vertex 1.201313460135502 -1.709870395547696e-16 0.5673840891708103 
vertex 1.2888476903033377 -0.26940265912685785 1.0257192686877115 
endloop
endfacet
facet normal 0.723606797749979 -0.5257311121191334 -0.4472135954999582 
outer loop
vertex 0.4585980450729603 -0.53961433524809 0.0 
vertex 1.2888476903033377 -0.26940265912685785 1.0257192686877115 
vertex 1.2010505945794425 -0.53961433524809 1.2013134601355018 
endloop
endfacet
facet normal 0.7236067977499788 -0.5257311121191337 -0.44721359549995804 
outer loop
vertex 0.4585980450729603 -0.53961433524809 0.0 
vertex 1.2010505945794425 -0.53961433524809 1.2013134601355018 
vertex 0.8843487746531564 -0.9755169943749473 1.2013134601355018 
endloop
endfacet
facet normal 0.7236067977499789 -0.5257311121191337 -0.4472135954999581 
outer loop
vertex 0.4585980450729603 -0.53961433524809 0.0 
vertex 0.8843487746531564 -0.9755169943749473 1.2013134601355018 
vertex 0.6544929939344698 -1.1425169943749478 1.0257192686877108 
endloop
endfacet
facet normal 0.7236067977499787 -0.5257311121191339 -0.44721359549995815 
outer loop
vertex 0.4585980450729603 -0.53961433524809 0.0 
vertex 0.6544929939344698 -1.1425169943749478 1.0257192686877108 
vertex 0.37122627475324105 -1.1425169943749471 0.5673840891708105 
endloop
endfacet
facet normal 0.7236067977499789 -0.5257311121191337 -0.4472135954999578 
outer loop
vertex 0.4585980450729603 -0.53961433524809 0.0 
vertex 0.37122627475324105 -1.1425169943749471 0.5673840891708105 
vertex 0.3169646854823456 -0.975516994374947 0.28326671918122875 
endloop
endfacet
facet normal -0.2763932022500206 -0.8506508083520402 -0.44721359549995787 
outer loop
vertex 0.3169646854823456 -0.975516994374947 0.28326671918122875 
vertex 0.37122627475324105 -1.1425169943749471 0.5673840891708105 
vertex 0.1420586849947909 -1.3090169943749475 1.0257192686877117 
endloop
endfacet
facet normal -0.2763932022500224 -0.8506508083520395 -0.447213595499958 
outer loop
vertex 0.3169646854823456 -0.975516994374947 0.28326671918122875 
vertex 0.1420586849947909 -1.3090169943749475 1.0257192686877117 
vertex -0.14205868499479213 -1.3090169943749472 1.2013134601355038 
endloop
endfacet
facet normal -0.27639320225002106 -0.8506508083520402 -0.44721359549995765 
outer loop
vertex 0.3169646854823456 -0.975516994374947 0.28326671918122875 
vertex -0.14205868499479213 -1.3090169943749472 1.2013134601355038 
vertex -0.6544929939344678 -1.142516994374949 1.2013134601355044 
endloop
endfacet
facet normal -0.2763932022500209 -0.8506508083520403 -0.44721359549995743 
outer loop
vertex 0.3169646854823456 -0.975516994374947 0.28326671918122875 
vertex -0.6544929939344678 -1.142516994374949 1.2013134601355044 
vertex -0.8843487746531572 -0.9755169943749465 1.025719268687711 
endloop
endfacet
facet normal -0.27639320225002084 -0.8506508083520403 -0.44721359549995743 
outer loop
vertex 0.3169646854823456 -0.975516994374947 0.28326671918122875 
vertex -0.8843487746531572 -0.9755169943749465 1.025719268687711 
vertex -0.9718830048209918 -0.70611433524809 0.5673840891708105 
endloop
endfacet
facet normal -0.27639320225002095 -0.8506508083520401 -0.44721359549995765 
outer loop
vertex 0.3169646854823456 -0.975516994374947 0.28326671918122875 
vertex -0.9718830048209918 -0.70611433524809 0.5673840891708105 
vertex -0.8298243198262012 -0.6029026591268576 0.28326671918122914 
endloop
endfacet
facet normal -0.27639320225002095 -0.8506508083520401 -0.4472135954999576 
outer loop
vertex 0.3169646854823456 -0.975516994374947 0.28326671918122875 
vertex -0.8298243198262012 -0.6029026591268576 0.28326671918122914 
vertex -0.37148914030930047 -0.6029026591268577 0.0 
endloop
endfacet
facet normal -0.27639320225002106 -0.8506508083520401 -0.4472135954999574 
outer loop
vertex 0.3169646854823456 -0.975516994374947 0.28326671918122875 
vertex -0.37148914030930047 -0.6029026591268577 0.0 
vertex -0.0538362638667193 -0.7061143352480901 0.0 
endloop
endfacet
facet normal -0.894427190999916 -2.623935846489244e-16 -0.44721359549995776 
outer loop
vertex -0.8298243198262012 -0.6029026591268576 0.28326671918122914 
vertex -0.9718830048209918 -0.70611433524809 0.5673840891708105 
vertex -1.201050594579442 -0.5396143352480908 1.0257192686877112 
endloop
endfacet
facet normal -0.8944271909999161 -9.170006683907652e-16 -0.4472135954999577 
outer loop
vertex -0.8298243198262012 -0.6029026591268576 0.28326671918122914 
vertex -1.201050594579442 -0.5396143352480908 1.0257192686877112 
vertex -1.2888476903033377 -0.2694026591268581 1.201313460135502 
endloop
endfacet
facet normal -0.8944271909999157 3.685983147001228e-16 -0.4472135954999581 
outer loop
vertex -0.8298243198262012 -0.6029026591268576 0.28326671918122914 
vertex -1.2888476903033377 -0.2694026591268581 1.201313460135502 
vertex -1.2888476903033381 0.2694026591268553 1.2013134601355033 
endloop
endfacet
facet normal -0.8944271909999161 -4.0216639545566193e-16 -0.44721359549995754 
outer loop
vertex -0.8298243198262012 -0.6029026591268576 0.28326671918122914 
vertex -1.2888476903033381 0.2694026591268553 1.2013134601355033 
vertex -1.2010505945794423 0.5396143352480902 1.0257192686877112 
endloop
endfacet
facet normal -0.8944271909999161 -1.9176838879470394e-16 -0.4472135954999577 
outer loop
vertex -0.8298243198262012 -0.6029026591268576 0.28326671918122914 
vertex -1.2010505945794423 0.5396143352480902 1.0257192686877112 
vertex -0.9718830048209922 0.7061143352480896 0.5673840891708107 
endloop
endfacet
facet normal -0.894427190999916 -1.8115914394587695e-16 -0.44721359549995776 
outer loop
vertex -0.8298243198262012 -0.6029026591268576 0.28326671918122914 
vertex -0.9718830048209922 0.7061143352480896 0.5673840891708107 
vertex -0.8298243198262014 0.6029026591268573 0.2832667191812291 
endloop
endfacet
facet normal -0.8944271909999159 -1.852936542988798e-16 -0.44721359549995804 
outer loop
vertex -0.8298243198262012 -0.6029026591268576 0.28326671918122914 
vertex -0.8298243198262014 0.6029026591268573 0.2832667191812291 
vertex -0.6881909602355868 0.16700000000000007 0.0 
endloop
endfacet
facet normal -0.8944271909999157 -2.9730947943081076e-16 -0.44721359549995815 
outer loop
vertex -0.8298243198262012 -0.6029026591268576 0.28326671918122914 
vertex -0.6881909602355868 0.16700000000000007 0.0 
vertex -0.6881909602355867 -0.1670000000000003 0.0 
endloop
endfacet
facet normal -0.2763932022500217 0.8506508083520402 -0.4472135954999572 
outer loop
vertex -0.8843487746531564 0.9755169943749473 1.0257192686877115 
vertex -0.6544929939344708 1.1425169943749471 1.201313460135502 
vertex -0.14205868499479218 1.3090169943749475 1.2013134601355027 
endloop
endfacet
facet normal -0.27639320225002123 0.8506508083520397 -0.4472135954999581 
outer loop
vertex -0.8843487746531564 0.9755169943749473 1.0257192686877115 
vertex -0.14205868499479218 1.3090169943749475 1.2013134601355027 
vertex 0.14205868499479068 1.3090169943749475 1.025719268687711 
endloop
endfacet
facet normal -0.2763932022500213 0.8506508083520399 -0.44721359549995776 
outer loop
vertex -0.8843487746531564 0.9755169943749473 1.0257192686877115 
vertex 0.14205868499479068 1.3090169943749475 1.025719268687711 
vertex 0.3712262747532407 1.1425169943749476 0.5673840891708104 
endloop
endfacet
facet normal -0.27639320225002145 0.8506508083520397 -0.44721359549995826 
outer loop
vertex -0.8843487746531564 0.9755169943749473 1.0257192686877115 
vertex 0.3712262747532407 1.1425169943749476 0.5673840891708104 
vertex 0.31696468548234547 0.9755169943749475 0.28326671918122925 
endloop
endfacet
facet normal -0.27639320225002134 0.8506508083520397 -0.44721359549995815 
outer loop
vertex -0.8843487746531564 0.9755169943749473 1.0257192686877115 
vertex 0.31696468548234547 0.9755169943749475 0.28326671918122925 
vertex -0.05383626386671941 0.7061143352480899 0.0 
endloop
endfacet
facet normal -0.27639320225002123 0.8506508083520399 -0.44721359549995804 
outer loop
vertex -0.8843487746531564 0.9755169943749473 1.0257192686877115 
vertex -0.05383626386671941 0.7061143352480899 0.0 
vertex -0.37148914030930064 0.6029026591268574 0.0 
endloop
endfacet
facet normal -0.27639320225002106 0.8506508083520399 -0.4472135954999579 
outer loop
vertex -0.8843487746531564 0.9755169943749473 1.0257192686877115 
vertex -0.37148914030930064 0.6029026591268574 0.0 
vertex -0.8298243198262014 0.6029026591268573 0.2832667191812291 
endloop
endfacet
facet normal -0.2763932022500222 0.8506508083520397 -0.44721359549995787 
outer loop
vertex -0.8843487746531564 0.9755169943749473 1.0257192686877115 
vertex -0.8298243198262014 0.6029026591268573 0.2832667191812291 
vertex -0.9718830048209922 0.7061143352480896 0.5673840891708107 
endloop
endfacet
facet normal 0.7236067977499788 0.5257311121191337 -0.44721359549995804 
outer loop
vertex 0.45859804507296015 0.5396143352480901 0.0 
vertex 0.31696468548234547 0.9755169943749475 0.28326671918122925 
vertex 0.3712262747532407 1.1425169943749476 0.5673840891708104 
endloop
endfacet
facet normal 0.7236067977499792 0.5257311121191336 -0.4472135954999578 
outer loop
vertex 0.45859804507296015 0.5396143352480901 0.0 
vertex 0.3712262747532407 1.1425169943749476 0.5673840891708104 
vertex 0.65449299393447 1.1425169943749476 1.0257192686877115 
endloop
endfacet
facet normal 0.7236067977499792 0.5257311121191335 -0.44721359549995776 
outer loop
vertex 0.45859804507296015 0.5396143352480901 0.0 
vertex 0.65449299393447 1.1425169943749476 1.0257192686877115 
vertex 0.884348774653156 0.9755169943749475 1.2013134601355022 
endloop
endfacet
facet normal 0.7236067977499794 0.5257311121191333 -0.4472135954999578 
outer loop
vertex 0.45859804507296015 0.5396143352480901 0.0 
vertex 0.884348774653156 0.9755169943749475 1.2013134601355022 
vertex 1.2010505945794412 0.5396143352480919 1.2013134601355036 
endloop
endfacet
facet normal 0.7236067977499787 0.5257311121191344 -0.4472135954999575 
outer loop
vertex 0.45859804507296015 0.5396143352480901 0.0 
vertex 1.2010505945794412 0.5396143352480919 1.2013134601355036 
vertex 1.288847690303338 0.2694026591268563 1.0257192686877108 
endloop
endfacet
facet normal 0.7236067977499789 0.5257311121191341 -0.4472135954999576 
outer loop
vertex 0.45859804507296015 0.5396143352480901 0.0 
vertex 1.288847690303338 0.2694026591268563 1.0257192686877108 
vertex 1.201313460135502 -1.709870395547696e-16 0.5673840891708103 
endloop
endfacet
facet normal 0.7236067977499788 0.5257311121191335 -0.44721359549995815 
outer loop
vertex 0.45859804507296015 0.5396143352480901 0.0 
vertex 1.201313460135502 -1.709870395547696e-16 0.5673840891708103 
vertex 1.0257192686877115 -8.536534358581457e-17 0.28326671918122936 
endloop
endfacet
facet normal 0.7236067977499789 0.5257311121191336 -0.44721359549995815 
outer loop
vertex 0.45859804507296015 0.5396143352480901 0.0 
vertex 1.0257192686877115 -8.536534358581457e-17 0.28326671918122936 
vertex 0.6549183193386463 0.2694026591268574 0.0 
endloop
endfacet
facet normal 0.27639320225002184 -0.8506508083520395 0.4472135954999581 
outer loop
vertex -0.3169646854823456 -0.9755169943749475 1.943766009641984 
vertex -0.37122627475324077 -1.1425169943749474 1.6596486396524033 
vertex -0.14205868499479213 -1.3090169943749472 1.2013134601355038 
endloop
endfacet
facet normal 0.2763932022500211 -0.8506508083520399 0.44721359549995815 
outer loop
vertex -0.3169646854823456 -0.9755169943749475 1.943766009641984 
vertex -0.14205868499479213 -1.3090169943749472 1.2013134601355038 
vertex 0.1420586849947909 -1.3090169943749475 1.0257192686877117 
endloop
endfacet
facet normal 0.27639320225002156 -0.8506508083520395 0.4472135954999582 
outer loop
vertex -0.3169646854823456 -0.9755169943749475 1.943766009641984 
vertex 0.1420586849947909 -1.3090169943749475 1.0257192686877117 
vertex 0.6544929939344698 -1.1425169943749478 1.0257192686877108 
endloop
endfacet
facet normal 0.2763932022500213 -0.8506508083520399 0.447213595499958 
outer loop
vertex -0.3169646854823456 -0.9755169943749475 1.943766009641984 
vertex 0.6544929939344698 -1.1425169943749478 1.0257192686877108 
vertex 0.8843487746531564 -0.9755169943749473 1.2013134601355018 
endloop
endfacet
facet normal 0.276393202250021 -0.8506508083520401 0.4472135954999576 
outer loop
vertex -0.3169646854823456 -0.9755169943749475 1.943766009641984 
vertex 0.8843487746531564 -0.9755169943749473 1.2013134601355018 
vertex 0.9718830048209925 -0.7061143352480901 1.6596486396524024 
endloop
endfacet
facet normal 0.276393202250021 -0.8506508083520397 0.44721359549995837 
outer loop
vertex -0.3169646854823456 -0.9755169943749475 1.943766009641984 
vertex 0.9718830048209925 -0.7061143352480901 1.6596486396524024 
vertex 0.8298243198262011 -0.6029026591268569 1.9437660096419853 
endloop
endfacet
facet normal 0.27639320225002123 -0.8506508083520401 0.4472135954999573 
outer loop
vertex -0.3169646854823456 -0.9755169943749475 1.943766009641984 
vertex 0.8298243198262011 -0.6029026591268569 1.9437660096419853 
vertex 0.3714891403093024 -0.602902659126857 2.2270327288232137 
endloop
endfacet
facet normal 0.27639320225002034 -0.8506508083520398 0.44721359549995876 
outer loop
vertex -0.3169646854823456 -0.9755169943749475 1.943766009641984 
vertex 0.3714891403093024 -0.602902659126857 2.2270327288232137 
vertex 0.05383626386671827 -0.7061143352480904 2.2270327288232132 
endloop
endfacet
facet normal -0.723606797749979 -0.5257311121191334 0.4472135954999581 
outer loop
vertex -0.6544929939344678 -1.142516994374949 1.2013134601355044 
vertex -0.37122627475324077 -1.1425169943749474 1.6596486396524033 
vertex -0.3169646854823456 -0.9755169943749475 1.943766009641984 
endloop
endfacet
facet normal -0.7236067977499792 -0.5257311121191331 0.44721359549995815 
outer loop
vertex -0.6544929939344678 -1.142516994374949 1.2013134601355044 
vertex -0.3169646854823456 -0.9755169943749475 1.943766009641984 
vertex -0.4585980450729591 -0.5396143352480911 2.2270327288232132 
endloop
endfacet
facet normal -0.7236067977499795 -0.5257311121191328 0.4472135954999579 
outer loop
vertex -0.6544929939344678 -1.142516994374949 1.2013134601355044 
vertex -0.4585980450729591 -0.5396143352480911 2.2270327288232132 
vertex -0.6549183193386492 -0.26940265912685285 2.227032728823213 
endloop
endfacet
facet normal -0.7236067977499787 -0.5257311121191335 0.4472135954999586 
outer loop
vertex -0.6544929939344678 -1.142516994374949 1.2013134601355044 
vertex -0.6549183193386492 -0.26940265912685285 2.227032728823213 
vertex -1.0257192686877104 4.815592369311639e-16 1.9437660096419855 
endloop
endfacet
facet normal -0.7236067977499786 -0.5257311121191335 0.4472135954999585 
outer loop
vertex -0.6544929939344678 -1.142516994374949 1.2013134601355044 
vertex -1.0257192686877104 4.815592369311639e-16 1.9437660096419855 
vertex -1.2013134601355018 1.8041124150158683e-17 1.6596486396524028 
endloop
endfacet
facet normal -0.7236067977499785 -0.5257311121191335 0.44721359549995876 
outer loop
vertex -0.6544929939344678 -1.142516994374949 1.2013134601355044 
vertex -1.2013134601355018 1.8041124150158683e-17 1.6596486396524028 
vertex -1.2888476903033377 -0.2694026591268581 1.201313460135502 
endloop
endfacet
facet normal -0.723606797749979 -0.5257311121191339 0.44721359549995743 
outer loop
vertex -0.6544929939344678 -1.142516994374949 1.2013134601355044 
vertex -1.2888476903033377 -0.2694026591268581 1.201313460135502 
vertex -1.201050594579442 -0.5396143352480908 1.0257192686877112 
endloop
endfacet
facet normal -0.723606797749979 -0.5257311121191338 0.4472135954999576 
outer loop
vertex -0.6544929939344678 -1.142516994374949 1.2013134601355044 
vertex -1.201050594579442 -0.5396143352480908 1.0257192686877112 
vertex -0.8843487746531572 -0.9755169943749465 1.025719268687711 
endloop
endfacet
facet normal -0.7236067977499796 0.525731112119133 0.44721359549995743 
outer loop
vertex -1.2888476903033381 0.2694026591268553 1.2013134601355033 
vertex -1.2013134601355018 1.8041124150158683e-17 1.6596486396524028 
vertex -1.0257192686877104 4.815592369311639e-16 1.9437660096419855 
endloop
endfacet
facet normal -0.7236067977499786 0.5257311121191346 0.44721359549995754 
outer loop
vertex -1.2888476903033381 0.2694026591268553 1.2013134601355033 
vertex -1.0257192686877104 4.815592369311639e-16 1.9437660096419855 
vertex -0.654918319338646 0.2694026591268579 2.2270327288232132 
endloop
endfacet
facet normal -0.7236067977499784 0.5257311121191348 0.44721359549995743 
outer loop
vertex -1.2888476903033381 0.2694026591268553 1.2013134601355033 
vertex -0.654918319338646 0.2694026591268579 2.2270327288232132 
vertex -0.45859804507295954 0.5396143352480904 2.227032728823213 
endloop
endfacet
facet normal -0.7236067977499789 0.5257311121191333 0.4472135954999582 
outer loop
vertex -1.2888476903033381 0.2694026591268553 1.2013134601355033 
vertex -0.45859804507295954 0.5396143352480904 2.227032728823213 
vertex -0.3169646854823452 0.9755169943749462 1.9437660096419855 
endloop
endfacet
facet normal -0.7236067977499789 0.5257311121191333 0.44721359549995837 
outer loop
vertex -1.2888476903033381 0.2694026591268553 1.2013134601355033 
vertex -0.3169646854823452 0.9755169943749462 1.9437660096419855 
vertex -0.3712262747532413 1.1425169943749476 1.6596486396524017 
endloop
endfacet
facet normal -0.7236067977499789 0.525731112119133 0.4472135954999587 
outer loop
vertex -1.2888476903033381 0.2694026591268553 1.2013134601355033 
vertex -0.3712262747532413 1.1425169943749476 1.6596486396524017 
vertex -0.6544929939344708 1.1425169943749471 1.201313460135502 
endloop
endfacet
facet normal -0.7236067977499793 0.5257311121191333 0.4472135954999579 
outer loop
vertex -1.2888476903033381 0.2694026591268553 1.2013134601355033 
vertex -0.6544929939344708 1.1425169943749471 1.201313460135502 
vertex -0.8843487746531564 0.9755169943749473 1.0257192686877115 
endloop
endfacet
facet normal -0.7236067977499786 0.525731112119133 0.4472135954999592 
outer loop
vertex -1.2888476903033381 0.2694026591268553 1.2013134601355033 
vertex -0.8843487746531564 0.9755169943749473 1.0257192686877115 
vertex -1.2010505945794423 0.5396143352480902 1.0257192686877112 
endloop
endfacet
facet normal 0.27639320225002045 0.8506508083520398 0.4472135954999584 
outer loop
vertex -0.3169646854823452 0.9755169943749462 1.9437660096419855 
vertex 0.05383626386671997 0.7061143352480895 2.2270327288232132 
vertex 0.371489140309303 0.6029026591268565 2.2270327288232137 
endloop
endfacet
facet normal 0.27639320225002095 0.8506508083520401 0.44721359549995787 
outer loop
vertex -0.3169646854823452 0.9755169943749462 1.9437660096419855 
vertex 0.371489140309303 0.6029026591268565 2.2270327288232137 
vertex 0.829824319826201 0.6029026591268568 1.9437660096419855 
endloop
endfacet
facet normal 0.27639320225002084 0.8506508083520398 0.4472135954999581 
outer loop
vertex -0.3169646854823452 0.9755169943749462 1.9437660096419855 
vertex 0.829824319826201 0.6029026591268568 1.9437660096419855 
vertex 0.9718830048209919 0.7061143352480899 1.659648639652403 
endloop
endfacet
facet normal 0.2763932022500209 0.8506508083520399 0.4472135954999582 
outer loop
vertex -0.3169646854823452 0.9755169943749462 1.9437660096419855 
vertex 0.9718830048209919 0.7061143352480899 1.659648639652403 
vertex 0.884348774653156 0.9755169943749475 1.2013134601355022 
endloop
endfacet
facet normal 0.27639320225002084 0.85065080835204 0.44721359549995804 
outer loop
vertex -0.3169646854823452 0.9755169943749462 1.9437660096419855 
vertex 0.884348774653156 0.9755169943749475 1.2013134601355022 
vertex 0.65449299393447 1.1425169943749476 1.0257192686877115 
endloop
endfacet
facet normal 0.2763932022500207 0.8506508083520401 0.44721359549995787 
outer loop
vertex -0.3169646854823452 0.9755169943749462 1.9437660096419855 
vertex 0.65449299393447 1.1425169943749476 1.0257192686877115 
vertex 0.14205868499479068 1.3090169943749475 1.025719268687711 
endloop
endfacet
facet normal 0.27639320225002123 0.8506508083520398 0.4472135954999581 
outer loop
vertex -0.3169646854823452 0.9755169943749462 1.9437660096419855 
vertex 0.14205868499479068 1.3090169943749475 1.025719268687711 
vertex -0.14205868499479218 1.3090169943749475 1.2013134601355027 
endloop
endfacet
facet normal 0.2763932022500194 0.8506508083520404 0.44721359549995787 
outer loop
vertex -0.3169646854823452 0.9755169943749462 1.9437660096419855 
vertex -0.14205868499479218 1.3090169943749475 1.2013134601355027 
vertex -0.3712262747532413 1.1425169943749476 1.6596486396524017 
endloop
endfacet
facet normal 0.8944271909999165 2.164747073353597e-15 0.44721359549995665 
outer loop
vertex 1.288847690303338 0.2694026591268563 1.0257192686877108 
vertex 1.2010505945794412 0.5396143352480919 1.2013134601355036 
vertex 0.9718830048209919 0.7061143352480899 1.659648639652403 
endloop
endfacet
facet normal 0.8944271909999161 8.51500620648563e-16 0.44721359549995726 
outer loop
vertex 1.288847690303338 0.2694026591268563 1.0257192686877108 
vertex 0.9718830048209919 0.7061143352480899 1.659648639652403 
vertex 0.829824319826201 0.6029026591268568 1.9437660096419855 
endloop
endfacet
facet normal 0.894427190999916 1.5056354088122646e-16 0.4472135954999575 
outer loop
vertex 1.288847690303338 0.2694026591268563 1.0257192686877108 
vertex 0.829824319826201 0.6029026591268568 1.9437660096419855 
vertex 0.6881909602355871 0.16699999999999954 2.2270327288232137 
endloop
endfacet
facet normal 0.8944271909999161 0.0 0.44721359549995754 
outer loop
vertex 1.288847690303338 0.2694026591268563 1.0257192686877108 
vertex 0.6881909602355871 0.16699999999999954 2.2270327288232137 
vertex 0.6881909602355871 -0.1670000000000001 2.2270327288232137 
endloop
endfacet
facet normal 0.8944271909999161 -1.150610332768225e-16 0.4472135954999575 
outer loop
vertex 1.288847690303338 0.2694026591268563 1.0257192686877108 
vertex 0.6881909602355871 -0.1670000000000001 2.2270327288232137 
vertex 0.8298243198262011 -0.6029026591268569 1.9437660096419853 
endloop
endfacet
facet normal 0.8944271909999159 3.623182878917525e-16 0.44721359549995787 
outer loop
vertex 1.288847690303338 0.2694026591268563 1.0257192686877108 
vertex 0.8298243198262011 -0.6029026591268569 1.9437660096419853 
vertex 0.9718830048209925 -0.7061143352480901 1.6596486396524024 
endloop
endfacet
facet normal 0.8944271909999162 -7.26812661596674e-17 0.4472135954999574 
outer loop
vertex 1.288847690303338 0.2694026591268563 1.0257192686877108 
vertex 0.9718830048209925 -0.7061143352480901 1.6596486396524024 
vertex 1.2010505945794425 -0.53961433524809 1.2013134601355018 
endloop
endfacet
facet normal 0.8944271909999157 1.8039558944613591e-16 0.44721359549995815 
outer loop
vertex 1.288847690303338 0.2694026591268563 1.0257192686877108 
vertex 1.2010505945794425 -0.53961433524809 1.2013134601355018 
vertex 1.2888476903033377 -0.26940265912685785 1.0257192686877115 
endloop
endfacet
facet normal -1.830048980580691e-15 -1.3296084127247222e-15 1.0 
outer loop
vertex 0.6881909602355871 0.16699999999999954 2.2270327288232137 
vertex 0.371489140309303 0.6029026591268565 2.2270327288232137 
vertex 0.05383626386671997 0.7061143352480895 2.2270327288232132 
endloop
endfacet
facet normal -8.205590928998899e-16 -1.417812500644888e-16 1.0 
outer loop
vertex 0.6881909602355871 0.16699999999999954 2.2270327288232137 
vertex 0.05383626386671997 0.7061143352480895 2.2270327288232132 
vertex -0.45859804507295954 0.5396143352480904 2.227032728823213 
endloop
endfacet
facet normal -1.945608823366397e-16 1.7848431368871883e-15 1.0 
outer loop
vertex 0.6881909602355871 0.16699999999999954 2.2270327288232137 
vertex -0.45859804507295954 0.5396143352480904 2.227032728823213 
vertex -0.654918319338646 0.2694026591268579 2.2270327288232132 
endloop
endfacet
facet normal -3.934829462546671e-16 -8.242108880613354e-16 1.0 
outer loop
vertex 0.6881909602355871 0.16699999999999954 2.2270327288232137 
vertex -0.654918319338646 0.2694026591268579 2.2270327288232132 
vertex -0.6549183193386492 -0.26940265912685285 2.227032728823213 
endloop
endfacet
facet normal -9.670070054885653e-16 9.409146672167823e-16 1.0 
outer loop
vertex 0.6881909602355871 0.16699999999999954 2.2270327288232137 
vertex -0.6549183193386492 -0.26940265912685285 2.227032728823213 
vertex -0.4585980450729591 -0.5396143352480911 2.2270327288232132 
endloop
endfacet
facet normal -1.337004243025292e-16 -4.114875947892401e-16 1.0 
outer loop
vertex 0.6881909602355871 0.16699999999999954 2.2270327288232137 
vertex -0.4585980450729591 -0.5396143352480911 2.2270327288232132 
vertex 0.05383626386671827 -0.7061143352480904 2.2270327288232132 
endloop
endfacet
facet normal -1.6137171497489139e-15 6.638074984067949e-16 1.0 
outer loop
vertex 0.6881909602355871 0.16699999999999954 2.2270327288232137 
vertex 0.05383626386671827 -0.7061143352480904 2.2270327288232132 
vertex 0.3714891403093024 -0.602902659126857 2.2270327288232137 
endloop
endfacet
facet normal 0.0 0.0 1.0 
outer loop
vertex 0.6881909602355871 0.16699999999999954 2.2270327288232137 
vertex 0.3714891403093024 -0.602902659126857 2.2270327288232137 
vertex 0.6881909602355871 -0.1670000000000001 2.2270327288232137 
endloop
endfacet
facet normal 0.6070619982066863 2.759916023759184e-16 -0.7946544722917662 
outer loop
vertex 0.6549183193386463 0.2694026591268574 0.0 
vertex 1.0257192686877115 -8.536534358581457e-17 0.28326671918122936 
vertex 0.6549183193386465 -0.2694026591268573 0.0 
endloop
endfacet
facet normal 0.18759247408507995 -0.5773502691896256 -0.7946544722917662 
outer loop
vertex 0.4585980450729603 -0.53961433524809 0.0 
vertex 0.3169646854823456 -0.975516994374947 0.28326671918122875 
vertex -0.0538362638667193 -0.7061143352480901 0.0 
endloop
endfacet
facet normal -0.4911234731884229 -0.35682208977309005 -0.7946544722917662 
outer loop
vertex -0.6881909602355867 -0.1670000000000003 0.0 
vertex -0.37148914030930047 -0.6029026591268577 0.0 
vertex -0.8298243198262012 -0.6029026591268576 0.28326671918122914 
endloop
endfacet
facet normal -0.4911234731884228 0.35682208977309 -0.7946544722917663 
outer loop
vertex -0.8298243198262014 0.6029026591268573 0.2832667191812291 
vertex -0.37148914030930064 0.6029026591268574 0.0 
vertex -0.6881909602355868 0.16700000000000007 0.0 
endloop
endfacet
facet normal 0.1875924740850797 0.5773502691896257 -0.7946544722917662 
outer loop
vertex -0.05383626386671941 0.7061143352480899 0.0 
vertex 0.31696468548234547 0.9755169943749475 0.28326671918122925 
vertex 0.45859804507296015 0.5396143352480901 0.0 
endloop
endfacet
facet normal 0.30353099910334264 -0.9341723589627158 -0.1875924740850808 
outer loop
vertex 0.37122627475324105 -1.1425169943749471 0.5673840891708105 
vertex 0.6544929939344698 -1.1425169943749478 1.0257192686877108 
vertex 0.1420586849947909 -1.3090169943749475 1.0257192686877117 
endloop
endfacet
facet normal 0.982246946376846 -6.367129534733256e-16 -0.18759247408507995 
outer loop
vertex 1.201313460135502 -1.709870395547696e-16 0.5673840891708103 
vertex 1.288847690303338 0.2694026591268563 1.0257192686877108 
vertex 1.2888476903033377 -0.26940265912685785 1.0257192686877115 
endloop
endfacet
facet normal 0.7946544722917661 -0.577350269189626 0.18759247408507906 
outer loop
vertex 0.8843487746531564 -0.9755169943749473 1.2013134601355018 
vertex 1.2010505945794425 -0.53961433524809 1.2013134601355018 
vertex 0.9718830048209925 -0.7061143352480901 1.6596486396524024 
endloop
endfacet
facet normal -0.7946544722917661 -0.5773502691896257 -0.1875924740850808 
outer loop
vertex -0.9718830048209918 -0.70611433524809 0.5673840891708105 
vertex -0.8843487746531572 -0.9755169943749465 1.025719268687711 
vertex -1.201050594579442 -0.5396143352480908 1.0257192686877112 
endloop
endfacet
facet normal -0.3035309991033422 -0.9341723589627158 0.1875924740850818 
outer loop
vertex -0.37122627475324077 -1.1425169943749474 1.6596486396524033 
vertex -0.6544929939344678 -1.142516994374949 1.2013134601355044 
vertex -0.14205868499479213 -1.3090169943749472 1.2013134601355038 
endloop
endfacet
facet normal -0.7946544722917661 0.5773502691896257 -0.18759247408508015 
outer loop
vertex -1.2010505945794423 0.5396143352480902 1.0257192686877112 
vertex -0.8843487746531564 0.9755169943749473 1.0257192686877115 
vertex -0.9718830048209922 0.7061143352480896 0.5673840891708107 
endloop
endfacet
facet normal -0.9822469463768457 -1.2734259069466551e-15 0.1875924740850809 
outer loop
vertex -1.2888476903033381 0.2694026591268553 1.2013134601355033 
vertex -1.2888476903033377 -0.2694026591268581 1.201313460135502 
vertex -1.2013134601355018 1.8041124150158683e-17 1.6596486396524028 
endloop
endfacet
facet normal 0.3035309991033432 0.9341723589627157 -0.18759247408507984 
outer loop
vertex 0.65449299393447 1.1425169943749476 1.0257192686877115 
vertex 0.3712262747532407 1.1425169943749476 0.5673840891708104 
vertex 0.14205868499479068 1.3090169943749475 1.025719268687711 
endloop
endfacet
facet normal -0.3035309991033444 0.9341723589627152 0.18759247408508037 
outer loop
vertex -0.14205868499479218 1.3090169943749475 1.2013134601355027 
vertex -0.6544929939344708 1.1425169943749471 1.201313460135502 
vertex -0.3712262747532413 1.1425169943749476 1.6596486396524017 
endloop
endfacet
facet normal 0.7946544722917654 0.5773502691896265 0.18759247408508042 
outer loop
vertex 0.9718830048209919 0.7061143352480899 1.659648639652403 
vertex 1.2010505945794412 0.5396143352480919 1.2013134601355036 
vertex 0.884348774653156 0.9755169943749475 1.2013134601355022 
endloop
endfacet
facet normal 0.49112347318842364 -0.35682208977308927 0.794654472291766 
outer loop
vertex 0.6881909602355871 -0.1670000000000001 2.2270327288232137 
vertex 0.3714891403093024 -0.602902659126857 2.2270327288232137 
vertex 0.8298243198262011 -0.6029026591268569 1.9437660096419853 
endloop
endfacet
facet normal -0.18759247408508017 -0.5773502691896264 0.7946544722917657 
outer loop
vertex 0.05383626386671827 -0.7061143352480904 2.2270327288232132 
vertex -0.4585980450729591 -0.5396143352480911 2.2270327288232132 
vertex -0.3169646854823456 -0.9755169943749475 1.943766009641984 
endloop
endfacet
facet normal -0.607061998206686 2.9725536694046067e-15 0.7946544722917662 
outer loop
vertex -1.0257192686877104 4.815592369311639e-16 1.9437660096419855 
vertex -0.6549183193386492 -0.26940265912685285 2.227032728823213 
vertex -0.654918319338646 0.2694026591268579 2.2270327288232132 
endloop
endfacet
facet normal -0.18759247408507929 0.5773502691896246 0.7946544722917671 
outer loop
vertex 0.05383626386671997 0.7061143352480895 2.2270327288232132 
vertex -0.3169646854823452 0.9755169943749462 1.9437660096419855 
vertex -0.45859804507295954 0.5396143352480904 2.227032728823213 
endloop
endfacet
facet normal 0.4911234731884239 0.3568220897730887 0.7946544722917662 
outer loop
vertex 0.371489140309303 0.6029026591268565 2.2270327288232137 
vertex 0.6881909602355871 0.16699999999999954 2.2270327288232137 
vertex 0.829824319826201 0.6029026591268568 1.9437660096419855 
endloop
endfacet
endsolid unit-truncated-dodecahedron
