solid test
facet normal -0.0 0.0 -1.0 
outer loop
vertex -4.4408920985006264e-17 -2.2204460492503132e-17 -0.867399 
vertex 0.8284937993205348 -0.19288551588287908 -0.867399 
vertex 0.07257363694494803 -0.8475493289305124 -0.867399 
endloop
endfacet
facet normal 0.0 0.0 -1.0 
outer loop
vertex -4.4408920985006264e-17 -2.2204460492503132e-17 -0.867399 
vertex 0.07257363694494803 -0.8475493289305124 -0.867399 
vertex -0.7836408250013618 -0.3309287765383423 -0.867399 
endloop
endfacet
facet normal 0.0 0.0 -1.0 
outer loop
vertex -4.4408920985006264e-17 -2.2204460492503132e-17 -0.867399 
vertex -0.7836408250013618 -0.3309287765383423 -0.867399 
vertex -0.5568903017677981 0.6430240971743981 -0.867399 
endloop
endfacet
facet normal 0.0 0.0 -1.0 
outer loop
vertex -4.4408920985006264e-17 -2.2204460492503132e-17 -0.867399 
vertex -0.5568903017677981 0.6430240971743981 -0.867399 
vertex 0.43946369050367684 0.7283395241773355 -0.867399 
endloop
endfacet
facet normal 0.0 -0.0 -1.0 
outer loop
vertex -4.4408920985006264e-17 -2.2204460492503132e-17 -0.867399 
vertex 0.43946369050367684 0.7283395241773355 -0.867399 
vertex 0.8284937993205348 -0.19288551588287908 -0.867399 
endloop
endfacet
facet normal 0.7236067977499792 -0.5257311121191334 -0.44721359549995804 
outer loop
vertex 1.4334038234556155 -1.0414288375459928 0.22762408191198275 
vertex 0.9614842158352798 -1.7461877576526588 0.2925359161453003 
vertex 0.9553648550644931 -1.1031636604782602 -0.47328557994684206 
endloop
endfacet
facet normal 0.7236067977499789 -0.5257311121191336 -0.44721359549995787 
outer loop
vertex 1.4334038234556155 -1.0414288375459928 0.22762408191198275 
vertex 0.9553648550644931 -1.1031636604782602 -0.47328557994684206 
vertex 1.6098791006633009 -0.37482413630092487 -0.2704737463932844 
endloop
endfacet
facet normal 0.7236067977499789 -0.5257311121191336 -0.44721359549995804 
outer loop
vertex 1.4334038234556155 -1.0414288375459928 0.22762408191198275 
vertex 1.6098791006633009 -0.37482413630092487 -0.2704737463932844 
vertex 2.0205105113351474 -0.5677096521838039 0.620692356155643 
endloop
endfacet
facet normal 0.7236067977499789 -0.5257311121191337 -0.4472135954999579 
outer loop
vertex 1.4334038234556155 -1.0414288375459928 0.22762408191198275 
vertex 2.0205105113351474 -0.5677096521838039 0.620692356155643 
vertex 1.6197804343798567 -1.4152589811143161 0.9686514635990969 
endloop
endfacet
facet normal 0.7236067977499793 -0.5257311121191335 -0.4472135954999578 
outer loop
vertex 1.4334038234556155 -1.0414288375459928 0.22762408191198275 
vertex 1.6197804343798567 -1.4152589811143161 0.9686514635990969 
vertex 0.9614842158352798 -1.7461877576526588 0.2925359161453003 
endloop
endfacet
facet normal -0.2763932022500213 -0.85065080835204 -0.44721359549995765 
outer loop
vertex -0.547511540955991 -1.6850672560137092 0.22762408191198288 
vertex -1.3636082830740113 -1.4540275212692322 0.29253591614530045 
vertex -0.7539470117943767 -1.2495022895131183 -0.47328557994684195 
endloop
endfacet
facet normal -0.27639320225002084 -0.85065080835204 -0.4472135954999577 
outer loop
vertex -0.547511540955991 -1.6850672560137092 0.22762408191198288 
vertex -0.7539470117943767 -1.2495022895131183 -0.47328557994684195 
vertex 0.14100106370031928 -1.6469130371521112 -0.27047374639328436 
endloop
endfacet
facet normal -0.27639320225002084 -0.8506508083520401 -0.4472135954999577 
outer loop
vertex -0.547511540955991 -1.6850672560137092 0.22762408191198288 
vertex 0.14100106370031928 -1.6469130371521112 -0.27047374639328436 
vertex 0.08444812124271345 -2.09705161844363 0.620692356155643 
endloop
endfacet
facet normal -0.276393202250021 -0.8506508083520402 -0.44721359549995743 
outer loop
vertex -0.547511540955991 -1.6850672560137092 0.22762408191198288 
vertex 0.08444812124271345 -2.09705161844363 0.620692356155643 
vertex -0.8454515948545996 -1.9778418136904534 0.9686514635990973 
endloop
endfacet
facet normal -0.27639320225002134 -0.85065080835204 -0.44721359549995754 
outer loop
vertex -0.547511540955991 -1.6850672560137092 0.22762408191198288 
vertex -0.8454515948545996 -1.9778418136904534 0.9686514635990973 
vertex -1.3636082830740113 -1.4540275212692322 0.29253591614530045 
endloop
endfacet
facet normal -0.894427190999916 -1.6132484859218383e-16 -0.4472135954999578 
outer loop
vertex -1.771784564999248 -3.4416913763379854e-16 0.22762408191198275 
vertex -1.804240482115907 0.847549328930512 0.2925359161453004 
vertex -1.4213297340698359 0.33092877653834185 -0.4732855799468421 
endloop
endfacet
facet normal -0.894427190999916 -1.0082803037011489e-16 -0.4472135954999577 
outer loop
vertex -1.771784564999248 -3.4416913763379854e-16 0.22762408191198275 
vertex -1.4213297340698359 0.33092877653834185 -0.4732855799468421 
vertex -1.5227356508466146 -0.6430240971743985 -0.2704737463932844 
endloop
endfacet
facet normal -0.8944271909999161 -1.6132484859218388e-16 -0.44721359549995765 
outer loop
vertex -1.771784564999248 -3.4416913763379854e-16 0.22762408191198275 
vertex -1.5227356508466146 -0.6430240971743985 -0.2704737463932844 
vertex -1.968318702121078 -0.7283395241773356 0.620692356155643 
endloop
endfacet
facet normal -0.8944271909999161 -1.8149045466620688e-16 -0.44721359549995776 
outer loop
vertex -1.771784564999248 -3.4416913763379854e-16 0.22762408191198275 
vertex -1.968318702121078 -0.7283395241773356 0.620692356155643 
vertex -2.142298255842805 0.19288551588287856 0.9686514635990968 
endloop
endfacet
facet normal -0.894427190999916 -2.4198727288827577e-16 -0.4472135954999578 
outer loop
vertex -1.771784564999248 -3.4416913763379854e-16 0.22762408191198275 
vertex -2.142298255842805 0.19288551588287856 0.9686514635990968 
vertex -1.804240482115907 0.847549328930512 0.2925359161453004 
endloop
endfacet
facet normal -0.2763932022500211 0.85065080835204 -0.44721359549995754 
outer loop
vertex -0.5475115409559917 1.6850672560137088 0.22762408191198263 
vertex 0.2485263412478842 1.9778418136904532 0.2925359161453003 
vertex -0.12448307308163137 1.4540275212692322 -0.47328557994684217 
endloop
endfacet
facet normal -0.276393202250021 0.8506508083520401 -0.44721359549995754 
outer loop
vertex -0.5475115409559917 1.6850672560137088 0.22762408191198263 
vertex -0.12448307308163137 1.4540275212692322 -0.47328557994684217 
vertex -1.08210345180472 1.249502289513118 -0.2704737463932845 
endloop
endfacet
facet normal -0.27639320225002095 0.8506508083520401 -0.4472135954999577 
outer loop
vertex -0.5475115409559917 1.6850672560137088 0.22762408191198263 
vertex -1.08210345180472 1.249502289513118 -0.2704737463932845 
vertex -1.3009359798456197 1.646913037152111 0.6206923561556429 
endloop
endfacet
facet normal -0.2763932022500209 0.8506508083520401 -0.4472135954999576 
outer loop
vertex -0.5475115409559917 1.6850672560137088 0.22762408191198263 
vertex -1.3009359798456197 1.646913037152111 0.6206923561556429 
vertex -0.4785615412958719 2.0970516184436296 0.9686514635990966 
endloop
endfacet
facet normal -0.2763932022500211 0.8506508083520401 -0.44721359549995754 
outer loop
vertex -0.5475115409559917 1.6850672560137088 0.22762408191198263 
vertex -0.4785615412958719 2.0970516184436296 0.9686514635990966 
vertex 0.2485263412478842 1.9778418136904532 0.2925359161453003 
endloop
endfacet
facet normal 0.7236067977499788 0.5257311121191336 -0.44721359549995804 
outer loop
vertex 1.4334038234556155 1.0414288375459928 0.22762408191198272 
vertex 1.9578382081067547 0.374824136300925 0.2925359161453003 
vertex 1.3443949638813506 0.567709652183804 -0.4732855799468421 
endloop
endfacet
facet normal 0.7236067977499788 0.5257311121191336 -0.447213595499958 
outer loop
vertex 1.4334038234556155 1.0414288375459928 0.22762408191198272 
vertex 1.3443949638813506 0.567709652183804 -0.4732855799468421 
vertex 0.8539589382877139 1.4152589811143166 -0.2704737463932845 
endloop
endfacet
facet normal 0.7236067977499789 0.5257311121191337 -0.4472135954999579 
outer loop
vertex 1.4334038234556155 1.0414288375459928 0.22762408191198272 
vertex 0.8539589382877139 1.4152589811143166 -0.2704737463932845 
vertex 1.164296049388837 1.7461877576526588 0.620692356155643 
endloop
endfacet
facet normal 0.7236067977499793 0.5257311121191336 -0.44721359549995743 
outer loop
vertex 1.4334038234556155 1.0414288375459928 0.22762408191198272 
vertex 1.164296049388837 1.7461877576526588 0.620692356155643 
vertex 1.8465309576134197 1.1031636604782604 0.9686514635990969 
endloop
endfacet
facet normal 0.7236067977499792 0.5257311121191339 -0.4472135954999573 
outer loop
vertex 1.4334038234556155 1.0414288375459928 0.22762408191198272 
vertex 1.8465309576134197 1.1031636604782604 0.9686514635990969 
vertex 1.9578382081067547 0.374824136300925 0.2925359161453003 
endloop
endfacet
facet normal 0.276393202250021 -0.85065080835204 0.44721359549995787 
outer loop
vertex 0.5475115409559909 -1.6850672560137088 1.9994086469112315 
vertex 0.8454515948546002 -1.9778418136904532 1.258381265224117 
vertex 1.3636082830740122 -1.454027521269232 1.9344968126779136 
endloop
endfacet
facet normal 0.27639320225002095 -0.85065080835204 0.44721359549995787 
outer loop
vertex 0.5475115409559909 -1.6850672560137088 1.9994086469112315 
vertex 1.3636082830740122 -1.454027521269232 1.9344968126779136 
vertex 0.7539470117943756 -1.249502289513118 2.7003183087700564 
endloop
endfacet
facet normal 0.27639320225002106 -0.8506508083520399 0.44721359549995776 
outer loop
vertex 0.5475115409559909 -1.6850672560137088 1.9994086469112315 
vertex 0.7539470117943756 -1.249502289513118 2.7003183087700564 
vertex -0.14100106370032087 -1.6469130371521117 2.497506475216498 
endloop
endfacet
facet normal 0.276393202250021 -0.8506508083520401 0.44721359549995776 
outer loop
vertex 0.5475115409559909 -1.6850672560137088 1.9994086469112315 
vertex -0.14100106370032087 -1.6469130371521117 2.497506475216498 
vertex -0.08444812124271296 -2.0970516184436296 1.6063403726675713 
endloop
endfacet
facet normal 0.27639320225002095 -0.8506508083520401 0.44721359549995787 
outer loop
vertex 0.5475115409559909 -1.6850672560137088 1.9994086469112315 
vertex -0.08444812124271296 -2.0970516184436296 1.6063403726675713 
vertex 0.8454515948546002 -1.9778418136904532 1.258381265224117 
endloop
endfacet
facet normal -0.7236067977499794 -0.5257311121191336 0.44721359549995715 
outer loop
vertex -1.4334038234556157 -1.041428837545994 1.9994086469112298 
vertex -1.6197804343798563 -1.4152589811143172 1.2583812652241153 
vertex -0.9614842158352799 -1.7461877576526594 1.9344968126779127 
endloop
endfacet
facet normal -0.7236067977499799 -0.5257311121191338 0.4472135954999561 
outer loop
vertex -1.4334038234556157 -1.041428837545994 1.9994086469112298 
vertex -0.9614842158352799 -1.7461877576526594 1.9344968126779127 
vertex -0.9553648550644952 -1.1031636604782618 2.7003183087700546 
endloop
endfacet
facet normal -0.7236067977499806 -0.5257311121191324 0.4472135954999569 
outer loop
vertex -1.4334038234556157 -1.041428837545994 1.9994086469112298 
vertex -0.9553648550644952 -1.1031636604782618 2.7003183087700546 
vertex -1.609879100663301 -0.3748241363009254 2.4975064752164964 
endloop
endfacet
facet normal -0.7236067977499792 -0.525731112119133 0.4472135954999582 
outer loop
vertex -1.4334038234556157 -1.041428837545994 1.9994086469112298 
vertex -1.609879100663301 -0.3748241363009254 2.4975064752164964 
vertex -2.020510511335147 -0.5677096521838052 1.6063403726675693 
endloop
endfacet
facet normal -0.7236067977499793 -0.5257311121191338 0.4472135954999572 
outer loop
vertex -1.4334038234556157 -1.041428837545994 1.9994086469112298 
vertex -2.020510511335147 -0.5677096521838052 1.6063403726675693 
vertex -1.6197804343798563 -1.4152589811143172 1.2583812652241153 
endloop
endfacet
facet normal -0.7236067977499789 0.5257311121191335 0.44721359549995804 
outer loop
vertex -1.4334038234556155 1.0414288375459926 1.9994086469112307 
vertex -1.8465309576134206 1.1031636604782598 1.2583812652241169 
vertex -1.9578382081067547 0.3748241363009243 1.9344968126779132 
endloop
endfacet
facet normal -0.723606797749979 0.5257311121191336 0.44721359549995765 
outer loop
vertex -1.4334038234556155 1.0414288375459926 1.9994086469112307 
vertex -1.9578382081067547 0.3748241363009243 1.9344968126779132 
vertex -1.3443949638813506 0.5677096521838043 2.7003183087700555 
endloop
endfacet
facet normal -0.7236067977499785 0.5257311121191343 0.447213595499958 
outer loop
vertex -1.4334038234556155 1.0414288375459926 1.9994086469112307 
vertex -1.3443949638813506 0.5677096521838043 2.7003183087700555 
vertex -0.853958938287714 1.4152589811143161 2.497506475216497 
endloop
endfacet
facet normal -0.7236067977499786 0.5257311121191335 0.44721359549995865 
outer loop
vertex -1.4334038234556155 1.0414288375459926 1.9994086469112307 
vertex -0.853958938287714 1.4152589811143161 2.497506475216497 
vertex -1.164296049388838 1.7461877576526579 1.6063403726675705 
endloop
endfacet
facet normal -0.723606797749979 0.5257311121191334 0.4472135954999581 
outer loop
vertex -1.4334038234556155 1.0414288375459926 1.9994086469112307 
vertex -1.164296049388838 1.7461877576526579 1.6063403726675705 
vertex -1.8465309576134206 1.1031636604782598 1.2583812652241169 
endloop
endfacet
facet normal 0.2763932022500207 0.8506508083520401 0.44721359549995754 
outer loop
vertex 0.5475115409559909 1.6850672560137092 1.9994086469112307 
vertex 0.4785615412958707 2.09705161844363 1.2583812652241169 
vertex -0.2485263412478854 1.9778418136904532 1.9344968126779132 
endloop
endfacet
facet normal 0.27639320225002073 0.8506508083520402 0.4472135954999577 
outer loop
vertex 0.5475115409559909 1.6850672560137092 1.9994086469112307 
vertex -0.2485263412478854 1.9778418136904532 1.9344968126779132 
vertex 0.12448307308163106 1.4540275212692324 2.700318308770055 
endloop
endfacet
facet normal 0.27639320225002145 0.8506508083520398 0.44721359549995804 
outer loop
vertex 0.5475115409559909 1.6850672560137092 1.9994086469112307 
vertex 0.12448307308163106 1.4540275212692324 2.700318308770055 
vertex 1.082103451804719 1.2495022895131176 2.497506475216498 
endloop
endfacet
facet normal 0.2763932022500213 0.8506508083520397 0.44721359549995815 
outer loop
vertex 0.5475115409559909 1.6850672560137092 1.9994086469112307 
vertex 1.082103451804719 1.2495022895131176 2.497506475216498 
vertex 1.3009359798456186 1.6469130371521112 1.606340372667571 
endloop
endfacet
facet normal 0.27639320225002095 0.8506508083520402 0.4472135954999576 
outer loop
vertex 0.5475115409559909 1.6850672560137092 1.9994086469112307 
vertex 1.3009359798456186 1.6469130371521112 1.606340372667571 
vertex 0.4785615412958707 2.09705161844363 1.2583812652241169 
endloop
endfacet
facet normal 0.894427190999916 5.646369700726432e-16 0.44721359549995776 
outer loop
vertex 1.771784564999248 4.2188474935755947e-16 1.999408646911231 
vertex 2.142298255842805 0.19288551588287978 1.2583812652241166 
vertex 1.8042404821159064 0.8475493289305128 1.9344968126779134 
endloop
endfacet
facet normal 0.8944271909999161 5.646369700726437e-16 0.4472135954999577 
outer loop
vertex 1.771784564999248 4.2188474935755947e-16 1.999408646911231 
vertex 1.8042404821159064 0.8475493289305128 1.9344968126779134 
vertex 1.4213297340698359 0.3309287765383421 2.7003183087700555 
endloop
endfacet
facet normal 0.8944271909999157 -4.436433336285056e-16 0.44721359549995804 
outer loop
vertex 1.771784564999248 4.2188474935755947e-16 1.999408646911231 
vertex 1.4213297340698359 0.3309287765383421 2.7003183087700555 
vertex 1.5227356508466137 -0.6430240971743978 2.497506475216499 
endloop
endfacet
facet normal 0.8944271909999155 -8.066242429609183e-17 0.4472135954999585 
outer loop
vertex 1.771784564999248 4.2188474935755947e-16 1.999408646911231 
vertex 1.5227356508466137 -0.6430240971743978 2.497506475216499 
vertex 1.9683187021210784 -0.7283395241773347 1.606340372667571 
endloop
endfacet
facet normal 0.894427190999916 4.2347772755448253e-16 0.4472135954999578 
outer loop
vertex 1.771784564999248 4.2188474935755947e-16 1.999408646911231 
vertex 1.9683187021210784 -0.7283395241773347 1.606340372667571 
vertex 2.142298255842805 0.19288551588287978 1.2583812652241166 
endloop
endfacet
facet normal -6.713919752382108e-16 5.814582709075056e-16 1.0 
outer loop
vertex -8.881784197001252e-16 2.4424906541753446e-16 3.094431728823214 
vertex -0.8284937993205351 -0.19288551588287822 3.0944317288232135 
vertex -0.07257363694494998 -0.8475493289305127 3.0944317288232144 
endloop
endfacet
facet normal -3.3337492957710935e-16 5.525146737437065e-16 1.0 
outer loop
vertex -8.881784197001252e-16 2.4424906541753446e-16 3.094431728823214 
vertex -0.07257363694494998 -0.8475493289305127 3.0944317288232144 
vertex 0.7836408250013602 -0.3309287765383418 3.0944317288232144 
endloop
endfacet
facet normal -2.0139492139176332e-16 8.650439242365779e-16 1.0 
outer loop
vertex -8.881784197001252e-16 2.4424906541753446e-16 3.094431728823214 
vertex 0.7836408250013602 -0.3309287765383418 3.0944317288232144 
vertex 0.5568903017677974 0.643024097174398 3.0944317288232135 
endloop
endfacet
facet normal 5.505399337530586e-17 6.429466277896545e-16 1.0 
outer loop
vertex -8.881784197001252e-16 2.4424906541753446e-16 3.094431728823214 
vertex 0.5568903017677974 0.643024097174398 3.0944317288232135 
vertex -0.43946369050367695 0.7283395241773358 3.0944317288232135 
endloop
endfacet
facet normal -5.944659604281707e-16 2.510408936107221e-16 1.0 
outer loop
vertex -8.881784197001252e-16 2.4424906541753446e-16 3.094431728823214 
vertex -0.43946369050367695 0.7283395241773358 3.0944317288232135 
vertex -0.8284937993205351 -0.19288551588287822 3.0944317288232135 
endloop
endfacet
facet normal 0.6070619982066863 0.0 -0.7946544722917661 
outer loop
vertex 1.2609226212883955 1.850371707708594e-17 -0.5370527754467088 
vertex 0.8284937993205348 -0.19288551588287908 -0.867399 
vertex 1.3443949638813506 0.567709652183804 -0.4732855799468421 
endloop
endfacet
facet normal 0.6070619982066862 7.211222503044115e-17 -0.794654472291766 
outer loop
vertex 1.2609226212883955 1.850371707708594e-17 -0.5370527754467088 
vertex 1.3443949638813506 0.567709652183804 -0.4732855799468421 
vertex 1.6098791006633009 -0.37482413630092487 -0.2704737463932844 
endloop
endfacet
facet normal 0.6070619982066862 -9.614963337392153e-17 -0.7946544722917662 
outer loop
vertex 1.2609226212883955 1.850371707708594e-17 -0.5370527754467088 
vertex 1.6098791006633009 -0.37482413630092487 -0.2704737463932844 
vertex 0.8284937993205348 -0.19288551588287908 -0.867399 
endloop
endfacet
facet normal 0.18759247408508 -0.5773502691896257 -0.7946544722917661 
outer loop
vertex 0.3896465185699201 -1.1992086755202946 -0.5370527754467088 
vertex 0.07257363694494803 -0.8475493289305124 -0.867399 
vertex 0.9553648550644931 -1.1031636604782602 -0.47328557994684206 
endloop
endfacet
facet normal 0.18759247408507995 -0.5773502691896257 -0.7946544722917661 
outer loop
vertex 0.3896465185699201 -1.1992086755202946 -0.5370527754467088 
vertex 0.9553648550644931 -1.1031636604782602 -0.47328557994684206 
vertex 0.14100106370031928 -1.6469130371521112 -0.27047374639328436 
endloop
endfacet
facet normal 0.18759247408507995 -0.5773502691896257 -0.794654472291766 
outer loop
vertex 0.3896465185699201 -1.1992086755202946 -0.5370527754467088 
vertex 0.14100106370031928 -1.6469130371521112 -0.27047374639328436 
vertex 0.07257363694494803 -0.8475493289305124 -0.867399 
endloop
endfacet
facet normal -0.4911234731884227 -0.3568220897730901 -0.7946544722917661 
outer loop
vertex -1.0201078292141177 -0.7411517210752864 -0.5370527754467088 
vertex -0.7836408250013618 -0.3309287765383423 -0.867399 
vertex -0.7539470117943767 -1.2495022895131183 -0.47328557994684195 
endloop
endfacet
facet normal -0.491123473188423 -0.3568220897730902 -0.794654472291766 
outer loop
vertex -1.0201078292141177 -0.7411517210752864 -0.5370527754467088 
vertex -0.7539470117943767 -1.2495022895131183 -0.47328557994684195 
vertex -1.5227356508466146 -0.6430240971743985 -0.2704737463932844 
endloop
endfacet
facet normal -0.4911234731884229 -0.35682208977308993 -0.7946544722917662 
outer loop
vertex -1.0201078292141177 -0.7411517210752864 -0.5370527754467088 
vertex -1.5227356508466146 -0.6430240971743985 -0.2704737463932844 
vertex -0.7836408250013618 -0.3309287765383423 -0.867399 
endloop
endfacet
facet normal -0.491123473188423 0.3568220897730899 -0.7946544722917661 
outer loop
vertex -1.020107829214118 0.741151721075286 -0.5370527754467088 
vertex -0.5568903017677981 0.6430240971743981 -0.867399 
vertex -1.4213297340698359 0.33092877653834185 -0.4732855799468421 
endloop
endfacet
facet normal -0.4911234731884229 0.35682208977308966 -0.7946544722917662 
outer loop
vertex -1.020107829214118 0.741151721075286 -0.5370527754467088 
vertex -1.4213297340698359 0.33092877653834185 -0.4732855799468421 
vertex -1.08210345180472 1.249502289513118 -0.2704737463932845 
endloop
endfacet
facet normal -0.4911234731884231 0.35682208977308955 -0.7946544722917661 
outer loop
vertex -1.020107829214118 0.741151721075286 -0.5370527754467088 
vertex -1.08210345180472 1.249502289513118 -0.2704737463932845 
vertex -0.5568903017677981 0.6430240971743981 -0.867399 
endloop
endfacet
facet normal 0.1875924740850802 0.5773502691896258 -0.794654472291766 
outer loop
vertex 0.3896465185699198 1.1992086755202946 -0.5370527754467088 
vertex 0.43946369050367684 0.7283395241773355 -0.867399 
vertex -0.12448307308163137 1.4540275212692322 -0.47328557994684217 
endloop
endfacet
facet normal 0.18759247408507984 0.5773502691896254 -0.7946544722917664 
outer loop
vertex 0.3896465185699198 1.1992086755202946 -0.5370527754467088 
vertex -0.12448307308163137 1.4540275212692322 -0.47328557994684217 
vertex 0.8539589382877139 1.4152589811143166 -0.2704737463932845 
endloop
endfacet
facet normal 0.18759247408507942 0.5773502691896258 -0.7946544722917662 
outer loop
vertex 0.3896465185699198 1.1992086755202946 -0.5370527754467088 
vertex 0.8539589382877139 1.4152589811143166 -0.2704737463932845 
vertex 0.43946369050367684 0.7283395241773355 -0.867399 
endloop
endfacet
facet normal 0.30353099910334286 -0.9341723589627159 -0.18759247408507948 
outer loop
vertex 0.6304613106441977 -1.9403603965955807 0.7238698458416867 
vertex 0.9614842158352798 -1.7461877576526588 0.2925359161453003 
vertex 0.8454515948546002 -1.9778418136904532 1.258381265224117 
endloop
endfacet
facet normal 0.30353099910334275 -0.9341723589627159 -0.18759247408507942 
outer loop
vertex 0.6304613106441977 -1.9403603965955807 0.7238698458416867 
vertex 0.8454515948546002 -1.9778418136904532 1.258381265224117 
vertex 0.08444812124271345 -2.09705161844363 0.620692356155643 
endloop
endfacet
facet normal 0.3035309991033427 -0.9341723589627158 -0.18759247408507945 
outer loop
vertex 0.6304613106441977 -1.9403603965955807 0.7238698458416867 
vertex 0.08444812124271345 -2.09705161844363 0.620692356155643 
vertex 0.9614842158352798 -1.7461877576526588 0.2925359161453003 
endloop
endfacet
facet normal 0.982246946376846 8.713560524511635e-17 -0.18759247408508012 
outer loop
vertex 2.040215658428236 2.9605947323337506e-16 0.7238698458416867 
vertex 2.0205105113351474 -0.5677096521838039 0.620692356155643 
vertex 1.9578382081067547 0.374824136300925 0.2925359161453003 
endloop
endfacet
facet normal 0.9822469463768462 7.211222503044115e-16 -0.18759247408507965 
outer loop
vertex 2.040215658428236 2.9605947323337506e-16 0.7238698458416867 
vertex 1.9578382081067547 0.374824136300925 0.2925359161453003 
vertex 2.142298255842805 0.19288551588287978 1.2583812652241166 
endloop
endfacet
facet normal 0.982246946376846 -9.614963337392153e-17 -0.1875924740850793 
outer loop
vertex 2.040215658428236 2.9605947323337506e-16 0.7238698458416867 
vertex 2.142298255842805 0.19288551588287978 1.2583812652241166 
vertex 2.0205105113351474 -0.5677096521838039 0.620692356155643 
endloop
endfacet
facet normal 0.7946544722917664 -0.5773502691896254 0.18759247408507995 
outer loop
vertex 1.6505691398583158 -1.1992086755202944 1.503162882981527 
vertex 1.6197804343798567 -1.4152589811143161 0.9686514635990969 
vertex 1.9683187021210784 -0.7283395241773347 1.606340372667571 
endloop
endfacet
facet normal 0.7946544722917664 -0.5773502691896254 0.1875924740850802 
outer loop
vertex 1.6505691398583158 -1.1992086755202944 1.503162882981527 
vertex 1.9683187021210784 -0.7283395241773347 1.606340372667571 
vertex 1.3636082830740122 -1.454027521269232 1.9344968126779136 
endloop
endfacet
facet normal 0.7946544722917662 -0.5773502691896256 0.18759247408508 
outer loop
vertex 1.6505691398583158 -1.1992086755202944 1.503162882981527 
vertex 1.3636082830740122 -1.454027521269232 1.9344968126779136 
vertex 1.6197804343798567 -1.4152589811143161 0.9686514635990969 
endloop
endfacet
facet normal -0.7946544722917659 -0.5773502691896256 -0.18759247408508117 
outer loop
vertex -1.650569139858315 -1.199208675520295 0.7238698458416862 
vertex -1.3636082830740113 -1.4540275212692322 0.29253591614530045 
vertex -1.6197804343798563 -1.4152589811143172 1.2583812652241153 
endloop
endfacet
facet normal -0.7946544722917659 -0.5773502691896256 -0.1875924740850812 
outer loop
vertex -1.650569139858315 -1.199208675520295 0.7238698458416862 
vertex -1.6197804343798563 -1.4152589811143172 1.2583812652241153 
vertex -1.968318702121078 -0.7283395241773356 0.620692356155643 
endloop
endfacet
facet normal -0.7946544722917659 -0.5773502691896256 -0.18759247408508112 
outer loop
vertex -1.650569139858315 -1.199208675520295 0.7238698458416862 
vertex -1.968318702121078 -0.7283395241773356 0.620692356155643 
vertex -1.3636082830740113 -1.4540275212692322 0.29253591614530045 
endloop
endfacet
facet normal -0.3035309991033422 -0.9341723589627161 0.18759247408507967 
outer loop
vertex -0.6304613106441975 -1.9403603965955807 1.503162882981527 
vertex -0.8454515948545996 -1.9778418136904534 0.9686514635990973 
vertex -0.08444812124271296 -2.0970516184436296 1.6063403726675713 
endloop
endfacet
facet normal -0.3035309991033421 -0.9341723589627162 0.18759247408507873 
outer loop
vertex -0.6304613106441975 -1.9403603965955807 1.503162882981527 
vertex -0.08444812124271296 -2.0970516184436296 1.6063403726675713 
vertex -0.9614842158352799 -1.7461877576526594 1.9344968126779127 
endloop
endfacet
facet normal -0.3035309991033413 -0.9341723589627163 0.1875924740850793 
outer loop
vertex -0.6304613106441975 -1.9403603965955807 1.503162882981527 
vertex -0.9614842158352799 -1.7461877576526594 1.9344968126779127 
vertex -0.8454515948545996 -1.9778418136904534 0.9686514635990973 
endloop
endfacet
facet normal -0.7946544722917661 0.5773502691896257 -0.18759247408507992 
outer loop
vertex -1.6505691398583158 1.1992086755202942 0.7238698458416867 
vertex -1.804240482115907 0.847549328930512 0.2925359161453004 
vertex -1.8465309576134206 1.1031636604782598 1.2583812652241169 
endloop
endfacet
facet normal -0.7946544722917662 0.5773502691896255 -0.18759247408507998 
outer loop
vertex -1.6505691398583158 1.1992086755202942 0.7238698458416867 
vertex -1.8465309576134206 1.1031636604782598 1.2583812652241169 
vertex -1.3009359798456197 1.646913037152111 0.6206923561556429 
endloop
endfacet
facet normal -0.7946544722917662 0.5773502691896256 -0.1875924740850797 
outer loop
vertex -1.6505691398583158 1.1992086755202942 0.7238698458416867 
vertex -1.3009359798456197 1.646913037152111 0.6206923561556429 
vertex -1.804240482115907 0.847549328930512 0.2925359161453004 
endloop
endfacet
facet normal -0.982246946376846 -1.442244500608822e-16 0.1875924740850802 
outer loop
vertex -2.0402156584282354 -7.771561172376096e-16 1.5031628829815264 
vertex -2.142298255842805 0.19288551588287856 0.9686514635990968 
vertex -2.020510511335147 -0.5677096521838052 1.6063403726675693 
endloop
endfacet
facet normal -0.9822469463768462 -3.1849566055111503e-16 0.1875924740850794 
outer loop
vertex -2.0402156584282354 -7.771561172376096e-16 1.5031628829815264 
vertex -2.020510511335147 -0.5677096521838052 1.6063403726675693 
vertex -1.9578382081067547 0.3748241363009243 1.9344968126779132 
endloop
endfacet
facet normal -0.982246946376846 -9.61496333739215e-16 0.18759247408507992 
outer loop
vertex -2.0402156584282354 -7.771561172376096e-16 1.5031628829815264 
vertex -1.9578382081067547 0.3748241363009243 1.9344968126779132 
vertex -2.142298255842805 0.19288551588287856 0.9686514635990968 
endloop
endfacet
facet normal 0.3035309991033426 0.9341723589627159 -0.18759247408507967 
outer loop
vertex 0.6304613106441973 1.9403603965955807 0.7238698458416867 
vertex 0.2485263412478842 1.9778418136904532 0.2925359161453003 
vertex 0.4785615412958707 2.09705161844363 1.2583812652241169 
endloop
endfacet
facet normal 0.3035309991033426 0.9341723589627159 -0.18759247408507967 
outer loop
vertex 0.6304613106441973 1.9403603965955807 0.7238698458416867 
vertex 0.4785615412958707 2.09705161844363 1.2583812652241169 
vertex 1.164296049388837 1.7461877576526588 0.620692356155643 
endloop
endfacet
facet normal 0.3035309991033426 0.9341723589627159 -0.1875924740850797 
outer loop
vertex 0.6304613106441973 1.9403603965955807 0.7238698458416867 
vertex 1.164296049388837 1.7461877576526588 0.620692356155643 
vertex 0.2485263412478842 1.9778418136904532 0.2925359161453003 
endloop
endfacet
facet normal -0.3035309991033435 0.9341723589627157 0.18759247408507934 
outer loop
vertex -0.6304613106441984 1.9403603965955802 1.503162882981527 
vertex -0.4785615412958719 2.0970516184436296 0.9686514635990966 
vertex -1.164296049388838 1.7461877576526579 1.6063403726675705 
endloop
endfacet
facet normal -0.3035309991033434 0.9341723589627157 0.18759247408507948 
outer loop
vertex -0.6304613106441984 1.9403603965955802 1.503162882981527 
vertex -1.164296049388838 1.7461877576526579 1.6063403726675705 
vertex -0.2485263412478854 1.9778418136904532 1.9344968126779132 
endloop
endfacet
facet normal -0.30353099910334336 0.9341723589627157 0.18759247408507945 
outer loop
vertex -0.6304613106441984 1.9403603965955802 1.503162882981527 
vertex -0.2485263412478854 1.9778418136904532 1.9344968126779132 
vertex -0.4785615412958719 2.0970516184436296 0.9686514635990966 
endloop
endfacet
facet normal 0.7946544722917661 0.5773502691896262 0.18759247408507987 
outer loop
vertex 1.6505691398583149 1.1992086755202949 1.503162882981527 
vertex 1.8465309576134197 1.1031636604782604 0.9686514635990969 
vertex 1.3009359798456186 1.6469130371521112 1.606340372667571 
endloop
endfacet
facet normal 0.7946544722917659 0.5773502691896261 0.18759247408507973 
outer loop
vertex 1.6505691398583149 1.1992086755202949 1.503162882981527 
vertex 1.3009359798456186 1.6469130371521112 1.606340372667571 
vertex 1.8042404821159064 0.8475493289305128 1.9344968126779134 
endloop
endfacet
facet normal 0.7946544722917658 0.5773502691896262 0.18759247408507976 
outer loop
vertex 1.6505691398583149 1.1992086755202949 1.503162882981527 
vertex 1.8042404821159064 0.8475493289305128 1.9344968126779134 
vertex 1.8465309576134197 1.1031636604782604 0.9686514635990969 
endloop
endfacet
facet normal 0.4911234731884227 -0.35682208977309 0.7946544722917662 
outer loop
vertex 1.0201078292141166 -0.7411517210752859 2.7640855042699233 
vertex 0.7539470117943756 -1.249502289513118 2.7003183087700564 
vertex 1.5227356508466137 -0.6430240971743978 2.497506475216499 
endloop
endfacet
facet normal 0.4911234731884227 -0.3568220897730896 0.7946544722917666 
outer loop
vertex 1.0201078292141166 -0.7411517210752859 2.7640855042699233 
vertex 1.5227356508466137 -0.6430240971743978 2.497506475216499 
vertex 0.7836408250013602 -0.3309287765383418 3.0944317288232144 
endloop
endfacet
facet normal 0.49112347318842253 -0.3568220897730899 0.7946544722917666 
outer loop
vertex 1.0201078292141166 -0.7411517210752859 2.7640855042699233 
vertex 0.7836408250013602 -0.3309287765383418 3.0944317288232144 
vertex 0.7539470117943756 -1.249502289513118 2.7003183087700564 
endloop
endfacet
facet normal -0.18759247408508187 -0.5773502691896258 0.7946544722917656 
outer loop
vertex -0.38964651856992205 -1.1992086755202953 2.764085504269922 
vertex -0.14100106370032087 -1.6469130371521117 2.497506475216498 
vertex -0.07257363694494998 -0.8475493289305127 3.0944317288232144 
endloop
endfacet
facet normal -0.18759247408507992 -0.577350269189627 0.7946544722917651 
outer loop
vertex -0.38964651856992205 -1.1992086755202953 2.764085504269922 
vertex -0.07257363694494998 -0.8475493289305127 3.0944317288232144 
vertex -0.9553648550644952 -1.1031636604782618 2.7003183087700546 
endloop
endfacet
facet normal -0.1875924740850798 -0.5773502691896253 0.7946544722917666 
outer loop
vertex -0.38964651856992205 -1.1992086755202953 2.764085504269922 
vertex -0.9553648550644952 -1.1031636604782618 2.7003183087700546 
vertex -0.14100106370032087 -1.6469130371521117 2.497506475216498 
endloop
endfacet
facet normal -0.6070619982066872 -8.653467003652928e-16 0.7946544722917654 
outer loop
vertex -1.2609226212883955 2.220446049250313e-16 2.764085504269922 
vertex -1.609879100663301 -0.3748241363009254 2.4975064752164964 
vertex -0.8284937993205351 -0.19288551588287822 3.0944317288232135 
endloop
endfacet
facet normal -0.607061998206687 -4.807481668696073e-16 0.7946544722917656 
outer loop
vertex -1.2609226212883955 2.220446049250313e-16 2.764085504269922 
vertex -0.8284937993205351 -0.19288551588287822 3.0944317288232135 
vertex -1.3443949638813506 0.5677096521838043 2.7003183087700555 
endloop
endfacet
facet normal -0.6070619982066874 -5.528603919000478e-16 0.7946544722917653 
outer loop
vertex -1.2609226212883955 2.220446049250313e-16 2.764085504269922 
vertex -1.3443949638813506 0.5677096521838043 2.7003183087700555 
vertex -1.609879100663301 -0.3748241363009254 2.4975064752164964 
endloop
endfacet
facet normal -0.18759247408507962 0.5773502691896271 0.7946544722917653 
outer loop
vertex -0.38964651856992 1.1992086755202946 2.7640855042699215 
vertex -0.853958938287714 1.4152589811143161 2.497506475216497 
vertex -0.43946369050367695 0.7283395241773358 3.0944317288232135 
endloop
endfacet
facet normal -0.1875924740850814 0.577350269189627 0.7946544722917649 
outer loop
vertex -0.38964651856992 1.1992086755202946 2.7640855042699215 
vertex -0.43946369050367695 0.7283395241773358 3.0944317288232135 
vertex 0.12448307308163106 1.4540275212692324 2.700318308770055 
endloop
endfacet
facet normal -0.18759247408508065 0.5773502691896255 0.794654472291766 
outer loop
vertex -0.38964651856992 1.1992086755202946 2.7640855042699215 
vertex 0.12448307308163106 1.4540275212692324 2.700318308770055 
vertex -0.853958938287714 1.4152589811143161 2.497506475216497 
endloop
endfacet
facet normal 0.49112347318842187 0.3568220897730911 0.7946544722917664 
outer loop
vertex 1.0201078292141175 0.7411517210752859 2.764085504269923 
vertex 1.082103451804719 1.2495022895131176 2.497506475216498 
vertex 0.5568903017677974 0.643024097174398 3.0944317288232135 
endloop
endfacet
facet normal 0.49112347318842253 0.3568220897730889 0.7946544722917669 
outer loop
vertex 1.0201078292141175 0.7411517210752859 2.764085504269923 
vertex 0.5568903017677974 0.643024097174398 3.0944317288232135 
vertex 1.4213297340698359 0.3309287765383421 2.7003183087700555 
endloop
endfacet
facet normal 0.49112347318842375 0.3568220897730903 0.7946544722917653 
outer loop
vertex 1.0201078292141175 0.7411517210752859 2.764085504269923 
vertex 1.4213297340698359 0.3309287765383421 2.7003183087700555 
vertex 1.082103451804719 1.2495022895131176 2.497506475216498 
endloop
endfacet
facet normal 0.5446279229948002 -0.2681456438763991 -0.7946561137778287 
outer loop
vertex 1.1312459183494428 -0.5569577708873547 -0.5370527754467088 
vertex 0.8284937993205348 -0.19288551588287908 -0.867399 
vertex 1.6098791006633009 -0.37482413630092487 -0.2704737463932844 
endloop
endfacet
facet normal 0.5446279229948001 -0.26814564387639833 -0.7946561137778289 
outer loop
vertex 1.1312459183494428 -0.5569577708873547 -0.5370527754467088 
vertex 1.6098791006633009 -0.37482413630092487 -0.2704737463932844 
vertex 0.9553648550644931 -1.1031636604782602 -0.47328557994684206 
endloop
endfacet
facet normal 0.5446279229948007 -0.26814564387639844 -0.7946561137778285 
outer loop
vertex 1.1312459183494428 -0.5569577708873547 -0.5370527754467088 
vertex 0.9553648550644931 -1.1031636604782602 -0.47328557994684206 
vertex 0.8284937993205348 -0.19288551588287908 -0.867399 
endloop
endfacet
facet normal 0.2979251302526822 -0.3440049814086625 -0.8904499927171363 
outer loop
vertex 0.6188107637766587 -0.7145328350972172 -0.7360278599822806 
vertex 0.9553648550644931 -1.1031636604782602 -0.47328557994684206 
vertex 0.07257363694494803 -0.8475493289305124 -0.867399 
endloop
endfacet
facet normal 0.29792513025268236 -0.3440049814086629 -0.8904499927171361 
outer loop
vertex 0.6188107637766587 -0.7145328350972172 -0.7360278599822806 
vertex 0.07257363694494803 -0.8475493289305124 -0.867399 
vertex 0.8284937993205348 -0.19288551588287908 -0.867399 
endloop
endfacet
facet normal 0.2979251302526819 -0.34400498140866276 -0.8904499927171363 
outer loop
vertex 0.6188107637766587 -0.7145328350972172 -0.7360278599822806 
vertex 0.8284937993205348 -0.19288551588287908 -0.867399 
vertex 0.9553648550644931 -1.1031636604782602 -0.47328557994684206 
endloop
endfacet
facet normal 0.41923210750615003 0.1770402510899815 -0.8904499927171363 
outer loop
vertex 0.8707841512351874 0.36772122015942016 -0.7360278599822806 
vertex 1.3443949638813506 0.567709652183804 -0.4732855799468421 
vertex 0.8284937993205348 -0.19288551588287908 -0.867399 
endloop
endfacet
facet normal 0.41923210750615075 0.17704025108998137 -0.8904499927171361 
outer loop
vertex 0.8707841512351874 0.36772122015942016 -0.7360278599822806 
vertex 0.8284937993205348 -0.19288551588287908 -0.867399 
vertex 0.43946369050367684 0.7283395241773355 -0.867399 
endloop
endfacet
facet normal 0.4192321075061504 0.17704025108998078 -0.8904499927171364 
outer loop
vertex 0.8707841512351874 0.36772122015942016 -0.7360278599822806 
vertex 0.43946369050367684 0.7283395241773355 -0.867399 
vertex 1.3443949638813506 0.567709652183804 -0.4732855799468421 
endloop
endfacet
facet normal 0.42332094574133233 0.43511037419508003 -0.7946561137778287 
outer loop
vertex 0.8792725308909137 0.903769385825152 -0.5370527754467088 
vertex 0.43946369050367684 0.7283395241773355 -0.867399 
vertex 0.8539589382877139 1.4152589811143166 -0.2704737463932845 
endloop
endfacet
facet normal 0.4233209457413319 0.43511037419508014 -0.7946561137778289 
outer loop
vertex 0.8792725308909137 0.903769385825152 -0.5370527754467088 
vertex 0.8539589382877139 1.4152589811143166 -0.2704737463932845 
vertex 1.3443949638813506 0.567709652183804 -0.4732855799468421 
endloop
endfacet
facet normal 0.42332094574133217 0.43511037419508053 -0.7946561137778286 
outer loop
vertex 0.8792725308909137 0.903769385825152 -0.5370527754467088 
vertex 1.3443949638813506 0.567709652183804 -0.4732855799468421 
vertex 0.43946369050367684 0.7283395241773355 -0.867399 
endloop
endfacet
facet normal 0.7883029237907276 0.09110539278641767 -0.6085049775870556 
outer loop
vertex 1.6373707575504686 0.1892365507279347 -0.15040780339827542 
vertex 1.6098791006633009 -0.37482413630092487 -0.2704737463932844 
vertex 1.3443949638813506 0.567709652183804 -0.4732855799468421 
endloop
endfacet
facet normal 0.7883029237907271 0.09110539278641709 -0.608504977587056 
outer loop
vertex 1.6373707575504686 0.1892365507279347 -0.15040780339827542 
vertex 1.3443949638813506 0.567709652183804 -0.4732855799468421 
vertex 1.9578382081067547 0.374824136300925 0.2925359161453003 
endloop
endfacet
facet normal 0.788302923790727 0.09110539278641784 -0.6085049775870561 
outer loop
vertex 1.6373707575504686 0.1892365507279347 -0.15040780339827542 
vertex 1.9578382081067547 0.374824136300925 0.2925359161453003 
vertex 1.6098791006633009 -0.37482413630092487 -0.2704737463932844 
endloop
endfacet
facet normal 0.8968031827042376 -0.09110539278641744 -0.4329478708768327 
outer loop
vertex 1.8627426067017343 -0.18923655072793458 0.21425150863588627 
vertex 1.9578382081067547 0.374824136300925 0.2925359161453003 
vertex 2.0205105113351474 -0.5677096521838039 0.620692356155643 
endloop
endfacet
facet normal 0.8968031827042375 -0.09110539278641736 -0.43294787087683256 
outer loop
vertex 1.8627426067017343 -0.18923655072793458 0.21425150863588627 
vertex 2.0205105113351474 -0.5677096521838039 0.620692356155643 
vertex 1.6098791006633009 -0.37482413630092487 -0.2704737463932844 
endloop
endfacet
facet normal 0.8968031827042376 -0.09110539278641741 -0.4329478708768327 
outer loop
vertex 1.8627426067017343 -0.18923655072793458 0.21425150863588627 
vertex 1.6098791006633009 -0.37482413630092487 -0.2704737463932844 
vertex 1.9578382081067547 0.374824136300925 0.2925359161453003 
endloop
endfacet
facet normal -0.08672237810828513 -0.6008334960459198 -0.7946561137778287 
outer loop
vertex -0.1801241037163698 -1.247988218531914 -0.5370527754467087 
vertex 0.07257363694494803 -0.8475493289305124 -0.867399 
vertex 0.14100106370031928 -1.6469130371521112 -0.27047374639328436 
endloop
endfacet
facet normal -0.0867223781082849 -0.6008334960459196 -0.7946561137778286 
outer loop
vertex -0.1801241037163698 -1.247988218531914 -0.5370527754467087 
vertex 0.14100106370031928 -1.6469130371521112 -0.27047374639328436 
vertex -0.7539470117943767 -1.2495022895131183 -0.47328557994684195 
endloop
endfacet
facet normal -0.08672237810828488 -0.6008334960459198 -0.7946561137778286 
outer loop
vertex -0.1801241037163698 -1.247988218531914 -0.5370527754467087 
vertex -0.7539470117943767 -1.2495022895131183 -0.47328557994684195 
vertex 0.07257363694494803 -0.8475493289305124 -0.867399 
endloop
endfacet
facet normal -0.23510425090725307 -0.3896470218998105 -0.8904499927171363 
outer loop
vertex -0.48833806661693013 -0.8093267983273243 -0.7360278599822806 
vertex -0.7539470117943767 -1.2495022895131183 -0.47328557994684195 
vertex -0.7836408250013618 -0.3309287765383423 -0.867399 
endloop
endfacet
facet normal -0.2351042509072534 -0.38964702189981065 -0.8904499927171361 
outer loop
vertex -0.48833806661693013 -0.8093267983273243 -0.7360278599822806 
vertex -0.7836408250013618 -0.3309287765383423 -0.867399 
vertex 0.07257363694494803 -0.8475493289305124 -0.867399 
endloop
endfacet
facet normal -0.2351042509072534 -0.3896470218998103 -0.8904499927171362 
outer loop
vertex -0.48833806661693013 -0.8093267983273243 -0.7360278599822806 
vertex 0.07257363694494803 -0.8475493289305124 -0.867399 
vertex -0.7539470117943767 -1.2495022895131183 -0.47328557994684195 
endloop
endfacet
facet normal 0.3302453776459455 -0.7215675178354851 -0.6085049775870559 
outer loop
vertex 0.6859500448666974 -1.4987548184276767 -0.1504078033982754 
vertex 0.14100106370031928 -1.6469130371521112 -0.27047374639328436 
vertex 0.9553648550644931 -1.1031636604782602 -0.47328557994684206 
endloop
endfacet
facet normal 0.33024537764594547 -0.7215675178354851 -0.608504977587056 
outer loop
vertex 0.6859500448666974 -1.4987548184276767 -0.1504078033982754 
vertex 0.9553648550644931 -1.1031636604782602 -0.47328557994684206 
vertex 0.9614842158352798 -1.7461877576526588 0.2925359161453003 
endloop
endfacet
facet normal 0.3302453776459456 -0.7215675178354851 -0.6085049775870561 
outer loop
vertex 0.6859500448666974 -1.4987548184276767 -0.1504078033982754 
vertex 0.9614842158352798 -1.7461877576526588 0.2925359161453003 
vertex 0.14100106370031928 -1.6469130371521112 -0.27047374639328436 
endloop
endfacet
facet normal 0.19048104658599815 -0.8810636253953064 -0.43294787087683206 
outer loop
vertex 0.39564446692610417 -1.8300508044161334 0.2142515086358863 
vertex 0.9614842158352798 -1.7461877576526588 0.2925359161453003 
vertex 0.08444812124271345 -2.09705161844363 0.620692356155643 
endloop
endfacet
facet normal 0.19048104658599774 -0.8810636253953064 -0.4329478708768324 
outer loop
vertex 0.39564446692610417 -1.8300508044161334 0.2142515086358863 
vertex 0.08444812124271345 -2.09705161844363 0.620692356155643 
vertex 0.14100106370031928 -1.6469130371521112 -0.27047374639328436 
endloop
endfacet
facet normal 0.1904810465859982 -0.8810636253953061 -0.43294787087683245 
outer loop
vertex 0.39564446692610417 -1.8300508044161334 0.2142515086358863 
vertex 0.14100106370031928 -1.6469130371521112 -0.27047374639328436 
vertex 0.9614842158352798 -1.7461877576526588 0.2925359161453003 
endloop
endfacet
facet normal -0.5842000557779882 -0.5370586439866439 -0.6085049775870554 
outer loop
vertex -1.2134303152383341 -1.1155179693189163 -0.15040780339827528 
vertex -1.5227356508466146 -0.6430240971743985 -0.2704737463932844 
vertex -0.7539470117943767 -1.2495022895131183 -0.47328557994684195 
endloop
endfacet
facet normal -0.5842000557779883 -0.5370586439866438 -0.6085049775870555 
outer loop
vertex -1.2134303152383341 -1.1155179693189163 -0.15040780339827528 
vertex -0.7539470117943767 -1.2495022895131183 -0.47328557994684195 
vertex -1.3636082830740113 -1.4540275212692322 0.29253591614530045 
endloop
endfacet
facet normal -0.5842000557779881 -0.5370586439866439 -0.6085049775870555 
outer loop
vertex -1.2134303152383341 -1.1155179693189163 -0.15040780339827528 
vertex -1.3636082830740113 -1.4540275212692322 0.29253591614530045 
vertex -1.5227356508466146 -0.6430240971743985 -0.2704737463932844 
endloop
endfacet
facet normal -0.7790794217014383 -0.4534218739590874 -0.43294787087683184 
outer loop
vertex -1.618220878680568 -0.941797047540322 0.21425150863588635 
vertex -1.3636082830740113 -1.4540275212692322 0.29253591614530045 
vertex -1.968318702121078 -0.7283395241773356 0.620692356155643 
endloop
endfacet
facet normal -0.7790794217014383 -0.45342187395908706 -0.4329478708768321 
outer loop
vertex -1.618220878680568 -0.941797047540322 0.21425150863588635 
vertex -1.968318702121078 -0.7283395241773356 0.620692356155643 
vertex -1.5227356508466146 -0.6430240971743985 -0.2704737463932844 
endloop
endfacet
facet normal -0.7790794217014381 -0.45342187395908734 -0.43294787087683223 
outer loop
vertex -1.618220878680568 -0.941797047540322 0.21425150863588635 
vertex -1.5227356508466146 -0.6430240971743985 -0.2704737463932844 
vertex -1.3636082830740113 -1.4540275212692322 0.29253591614530045 
endloop
endfacet
facet normal -0.5982253002509402 -0.10318987825940544 -0.7946561137778287 
outer loop
vertex -1.2425687366392708 -0.21434136572479964 -0.5370527754467088 
vertex -0.7836408250013618 -0.3309287765383423 -0.867399 
vertex -1.5227356508466146 -0.6430240971743985 -0.2704737463932844 
endloop
endfacet
facet normal -0.5982253002509403 -0.1031898782594054 -0.7946561137778287 
outer loop
vertex -1.2425687366392708 -0.21434136572479964 -0.5370527754467088 
vertex -1.5227356508466146 -0.6430240971743985 -0.2704737463932844 
vertex -1.4213297340698359 0.33092877653834185 -0.4732855799468421 
endloop
endfacet
facet normal -0.5982253002509401 -0.10318987825940536 -0.7946561137778287 
outer loop
vertex -1.2425687366392708 -0.21434136572479964 -0.5370527754467088 
vertex -1.4213297340698359 0.33092877653834185 -0.4732855799468421 
vertex -0.7836408250013618 -0.3309287765383423 -0.867399 
endloop
endfacet
facet normal -0.4432275482129479 0.10318987825940498 -0.8904499927171363 
outer loop
vertex -0.920620286946332 0.21434136572479923 -0.7360278599822806 
vertex -1.4213297340698359 0.33092877653834185 -0.4732855799468421 
vertex -0.5568903017677981 0.6430240971743981 -0.867399 
endloop
endfacet
facet normal -0.4432275482129482 0.10318987825940525 -0.8904499927171362 
outer loop
vertex -0.920620286946332 0.21434136572479923 -0.7360278599822806 
vertex -0.5568903017677981 0.6430240971743981 -0.867399 
vertex -0.7836408250013618 -0.3309287765383423 -0.867399 
endloop
endfacet
facet normal -0.4432275482129478 0.10318987825940538 -0.8904499927171364 
outer loop
vertex -0.920620286946332 0.21434136572479923 -0.7360278599822806 
vertex -0.7836408250013618 -0.3309287765383423 -0.867399 
vertex -1.4213297340698359 0.33092877653834185 -0.4732855799468421 
endloop
endfacet
facet normal -0.6913008683463271 0.3896470218998102 -0.6085049775870558 
outer loop
vertex -1.4358912226634877 0.8093267983273239 -0.1504078033982754 
vertex -1.08210345180472 1.249502289513118 -0.2704737463932845 
vertex -1.4213297340698359 0.33092877653834185 -0.4732855799468421 
endloop
endfacet
facet normal -0.691300868346327 0.38964702189981015 -0.6085049775870556 
outer loop
vertex -1.4358912226634877 0.8093267983273239 -0.1504078033982754 
vertex -1.4213297340698359 0.33092877653834185 -0.4732855799468421 
vertex -1.804240482115907 0.847549328930512 0.2925359161453004 
endloop
endfacet
facet normal -0.691300868346327 0.3896470218998102 -0.6085049775870556 
outer loop
vertex -1.4358912226634877 0.8093267983273239 -0.1504078033982754 
vertex -1.804240482115907 0.847549328930512 0.2925359161453004 
vertex -1.08210345180472 1.249502289513118 -0.2704737463932845 
endloop
endfacet
facet normal -0.6719786091331005 0.6008334960459195 -0.43294787087683195 
outer loop
vertex -1.3957599712554156 1.2479882185319138 0.21425150863588627 
vertex -1.804240482115907 0.847549328930512 0.2925359161453004 
vertex -1.3009359798456197 1.646913037152111 0.6206923561556429 
endloop
endfacet
facet normal -0.6719786091330999 0.6008334960459197 -0.43294787087683223 
outer loop
vertex -1.3957599712554156 1.2479882185319138 0.21425150863588627 
vertex -1.3009359798456197 1.646913037152111 0.6206923561556429 
vertex -1.08210345180472 1.249502289513118 -0.2704737463932845 
endloop
endfacet
facet normal -0.6719786091331003 0.6008334960459193 -0.43294787087683245 
outer loop
vertex -1.3957599712554156 1.2479882185319138 0.21425150863588627 
vertex -1.08210345180472 1.249502289513118 -0.2704737463932845 
vertex -1.804240482115907 0.847549328930512 0.2925359161453004 
endloop
endfacet
facet normal -0.2830011903769068 0.5370586439866434 -0.7946561137778289 
outer loop
vertex -0.5878256088847164 1.1155179693189161 -0.5370527754467088 
vertex -0.5568903017677981 0.6430240971743981 -0.867399 
vertex -1.08210345180472 1.249502289513118 -0.2704737463932845 
endloop
endfacet
facet normal -0.2830011903769071 0.5370586439866432 -0.794656113777829 
outer loop
vertex -0.5878256088847164 1.1155179693189161 -0.5370527754467088 
vertex -1.08210345180472 1.249502289513118 -0.2704737463932845 
vertex -0.12448307308163137 1.4540275212692322 -0.47328557994684217 
endloop
endfacet
facet normal -0.28300119037690735 0.5370586439866434 -0.7946561137778286 
outer loop
vertex -0.5878256088847164 1.1155179693189161 -0.5370527754467088 
vertex -0.12448307308163137 1.4540275212692322 -0.47328557994684217 
vertex -0.5568903017677981 0.6430240971743981 -0.867399 
endloop
endfacet
facet normal -0.03882543863863194 0.45342187395908623 -0.8904499927171364 
outer loop
vertex -0.0806365614485842 0.9417970475403218 -0.7360278599822806 
vertex -0.12448307308163137 1.4540275212692322 -0.47328557994684217 
vertex 0.43946369050367684 0.7283395241773355 -0.867399 
endloop
endfacet
facet normal -0.038825438638631395 0.4534218739590872 -0.8904499927171361 
outer loop
vertex -0.0806365614485842 0.9417970475403218 -0.7360278599822806 
vertex 0.43946369050367684 0.7283395241773355 -0.867399 
vertex -0.5568903017677981 0.6430240971743981 -0.867399 
endloop
endfacet
facet normal -0.03882543863863074 0.45342187395908634 -0.8904499927171364 
outer loop
vertex -0.0806365614485842 0.9417970475403218 -0.7360278599822806 
vertex -0.5568903017677981 0.6430240971743981 -0.867399 
vertex -0.12448307308163137 1.4540275212692322 -0.47328557994684217 
endloop
endfacet
facet normal 0.15695262268764174 0.7778737471359011 -0.6085049775870556 
outer loop
vertex 0.3260007354846555 1.615709438691334 -0.15040780339827545 
vertex 0.8539589382877139 1.4152589811143166 -0.2704737463932845 
vertex -0.12448307308163137 1.4540275212692322 -0.47328557994684217 
endloop
endfacet
facet normal 0.15695262268764187 0.7778737471359011 -0.6085049775870556 
outer loop
vertex 0.3260007354846555 1.615709438691334 -0.15040780339827545 
vertex -0.12448307308163137 1.4540275212692322 -0.47328557994684217 
vertex 0.2485263412478842 1.9778418136904532 0.2925359161453003 
endloop
endfacet
facet normal 0.15695262268764168 0.777873747135901 -0.6085049775870556 
outer loop
vertex 0.3260007354846555 1.615709438691334 -0.15040780339827545 
vertex 0.2485263412478842 1.9778418136904532 0.2925359161453003 
vertex 0.8539589382877139 1.4152589811143166 -0.2704737463932845 
endloop
endfacet
facet normal 0.36377380154430167 0.8247573960948911 -0.43294787087683195 
outer loop
vertex 0.7555937763081451 1.7130961841524763 0.21425150863588627 
vertex 0.2485263412478842 1.9778418136904532 0.2925359161453003 
vertex 1.164296049388837 1.7461877576526588 0.620692356155643 
endloop
endfacet
facet normal 0.3637738015443021 0.8247573960948905 -0.43294787087683234 
outer loop
vertex 0.7555937763081451 1.7130961841524763 0.21425150863588627 
vertex 1.164296049388837 1.7461877576526588 0.620692356155643 
vertex 0.8539589382877139 1.4152589811143166 -0.2704737463932845 
endloop
endfacet
facet normal 0.3637738015443014 0.8247573960948908 -0.43294787087683273 
outer loop
vertex 0.7555937763081451 1.7130961841524763 0.21425150863588627 
vertex 0.8539589382877139 1.4152589811143166 -0.2704737463932845 
vertex 0.2485263412478842 1.9778418136904532 0.2925359161453003 
endloop
endfacet
facet normal 0.13567549282476593 -0.99048051794573 0.023248746562240366 
outer loop
vertex 0.2818171982848669 -2.057315016859238 1.1618046646824438 
vertex 0.08444812124271345 -2.09705161844363 0.620692356155643 
vertex 0.8454515948546002 -1.9778418136904532 1.258381265224117 
endloop
endfacet
facet normal 0.13567549282476557 -0.99048051794573 0.02324874656224254 
outer loop
vertex 0.2818171982848669 -2.057315016859238 1.1618046646824438 
vertex 0.8454515948546002 -1.9778418136904532 1.258381265224117 
vertex -0.08444812124271296 -2.0970516184436296 1.6063403726675713 
endloop
endfacet
facet normal 0.13567549282476388 -0.9904805179457303 0.023248746562241136 
outer loop
vertex 0.2818171982848669 -2.057315016859238 1.1618046646824438 
vertex -0.08444812124271296 -2.0970516184436296 1.6063403726675713 
vertex 0.08444812124271345 -2.09705161844363 0.620692356155643 
endloop
endfacet
facet normal -0.1356754928247647 -0.9904805179457301 -0.023248746562240852 
outer loop
vertex -0.28181719828486634 -2.0573150168592376 1.0652280641407705 
vertex -0.08444812124271296 -2.0970516184436296 1.6063403726675713 
vertex -0.8454515948545996 -1.9778418136904534 0.9686514635990973 
endloop
endfacet
facet normal -0.13567549282476485 -0.9904805179457301 -0.02324874656223995 
outer loop
vertex -0.28181719828486634 -2.0573150168592376 1.0652280641407705 
vertex -0.8454515948545996 -1.9778418136904534 0.9686514635990973 
vertex 0.08444812124271345 -2.09705161844363 0.620692356155643 
endloop
endfacet
facet normal -0.13567549282476551 -0.99048051794573 -0.023248746562240522 
outer loop
vertex -0.28181719828486634 -2.0573150168592376 1.0652280641407705 
vertex 0.08444812124271345 -2.09705161844363 0.620692356155643 
vertex -0.08444812124271296 -2.0970516184436296 1.6063403726675713 
endloop
endfacet
facet normal 0.5499249377350752 -0.8247573960948905 -0.13174900547575075 
outer loop
vertex 1.142238748356579 -1.7130961841524759 0.8398562149895047 
vertex 0.8454515948546002 -1.9778418136904532 1.258381265224117 
vertex 0.9614842158352798 -1.7461877576526588 0.2925359161453003 
endloop
endfacet
facet normal 0.549924937735075 -0.8247573960948906 -0.13174900547575064 
outer loop
vertex 1.142238748356579 -1.7130961841524759 0.8398562149895047 
vertex 0.9614842158352798 -1.7461877576526588 0.2925359161453003 
vertex 1.6197804343798567 -1.4152589811143161 0.9686514635990969 
endloop
endfacet
facet normal 0.5499249377350751 -0.8247573960948906 -0.131749005475751 
outer loop
vertex 1.142238748356579 -1.7130961841524759 0.8398562149895047 
vertex 1.6197804343798567 -1.4152589811143161 0.9686514635990969 
vertex 0.8454515948546002 -1.9778418136904532 1.258381265224117 
endloop
endfacet
facet normal 0.6144547445279456 -0.7778737471359009 0.1317490054757513 
outer loop
vertex 1.276280104102823 -1.6157094386913338 1.387176513833709 
vertex 1.6197804343798567 -1.4152589811143161 0.9686514635990969 
vertex 1.3636082830740122 -1.454027521269232 1.9344968126779136 
endloop
endfacet
facet normal 0.6144547445279454 -0.777873747135901 0.13174900547575133 
outer loop
vertex 1.276280104102823 -1.6157094386913338 1.387176513833709 
vertex 1.3636082830740122 -1.454027521269232 1.9344968126779136 
vertex 0.8454515948546002 -1.9778418136904532 1.258381265224117 
endloop
endfacet
facet normal 0.6144547445279456 -0.7778737471359011 0.13174900547575127 
outer loop
vertex 1.276280104102823 -1.6157094386913338 1.387176513833709 
vertex 0.8454515948546002 -1.9778418136904532 1.258381265224117 
vertex 1.6197804343798567 -1.4152589811143161 0.9686514635990969 
endloop
endfacet
facet normal 0.9543270473093918 0.2681456438763989 -0.13174900547575127 
outer loop
vertex 1.9822224738543266 0.5569577708873551 0.8398562149895046 
vertex 2.142298255842805 0.19288551588287978 1.2583812652241166 
vertex 1.9578382081067547 0.374824136300925 0.2925359161453003 
endloop
endfacet
facet normal 0.9543270473093914 0.2681456438763997 -0.13174900547575152 
outer loop
vertex 1.9822224738543266 0.5569577708873551 0.8398562149895046 
vertex 1.9578382081067547 0.374824136300925 0.2925359161453003 
vertex 1.8465309576134197 1.1031636604782604 0.9686514635990969 
endloop
endfacet
facet normal 0.9543270473093916 0.2681456438763995 -0.1317490054757506 
outer loop
vertex 1.9822224738543266 0.5569577708873551 0.8398562149895046 
vertex 1.8465309576134197 1.1031636604782604 0.9686514635990969 
vertex 2.142298255842805 0.19288551588287978 1.2583812652241166 
endloop
endfacet
facet normal 0.9296788544019791 0.34400498140866276 0.13174900547575116 
outer loop
vertex 1.9310232318573768 0.7145328350972178 1.387176513833709 
vertex 1.8465309576134197 1.1031636604782604 0.9686514635990969 
vertex 1.8042404821159064 0.8475493289305128 1.9344968126779134 
endloop
endfacet
facet normal 0.9296788544019787 0.3440049814086636 0.13174900547575086 
outer loop
vertex 1.9310232318573768 0.7145328350972178 1.387176513833709 
vertex 1.8042404821159064 0.8475493289305128 1.9344968126779134 
vertex 2.142298255842805 0.19288551588287978 1.2583812652241166 
endloop
endfacet
facet normal 0.9296788544019786 0.34400498140866326 0.1317490054757518 
outer loop
vertex 1.9310232318573768 0.7145328350972178 1.387176513833709 
vertex 2.142298255842805 0.19288551588287978 1.2583812652241166 
vertex 1.8465309576134197 1.1031636604782604 0.9686514635990969 
endloop
endfacet
facet normal 0.9839289838587343 -0.17704025108998056 0.023248746562241095 
outer loop
vertex 2.0437091564330103 -0.3677212201594196 1.1618046646824436 
vertex 2.0205105113351474 -0.5677096521838039 0.620692356155643 
vertex 2.142298255842805 0.19288551588287978 1.2583812652241166 
endloop
endfacet
facet normal 0.9839289838587343 -0.17704025108998067 0.023248746562241542 
outer loop
vertex 2.0437091564330103 -0.3677212201594196 1.1618046646824436 
vertex 2.142298255842805 0.19288551588287978 1.2583812652241166 
vertex 1.9683187021210784 -0.7283395241773347 1.606340372667571 
endloop
endfacet
facet normal 0.9839289838587343 -0.17704025108998098 0.02324874656224125 
outer loop
vertex 2.0437091564330103 -0.3677212201594196 1.1618046646824436 
vertex 1.9683187021210784 -0.7283395241773347 1.606340372667571 
vertex 2.0205105113351474 -0.5677096521838039 0.620692356155643 
endloop
endfacet
facet normal 0.9000769178526365 -0.4351103741950805 -0.023248746562240158 
outer loop
vertex 1.8695365492786944 -0.9037693858251515 1.0652280641407703 
vertex 1.9683187021210784 -0.7283395241773347 1.606340372667571 
vertex 1.6197804343798567 -1.4152589811143161 0.9686514635990969 
endloop
endfacet
facet normal 0.9000769178526365 -0.4351103741950802 -0.023248746562241237 
outer loop
vertex 1.8695365492786944 -0.9037693858251515 1.0652280641407703 
vertex 1.6197804343798567 -1.4152589811143161 0.9686514635990969 
vertex 2.0205105113351474 -0.5677096521838039 0.620692356155643 
endloop
endfacet
facet normal 0.9000769178526371 -0.43511037419507953 -0.023248746562240526 
outer loop
vertex 1.8695365492786944 -0.9037693858251515 1.0652280641407703 
vertex 2.0205105113351474 -0.5677096521838039 0.620692356155643 
vertex 1.9683187021210784 -0.7283395241773347 1.606340372667571 
endloop
endfacet
facet normal 0.7790794217014385 -0.4534218739590862 0.4329478708768327 
outer loop
vertex 1.618220878680568 -0.9417970475403216 2.012781220187328 
vertex 1.3636082830740122 -1.454027521269232 1.9344968126779136 
vertex 1.9683187021210784 -0.7283395241773347 1.606340372667571 
endloop
endfacet
facet normal 0.7790794217014385 -0.453421873959086 0.4329478708768328 
outer loop
vertex 1.618220878680568 -0.9417970475403216 2.012781220187328 
vertex 1.9683187021210784 -0.7283395241773347 1.606340372667571 
vertex 1.5227356508466137 -0.6430240971743978 2.497506475216499 
endloop
endfacet
facet normal 0.7790794217014384 -0.4534218739590862 0.4329478708768329 
outer loop
vertex 1.618220878680568 -0.9417970475403216 2.012781220187328 
vertex 1.5227356508466137 -0.6430240971743978 2.497506475216499 
vertex 1.3636082830740122 -1.454027521269232 1.9344968126779136 
endloop
endfacet
facet normal 0.584200055777988 -0.5370586439866432 0.6085049775870565 
outer loop
vertex 1.213430315238334 -1.1155179693189161 2.3774405322214895 
vertex 1.5227356508466137 -0.6430240971743978 2.497506475216499 
vertex 0.7539470117943756 -1.249502289513118 2.7003183087700564 
endloop
endfacet
facet normal 0.5842000557779877 -0.5370586439866434 0.608504977587056 
outer loop
vertex 1.213430315238334 -1.1155179693189161 2.3774405322214895 
vertex 0.7539470117943756 -1.249502289513118 2.7003183087700564 
vertex 1.3636082830740122 -1.454027521269232 1.9344968126779136 
endloop
endfacet
facet normal 0.5842000557779882 -0.5370586439866432 0.6085049775870561 
outer loop
vertex 1.213430315238334 -1.1155179693189161 2.3774405322214895 
vertex 1.3636082830740122 -1.454027521269232 1.9344968126779136 
vertex 1.5227356508466137 -0.6430240971743978 2.497506475216499 
endloop
endfacet
facet normal -0.6144547445279452 -0.777873747135901 -0.13174900547575247 
outer loop
vertex -1.2762801041028224 -1.6157094386913344 0.8398562149895042 
vertex -1.6197804343798563 -1.4152589811143172 1.2583812652241153 
vertex -1.3636082830740113 -1.4540275212692322 0.29253591614530045 
endloop
endfacet
facet normal -0.6144547445279447 -0.7778737471359015 -0.13174900547575272 
outer loop
vertex -1.2762801041028224 -1.6157094386913344 0.8398562149895042 
vertex -1.3636082830740113 -1.4540275212692322 0.29253591614530045 
vertex -0.8454515948545996 -1.9778418136904534 0.9686514635990973 
endloop
endfacet
facet normal -0.6144547445279447 -0.7778737471359014 -0.1317490054757518 
outer loop
vertex -1.2762801041028224 -1.6157094386913344 0.8398562149895042 
vertex -0.8454515948545996 -1.9778418136904534 0.9686514635990973 
vertex -1.6197804343798563 -1.4152589811143172 1.2583812652241153 
endloop
endfacet
facet normal -0.5499249377350747 -0.824757396094891 0.1317490054757503 
outer loop
vertex -1.1422387483565786 -1.7130961841524768 1.3871765138337084 
vertex -0.8454515948545996 -1.9778418136904534 0.9686514635990973 
vertex -0.9614842158352799 -1.7461877576526594 1.9344968126779127 
endloop
endfacet
facet normal -0.5499249377350749 -0.8247573960948908 0.1317490054757504 
outer loop
vertex -1.1422387483565786 -1.7130961841524768 1.3871765138337084 
vertex -0.9614842158352799 -1.7461877576526594 1.9344968126779127 
vertex -1.6197804343798563 -1.4152589811143172 1.2583812652241153 
endloop
endfacet
facet normal -0.5499249377350748 -0.8247573960948908 0.13174900547575014 
outer loop
vertex -1.1422387483565786 -1.7130961841524768 1.3871765138337084 
vertex -1.6197804343798563 -1.4152589811143172 1.2583812652241153 
vertex -0.8454515948545996 -1.9778418136904534 0.9686514635990973 
endloop
endfacet
facet normal -0.9000769178526367 -0.4351103741950803 0.023248746562240387 
outer loop
vertex -1.8695365492786937 -0.9037693858251528 1.1618046646824425 
vertex -1.968318702121078 -0.7283395241773356 0.620692356155643 
vertex -1.6197804343798563 -1.4152589811143172 1.2583812652241153 
endloop
endfacet
facet normal -0.9000769178526368 -0.43511037419508025 0.023248746562240612 
outer loop
vertex -1.8695365492786937 -0.9037693858251528 1.1618046646824425 
vertex -1.6197804343798563 -1.4152589811143172 1.2583812652241153 
vertex -2.020510511335147 -0.5677096521838052 1.6063403726675693 
endloop
endfacet
facet normal -0.9000769178526368 -0.43511037419508014 0.023248746562240467 
outer loop
vertex -1.8695365492786937 -0.9037693858251528 1.1618046646824425 
vertex -2.020510511335147 -0.5677096521838052 1.6063403726675693 
vertex -1.968318702121078 -0.7283395241773356 0.620692356155643 
endloop
endfacet
facet normal -0.9839289838587341 -0.17704025108998142 -0.023248746562241518 
outer loop
vertex -2.04370915643301 -0.3677212201594207 1.0652280641407696 
vertex -2.020510511335147 -0.5677096521838052 1.6063403726675693 
vertex -2.142298255842805 0.19288551588287856 0.9686514635990968 
endloop
endfacet
facet normal -0.9839289838587341 -0.1770402510899813 -0.023248746562241046 
outer loop
vertex -2.04370915643301 -0.3677212201594207 1.0652280641407696 
vertex -2.142298255842805 0.19288551588287856 0.9686514635990968 
vertex -1.968318702121078 -0.7283395241773356 0.620692356155643 
endloop
endfacet
facet normal -0.9839289838587342 -0.17704025108998098 -0.02324874656224136 
outer loop
vertex -2.04370915643301 -0.3677212201594207 1.0652280641407696 
vertex -1.968318702121078 -0.7283395241773356 0.620692356155643 
vertex -2.020510511335147 -0.5677096521838052 1.6063403726675693 
endloop
endfacet
facet normal -0.19048104658599802 -0.8810636253953068 0.43294787087683123 
outer loop
vertex -0.3956444669261046 -1.8300508044161337 2.0127812201873274 
vertex -0.9614842158352799 -1.7461877576526594 1.9344968126779127 
vertex -0.08444812124271296 -2.0970516184436296 1.6063403726675713 
endloop
endfacet
facet normal -0.19048104658599774 -0.8810636253953068 0.43294787087683145 
outer loop
vertex -0.3956444669261046 -1.8300508044161337 2.0127812201873274 
vertex -0.08444812124271296 -2.0970516184436296 1.6063403726675713 
vertex -0.14100106370032087 -1.6469130371521117 2.497506475216498 
endloop
endfacet
facet normal -0.1904810465859981 -0.8810636253953066 0.43294787087683173 
outer loop
vertex -0.3956444669261046 -1.8300508044161337 2.0127812201873274 
vertex -0.14100106370032087 -1.6469130371521117 2.497506475216498 
vertex -0.9614842158352799 -1.7461877576526594 1.9344968126779127 
endloop
endfacet
facet normal -0.3302453776459458 -0.7215675178354857 0.6085049775870551 
outer loop
vertex -0.6859500448666985 -1.4987548184276775 2.3774405322214887 
vertex -0.14100106370032087 -1.6469130371521117 2.497506475216498 
vertex -0.9553648550644952 -1.1031636604782618 2.7003183087700546 
endloop
endfacet
facet normal -0.3302453776459459 -0.7215675178354857 0.6085049775870551 
outer loop
vertex -0.6859500448666985 -1.4987548184276775 2.3774405322214887 
vertex -0.9553648550644952 -1.1031636604782618 2.7003183087700546 
vertex -0.9614842158352799 -1.7461877576526594 1.9344968126779127 
endloop
endfacet
facet normal -0.3302453776459458 -0.7215675178354858 0.6085049775870552 
outer loop
vertex -0.6859500448666985 -1.4987548184276775 2.3774405322214887 
vertex -0.9614842158352799 -1.7461877576526594 1.9344968126779127 
vertex -0.14100106370032087 -1.6469130371521117 2.497506475216498 
endloop
endfacet
facet normal -0.9296788544019793 0.34400498140866204 -0.13174900547575127 
outer loop
vertex -1.9310232318573775 0.7145328350972168 0.8398562149895047 
vertex -1.8465309576134206 1.1031636604782598 1.2583812652241169 
vertex -1.804240482115907 0.847549328930512 0.2925359161453004 
endloop
endfacet
facet normal -0.9296788544019791 0.3440049814086625 -0.1317490054757511 
outer loop
vertex -1.9310232318573775 0.7145328350972168 0.8398562149895047 
vertex -1.804240482115907 0.847549328930512 0.2925359161453004 
vertex -2.142298255842805 0.19288551588287856 0.9686514635990968 
endloop
endfacet
facet normal -0.9296788544019792 0.3440049814086623 -0.13174900547575139 
outer loop
vertex -1.9310232318573775 0.7145328350972168 0.8398562149895047 
vertex -2.142298255842805 0.19288551588287856 0.9686514635990968 
vertex -1.8465309576134206 1.1031636604782598 1.2583812652241169 
endloop
endfacet
facet normal -0.9543270473093918 0.2681456438763988 0.13174900547575114 
outer loop
vertex -1.9822224738543266 0.5569577708873542 1.3871765138337089 
vertex -2.142298255842805 0.19288551588287856 0.9686514635990968 
vertex -1.9578382081067547 0.3748241363009243 1.9344968126779132 
endloop
endfacet
facet normal -0.954327047309392 0.26814564387639794 0.13174900547575086 
outer loop
vertex -1.9822224738543266 0.5569577708873542 1.3871765138337089 
vertex -1.9578382081067547 0.3748241363009243 1.9344968126779132 
vertex -1.8465309576134206 1.1031636604782598 1.2583812652241169 
endloop
endfacet
facet normal -0.9543270473093918 0.2681456438763981 0.13174900547575177 
outer loop
vertex -1.9822224738543266 0.5569577708873542 1.3871765138337089 
vertex -1.8465309576134206 1.1031636604782598 1.2583812652241169 
vertex -2.142298255842805 0.19288551588287856 0.9686514635990968 
endloop
endfacet
facet normal -0.6919536205469423 0.7215675178354849 0.023248746562240623 
outer loop
vertex -1.4372543289492927 1.4987548184276764 1.1618046646824434 
vertex -1.3009359798456197 1.646913037152111 0.6206923561556429 
vertex -1.8465309576134206 1.1031636604782598 1.2583812652241169 
endloop
endfacet
facet normal -0.6919536205469422 0.721567517835485 0.02324874656224163 
outer loop
vertex -1.4372543289492927 1.4987548184276764 1.1618046646824434 
vertex -1.8465309576134206 1.1031636604782598 1.2583812652241169 
vertex -1.164296049388838 1.7461877576526579 1.6063403726675705 
endloop
endfacet
facet normal -0.6919536205469418 0.7215675178354857 0.02324874656224097 
outer loop
vertex -1.4372543289492927 1.4987548184276764 1.1618046646824434 
vertex -1.164296049388838 1.7461877576526579 1.6063403726675705 
vertex -1.3009359798456197 1.646913037152111 0.6206923561556429 
endloop
endfacet
facet normal -0.47242606171607887 0.881063625395306 -0.023248746562241098 
outer loop
vertex -0.9812645235101098 1.8300508044161328 1.06522806414077 
vertex -1.164296049388838 1.7461877576526579 1.6063403726675705 
vertex -0.4785615412958719 2.0970516184436296 0.9686514635990966 
endloop
endfacet
facet normal -0.47242606171607876 0.8810636253953061 -0.02324874656224068 
outer loop
vertex -0.9812645235101098 1.8300508044161328 1.06522806414077 
vertex -0.4785615412958719 2.0970516184436296 0.9686514635990966 
vertex -1.3009359798456197 1.646913037152111 0.6206923561556429 
endloop
endfacet
facet normal -0.4724260617160786 0.8810636253953062 -0.023248746562240942 
outer loop
vertex -0.9812645235101098 1.8300508044161328 1.06522806414077 
vertex -1.3009359798456197 1.646913037152111 0.6206923561556429 
vertex -1.164296049388838 1.7461877576526579 1.6063403726675705 
endloop
endfacet
facet normal -0.8968031827042379 -0.09110539278641805 0.432947870876832 
outer loop
vertex -1.8627426067017343 -0.18923655072793544 2.0127812201873265 
vertex -1.9578382081067547 0.3748241363009243 1.9344968126779132 
vertex -2.020510511335147 -0.5677096521838052 1.6063403726675693 
endloop
endfacet
facet normal -0.8968031827042374 -0.09110539278641876 0.4329478708768324 
outer loop
vertex -1.8627426067017343 -0.18923655072793544 2.0127812201873265 
vertex -2.020510511335147 -0.5677096521838052 1.6063403726675693 
vertex -1.609879100663301 -0.3748241363009254 2.4975064752164964 
endloop
endfacet
facet normal -0.8968031827042374 -0.09110539278641783 0.43294787087683273 
outer loop
vertex -1.8627426067017343 -0.18923655072793544 2.0127812201873265 
vertex -1.609879100663301 -0.3748241363009254 2.4975064752164964 
vertex -1.9578382081067547 0.3748241363009243 1.9344968126779132 
endloop
endfacet
facet normal -0.7883029237907277 0.09110539278641697 0.6085049775870552 
outer loop
vertex -1.6373707575504686 0.1892365507279344 2.377440532221488 
vertex -1.609879100663301 -0.3748241363009254 2.4975064752164964 
vertex -1.3443949638813506 0.5677096521838043 2.7003183087700555 
endloop
endfacet
facet normal -0.7883029237907272 0.09110539278641575 0.6085049775870561 
outer loop
vertex -1.6373707575504686 0.1892365507279344 2.377440532221488 
vertex -1.3443949638813506 0.5677096521838043 2.7003183087700555 
vertex -1.9578382081067547 0.3748241363009243 1.9344968126779132 
endloop
endfacet
facet normal -0.7883029237907269 0.09110539278641726 0.6085049775870566 
outer loop
vertex -1.6373707575504686 0.1892365507279344 2.377440532221488 
vertex -1.9578382081067547 0.3748241363009243 1.9344968126779132 
vertex -1.609879100663301 -0.3748241363009254 2.4975064752164964 
endloop
endfacet
facet normal 0.03988161388545864 0.9904805179457301 -0.1317490054757514 
outer loop
vertex 0.08284211374929433 2.057315016859238 0.8398562149895046 
vertex 0.4785615412958707 2.09705161844363 1.2583812652241169 
vertex 0.2485263412478842 1.9778418136904532 0.2925359161453003 
endloop
endfacet
facet normal 0.039881613885456545 0.9904805179457301 -0.13174900547575202 
outer loop
vertex 0.08284211374929433 2.057315016859238 0.8398562149895046 
vertex 0.2485263412478842 1.9778418136904532 0.2925359161453003 
vertex -0.4785615412958719 2.0970516184436296 0.9686514635990966 
endloop
endfacet
facet normal 0.039881613885457044 0.9904805179457303 -0.13174900547574991 
outer loop
vertex 0.08284211374929433 2.057315016859238 0.8398562149895046 
vertex -0.4785615412958719 2.0970516184436296 0.9686514635990966 
vertex 0.4785615412958707 2.09705161844363 1.2583812652241169 
endloop
endfacet
facet normal -0.039881613885458 0.9904805179457301 0.1317490054757508 
outer loop
vertex -0.08284211374929555 2.0573150168592376 1.3871765138337089 
vertex -0.4785615412958719 2.0970516184436296 0.9686514635990966 
vertex -0.2485263412478854 1.9778418136904532 1.9344968126779132 
endloop
endfacet
facet normal -0.0398816138854584 0.9904805179457301 0.1317490054757507 
outer loop
vertex -0.08284211374929555 2.0573150168592376 1.3871765138337089 
vertex -0.2485263412478854 1.9778418136904532 1.9344968126779132 
vertex 0.4785615412958707 2.09705161844363 1.2583812652241169 
endloop
endfacet
facet normal -0.03988161388545833 0.9904805179457301 0.13174900547575114 
outer loop
vertex -0.08284211374929555 2.0573150168592376 1.3871765138337089 
vertex 0.4785615412958707 2.09705161844363 1.2583812652241169 
vertex -0.4785615412958719 2.0970516184436296 0.9686514635990966 
endloop
endfacet
facet normal 0.4724260617160785 0.8810636253953064 0.023248746562241376 
outer loop
vertex 0.9812645235101088 1.8300508044161334 1.1618046646824436 
vertex 1.164296049388837 1.7461877576526588 0.620692356155643 
vertex 0.4785615412958707 2.09705161844363 1.2583812652241169 
endloop
endfacet
facet normal 0.4724260617160786 0.8810636253953064 0.023248746562241927 
outer loop
vertex 0.9812645235101088 1.8300508044161334 1.1618046646824436 
vertex 0.4785615412958707 2.09705161844363 1.2583812652241169 
vertex 1.3009359798456186 1.6469130371521112 1.606340372667571 
endloop
endfacet
facet normal 0.472426061716079 0.8810636253953061 0.023248746562241556 
outer loop
vertex 0.9812645235101088 1.8300508044161334 1.1618046646824436 
vertex 1.3009359798456186 1.6469130371521112 1.606340372667571 
vertex 1.164296049388837 1.7461877576526588 0.620692356155643 
endloop
endfacet
facet normal 0.6919536205469422 0.7215675178354852 -0.0232487465622401 
outer loop
vertex 1.4372543289492918 1.4987548184276769 1.0652280641407703 
vertex 1.3009359798456186 1.6469130371521112 1.606340372667571 
vertex 1.8465309576134197 1.1031636604782604 0.9686514635990969 
endloop
endfacet
facet normal 0.6919536205469422 0.7215675178354851 -0.023248746562240668 
outer loop
vertex 1.4372543289492918 1.4987548184276769 1.0652280641407703 
vertex 1.8465309576134197 1.1031636604782604 0.9686514635990969 
vertex 1.164296049388837 1.7461877576526588 0.620692356155643 
endloop
endfacet
facet normal 0.6919536205469417 0.7215675178354855 -0.02324874656224033 
outer loop
vertex 1.4372543289492918 1.4987548184276769 1.0652280641407703 
vertex 1.164296049388837 1.7461877576526588 0.620692356155643 
vertex 1.3009359798456186 1.6469130371521112 1.606340372667571 
endloop
endfacet
facet normal -0.3637738015443026 0.8247573960948903 0.4329478708768325 
outer loop
vertex -0.7555937763081456 1.7130961841524759 2.012781220187327 
vertex -0.2485263412478854 1.9778418136904532 1.9344968126779132 
vertex -1.164296049388838 1.7461877576526579 1.6063403726675705 
endloop
endfacet
facet normal -0.3637738015443031 0.8247573960948898 0.43294787087683284 
outer loop
vertex -0.7555937763081456 1.7130961841524759 2.012781220187327 
vertex -1.164296049388838 1.7461877576526579 1.6063403726675705 
vertex -0.853958938287714 1.4152589811143161 2.497506475216497 
endloop
endfacet
facet normal -0.36377380154430233 0.8247573960948901 0.43294787087683323 
outer loop
vertex -0.7555937763081456 1.7130961841524759 2.012781220187327 
vertex -0.853958938287714 1.4152589811143161 2.497506475216497 
vertex -0.2485263412478854 1.9778418136904532 1.9344968126779132 
endloop
endfacet
facet normal -0.1569526226876427 0.7778737471359006 0.608504977587056 
outer loop
vertex -0.3260007354846561 1.615709438691334 2.377440532221488 
vertex -0.853958938287714 1.4152589811143161 2.497506475216497 
vertex 0.12448307308163106 1.4540275212692324 2.700318308770055 
endloop
endfacet
facet normal -0.15695262268764285 0.7778737471359004 0.608504977587056 
outer loop
vertex -0.3260007354846561 1.615709438691334 2.377440532221488 
vertex 0.12448307308163106 1.4540275212692324 2.700318308770055 
vertex -0.2485263412478854 1.9778418136904532 1.9344968126779132 
endloop
endfacet
facet normal -0.15695262268764265 0.7778737471359004 0.608504977587056 
outer loop
vertex -0.3260007354846561 1.615709438691334 2.377440532221488 
vertex -0.2485263412478854 1.9778418136904532 1.9344968126779132 
vertex -0.853958938287714 1.4152589811143161 2.497506475216497 
endloop
endfacet
facet normal 0.6719786091330999 0.6008334960459201 0.4329478708768318 
outer loop
vertex 1.3957599712554147 1.247988218531914 2.012781220187328 
vertex 1.8042404821159064 0.8475493289305128 1.9344968126779134 
vertex 1.3009359798456186 1.6469130371521112 1.606340372667571 
endloop
endfacet
facet normal 0.6719786091330988 0.6008334960459207 0.43294787087683273 
outer loop
vertex 1.3957599712554147 1.247988218531914 2.012781220187328 
vertex 1.3009359798456186 1.6469130371521112 1.606340372667571 
vertex 1.082103451804719 1.2495022895131176 2.497506475216498 
endloop
endfacet
facet normal 0.6719786091330997 0.6008334960459193 0.4329478708768333 
outer loop
vertex 1.3957599712554147 1.247988218531914 2.012781220187328 
vertex 1.082103451804719 1.2495022895131176 2.497506475216498 
vertex 1.8042404821159064 0.8475493289305128 1.9344968126779134 
endloop
endfacet
facet normal 0.6913008683463261 0.3896470218998107 0.6085049775870562 
outer loop
vertex 1.4358912226634872 0.8093267983273242 2.377440532221489 
vertex 1.082103451804719 1.2495022895131176 2.497506475216498 
vertex 1.4213297340698359 0.3309287765383421 2.7003183087700555 
endloop
endfacet
facet normal 0.6913008683463269 0.3896470218998103 0.6085049775870557 
outer loop
vertex 1.4358912226634872 0.8093267983273242 2.377440532221489 
vertex 1.4213297340698359 0.3309287765383421 2.7003183087700555 
vertex 1.8042404821159064 0.8475493289305128 1.9344968126779134 
endloop
endfacet
facet normal 0.6913008683463266 0.38964702189981126 0.6085049775870555 
outer loop
vertex 1.4358912226634872 0.8093267983273242 2.377440532221489 
vertex 1.8042404821159064 0.8475493289305128 1.9344968126779134 
vertex 1.082103451804719 1.2495022895131176 2.497506475216498 
endloop
endfacet
facet normal 0.23510425090725331 -0.38964702189981015 0.8904499927171362 
outer loop
vertex 0.48833806661692863 -0.8093267983273241 2.963060588805495 
vertex 0.7539470117943756 -1.249502289513118 2.7003183087700564 
vertex 0.7836408250013602 -0.3309287765383418 3.0944317288232144 
endloop
endfacet
facet normal 0.2351042509072534 -0.3896470218998102 0.8904499927171362 
outer loop
vertex 0.48833806661692863 -0.8093267983273241 2.963060588805495 
vertex 0.7836408250013602 -0.3309287765383418 3.0944317288232144 
vertex -0.07257363694494998 -0.8475493289305127 3.0944317288232144 
endloop
endfacet
facet normal 0.2351042509072534 -0.3896470218998101 0.8904499927171364 
outer loop
vertex 0.48833806661692863 -0.8093267983273241 2.963060588805495 
vertex -0.07257363694494998 -0.8475493289305127 3.0944317288232144 
vertex 0.7539470117943756 -1.249502289513118 2.7003183087700564 
endloop
endfacet
facet normal 0.0867223781082857 -0.6008334960459201 0.7946561137778284 
outer loop
vertex 0.18012410371636825 -1.247988218531914 2.764085504269923 
vertex -0.07257363694494998 -0.8475493289305127 3.0944317288232144 
vertex -0.14100106370032087 -1.6469130371521117 2.497506475216498 
endloop
endfacet
facet normal 0.08672237810828463 -0.6008334960459194 0.7946561137778289 
outer loop
vertex 0.18012410371636825 -1.247988218531914 2.764085504269923 
vertex -0.14100106370032087 -1.6469130371521117 2.497506475216498 
vertex 0.7539470117943756 -1.249502289513118 2.7003183087700564 
endloop
endfacet
facet normal 0.08672237810828454 -0.6008334960459205 0.7946561137778282 
outer loop
vertex 0.18012410371636825 -1.247988218531914 2.764085504269923 
vertex 0.7539470117943756 -1.249502289513118 2.7003183087700564 
vertex -0.07257363694494998 -0.8475493289305127 3.0944317288232144 
endloop
endfacet
facet normal 0.5982253002509396 -0.1031898782594059 0.7946561137778292 
outer loop
vertex 1.24256873663927 -0.2143413657247992 2.7640855042699233 
vertex 0.7836408250013602 -0.3309287765383418 3.0944317288232144 
vertex 1.5227356508466137 -0.6430240971743978 2.497506475216499 
endloop
endfacet
facet normal 0.5982253002509406 -0.10318987825940497 0.7946561137778286 
outer loop
vertex 1.24256873663927 -0.2143413657247992 2.7640855042699233 
vertex 1.5227356508466137 -0.6430240971743978 2.497506475216499 
vertex 1.4213297340698359 0.3309287765383421 2.7003183087700555 
endloop
endfacet
facet normal 0.5982253002509396 -0.10318987825940452 0.7946561137778295 
outer loop
vertex 1.24256873663927 -0.2143413657247992 2.7640855042699233 
vertex 1.4213297340698359 0.3309287765383421 2.7003183087700555 
vertex 0.7836408250013602 -0.3309287765383418 3.0944317288232144 
endloop
endfacet
facet normal 0.4432275482129482 0.10318987825940734 0.8904499927171359 
outer loop
vertex 0.9206202869463311 0.21434136572479945 2.963060588805495 
vertex 1.4213297340698359 0.3309287765383421 2.7003183087700555 
vertex 0.5568903017677974 0.643024097174398 3.0944317288232135 
endloop
endfacet
facet normal 0.4432275482129463 0.10318987825940527 0.890449992717137 
outer loop
vertex 0.9206202869463311 0.21434136572479945 2.963060588805495 
vertex 0.5568903017677974 0.643024097174398 3.0944317288232135 
vertex 0.7836408250013602 -0.3309287765383418 3.0944317288232144 
endloop
endfacet
facet normal 0.44322754821294896 0.10318987825940433 0.890449992717136 
outer loop
vertex 0.9206202869463311 0.21434136572479945 2.963060588805495 
vertex 0.7836408250013602 -0.3309287765383418 3.0944317288232144 
vertex 1.4213297340698359 0.3309287765383421 2.7003183087700555 
endloop
endfacet
facet normal -0.29792513025268363 -0.34400498140866204 0.8904499927171361 
outer loop
vertex -0.6188107637766601 -0.7145328350972177 2.963060588805494 
vertex -0.9553648550644952 -1.1031636604782618 2.7003183087700546 
vertex -0.07257363694494998 -0.8475493289305127 3.0944317288232144 
endloop
endfacet
facet normal -0.2979251302526836 -0.34400498140866176 0.8904499927171362 
outer loop
vertex -0.6188107637766601 -0.7145328350972177 2.963060588805494 
vertex -0.07257363694494998 -0.8475493289305127 3.0944317288232144 
vertex -0.8284937993205351 -0.19288551588287822 3.0944317288232135 
endloop
endfacet
facet normal -0.29792513025268375 -0.34400498140866187 0.8904499927171361 
outer loop
vertex -0.6188107637766601 -0.7145328350972177 2.963060588805494 
vertex -0.8284937993205351 -0.19288551588287822 3.0944317288232135 
vertex -0.9553648550644952 -1.1031636604782618 2.7003183087700546 
endloop
endfacet
facet normal -0.5446279229948014 -0.26814564387639755 0.7946561137778282 
outer loop
vertex -1.1312459183494437 -0.5569577708873551 2.7640855042699215 
vertex -0.8284937993205351 -0.19288551588287822 3.0944317288232135 
vertex -1.609879100663301 -0.3748241363009254 2.4975064752164964 
endloop
endfacet
facet normal -0.5446279229948014 -0.26814564387639717 0.7946561137778285 
outer loop
vertex -1.1312459183494437 -0.5569577708873551 2.7640855042699215 
vertex -1.609879100663301 -0.3748241363009254 2.4975064752164964 
vertex -0.9553648550644952 -1.1031636604782618 2.7003183087700546 
endloop
endfacet
facet normal -0.5446279229948017 -0.26814564387639717 0.7946561137778282 
outer loop
vertex -1.1312459183494437 -0.5569577708873551 2.7640855042699215 
vertex -0.9553648550644952 -1.1031636604782618 2.7003183087700546 
vertex -0.8284937993205351 -0.19288551588287822 3.0944317288232135 
endloop
endfacet
facet normal -0.41923210750615036 0.1770402510899815 0.8904499927171362 
outer loop
vertex -0.8707841512351875 0.36772122015942066 2.963060588805494 
vertex -1.3443949638813506 0.5677096521838043 2.7003183087700555 
vertex -0.8284937993205351 -0.19288551588287822 3.0944317288232135 
endloop
endfacet
facet normal -0.4192321075061506 0.17704025108998148 0.890449992717136 
outer loop
vertex -0.8707841512351875 0.36772122015942066 2.963060588805494 
vertex -0.8284937993205351 -0.19288551588287822 3.0944317288232135 
vertex -0.43946369050367695 0.7283395241773358 3.0944317288232135 
endloop
endfacet
facet normal -0.4192321075061506 0.17704025108998137 0.8904499927171362 
outer loop
vertex -0.8707841512351875 0.36772122015942066 2.963060588805494 
vertex -0.43946369050367695 0.7283395241773358 3.0944317288232135 
vertex -1.3443949638813506 0.5677096521838043 2.7003183087700555 
endloop
endfacet
facet normal -0.42332094574133206 0.43511037419508153 0.7946561137778281 
outer loop
vertex -0.8792725308909138 0.9037693858251522 2.764085504269922 
vertex -0.43946369050367695 0.7283395241773358 3.0944317288232135 
vertex -0.853958938287714 1.4152589811143161 2.497506475216497 
endloop
endfacet
facet normal -0.4233209457413322 0.43511037419508136 0.794656113777828 
outer loop
vertex -0.8792725308909138 0.9037693858251522 2.764085504269922 
vertex -0.853958938287714 1.4152589811143161 2.497506475216497 
vertex -1.3443949638813506 0.5677096521838043 2.7003183087700555 
endloop
endfacet
facet normal -0.42332094574133206 0.43511037419508114 0.7946561137778281 
outer loop
vertex -0.8792725308909138 0.9037693858251522 2.764085504269922 
vertex -1.3443949638813506 0.5677096521838043 2.7003183087700555 
vertex -0.43946369050367695 0.7283395241773358 3.0944317288232135 
endloop
endfacet
facet normal 0.03882543863863225 0.4534218739590866 0.8904499927171362 
outer loop
vertex 0.08063656144858385 0.9417970475403221 2.9630605888054937 
vertex 0.12448307308163106 1.4540275212692324 2.700318308770055 
vertex -0.43946369050367695 0.7283395241773358 3.0944317288232135 
endloop
endfacet
facet normal 0.038825438638631665 0.45342187395908773 0.8904499927171355 
outer loop
vertex 0.08063656144858385 0.9417970475403221 2.9630605888054937 
vertex -0.43946369050367695 0.7283395241773358 3.0944317288232135 
vertex 0.5568903017677974 0.643024097174398 3.0944317288232135 
endloop
endfacet
facet normal 0.038825438638630805 0.4534218739590867 0.8904499927171362 
outer loop
vertex 0.08063656144858385 0.9417970475403221 2.9630605888054937 
vertex 0.5568903017677974 0.643024097174398 3.0944317288232135 
vertex 0.12448307308163106 1.4540275212692324 2.700318308770055 
endloop
endfacet
facet normal 0.2830011903769084 0.5370586439866422 0.7946561137778291 
outer loop
vertex 0.5878256088847159 1.1155179693189161 2.764085504269923 
vertex 0.5568903017677974 0.643024097174398 3.0944317288232135 
vertex 1.082103451804719 1.2495022895131176 2.497506475216498 
endloop
endfacet
facet normal 0.2830011903769071 0.5370586439866447 0.7946561137778277 
outer loop
vertex 0.5878256088847159 1.1155179693189161 2.764085504269923 
vertex 1.082103451804719 1.2495022895131176 2.497506475216498 
vertex 0.12448307308163106 1.4540275212692324 2.700318308770055 
endloop
endfacet
facet normal 0.28300119037690535 0.5370586439866429 0.7946561137778296 
outer loop
vertex 0.5878256088847159 1.1155179693189161 2.764085504269923 
vertex 0.12448307308163106 1.4540275212692324 2.700318308770055 
vertex 0.5568903017677974 0.643024097174398 3.0944317288232135 
endloop
endfacet
endsolid test
