solid test
facet normal 0.0 0.0 -1.0 
outer loop
vertex -2.7755575615628914e-17 1.3877787807814457e-17 -0.6426135089259615 
vertex -0.20044528230033193 -0.6781015328131477 -0.6426135089259615 
vertex -0.6781015328131477 0.2004452823003319 -0.6426135089259615 
endloop
endfacet
facet normal 0.0 0.0 -1.0 
outer loop
vertex -2.7755575615628914e-17 1.3877787807814457e-17 -0.6426135089259615 
vertex -0.6781015328131477 0.2004452823003319 -0.6426135089259615 
vertex 0.20044528230033187 0.6781015328131477 -0.6426135089259615 
endloop
endfacet
facet normal 0.0 -0.0 -1.0 
outer loop
vertex -2.7755575615628914e-17 1.3877787807814457e-17 -0.6426135089259615 
vertex 0.20044528230033187 0.6781015328131477 -0.6426135089259615 
vertex 0.6781015328131477 -0.20044528230033182 -0.6426135089259615 
endloop
endfacet
facet normal -0.0 0.0 -1.0 
outer loop
vertex -2.7755575615628914e-17 1.3877787807814457e-17 -0.6426135089259615 
vertex 0.6781015328131477 -0.20044528230033182 -0.6426135089259615 
vertex -0.20044528230033193 -0.6781015328131477 -0.6426135089259615 
endloop
endfacet
facet normal 0.0 0.0 1.0 
outer loop
vertex -2.0816681711721685e-17 0.0 1.6426135089259615 
vertex 0.6781015328131477 0.20044528230033182 1.6426135089259615 
vertex -0.2004452823003318 0.6781015328131477 1.6426135089259615 
endloop
endfacet
facet normal 0.0 0.0 1.0 
outer loop
vertex -2.0816681711721685e-17 0.0 1.6426135089259615 
vertex -0.2004452823003318 0.6781015328131477 1.6426135089259615 
vertex -0.6781015328131477 -0.20044528230033173 1.6426135089259615 
endloop
endfacet
facet normal -0.0 0.0 1.0 
outer loop
vertex -2.0816681711721685e-17 0.0 1.6426135089259615 
vertex -0.6781015328131477 -0.20044528230033173 1.6426135089259615 
vertex 0.20044528230033168 -0.6781015328131477 1.6426135089259615 
endloop
endfacet
facet normal 0.0 -0.0 1.0 
outer loop
vertex -2.0816681711721685e-17 0.0 1.6426135089259615 
vertex 0.20044528230033168 -0.6781015328131477 1.6426135089259615 
vertex 0.6781015328131477 0.20044528230033182 1.6426135089259615 
endloop
endfacet
facet normal -0.7071067811865476 -0.7071067811865474 1.110223024625156e-16 
outer loop
vertex -0.8079497604369033 -0.807949760436903 0.5 
vertex -1.0467778856933112 -0.5691216351804951 -0.12122641055658534 
vertex -0.36867635288016354 -1.247223167993643 0.1622460261862476 
endloop
endfacet
facet normal -0.7071067811865478 -0.7071067811865474 -8.326672684688673e-17 
outer loop
vertex -0.8079497604369033 -0.807949760436903 0.5 
vertex -0.36867635288016354 -1.247223167993643 0.1622460261862476 
vertex -0.5691216351804953 -1.0467778856933112 1.1212264105565852 
endloop
endfacet
facet normal -0.7071067811865477 -0.7071067811865475 -1.6653345369377348e-16 
outer loop
vertex -0.8079497604369033 -0.807949760436903 0.5 
vertex -0.5691216351804953 -1.0467778856933112 1.1212264105565852 
vertex -1.247223167993643 -0.36867635288016326 0.8377539738137524 
endloop
endfacet
facet normal -0.7071067811865476 -0.7071067811865475 2.7755575615628907e-17 
outer loop
vertex -0.8079497604369033 -0.807949760436903 0.5 
vertex -1.247223167993643 -0.36867635288016326 0.8377539738137524 
vertex -1.0467778856933112 -0.5691216351804951 -0.12122641055658534 
endloop
endfacet
facet normal -0.7071067811865474 0.7071067811865478 1.6653345369377346e-16 
outer loop
vertex -0.807949760436903 0.8079497604369033 0.5 
vertex -0.5691216351804951 1.0467778856933112 -0.12122641055658531 
vertex -1.247223167993643 0.36867635288016365 0.16224602618624762 
endloop
endfacet
facet normal -0.7071067811865472 0.7071067811865479 -1.3877787807814457e-16 
outer loop
vertex -0.807949760436903 0.8079497604369033 0.5 
vertex -1.247223167993643 0.36867635288016365 0.16224602618624762 
vertex -1.0467778856933112 0.5691216351804954 1.1212264105565852 
endloop
endfacet
facet normal -0.7071067811865475 0.7071067811865477 -2.7755575615628914e-16 
outer loop
vertex -0.807949760436903 0.8079497604369033 0.5 
vertex -1.0467778856933112 0.5691216351804954 1.1212264105565852 
vertex -0.36867635288016326 1.247223167993643 0.8377539738137524 
endloop
endfacet
facet normal -0.7071067811865475 0.7071067811865476 2.7755575615628907e-17 
outer loop
vertex -0.807949760436903 0.8079497604369033 0.5 
vertex -0.36867635288016326 1.247223167993643 0.8377539738137524 
vertex -0.5691216351804951 1.0467778856933112 -0.12122641055658531 
endloop
endfacet
facet normal 0.7071067811865476 0.7071067811865475 -1.1102230246251565e-16 
outer loop
vertex 0.8079497604369033 0.8079497604369033 0.5 
vertex 1.0467778856933112 0.5691216351804952 -0.12122641055658528 
vertex 0.3686763528801636 1.247223167993643 0.16224602618624762 
endloop
endfacet
facet normal 0.7071067811865476 0.7071067811865476 2.775557561562892e-17 
outer loop
vertex 0.8079497604369033 0.8079497604369033 0.5 
vertex 0.3686763528801636 1.247223167993643 0.16224602618624762 
vertex 0.5691216351804953 1.0467778856933112 1.1212264105565852 
endloop
endfacet
facet normal 0.7071067811865478 0.7071067811865475 1.1102230246251563e-16 
outer loop
vertex 0.8079497604369033 0.8079497604369033 0.5 
vertex 0.5691216351804953 1.0467778856933112 1.1212264105565852 
vertex 1.247223167993643 0.3686763528801633 0.8377539738137525 
endloop
endfacet
facet normal 0.7071067811865478 0.7071067811865475 0.0 
outer loop
vertex 0.8079497604369033 0.8079497604369033 0.5 
vertex 1.247223167993643 0.3686763528801633 0.8377539738137525 
vertex 1.0467778856933112 0.5691216351804952 -0.12122641055658528 
endloop
endfacet
facet normal 0.7071067811865474 -0.7071067811865476 1.110223024625156e-16 
outer loop
vertex 0.807949760436903 -0.8079497604369033 0.5 
vertex 0.5691216351804951 -1.0467778856933112 -0.12122641055658534 
vertex 1.247223167993643 -0.36867635288016354 0.16224602618624762 
endloop
endfacet
facet normal 0.7071067811865474 -0.7071067811865478 -8.326672684688673e-17 
outer loop
vertex 0.807949760436903 -0.8079497604369033 0.5 
vertex 1.247223167993643 -0.36867635288016354 0.16224602618624762 
vertex 1.0467778856933112 -0.5691216351804953 1.1212264105565852 
endloop
endfacet
facet normal 0.7071067811865475 -0.7071067811865478 -1.1102230246251565e-16 
outer loop
vertex 0.807949760436903 -0.8079497604369033 0.5 
vertex 1.0467778856933112 -0.5691216351804953 1.1212264105565852 
vertex 0.3686763528801632 -1.247223167993643 0.8377539738137524 
endloop
endfacet
facet normal 0.7071067811865475 -0.7071067811865476 5.5511151231257815e-17 
outer loop
vertex 0.807949760436903 -0.8079497604369033 0.5 
vertex 0.3686763528801632 -1.247223167993643 0.8377539738137524 
vertex 0.5691216351804951 -1.0467778856933112 -0.12122641055658534 
endloop
endfacet
facet normal 0.0 -0.816496580927726 -0.5773502691896258 
outer loop
vertex -1.295260195396016e-16 -0.9907008621667006 -0.20053129776543308 
vertex -0.20044528230033193 -0.6781015328131477 -0.6426135089259615 
vertex 0.5691216351804951 -1.0467778856933112 -0.12122641055658534 
endloop
endfacet
facet normal -8.412961752928106e-17 -0.816496580927726 -0.5773502691896258 
outer loop
vertex -1.295260195396016e-16 -0.9907008621667006 -0.20053129776543308 
vertex 0.5691216351804951 -1.0467778856933112 -0.12122641055658534 
vertex -0.36867635288016354 -1.247223167993643 0.1622460261862476 
endloop
endfacet
facet normal -9.614813431917835e-17 -0.816496580927726 -0.5773502691896258 
outer loop
vertex -1.295260195396016e-16 -0.9907008621667006 -0.20053129776543308 
vertex -0.36867635288016354 -1.247223167993643 0.1622460261862476 
vertex -0.20044528230033193 -0.6781015328131477 -0.6426135089259615 
endloop
endfacet
facet normal -0.8164965809277259 0.0 -0.577350269189626 
outer loop
vertex -0.9907008621667006 1.4802973661668753e-16 -0.20053129776543308 
vertex -0.6781015328131477 0.2004452823003319 -0.6426135089259615 
vertex -1.0467778856933112 -0.5691216351804951 -0.12122641055658534 
endloop
endfacet
facet normal -0.816496580927726 8.412961752928106e-17 -0.5773502691896258 
outer loop
vertex -0.9907008621667006 1.4802973661668753e-16 -0.20053129776543308 
vertex -1.0467778856933112 -0.5691216351804951 -0.12122641055658534 
vertex -1.247223167993643 0.36867635288016365 0.16224602618624762 
endloop
endfacet
facet normal -0.816496580927726 1.922962686383567e-16 -0.5773502691896258 
outer loop
vertex -0.9907008621667006 1.4802973661668753e-16 -0.20053129776543308 
vertex -1.247223167993643 0.36867635288016365 0.16224602618624762 
vertex -0.6781015328131477 0.2004452823003319 -0.6426135089259615 
endloop
endfacet
facet normal 0.0 0.816496580927726 -0.577350269189626 
outer loop
vertex 1.295260195396016e-16 0.9907008621667006 -0.20053129776543308 
vertex 0.20044528230033187 0.6781015328131477 -0.6426135089259615 
vertex -0.5691216351804951 1.0467778856933112 -0.12122641055658531 
endloop
endfacet
facet normal 6.009258394948646e-17 0.816496580927726 -0.5773502691896258 
outer loop
vertex 1.295260195396016e-16 0.9907008621667006 -0.20053129776543308 
vertex -0.5691216351804951 1.0467778856933112 -0.12122641055658531 
vertex 0.3686763528801636 1.247223167993643 0.16224602618624762 
endloop
endfacet
facet normal 1.922962686383567e-16 0.816496580927726 -0.577350269189626 
outer loop
vertex 1.295260195396016e-16 0.9907008621667006 -0.20053129776543308 
vertex 0.3686763528801636 1.247223167993643 0.16224602618624762 
vertex 0.20044528230033187 0.6781015328131477 -0.6426135089259615 
endloop
endfacet
facet normal 0.816496580927726 -9.614813431917833e-17 -0.5773502691896258 
outer loop
vertex 0.9907008621667006 -5.551115123125783e-17 -0.20053129776543302 
vertex 0.6781015328131477 -0.20044528230033182 -0.6426135089259615 
vertex 1.0467778856933112 0.5691216351804952 -0.12122641055658528 
endloop
endfacet
facet normal 0.816496580927726 -7.211110073938376e-17 -0.577350269189626 
outer loop
vertex 0.9907008621667006 -5.551115123125783e-17 -0.20053129776543302 
vertex 1.0467778856933112 0.5691216351804952 -0.12122641055658528 
vertex 1.247223167993643 -0.36867635288016354 0.16224602618624762 
endloop
endfacet
facet normal 0.816496580927726 0.0 -0.577350269189626 
outer loop
vertex 0.9907008621667006 -5.551115123125783e-17 -0.20053129776543302 
vertex 1.247223167993643 -0.36867635288016354 0.16224602618624762 
vertex 0.6781015328131477 -0.20044528230033182 -0.6426135089259615 
endloop
endfacet
facet normal 0.8164965809277259 -1.922962686383568e-16 0.5773502691896262 
outer loop
vertex 0.9907008621667006 -5.551115123125783e-17 1.2005312977654332 
vertex 0.6781015328131477 0.20044528230033182 1.6426135089259615 
vertex 1.0467778856933112 -0.5691216351804953 1.1212264105565852 
endloop
endfacet
facet normal 0.8164965809277261 -1.4422220147876747e-16 0.5773502691896256 
outer loop
vertex 0.9907008621667006 -5.551115123125783e-17 1.2005312977654332 
vertex 1.0467778856933112 -0.5691216351804953 1.1212264105565852 
vertex 1.247223167993643 0.3686763528801633 0.8377539738137525 
endloop
endfacet
facet normal 0.816496580927726 2.884444029575351e-16 0.577350269189626 
outer loop
vertex 0.9907008621667006 -5.551115123125783e-17 1.2005312977654332 
vertex 1.247223167993643 0.3686763528801633 0.8377539738137525 
vertex 0.6781015328131477 0.20044528230033182 1.6426135089259615 
endloop
endfacet
facet normal 1.922962686383568e-16 0.8164965809277259 0.5773502691896262 
outer loop
vertex 9.251858538542972e-17 0.9907008621667006 1.2005312977654332 
vertex -0.2004452823003318 0.6781015328131477 1.6426135089259615 
vertex 0.5691216351804953 1.0467778856933112 1.1212264105565852 
endloop
endfacet
facet normal 1.2018516789897288e-16 0.816496580927726 0.5773502691896255 
outer loop
vertex 9.251858538542972e-17 0.9907008621667006 1.2005312977654332 
vertex 0.5691216351804953 1.0467778856933112 1.1212264105565852 
vertex -0.36867635288016326 1.247223167993643 0.8377539738137524 
endloop
endfacet
facet normal -3.845925372767134e-16 0.816496580927726 0.5773502691896258 
outer loop
vertex 9.251858538542972e-17 0.9907008621667006 1.2005312977654332 
vertex -0.36867635288016326 1.247223167993643 0.8377539738137524 
vertex -0.2004452823003318 0.6781015328131477 1.6426135089259615 
endloop
endfacet
facet normal -0.8164965809277259 1.9229626863835678e-16 0.5773502691896261 
outer loop
vertex -0.9907008621667006 1.295260195396016e-16 1.2005312977654332 
vertex -0.6781015328131477 -0.20044528230033173 1.6426135089259615 
vertex -1.0467778856933112 0.5691216351804954 1.1212264105565852 
endloop
endfacet
facet normal -0.8164965809277261 1.2018516789897288e-16 0.5773502691896255 
outer loop
vertex -0.9907008621667006 1.295260195396016e-16 1.2005312977654332 
vertex -1.0467778856933112 0.5691216351804954 1.1212264105565852 
vertex -1.247223167993643 -0.36867635288016326 0.8377539738137524 
endloop
endfacet
facet normal -0.816496580927726 -3.845925372767134e-16 0.5773502691896258 
outer loop
vertex -0.9907008621667006 1.295260195396016e-16 1.2005312977654332 
vertex -1.247223167993643 -0.36867635288016326 0.8377539738137524 
vertex -0.6781015328131477 -0.20044528230033173 1.6426135089259615 
endloop
endfacet
facet normal -1.9229626863835685e-16 -0.8164965809277258 0.5773502691896263 
outer loop
vertex -1.4802973661668753e-16 -0.9907008621667006 1.2005312977654332 
vertex 0.20044528230033168 -0.6781015328131477 1.6426135089259615 
vertex -0.5691216351804953 -1.0467778856933112 1.1212264105565852 
endloop
endfacet
facet normal -1.2018516789897288e-16 -0.816496580927726 0.5773502691896255 
outer loop
vertex -1.4802973661668753e-16 -0.9907008621667006 1.2005312977654332 
vertex -0.5691216351804953 -1.0467778856933112 1.1212264105565852 
vertex 0.3686763528801632 -1.247223167993643 0.8377539738137524 
endloop
endfacet
facet normal 3.845925372767134e-16 -0.816496580927726 0.5773502691896258 
outer loop
vertex -1.4802973661668753e-16 -0.9907008621667006 1.2005312977654332 
vertex 0.3686763528801632 -1.247223167993643 0.8377539738137524 
vertex 0.20044528230033168 -0.6781015328131477 1.6426135089259615 
endloop
endfacet
facet normal -0.44392021995105135 -0.6852747660502879 -0.5773502691896257 
outer loop
vertex -0.5386331736246023 -0.8314821119957619 -0.20053129776543308 
vertex -0.20044528230033193 -0.6781015328131477 -0.6426135089259615 
vertex -0.36867635288016354 -1.247223167993643 0.1622460261862476 
endloop
endfacet
facet normal -0.44392021995105174 -0.6852747660502878 -0.5773502691896256 
outer loop
vertex -0.5386331736246023 -0.8314821119957619 -0.20053129776543308 
vertex -0.36867635288016354 -1.247223167993643 0.1622460261862476 
vertex -1.0467778856933112 -0.5691216351804951 -0.12122641055658534 
endloop
endfacet
facet normal -0.44392021995105163 -0.6852747660502878 -0.5773502691896258 
outer loop
vertex -0.5386331736246023 -0.8314821119957619 -0.20053129776543308 
vertex -1.0467778856933112 -0.5691216351804951 -0.12122641055658534 
vertex -0.20044528230033193 -0.6781015328131477 -0.6426135089259615 
endloop
endfacet
facet normal -0.5289255635134811 -0.28757101741424457 -0.7984614318833958 
outer loop
vertex -0.6417749002689302 -0.34892596189777025 -0.46881780946950274 
vertex -1.0467778856933112 -0.5691216351804951 -0.12122641055658534 
vertex -0.6781015328131477 0.2004452823003319 -0.6426135089259615 
endloop
endfacet
facet normal -0.5289255635134812 -0.2875710174142446 -0.7984614318833957 
outer loop
vertex -0.6417749002689302 -0.34892596189777025 -0.46881780946950274 
vertex -0.6781015328131477 0.2004452823003319 -0.6426135089259615 
vertex -0.20044528230033193 -0.6781015328131477 -0.6426135089259615 
endloop
endfacet
facet normal -0.5289255635134812 -0.28757101741424457 -0.7984614318833957 
outer loop
vertex -0.6417749002689302 -0.34892596189777025 -0.46881780946950274 
vertex -0.20044528230033193 -0.6781015328131477 -0.6426135089259615 
vertex -1.0467778856933112 -0.5691216351804951 -0.12122641055658534 
endloop
endfacet
facet normal 0.2875710174142445 -0.528925563513481 -0.7984614318833958 
outer loop
vertex 0.34892596189777025 -0.6417749002689302 -0.46881780946950274 
vertex 0.5691216351804951 -1.0467778856933112 -0.12122641055658534 
vertex -0.20044528230033193 -0.6781015328131477 -0.6426135089259615 
endloop
endfacet
facet normal 0.2875710174142447 -0.5289255635134812 -0.7984614318833958 
outer loop
vertex 0.34892596189777025 -0.6417749002689302 -0.46881780946950274 
vertex -0.20044528230033193 -0.6781015328131477 -0.6426135089259615 
vertex 0.6781015328131477 -0.20044528230033182 -0.6426135089259615 
endloop
endfacet
facet normal 0.2875710174142445 -0.5289255635134811 -0.7984614318833958 
outer loop
vertex 0.34892596189777025 -0.6417749002689302 -0.46881780946950274 
vertex 0.6781015328131477 -0.20044528230033182 -0.6426135089259615 
vertex 0.5691216351804951 -1.0467778856933112 -0.12122641055658534 
endloop
endfacet
facet normal 0.6852747660502879 -0.4439202199510515 -0.5773502691896258 
outer loop
vertex 0.8314821119957619 -0.5386331736246022 -0.20053129776543308 
vertex 0.6781015328131477 -0.20044528230033182 -0.6426135089259615 
vertex 1.247223167993643 -0.36867635288016354 0.16224602618624762 
endloop
endfacet
facet normal 0.6852747660502877 -0.4439202199510517 -0.5773502691896256 
outer loop
vertex 0.8314821119957619 -0.5386331736246022 -0.20053129776543308 
vertex 1.247223167993643 -0.36867635288016354 0.16224602618624762 
vertex 0.5691216351804951 -1.0467778856933112 -0.12122641055658534 
endloop
endfacet
facet normal 0.6852747660502877 -0.4439202199510516 -0.577350269189626 
outer loop
vertex 0.8314821119957619 -0.5386331736246022 -0.20053129776543308 
vertex 0.5691216351804951 -1.0467778856933112 -0.12122641055658534 
vertex 0.6781015328131477 -0.20044528230033182 -0.6426135089259615 
endloop
endfacet
facet normal 0.15634920253680684 -0.9728457834645327 -0.170663436216971 
outer loop
vertex 0.18970721172683158 -1.1804080738935323 0.29292452981447153 
vertex -0.36867635288016354 -1.247223167993643 0.1622460261862476 
vertex 0.5691216351804951 -1.0467778856933112 -0.12122641055658534 
endloop
endfacet
facet normal 0.15634920253680656 -0.9728457834645327 -0.17066343621697128 
outer loop
vertex 0.18970721172683158 -1.1804080738935323 0.29292452981447153 
vertex 0.5691216351804951 -1.0467778856933112 -0.12122641055658534 
vertex 0.3686763528801632 -1.247223167993643 0.8377539738137524 
endloop
endfacet
facet normal 0.15634920253680687 -0.9728457834645327 -0.17066343621697136 
outer loop
vertex 0.18970721172683158 -1.1804080738935323 0.29292452981447153 
vertex 0.3686763528801632 -1.247223167993643 0.8377539738137524 
vertex -0.36867635288016354 -1.247223167993643 0.1622460261862476 
endloop
endfacet
facet normal -0.15634920253680687 -0.9728457834645327 0.17066343621697108 
outer loop
vertex -0.1897072117268319 -1.1804080738935323 0.7070754701855284 
vertex 0.3686763528801632 -1.247223167993643 0.8377539738137524 
vertex -0.5691216351804953 -1.0467778856933112 1.1212264105565852 
endloop
endfacet
facet normal -0.15634920253680654 -0.9728457834645327 0.17066343621697128 
outer loop
vertex -0.1897072117268319 -1.1804080738935323 0.7070754701855284 
vertex -0.5691216351804953 -1.0467778856933112 1.1212264105565852 
vertex -0.36867635288016354 -1.247223167993643 0.1622460261862476 
endloop
endfacet
facet normal -0.15634920253680695 -0.9728457834645327 0.17066343621697147 
outer loop
vertex -0.1897072117268319 -1.1804080738935323 0.7070754701855284 
vertex -0.36867635288016354 -1.247223167993643 0.1622460261862476 
vertex 0.3686763528801632 -1.247223167993643 0.8377539738137524 
endloop
endfacet
facet normal -0.6852747660502879 0.44392021995105135 -0.5773502691896257 
outer loop
vertex -0.8314821119957619 0.5386331736246023 -0.20053129776543308 
vertex -0.6781015328131477 0.2004452823003319 -0.6426135089259615 
vertex -1.247223167993643 0.36867635288016365 0.16224602618624762 
endloop
endfacet
facet normal -0.6852747660502878 0.44392021995105185 -0.5773502691896256 
outer loop
vertex -0.8314821119957619 0.5386331736246023 -0.20053129776543308 
vertex -1.247223167993643 0.36867635288016365 0.16224602618624762 
vertex -0.5691216351804951 1.0467778856933112 -0.12122641055658531 
endloop
endfacet
facet normal -0.6852747660502876 0.44392021995105163 -0.577350269189626 
outer loop
vertex -0.8314821119957619 0.5386331736246023 -0.20053129776543308 
vertex -0.5691216351804951 1.0467778856933112 -0.12122641055658531 
vertex -0.6781015328131477 0.2004452823003319 -0.6426135089259615 
endloop
endfacet
facet normal -0.28757101741424457 0.5289255635134811 -0.7984614318833958 
outer loop
vertex -0.34892596189777025 0.6417749002689302 -0.46881780946950274 
vertex -0.5691216351804951 1.0467778856933112 -0.12122641055658531 
vertex 0.20044528230033187 0.6781015328131477 -0.6426135089259615 
endloop
endfacet
facet normal -0.2875710174142447 0.5289255635134812 -0.7984614318833957 
outer loop
vertex -0.34892596189777025 0.6417749002689302 -0.46881780946950274 
vertex 0.20044528230033187 0.6781015328131477 -0.6426135089259615 
vertex -0.6781015328131477 0.2004452823003319 -0.6426135089259615 
endloop
endfacet
facet normal -0.28757101741424457 0.5289255635134812 -0.7984614318833959 
outer loop
vertex -0.34892596189777025 0.6417749002689302 -0.46881780946950274 
vertex -0.6781015328131477 0.2004452823003319 -0.6426135089259615 
vertex -0.5691216351804951 1.0467778856933112 -0.12122641055658531 
endloop
endfacet
facet normal -0.9728457834645327 -0.1563492025368068 -0.17066343621697103 
outer loop
vertex -1.1804080738935323 -0.18970721172683155 0.29292452981447153 
vertex -1.247223167993643 0.36867635288016365 0.16224602618624762 
vertex -1.0467778856933112 -0.5691216351804951 -0.12122641055658534 
endloop
endfacet
facet normal -0.9728457834645327 -0.15634920253680656 -0.17066343621697133 
outer loop
vertex -1.1804080738935323 -0.18970721172683155 0.29292452981447153 
vertex -1.0467778856933112 -0.5691216351804951 -0.12122641055658534 
vertex -1.247223167993643 -0.36867635288016326 0.8377539738137524 
endloop
endfacet
facet normal -0.9728457834645327 -0.15634920253680687 -0.1706634362169714 
outer loop
vertex -1.1804080738935323 -0.18970721172683155 0.29292452981447153 
vertex -1.247223167993643 -0.36867635288016326 0.8377539738137524 
vertex -1.247223167993643 0.36867635288016365 0.16224602618624762 
endloop
endfacet
facet normal -0.9728457834645327 0.15634920253680684 0.17066343621697105 
outer loop
vertex -1.1804080738935323 0.18970721172683191 0.7070754701855284 
vertex -1.247223167993643 -0.36867635288016326 0.8377539738137524 
vertex -1.0467778856933112 0.5691216351804954 1.1212264105565852 
endloop
endfacet
facet normal -0.9728457834645327 0.15634920253680648 0.1706634362169713 
outer loop
vertex -1.1804080738935323 0.18970721172683191 0.7070754701855284 
vertex -1.0467778856933112 0.5691216351804954 1.1212264105565852 
vertex -1.247223167993643 0.36867635288016365 0.16224602618624762 
endloop
endfacet
facet normal -0.9728457834645327 0.15634920253680695 0.1706634362169715 
outer loop
vertex -1.1804080738935323 0.18970721172683191 0.7070754701855284 
vertex -1.247223167993643 0.36867635288016365 0.16224602618624762 
vertex -1.247223167993643 -0.36867635288016326 0.8377539738137524 
endloop
endfacet
facet normal 0.44392021995105135 0.6852747660502879 -0.5773502691896257 
outer loop
vertex 0.5386331736246023 0.8314821119957619 -0.20053129776543308 
vertex 0.20044528230033187 0.6781015328131477 -0.6426135089259615 
vertex 0.3686763528801636 1.247223167993643 0.16224602618624762 
endloop
endfacet
facet normal 0.4439202199510516 0.6852747660502879 -0.5773502691896256 
outer loop
vertex 0.5386331736246023 0.8314821119957619 -0.20053129776543308 
vertex 0.3686763528801636 1.247223167993643 0.16224602618624762 
vertex 1.0467778856933112 0.5691216351804952 -0.12122641055658528 
endloop
endfacet
facet normal 0.44392021995105163 0.6852747660502878 -0.5773502691896257 
outer loop
vertex 0.5386331736246023 0.8314821119957619 -0.20053129776543308 
vertex 1.0467778856933112 0.5691216351804952 -0.12122641055658528 
vertex 0.20044528230033187 0.6781015328131477 -0.6426135089259615 
endloop
endfacet
facet normal 0.5289255635134811 0.2875710174142448 -0.7984614318833959 
outer loop
vertex 0.6417749002689302 0.3489259618977703 -0.46881780946950274 
vertex 1.0467778856933112 0.5691216351804952 -0.12122641055658528 
vertex 0.6781015328131477 -0.20044528230033182 -0.6426135089259615 
endloop
endfacet
facet normal 0.5289255635134812 0.2875710174142447 -0.7984614318833957 
outer loop
vertex 0.6417749002689302 0.3489259618977703 -0.46881780946950274 
vertex 0.6781015328131477 -0.20044528230033182 -0.6426135089259615 
vertex 0.20044528230033187 0.6781015328131477 -0.6426135089259615 
endloop
endfacet
facet normal 0.5289255635134812 0.28757101741424473 -0.7984614318833957 
outer loop
vertex 0.6417749002689302 0.3489259618977703 -0.46881780946950274 
vertex 0.20044528230033187 0.6781015328131477 -0.6426135089259615 
vertex 1.0467778856933112 0.5691216351804952 -0.12122641055658528 
endloop
endfacet
facet normal -0.1563492025368068 0.9728457834645327 -0.17066343621697103 
outer loop
vertex -0.18970721172683158 1.1804080738935323 0.29292452981447153 
vertex 0.3686763528801636 1.247223167993643 0.16224602618624762 
vertex -0.5691216351804951 1.0467778856933112 -0.12122641055658531 
endloop
endfacet
facet normal -0.1563492025368066 0.9728457834645327 -0.17066343621697133 
outer loop
vertex -0.18970721172683158 1.1804080738935323 0.29292452981447153 
vertex -0.5691216351804951 1.0467778856933112 -0.12122641055658531 
vertex -0.36867635288016326 1.247223167993643 0.8377539738137524 
endloop
endfacet
facet normal -0.15634920253680687 0.9728457834645327 -0.1706634362169714 
outer loop
vertex -0.18970721172683158 1.1804080738935323 0.29292452981447153 
vertex -0.36867635288016326 1.247223167993643 0.8377539738137524 
vertex 0.3686763528801636 1.247223167993643 0.16224602618624762 
endloop
endfacet
facet normal 0.15634920253680684 0.9728457834645327 0.170663436216971 
outer loop
vertex 0.1897072117268319 1.1804080738935323 0.7070754701855284 
vertex -0.36867635288016326 1.247223167993643 0.8377539738137524 
vertex 0.5691216351804953 1.0467778856933112 1.1212264105565852 
endloop
endfacet
facet normal 0.1563492025368065 0.9728457834645327 0.17066343621697128 
outer loop
vertex 0.1897072117268319 1.1804080738935323 0.7070754701855284 
vertex 0.5691216351804953 1.0467778856933112 1.1212264105565852 
vertex 0.3686763528801636 1.247223167993643 0.16224602618624762 
endloop
endfacet
facet normal 0.15634920253680692 0.9728457834645327 0.17066343621697147 
outer loop
vertex 0.1897072117268319 1.1804080738935323 0.7070754701855284 
vertex 0.3686763528801636 1.247223167993643 0.16224602618624762 
vertex -0.36867635288016326 1.247223167993643 0.8377539738137524 
endloop
endfacet
facet normal 0.9728457834645327 0.15634920253680681 -0.17066343621697103 
outer loop
vertex 1.1804080738935323 0.18970721172683166 0.2929245298144716 
vertex 1.247223167993643 -0.36867635288016354 0.16224602618624762 
vertex 1.0467778856933112 0.5691216351804952 -0.12122641055658528 
endloop
endfacet
facet normal 0.9728457834645327 0.15634920253680656 -0.17066343621697128 
outer loop
vertex 1.1804080738935323 0.18970721172683166 0.2929245298144716 
vertex 1.0467778856933112 0.5691216351804952 -0.12122641055658528 
vertex 1.247223167993643 0.3686763528801633 0.8377539738137525 
endloop
endfacet
facet normal 0.9728457834645327 0.1563492025368069 -0.1706634362169714 
outer loop
vertex 1.1804080738935323 0.18970721172683166 0.2929245298144716 
vertex 1.247223167993643 0.3686763528801633 0.8377539738137525 
vertex 1.247223167993643 -0.36867635288016354 0.16224602618624762 
endloop
endfacet
facet normal 0.9728457834645327 -0.1563492025368069 0.170663436216971 
outer loop
vertex 1.1804080738935323 -0.18970721172683183 0.7070754701855284 
vertex 1.247223167993643 0.3686763528801633 0.8377539738137525 
vertex 1.0467778856933112 -0.5691216351804953 1.1212264105565852 
endloop
endfacet
facet normal 0.9728457834645327 -0.15634920253680648 0.1706634362169713 
outer loop
vertex 1.1804080738935323 -0.18970721172683183 0.7070754701855284 
vertex 1.0467778856933112 -0.5691216351804953 1.1212264105565852 
vertex 1.247223167993643 -0.36867635288016354 0.16224602618624762 
endloop
endfacet
facet normal 0.9728457834645327 -0.15634920253680698 0.1706634362169715 
outer loop
vertex 1.1804080738935323 -0.18970721172683183 0.7070754701855284 
vertex 1.247223167993643 -0.36867635288016354 0.16224602618624762 
vertex 1.247223167993643 0.3686763528801633 0.8377539738137525 
endloop
endfacet
facet normal 0.685274766050288 0.44392021995105146 0.5773502691896257 
outer loop
vertex 0.8314821119957619 0.5386331736246021 1.2005312977654332 
vertex 0.6781015328131477 0.20044528230033182 1.6426135089259615 
vertex 1.247223167993643 0.3686763528801633 0.8377539738137525 
endloop
endfacet
facet normal 0.685274766050288 0.4439202199510516 0.5773502691896256 
outer loop
vertex 0.8314821119957619 0.5386331736246021 1.2005312977654332 
vertex 1.247223167993643 0.3686763528801633 0.8377539738137525 
vertex 0.5691216351804953 1.0467778856933112 1.1212264105565852 
endloop
endfacet
facet normal 0.6852747660502877 0.44392021995105146 0.5773502691896258 
outer loop
vertex 0.8314821119957619 0.5386331736246021 1.2005312977654332 
vertex 0.5691216351804953 1.0467778856933112 1.1212264105565852 
vertex 0.6781015328131477 0.20044528230033182 1.6426135089259615 
endloop
endfacet
facet normal 0.2875710174142445 0.5289255635134813 0.7984614318833958 
outer loop
vertex 0.3489259618977704 0.6417749002689302 1.4688178094695028 
vertex 0.5691216351804953 1.0467778856933112 1.1212264105565852 
vertex -0.2004452823003318 0.6781015328131477 1.6426135089259615 
endloop
endfacet
facet normal 0.28757101741424457 0.5289255635134809 0.7984614318833959 
outer loop
vertex 0.3489259618977704 0.6417749002689302 1.4688178094695028 
vertex -0.2004452823003318 0.6781015328131477 1.6426135089259615 
vertex 0.6781015328131477 0.20044528230033182 1.6426135089259615 
endloop
endfacet
facet normal 0.2875710174142449 0.5289255635134812 0.7984614318833957 
outer loop
vertex 0.3489259618977704 0.6417749002689302 1.4688178094695028 
vertex 0.6781015328131477 0.20044528230033182 1.6426135089259615 
vertex 0.5691216351804953 1.0467778856933112 1.1212264105565852 
endloop
endfacet
facet normal 0.5289255635134813 -0.2875710174142445 0.7984614318833958 
outer loop
vertex 0.6417749002689302 -0.3489259618977704 1.4688178094695028 
vertex 1.0467778856933112 -0.5691216351804953 1.1212264105565852 
vertex 0.6781015328131477 0.20044528230033182 1.6426135089259615 
endloop
endfacet
facet normal 0.5289255635134807 -0.2875710174142446 0.798461431883396 
outer loop
vertex 0.6417749002689302 -0.3489259618977704 1.4688178094695028 
vertex 0.6781015328131477 0.20044528230033182 1.6426135089259615 
vertex 0.20044528230033168 -0.6781015328131477 1.6426135089259615 
endloop
endfacet
facet normal 0.5289255635134811 -0.28757101741424507 0.7984614318833956 
outer loop
vertex 0.6417749002689302 -0.3489259618977704 1.4688178094695028 
vertex 0.20044528230033168 -0.6781015328131477 1.6426135089259615 
vertex 1.0467778856933112 -0.5691216351804953 1.1212264105565852 
endloop
endfacet
facet normal 0.44392021995105146 -0.685274766050288 0.5773502691896257 
outer loop
vertex 0.5386331736246021 -0.8314821119957619 1.200531297765433 
vertex 0.20044528230033168 -0.6781015328131477 1.6426135089259615 
vertex 0.3686763528801632 -1.247223167993643 0.8377539738137524 
endloop
endfacet
facet normal 0.44392021995105135 -0.6852747660502879 0.5773502691896257 
outer loop
vertex 0.5386331736246021 -0.8314821119957619 1.200531297765433 
vertex 0.3686763528801632 -1.247223167993643 0.8377539738137524 
vertex 1.0467778856933112 -0.5691216351804953 1.1212264105565852 
endloop
endfacet
facet normal 0.44392021995105135 -0.685274766050288 0.5773502691896256 
outer loop
vertex 0.5386331736246021 -0.8314821119957619 1.200531297765433 
vertex 1.0467778856933112 -0.5691216351804953 1.1212264105565852 
vertex 0.20044528230033168 -0.6781015328131477 1.6426135089259615 
endloop
endfacet
facet normal -0.4439202199510516 0.6852747660502879 0.5773502691896256 
outer loop
vertex -0.5386331736246021 0.8314821119957619 1.200531297765433 
vertex -0.2004452823003318 0.6781015328131477 1.6426135089259615 
vertex -0.36867635288016326 1.247223167993643 0.8377539738137524 
endloop
endfacet
facet normal -0.44392021995105124 0.685274766050288 0.5773502691896258 
outer loop
vertex -0.5386331736246021 0.8314821119957619 1.200531297765433 
vertex -0.36867635288016326 1.247223167993643 0.8377539738137524 
vertex -1.0467778856933112 0.5691216351804954 1.1212264105565852 
endloop
endfacet
facet normal -0.44392021995105124 0.6852747660502883 0.5773502691896255 
outer loop
vertex -0.5386331736246021 0.8314821119957619 1.200531297765433 
vertex -1.0467778856933112 0.5691216351804954 1.1212264105565852 
vertex -0.2004452823003318 0.6781015328131477 1.6426135089259615 
endloop
endfacet
facet normal -0.5289255635134812 0.28757101741424457 0.7984614318833958 
outer loop
vertex -0.6417749002689302 0.3489259618977704 1.4688178094695028 
vertex -1.0467778856933112 0.5691216351804954 1.1212264105565852 
vertex -0.6781015328131477 -0.20044528230033173 1.6426135089259615 
endloop
endfacet
facet normal -0.528925563513481 0.2875710174142446 0.7984614318833959 
outer loop
vertex -0.6417749002689302 0.3489259618977704 1.4688178094695028 
vertex -0.6781015328131477 -0.20044528230033173 1.6426135089259615 
vertex -0.2004452823003318 0.6781015328131477 1.6426135089259615 
endloop
endfacet
facet normal -0.5289255635134811 0.28757101741424496 0.7984614318833957 
outer loop
vertex -0.6417749002689302 0.3489259618977704 1.4688178094695028 
vertex -0.2004452823003318 0.6781015328131477 1.6426135089259615 
vertex -1.0467778856933112 0.5691216351804954 1.1212264105565852 
endloop
endfacet
facet normal -0.6852747660502879 -0.44392021995105163 0.5773502691896257 
outer loop
vertex -0.8314821119957619 -0.5386331736246021 1.200531297765433 
vertex -0.6781015328131477 -0.20044528230033173 1.6426135089259615 
vertex -1.247223167993643 -0.36867635288016326 0.8377539738137524 
endloop
endfacet
facet normal -0.685274766050288 -0.44392021995105146 0.5773502691896257 
outer loop
vertex -0.8314821119957619 -0.5386331736246021 1.200531297765433 
vertex -1.247223167993643 -0.36867635288016326 0.8377539738137524 
vertex -0.5691216351804953 -1.0467778856933112 1.1212264105565852 
endloop
endfacet
facet normal -0.685274766050288 -0.44392021995105135 0.5773502691896256 
outer loop
vertex -0.8314821119957619 -0.5386331736246021 1.200531297765433 
vertex -0.5691216351804953 -1.0467778856933112 1.1212264105565852 
vertex -0.6781015328131477 -0.20044528230033173 1.6426135089259615 
endloop
endfacet
facet normal -0.28757101741424457 -0.5289255635134812 0.7984614318833957 
outer loop
vertex -0.3489259618977704 -0.6417749002689302 1.4688178094695028 
vertex -0.5691216351804953 -1.0467778856933112 1.1212264105565852 
vertex 0.20044528230033168 -0.6781015328131477 1.6426135089259615 
endloop
endfacet
facet normal -0.2875710174142446 -0.5289255635134809 0.7984614318833959 
outer loop
vertex -0.3489259618977704 -0.6417749002689302 1.4688178094695028 
vertex 0.20044528230033168 -0.6781015328131477 1.6426135089259615 
vertex -0.6781015328131477 -0.20044528230033173 1.6426135089259615 
endloop
endfacet
facet normal -0.287571017414245 -0.5289255635134812 0.7984614318833957 
outer loop
vertex -0.3489259618977704 -0.6417749002689302 1.4688178094695028 
vertex -0.6781015328131477 -0.20044528230033173 1.6426135089259615 
vertex -0.5691216351804953 -1.0467778856933112 1.1212264105565852 
endloop
endfacet
endsolid test
