solid unit-regular-tetrahedron
facet normal 0.0 0.0 -1.0 
outer loop
vertex 0.5773502691896258 0.0 0.0 
vertex -0.2886751345948128 -0.5000000000000001 0.0 
vertex -0.2886751345948132 0.4999999999999999 0.0 
endloop
endfacet
facet normal 0.4714045207910318 -0.8164965809277259 0.3333333333333335 
outer loop
vertex -0.2886751345948128 -0.5000000000000001 0.0 
vertex 0.5773502691896258 0.0 0.0 
vertex -1.8503717077085938e-17 0.0 0.8164965809277259 
endloop
endfacet
facet normal -0.9428090415820632 -3.663549070262141e-16 0.33333333333333354 
outer loop
vertex -0.2886751345948132 0.4999999999999999 0.0 
vertex -0.2886751345948128 -0.5000000000000001 0.0 
vertex -1.8503717077085938e-17 0.0 0.8164965809277259 
endloop
endfacet
facet normal 0.4714045207910314 0.8164965809277261 0.33333333333333326 
outer loop
vertex 0.5773502691896258 0.0 0.0 
vertex -0.2886751345948132 0.4999999999999999 0.0 
vertex -1.8503717077085938e-17 0.0 0.8164965809277259 
endloop
endfacet
endsolid unit-regular-tetrahedron
