solid unit-cube
facet normal 0.0 0.0 -1.0 
outer loop
vertex -1.29893408435324e-16 -0.7071067811865476 0.0 
vertex -0.7071067811865476 8.659560562354934e-17 0.0 
vertex 4.329780281177467e-17 0.7071067811865476 0.0 
endloop
endfacet
facet normal 0.0 -0.0 -1.0 
outer loop
vertex -1.29893408435324e-16 -0.7071067811865476 0.0 
vertex 4.329780281177467e-17 0.7071067811865476 0.0 
vertex 0.7071067811865476 0.0 0.0 
endloop
endfacet
facet normal 0.0 0.0 1.0 
outer loop
vertex 0.7071067811865476 0.0 1.0 
vertex 4.329780281177467e-17 0.7071067811865476 1.0 
vertex -0.7071067811865476 8.659560562354934e-17 1.0 
endloop
endfacet
facet normal 0.0 0.0 1.0 
outer loop
vertex 0.7071067811865476 0.0 1.0 
vertex -0.7071067811865476 8.659560562354934e-17 1.0 
vertex -1.29893408435324e-16 -0.7071067811865476 1.0 
endloop
endfacet
facet normal -0.7071067811865477 -0.7071067811865475 0.0 
outer loop
vertex -0.7071067811865476 8.659560562354934e-17 0.0 
vertex -1.29893408435324e-16 -0.7071067811865476 0.0 
vertex -1.29893408435324e-16 -0.7071067811865476 1.0 
endloop
endfacet
facet normal -0.7071067811865477 -0.7071067811865475 0.0 
outer loop
vertex -0.7071067811865476 8.659560562354934e-17 0.0 
vertex -1.29893408435324e-16 -0.7071067811865476 1.0 
vertex -0.7071067811865476 8.659560562354934e-17 1.0 
endloop
endfacet
facet normal -0.7071067811865475 0.7071067811865476 0.0 
outer loop
vertex 4.329780281177467e-17 0.7071067811865476 0.0 
vertex -0.7071067811865476 8.659560562354934e-17 0.0 
vertex -0.7071067811865476 8.659560562354934e-17 1.0 
endloop
endfacet
facet normal -0.7071067811865475 0.7071067811865476 0.0 
outer loop
vertex 4.329780281177467e-17 0.7071067811865476 0.0 
vertex -0.7071067811865476 8.659560562354934e-17 1.0 
vertex 4.329780281177467e-17 0.7071067811865476 1.0 
endloop
endfacet
facet normal 0.7071067811865476 0.7071067811865476 -0.0 
outer loop
vertex 0.7071067811865476 0.0 0.0 
vertex 4.329780281177467e-17 0.7071067811865476 0.0 
vertex 4.329780281177467e-17 0.7071067811865476 1.0 
endloop
endfacet
facet normal 0.7071067811865476 0.7071067811865476 0.0 
outer loop
vertex 0.7071067811865476 0.0 0.0 
vertex 4.329780281177467e-17 0.7071067811865476 1.0 
vertex 0.7071067811865476 0.0 1.0 
endloop
endfacet
facet normal 0.7071067811865475 -0.7071067811865476 0.0 
outer loop
vertex -1.29893408435324e-16 -0.7071067811865476 0.0 
vertex 0.7071067811865476 0.0 0.0 
vertex 0.7071067811865476 0.0 1.0 
endloop
endfacet
facet normal 0.7071067811865475 -0.7071067811865476 0.0 
outer loop
vertex -1.29893408435324e-16 -0.7071067811865476 0.0 
vertex 0.7071067811865476 0.0 1.0 
vertex -1.29893408435324e-16 -0.7071067811865476 1.0 
endloop
endfacet
endsolid unit-cube
