solid unit-regular-octahedron
facet normal 0.5773502691896256 -0.5773502691896256 0.577350269189626 
outer loop
vertex 4.329780281177467e-17 -0.7071067811865476 0.0 
vertex 0.7071067811865476 0.0 0.0 
vertex 0.0 1.1371144305660286e-16 0.7071067811865475 
endloop
endfacet
facet normal -0.5773502691896256 -0.5773502691896258 0.577350269189626 
outer loop
vertex -0.7071067811865476 -8.659560562354934e-17 0.0 
vertex 4.329780281177467e-17 -0.7071067811865476 0.0 
vertex 0.0 1.1371144305660286e-16 0.7071067811865475 
endloop
endfacet
facet normal -0.577350269189626 0.5773502691896256 0.5773502691896257 
outer loop
vertex -1.29893408435324e-16 0.7071067811865476 0.0 
vertex -0.7071067811865476 -8.659560562354934e-17 0.0 
vertex 0.0 1.1371144305660286e-16 0.7071067811865475 
endloop
endfacet
facet normal 0.5773502691896257 0.5773502691896258 0.5773502691896257 
outer loop
vertex 0.7071067811865476 0.0 0.0 
vertex -1.29893408435324e-16 0.7071067811865476 0.0 
vertex 0.0 1.1371144305660286e-16 0.7071067811865475 
endloop
endfacet
facet normal -0.5773502691896257 0.5773502691896255 -0.577350269189626 
outer loop
vertex -0.7071067811865476 -8.659560562354934e-17 0.0 
vertex -1.29893408435324e-16 0.7071067811865476 0.0 
vertex -0.0 -1.1371144305660286e-16 -0.7071067811865475 
endloop
endfacet
facet normal -0.5773502691896256 -0.5773502691896258 -0.5773502691896258 
outer loop
vertex 4.329780281177467e-17 -0.7071067811865476 0.0 
vertex -0.7071067811865476 -8.659560562354934e-17 0.0 
vertex -0.0 -1.1371144305660286e-16 -0.7071067811865475 
endloop
endfacet
facet normal 0.5773502691896258 -0.5773502691896258 -0.5773502691896258 
outer loop
vertex 0.7071067811865476 0.0 0.0 
vertex 4.329780281177467e-17 -0.7071067811865476 0.0 
vertex -0.0 -1.1371144305660286e-16 -0.7071067811865475 
endloop
endfacet
facet normal 0.5773502691896256 0.5773502691896257 -0.577350269189626 
outer loop
vertex -1.29893408435324e-16 0.7071067811865476 0.0 
vertex 0.7071067811865476 0.0 0.0 
vertex -0.0 -1.1371144305660286e-16 -0.7071067811865475 
endloop
endfacet
endsolid unit-regular-octahedron
