solid unit-regular-dodecahedron
facet normal 0.0 0.0 -1.0 
outer loop
vertex 0.8506508083520399 0.0 0.0 
vertex 0.2628655560595668 -0.8090169943749473 0.0 
vertex -0.6881909602355867 -0.5000000000000001 0.0 
endloop
endfacet
facet normal 0.0 0.0 -1.0 
outer loop
vertex 0.8506508083520399 0.0 0.0 
vertex -0.6881909602355867 -0.5000000000000001 0.0 
vertex -0.6881909602355868 0.4999999999999999 0.0 
endloop
endfacet
facet normal 0.0 0.0 -1.0 
outer loop
vertex 0.8506508083520399 0.0 0.0 
vertex -0.6881909602355868 0.4999999999999999 0.0 
vertex 0.26286555605956663 0.8090169943749475 0.0 
endloop
endfacet
facet normal 0.7236067977499788 -0.5257311121191337 -0.4472135954999581 
outer loop
vertex 0.42532540417602 -1.3090169943749475 0.8506508083520399 
vertex 0.2628655560595668 -0.8090169943749476 1.1102230246251565e-16 
vertex 0.8506508083520399 -2.9875912917199405e-16 -5.551115123125783e-17 
endloop
endfacet
facet normal 0.7236067977499789 -0.5257311121191337 -0.44721359549995804 
outer loop
vertex 0.42532540417602 -1.3090169943749475 0.8506508083520399 
vertex 0.8506508083520399 -2.9875912917199405e-16 -5.551115123125783e-17 
vertex 1.3763819204711736 -2.563523831405842e-16 0.8506508083520398 
endloop
endfacet
facet normal 0.7236067977499788 -0.5257311121191336 -0.447213595499958 
outer loop
vertex 0.42532540417602 -1.3090169943749475 0.8506508083520399 
vertex 1.3763819204711736 -2.563523831405842e-16 0.8506508083520398 
vertex 1.1135163644116068 -0.8090169943749475 1.3763819204711734 
endloop
endfacet
facet normal -0.2763932022500208 -0.8506508083520402 -0.4472135954999577 
outer loop
vertex -1.1135163644116064 -0.8090169943749475 0.85065080835204 
vertex -0.6881909602355862 -0.5000000000000002 -1.1102230246251565e-16 
vertex 0.26286555605956735 -0.8090169943749475 1.6653345369377348e-16 
endloop
endfacet
facet normal -0.2763932022500208 -0.8506508083520401 -0.44721359549995765 
outer loop
vertex -1.1135163644116064 -0.8090169943749475 0.85065080835204 
vertex 0.26286555605956735 -0.8090169943749475 1.6653345369377348e-16 
vertex 0.4253254041760205 -1.3090169943749472 0.8506508083520405 
endloop
endfacet
facet normal -0.2763932022500208 -0.8506508083520402 -0.4472135954999575 
outer loop
vertex -1.1135163644116064 -0.8090169943749475 0.85065080835204 
vertex 0.4253254041760205 -1.3090169943749472 0.8506508083520405 
vertex -0.4253254041760195 -1.3090169943749472 1.3763819204711742 
endloop
endfacet
facet normal -0.8944271909999159 -1.737773907273091e-16 -0.44721359549995804 
outer loop
vertex -1.1135163644116068 0.8090169943749472 0.85065080835204 
vertex -0.6881909602355867 0.5 0.0 
vertex -0.6881909602355865 -0.5 -5.551115123125783e-17 
endloop
endfacet
facet normal -0.8944271909999159 -2.52513329538389e-16 -0.4472135954999579 
outer loop
vertex -1.1135163644116068 0.8090169943749472 0.85065080835204 
vertex -0.6881909602355865 -0.5 -5.551115123125783e-17 
vertex -1.1135163644116064 -0.8090169943749477 0.85065080835204 
endloop
endfacet
facet normal -0.894427190999916 -2.454864775902808e-16 -0.4472135954999577 
outer loop
vertex -1.1135163644116068 0.8090169943749472 0.85065080835204 
vertex -1.1135163644116064 -0.8090169943749477 0.85065080835204 
vertex -1.3763819204711734 -4.440892098500626e-16 1.3763819204711738 
endloop
endfacet
facet normal -0.27639320225002123 0.8506508083520399 -0.44721359549995776 
outer loop
vertex 0.42532540417601966 1.3090169943749475 0.85065080835204 
vertex 0.26286555605956674 0.8090169943749477 1.1102230246251565e-16 
vertex -0.6881909602355865 0.5000000000000001 0.0 
endloop
endfacet
facet normal -0.2763932022500212 0.8506508083520399 -0.4472135954999578 
outer loop
vertex 0.42532540417601966 1.3090169943749475 0.85065080835204 
vertex -0.6881909602355865 0.5000000000000001 0.0 
vertex -1.1135163644116066 0.8090169943749473 0.8506508083520399 
endloop
endfacet
facet normal -0.2763932022500212 0.85065080835204 -0.44721359549995787 
outer loop
vertex 0.42532540417601966 1.3090169943749475 0.85065080835204 
vertex -1.1135163644116066 0.8090169943749473 0.8506508083520399 
vertex -0.4253254041760204 1.3090169943749472 1.3763819204711736 
endloop
endfacet
facet normal 0.7236067977499789 0.5257311121191339 -0.4472135954999577 
outer loop
vertex 1.3763819204711734 0.0 0.85065080835204 
vertex 0.8506508083520399 1.1102230246251565e-16 -1.1102230246251565e-16 
vertex 0.26286555605956646 0.8090169943749475 -1.1102230246251565e-16 
endloop
endfacet
facet normal 0.7236067977499789 0.5257311121191337 -0.4472135954999577 
outer loop
vertex 1.3763819204711734 0.0 0.85065080835204 
vertex 0.26286555605956646 0.8090169943749475 -1.1102230246251565e-16 
vertex 0.4253254041760195 1.3090169943749475 0.8506508083520401 
endloop
endfacet
facet normal 0.7236067977499789 0.5257311121191338 -0.4472135954999576 
outer loop
vertex 1.3763819204711734 0.0 0.85065080835204 
vertex 0.4253254041760195 1.3090169943749475 0.8506508083520401 
vertex 1.1135163644116062 0.8090169943749475 1.3763819204711738 
endloop
endfacet
facet normal 0.2763932022500211 -0.8506508083520399 0.44721359549995776 
outer loop
vertex 0.42532540417602 -1.3090169943749475 0.8506508083520399 
vertex 1.1135163644116068 -0.8090169943749473 1.3763819204711736 
vertex 0.6881909602355871 -0.4999999999999999 2.2270327288232137 
endloop
endfacet
facet normal 0.2763932022500211 -0.85065080835204 0.44721359549995787 
outer loop
vertex 0.42532540417602 -1.3090169943749475 0.8506508083520399 
vertex 0.6881909602355871 -0.4999999999999999 2.2270327288232137 
vertex -0.26286555605956663 -0.8090169943749475 2.2270327288232137 
endloop
endfacet
facet normal 0.2763932022500211 -0.8506508083520399 0.44721359549995787 
outer loop
vertex 0.42532540417602 -1.3090169943749475 0.8506508083520399 
vertex -0.26286555605956663 -0.8090169943749475 2.2270327288232137 
vertex -0.42532540417602005 -1.3090169943749475 1.3763819204711738 
endloop
endfacet
facet normal -0.7236067977499789 -0.5257311121191336 0.4472135954999581 
outer loop
vertex -1.1135163644116064 -0.8090169943749475 0.85065080835204 
vertex -0.42532540417601955 -1.3090169943749472 1.376381920471174 
vertex -0.2628655560595664 -0.8090169943749468 2.227032728823214 
endloop
endfacet
facet normal -0.7236067977499792 -0.5257311121191331 0.4472135954999581 
outer loop
vertex -1.1135163644116064 -0.8090169943749475 0.85065080835204 
vertex -0.2628655560595664 -0.8090169943749468 2.227032728823214 
vertex -0.8506508083520397 9.43689570931383e-16 2.2270327288232132 
endloop
endfacet
facet normal -0.7236067977499788 -0.5257311121191335 0.44721359549995826 
outer loop
vertex -1.1135163644116064 -0.8090169943749475 0.85065080835204 
vertex -0.8506508083520397 9.43689570931383e-16 2.2270327288232132 
vertex -1.3763819204711734 5.551115123125783e-16 1.3763819204711734 
endloop
endfacet
facet normal -0.7236067977499786 0.5257311121191336 0.4472135954999585 
outer loop
vertex -1.1135163644116068 0.8090169943749472 0.85065080835204 
vertex -1.3763819204711734 -1.1102230246251565e-16 1.3763819204711736 
vertex -0.8506508083520394 -3.3306690738754696e-16 2.227032728823213 
endloop
endfacet
facet normal -0.7236067977499789 0.5257311121191334 0.44721359549995837 
outer loop
vertex -1.1135163644116068 0.8090169943749472 0.85065080835204 
vertex -0.8506508083520394 -3.3306690738754696e-16 2.227032728823213 
vertex -0.26286555605956624 0.809016994374947 2.2270327288232132 
endloop
endfacet
facet normal -0.7236067977499787 0.5257311121191337 0.4472135954999582 
outer loop
vertex -1.1135163644116068 0.8090169943749472 0.85065080835204 
vertex -0.26286555605956624 0.809016994374947 2.2270327288232132 
vertex -0.4253254041760197 1.309016994374947 1.3763819204711734 
endloop
endfacet
facet normal 0.27639320225002095 0.8506508083520399 0.4472135954999582 
outer loop
vertex 0.42532540417601966 1.3090169943749475 0.85065080835204 
vertex -0.4253254041760205 1.309016994374947 1.376381920471174 
vertex -0.2628655560595671 0.8090169943749468 2.2270327288232137 
endloop
endfacet
facet normal 0.2763932022500207 0.85065080835204 0.4472135954999581 
outer loop
vertex 0.42532540417601966 1.3090169943749475 0.85065080835204 
vertex -0.2628655560595671 0.8090169943749468 2.2270327288232137 
vertex 0.6881909602355871 0.49999999999999956 2.2270327288232137 
endloop
endfacet
facet normal 0.2763932022500208 0.85065080835204 0.4472135954999581 
outer loop
vertex 0.42532540417601966 1.3090169943749475 0.85065080835204 
vertex 0.6881909602355871 0.49999999999999956 2.2270327288232137 
vertex 1.113516364411607 0.8090169943749473 1.3763819204711736 
endloop
endfacet
facet normal 0.8944271909999155 -8.755181781546781e-17 0.4472135954999586 
outer loop
vertex 1.3763819204711734 0.0 0.85065080835204 
vertex 1.1135163644116062 0.8090169943749472 1.3763819204711736 
vertex 0.6881909602355858 0.49999999999999967 2.227032728823213 
endloop
endfacet
facet normal 0.8944271909999155 9.930136612989119e-17 0.4472135954999584 
outer loop
vertex 1.3763819204711734 0.0 0.85065080835204 
vertex 0.6881909602355858 0.49999999999999967 2.227032728823213 
vertex 0.6881909602355857 -0.5000000000000004 2.2270327288232132 
endloop
endfacet
facet normal 0.8944271909999155 -1.167357570872903e-16 0.4472135954999584 
outer loop
vertex 1.3763819204711734 0.0 0.85065080835204 
vertex 0.6881909602355857 -0.5000000000000004 2.2270327288232132 
vertex 1.1135163644116062 -0.8090169943749478 1.3763819204711734 
endloop
endfacet
facet normal -7.555296906787487e-16 -5.489244514488467e-16 1.0 
outer loop
vertex -0.8506508083520398 0.0 2.2270327288232137 
vertex -0.26286555605956635 -0.8090169943749472 2.2270327288232137 
vertex 0.6881909602355872 -0.49999999999999956 2.2270327288232146 
endloop
endfacet
facet normal -5.771733246591749e-16 -2.5631644569442663e-31 1.0 
outer loop
vertex -0.8506508083520398 0.0 2.2270327288232137 
vertex 0.6881909602355872 -0.49999999999999956 2.2270327288232146 
vertex 0.6881909602355868 0.5000000000000004 2.2270327288232146 
endloop
endfacet
facet normal -2.8858666232958734e-16 -8.881784197001249e-16 1.0 
outer loop
vertex -0.8506508083520398 0.0 2.2270327288232137 
vertex 0.6881909602355868 0.5000000000000004 2.2270327288232146 
vertex -0.2628655560595667 0.8090169943749478 2.2270327288232146 
endloop
endfacet
endsolid unit-regular-dodecahedron
